<svg width="329" height="487" viewBox="0 0 329 487" fill="none" xmlns="http://www.w3.org/2000/svg">
<path d="M250.085 339.871C250.085 339.871 238.656 269.503 202.884 256.784C167.111 244.065 103.567 243.811 82.4639 143.645C70.1086 85.0033 63.8384 59.5266 60.763 48.4814C59.5634 44.1729 62.7946 39.91 67.2669 39.9164C98.9032 39.9609 202.609 45.0999 236.09 108.97C275.781 184.689 250.085 339.871 250.085 339.871Z" fill="#E9E8E8"/>
<path opacity="0.25" d="M96.1329 63.4869C135.271 87.1346 183.959 132.833 214.531 181.917C218.816 190.148 230.048 207.254 239.583 239.596C247.734 266.532 251.669 295.87 251.613 315.788C251.61 317.047 250.586 318.065 249.327 318.061C247.162 318.055 247.02 315.754 247.052 315.822C245.078 282.179 235.701 241.598 219.248 206.476C198.571 163.44 163.133 124.591 128.008 92.5899L124.424 89.4621C97.3699 65.5223 92.7384 66.1744 94.4127 63.84C94.8081 63.2887 95.5614 63.1437 96.1329 63.4869Z" fill="white"/>
<path d="M325.545 428.732C331.09 430.18 264.834 374.539 227.126 273.671C209.357 226.14 196.753 164.624 163.957 146.595C136.662 131.589 59.9583 160.148 34.9943 170.151C31.8749 171.4 31.6156 175.714 34.5678 177.32C49.1222 185.236 80.7225 204.461 92.6954 227.874C108.477 258.735 143.809 273.225 172.799 273.199C201.79 273.173 218.39 275.491 241.004 317.267C263.618 359.043 309.792 424.618 325.545 428.732Z" fill="#C9C7C7"/>
<path opacity="0.25" d="M74.2661 176.565C107.625 171.23 146.197 179.105 169.965 203.748L172.215 206.103C177.429 211.638 208.837 252.134 228.782 286.941C229.031 287.375 228.881 287.928 228.447 288.177C227.71 288.599 227.137 287.81 227.229 287.871C214.331 268.539 196.529 244.324 182.614 226.338C167.616 206.674 157.22 193.405 130.243 184.154C100.32 174.367 74.3726 178.005 74.4527 178.006C74.0535 178.045 73.6977 177.754 73.6583 177.354C73.62 176.97 73.8904 176.626 74.2661 176.565Z" fill="white"/>
</svg>
