<svg width="23" height="23" viewBox="0 0 23 23" fill="none" xmlns="http://www.w3.org/2000/svg">
<g opacity="0.65">
<path fill-rule="evenodd" clip-rule="evenodd" d="M11.5 19.5098C15.6766 19.5098 19.0625 16.1239 19.0625 11.9473C19.0625 7.77061 15.6766 4.38477 11.5 4.38477C7.32334 4.38477 3.9375 7.77061 3.9375 11.9473C3.9375 16.1239 7.32334 19.5098 11.5 19.5098ZM11.5 21.5723C16.8157 21.5723 21.125 17.263 21.125 11.9473C21.125 6.63153 16.8157 2.32227 11.5 2.32227C6.18426 2.32227 1.875 6.63153 1.875 11.9473C1.875 17.263 6.18426 21.5723 11.5 21.5723ZM9.35528 7.18898C9.94645 6.70338 10.7222 6.41273 11.5 6.41273C13.1736 6.41273 14.7167 7.54063 14.7167 9.35627C14.7167 9.87351 14.6095 10.3799 14.3078 10.8691C14.0213 11.3338 13.6023 11.7119 13.1048 12.0605C12.8057 12.27 12.6569 12.4136 12.5839 12.5115C12.5312 12.5821 12.5312 12.6083 12.5313 12.6333V12.6345C12.5313 13.204 12.0695 13.6658 11.5 13.6658C10.9305 13.6658 10.4688 13.204 10.4688 12.6345C10.4688 11.5418 11.2163 10.8652 11.9214 10.3712C12.306 10.1018 12.4732 9.91477 12.5523 9.78651C12.6163 9.68275 12.6542 9.56838 12.6542 9.35627C12.6542 8.94487 12.3192 8.47523 11.5 8.47523C11.218 8.47523 10.901 8.58837 10.6644 8.78273C10.4342 8.97184 10.3458 9.17705 10.3458 9.35627C10.3458 9.92581 9.88408 10.3875 9.31454 10.3875C8.74499 10.3875 8.28329 9.92581 8.28329 9.35627C8.28329 8.43078 8.75771 7.67984 9.35528 7.18898ZM11.5 17.4473C12.2594 17.4473 12.875 16.8317 12.875 16.0723C12.875 15.3129 12.2594 14.6973 11.5 14.6973C10.7406 14.6973 10.125 15.3129 10.125 16.0723C10.125 16.8317 10.7406 17.4473 11.5 17.4473Z" fill="black"/>
</g>
</svg>
