<svg width="383" height="663" viewBox="0 0 383 663" fill="none" xmlns="http://www.w3.org/2000/svg">
<path d="M289.873 448.693C289.873 448.693 277.924 352.634 230.105 333.608C182.287 314.581 96.2247 311.096 72.6668 174.124C58.8747 93.9342 51.6602 59.0512 48.0486 43.9105C46.6399 38.0044 51.231 32.3793 57.2887 32.6086C100.14 34.2317 240.361 46.3283 282.506 134.657C332.471 239.372 289.873 448.693 289.873 448.693Z" fill="#FFA275"/>
<path opacity="0.5" d="M95.1958 66.0178C147.03 100.043 210.693 164.465 249.646 232.588C255.038 243.969 269.395 267.739 280.688 312.1C290.378 349.058 294.236 389.066 293.161 416.094C293.093 417.803 291.655 419.133 289.949 419.067C287.016 418.952 286.939 415.822 286.979 415.915C285.995 370.161 275.329 314.626 254.803 266.15C228.952 206.724 182.894 152.252 136.916 107.088L132.217 102.666C96.7687 68.8415 90.4618 69.4975 92.8473 66.4124C93.4112 65.6833 94.439 65.5236 95.1958 66.0178Z" fill="white"/>
<path d="M381.67 509.837C388.337 510.935 304.529 452.718 249.375 338.178C223.385 284.203 201.953 213.214 161.494 195.587C127.821 180.916 40.816 222.891 12.5758 237.385C9.04702 239.196 9.20738 244.3 12.8474 245.866C30.7935 253.588 69.9774 272.752 86.5617 298.987C108.421 333.567 151.477 346.753 185.522 343.556C219.566 340.359 239.312 341.273 270.372 387.947C301.431 434.621 362.726 506.719 381.67 509.837Z" fill="#FBD6C0"/>
<path opacity="0.5" d="M59.3745 240.612C97.9738 230.692 144.118 235.742 174.685 262.133L177.581 264.658C184.3 270.599 225.546 314.805 252.72 353.568C253.058 354.052 252.941 354.719 252.459 355.059C251.639 355.636 250.881 354.771 250.995 354.833C233.766 333.501 210.251 306.962 191.973 287.325C172.241 265.832 158.604 251.36 125.927 243.424C89.7335 235.18 59.6546 242.294 59.7486 242.286C59.2841 242.376 58.8345 242.072 58.7453 241.607C58.6595 241.159 58.9398 240.724 59.3745 240.612Z" fill="white"/>
<path d="M367.814 603.221C372.782 604.735 332.998 558.895 322.019 513.876C311.04 468.858 285.983 393.237 237.981 354.355C189.978 315.473 146.309 319.488 100.362 372.077C62.0725 415.901 37.3885 439.049 21.555 445.516C17.6343 447.118 16.4341 452.128 19.117 455.406C33.3968 472.852 71.7957 511.848 121.321 499.05C184.495 482.726 254.034 426.177 284.286 456.364C314.537 486.55 315.216 506.568 319.085 522.888C322.954 539.21 334.941 593.197 367.814 603.221Z" fill="#FF9964"/>
<path opacity="0.5" d="M129.128 424.313C145.122 401.736 173.491 377.115 202.027 375.195C239.417 374.067 268.213 393.678 288.29 427.257C296.372 441.6 300.055 449.378 306.691 467.589C307.22 469.043 305.096 469.917 304.448 468.522C300.545 460.12 296.584 451.298 291.474 442.368C260.574 384.36 218.175 383.905 216.347 382.949C213.32 383.847 191.936 373.422 152.122 405.885C144.697 411.999 137.615 418.709 131.127 425.856L131.091 425.895C130.622 426.412 129.823 426.451 129.307 425.981C128.83 425.546 128.762 424.828 129.128 424.313Z" fill="white"/>
</svg>
