<svg width="768" height="736" viewBox="0 0 768 736" fill="none" xmlns="http://www.w3.org/2000/svg">
<path d="M713.318 144.483C710.652 139.898 707.878 135.404 704.997 130.997C666.446 72.432 602.193 32.3381 539.899 14.185C512.72 6.3433 484.733 1.88199 456.531 0.897024C272.848 -5.91165 205.381 150.678 146.204 191.038C87.0284 231.397 -3.79449 300.375 7.69144 445.239C16.3332 555.391 76.9406 660.71 187.599 708.627C200.1 714.052 212.93 718.629 226.008 722.329C252.494 729.76 279.705 734.089 307.126 735.234C390.8 739.087 458.749 718.227 525.202 665.709C540.654 653.501 556.026 639.733 576.074 638.221C590.643 637.124 604.458 642.538 589.23 657.104C571.32 674.213 591.977 707.879 637.42 684.493C713.318 645.429 744.545 561.154 759.259 475.468C777.251 370.282 768.495 239.553 713.318 144.483Z" fill="url(#paint0_linear_827_26101)"/>
<path d="M14.8777 114.905C15.1256 115.789 15.394 116.661 15.6828 117.523C19.5628 128.985 28.2293 138.327 37.424 143.867C41.4386 146.271 45.7108 148.133 50.15 149.413C79.0486 157.82 95.7475 133.904 106.685 129.39C117.623 124.876 134.679 116.753 138.396 91.7109C141.237 72.6731 135.643 52.4044 119.909 39.9029C118.132 38.4886 116.271 37.2053 114.336 36.061C110.416 33.7542 106.262 31.9452 101.953 30.6683C88.8171 26.7115 77.2328 27.5698 64.675 33.8607C61.7551 35.3229 58.7882 37.053 55.548 36.5182C53.1932 36.1294 51.2072 34.6649 54.1816 32.7937C57.6791 30.5968 55.6876 24.0671 47.5792 26.2426C34.0367 29.8771 25.8563 42.9488 20.2435 56.9118C13.3645 74.0553 9.75457 96.5902 14.8777 114.905Z" fill="#FF6700"/>
<path d="M14.8777 114.905C15.1256 115.789 15.394 116.661 15.6828 117.523C19.5628 128.985 28.2293 138.327 37.424 143.867C41.4386 146.271 45.7108 148.133 50.15 149.413C79.0486 157.82 95.7475 133.904 106.685 129.39C117.623 124.876 134.679 116.753 138.396 91.7109C141.237 72.6731 135.643 52.4044 119.909 39.9029C118.132 38.4886 116.271 37.2053 114.336 36.061C110.416 33.7542 106.262 31.9452 101.953 30.6683C88.8171 26.7115 77.2328 27.5698 64.675 33.8607C61.7551 35.3229 58.7882 37.053 55.548 36.5182C53.1932 36.1294 51.2072 34.6649 54.1816 32.7937C57.6791 30.5968 55.6876 24.0671 47.5792 26.2426C34.0367 29.8771 25.8563 42.9488 20.2435 56.9118C13.3645 74.0553 9.75457 96.5902 14.8777 114.905Z" fill="white" fill-opacity="0.7"/>
<defs>
<linearGradient id="paint0_linear_827_26101" x1="792.148" y1="783.04" x2="231.062" y2="150.163" gradientUnits="userSpaceOnUse">
<stop stop-color="#FB944E"/>
<stop offset="1" stop-color="#FDF2E9"/>
</linearGradient>
</defs>
</svg>
