<svg width="497" height="446" viewBox="0 0 497 446" fill="none" xmlns="http://www.w3.org/2000/svg">
<path d="M77.8362 196.702C98.5994 192.231 169.418 179.11 243.573 189.752C268.409 193.317 290.394 207.779 303.798 229.038C327.95 267.342 362.112 335.625 354.888 406.841L316.982 416.236C316.982 416.236 290.785 331.743 261.3 297.354C261.3 297.354 226.381 377.138 228.146 420.95C228.196 422.188 228.275 423.398 228.385 424.576C232.393 467.44 60.7633 432.575 60.7633 432.575L71.4541 204.257C71.6264 200.577 74.2424 197.476 77.8362 196.702Z" fill="url(#paint0_linear_827_26309)"/>
<path d="M136.887 116.522L131.897 175.839C131.432 181.357 134.271 186.518 138.999 188.728C149.891 193.818 170.805 201.119 193.17 195.76C197.263 194.779 199.93 190.493 199.255 186.118L184.75 92.0977L136.887 116.522Z" fill="url(#paint1_linear_827_26309)"/>
<path d="M203.483 44.6309C203.483 44.6309 214.749 88.46 212.516 110.16C210.283 131.86 212.682 146.557 187.181 146.915C161.68 147.273 142.753 131.537 134.845 108.299C134.845 108.299 122.366 72.4438 128.5 59.5611C134.635 46.6782 203.483 44.6309 203.483 44.6309Z" fill="url(#paint2_linear_827_26309)"/>
<path d="M145.777 94.2513L148.913 94.7536C148.913 94.7536 140.224 66.1132 152.324 63.2636C164.423 60.4139 210.869 58.4226 223.123 43.9786C234.937 30.0542 229.769 8.79589 218.174 1.2217C217.44 0.742422 216.45 0.965801 215.923 1.66747L214.577 3.46314C213.655 4.69281 211.708 4.17231 211.519 2.64577C211.34 1.1977 209.527 0.597218 208.572 1.69895C204.839 6.00743 195.555 12.4987 173.344 13.0352C141.828 13.7958 119.611 22.974 115.733 44.1013C115.487 45.4397 113.937 45.9509 112.903 45.0681C110.863 43.3254 107.35 42.0985 101.867 45.3985C92.3323 51.1373 92.8424 70.0664 108.86 88.1352C109.621 88.9938 109.396 90.3631 108.349 90.8301C104.661 92.4751 98.8553 96.8646 110.657 105.845C122.729 115.031 130.663 115.511 133.732 115.227C134.558 115.15 135.206 114.511 135.286 113.684L137.123 94.7043C137.218 93.7228 138.119 93.0249 139.091 93.1803L145.777 94.2513Z" fill="url(#paint3_linear_827_26309)"/>
<path d="M145.922 98.3067C145.922 98.3067 143.305 71.0425 130.426 76.5072C117.548 81.9716 131.827 106.81 141.084 109.297L145.922 98.3067Z" fill="url(#paint4_linear_827_26309)"/>
<path d="M72.2606 364.45C68.5596 338.254 95.6239 299.745 106.819 285.133C110.021 280.953 111.811 275.843 111.857 270.573C112.185 233.472 99.653 214.091 74.7525 198.092C74.7525 198.092 -18.634 299.187 4.37807 380.367C6.86101 389.127 10.7091 396.654 15.5882 403.122C19.2146 372.534 54.4856 365.861 72.2606 364.45Z" fill="url(#paint5_linear_827_26309)"/>
<path d="M73.9437 354.314L70.5003 353.92C73.419 328.23 95.9088 296.516 105.442 284.072L108.191 286.189C98.8343 298.402 76.766 329.489 73.9437 354.314Z" fill="url(#paint6_linear_827_26309)"/>
<path d="M72.9687 368.077C72.6529 366.901 72.4338 365.684 72.2595 364.449C54.4845 365.861 19.2136 372.533 15.5871 403.121C55.9187 456.589 167.086 437.299 167.086 437.299V416.493C167.086 416.493 81.7089 400.594 72.9687 368.077Z" fill="url(#paint7_linear_827_26309)"/>
<path d="M156.399 431.552C156.399 431.552 172.813 392.729 201.735 406.5C230.657 420.271 228.384 429.283 228.384 429.283L156.399 431.552Z" fill="url(#paint8_linear_827_26309)"/>
<path d="M152.713 439.61C152.943 442.547 155.44 444.782 158.377 444.679L308.25 439.439C310.58 439.357 312.604 437.81 313.299 435.58L317.649 421.627C318.718 418.199 316.278 414.68 312.7 414.49L258.047 411.58C257.551 411.554 257.053 411.595 256.568 411.703L156.999 433.806C154.327 434.4 152.499 436.875 152.713 439.61Z" fill="url(#paint9_linear_827_26309)"/>
<path d="M253.174 434.127L257.298 414.865L313.438 417.55L309.744 433.532L253.174 434.127Z" fill="url(#paint10_linear_827_26309)"/>
<path d="M224.395 226.329C221.218 252.352 206.925 358.084 202.834 388.293C202.258 392.542 205.625 396.279 209.9 396.156L452.368 389.202C455.541 389.111 458.246 386.87 458.934 383.764L496.652 213.499C497.649 208.998 494.075 204.79 489.482 205.059L230.867 220.243C227.524 220.439 224.802 222.997 224.395 226.329Z" fill="url(#paint11_linear_827_26309)"/>
<path d="M321.857 333.575L286.022 435.528L369.348 437.298L376.286 334.188C376.611 329.349 372.608 325.332 367.781 325.653L328.867 328.243C325.677 328.455 322.919 330.552 321.857 333.575Z" fill="url(#paint12_linear_827_26309)"/>
<path d="M252.243 436.979C251.325 439.784 253.41 442.669 256.355 442.669H386.848C389.238 442.669 391.176 440.727 391.176 438.331V432.721C391.176 430.252 389.123 428.281 386.663 428.387L256.17 433.997C254.369 434.074 252.805 435.262 252.243 436.979Z" fill="url(#paint13_linear_827_26309)"/>
<path d="M187.145 125.406C157.928 133.082 135.103 105.534 134.876 105.254L136.661 103.795C136.879 104.062 158.789 130.47 186.561 123.174L187.145 125.406Z" fill="url(#paint14_linear_827_26309)"/>
<path d="M194.525 121.492C195.137 123.167 194.278 125.023 192.607 125.636L187.009 127.69C185.337 128.303 183.487 127.442 182.875 125.767L182.532 124.827C181.92 123.151 182.779 121.296 184.45 120.683L190.048 118.629C191.719 118.016 193.57 118.877 194.182 120.552L194.525 121.492Z" fill="url(#paint15_linear_827_26309)"/>
<path d="M130.328 71.1848C130.328 71.1848 132.375 21.7854 160.98 11.5025C160.98 11.5025 152.019 9.26356 144.057 15.1913C136.094 21.119 118.043 48.5381 123.183 73.806C129.474 74.6184 130.328 71.1848 130.328 71.1848Z" fill="url(#paint16_linear_827_26309)"/>
<path d="M124.786 69.2387C109.104 75.5383 114.874 95.8163 114.874 95.8163C116.435 111.013 122.152 117.641 128.388 120.154C132.649 121.872 137.497 121.214 141.157 118.435C144.817 115.656 146.756 111.157 146.265 106.58C145.821 102.448 145.458 98.509 145.509 97.0772C145.632 93.608 140.467 62.9389 124.786 69.2387Z" fill="url(#paint17_linear_827_26309)"/>
<path d="M127.237 74.1722C123.749 74.2029 120.743 76.6155 119.96 80.0229C114.351 104.41 128.985 116.921 134.909 116.152C141.151 115.341 135.583 85.5439 132.875 78.1396C131.74 75.0368 129.48 74.1525 127.237 74.1722Z" fill="url(#paint18_linear_827_26309)"/>
<path d="M220.839 334.376L218.909 334.132L230.82 239.958C231.567 234.065 236.4 229.531 242.312 229.172L465.796 215.643L465.914 217.589L242.43 231.119C237.449 231.419 233.379 235.239 232.75 240.202L220.839 334.376Z" fill="#C8C8C8"/>
<path d="M215.484 360.979L217.414 361.223L214.851 381.613L212.921 381.369L215.484 360.979Z" fill="#A8A8A8"/>
<defs>
<linearGradient id="paint0_linear_827_26309" x1="4767.23" y1="5072.38" x2="4556.89" y2="4855.83" gradientUnits="userSpaceOnUse">
<stop stop-color="#393939"/>
<stop offset="1" stop-color="#282828"/>
</linearGradient>
<linearGradient id="paint1_linear_827_26309" x1="139.84" y1="272.74" x2="174.999" y2="123.999" gradientUnits="userSpaceOnUse">
<stop stop-color="#FEBBBA"/>
<stop offset="1" stop-color="#FF928E"/>
</linearGradient>
<linearGradient id="paint2_linear_827_26309" x1="145.076" y1="105.3" x2="208.719" y2="88.6776" gradientUnits="userSpaceOnUse">
<stop stop-color="#FEBBBA"/>
<stop offset="1" stop-color="#FF928E"/>
</linearGradient>
<linearGradient id="paint3_linear_827_26309" x1="85.2625" y1="135.454" x2="205.469" y2="-5.86204" gradientUnits="userSpaceOnUse">
<stop stop-color="#262626"/>
<stop offset="1" stop-color="#525252"/>
</linearGradient>
<linearGradient id="paint4_linear_827_26309" x1="141.434" y1="91.3563" x2="205.079" y2="74.734" gradientUnits="userSpaceOnUse">
<stop stop-color="#FEBBBA"/>
<stop offset="1" stop-color="#FF928E"/>
</linearGradient>
<linearGradient id="paint5_linear_827_26309" x1="4538.14" y1="4946.32" x2="4335.68" y2="4737.87" gradientUnits="userSpaceOnUse">
<stop stop-color="#434343"/>
<stop offset="1" stop-color="#232323"/>
</linearGradient>
<linearGradient id="paint6_linear_827_26309" x1="-223.464" y1="-4.88295" x2="382.462" y2="621.56" gradientUnits="userSpaceOnUse">
<stop stop-color="#4E4E4E"/>
<stop offset="1" stop-color="#7A7A7A"/>
</linearGradient>
<linearGradient id="paint7_linear_827_26309" x1="62.7561" y1="334.417" x2="128.908" y2="508.088" gradientUnits="userSpaceOnUse">
<stop stop-color="#FEBBBA"/>
<stop offset="1" stop-color="#FF928E"/>
</linearGradient>
<linearGradient id="paint8_linear_827_26309" x1="144.493" y1="303.28" x2="210.644" y2="476.951" gradientUnits="userSpaceOnUse">
<stop stop-color="#FEBBBA"/>
<stop offset="1" stop-color="#FF928E"/>
</linearGradient>
<linearGradient id="paint9_linear_827_26309" x1="287.471" y1="366.385" x2="253.276" y2="410.329" gradientUnits="userSpaceOnUse">
<stop stop-color="#656565"/>
<stop offset="1" stop-color="#393939"/>
</linearGradient>
<linearGradient id="paint10_linear_827_26309" x1="312.944" y1="386.207" x2="278.749" y2="430.151" gradientUnits="userSpaceOnUse">
<stop stop-color="#444444"/>
<stop offset="1" stop-color="#292929"/>
</linearGradient>
<linearGradient id="paint11_linear_827_26309" x1="342.933" y1="303.976" x2="620.183" y2="135.321" gradientUnits="userSpaceOnUse">
<stop stop-color="#484848"/>
<stop offset="1" stop-color="#0E0E0E"/>
</linearGradient>
<linearGradient id="paint12_linear_827_26309" x1="350.705" y1="426.147" x2="299.855" y2="316.233" gradientUnits="userSpaceOnUse">
<stop stop-color="#3B3B3B"/>
<stop offset="1" stop-color="#5B5B5B"/>
</linearGradient>
<linearGradient id="paint13_linear_827_26309" x1="318.014" y1="414.247" x2="275.61" y2="163.806" gradientUnits="userSpaceOnUse">
<stop stop-color="#363636"/>
<stop offset="1" stop-color="#505050"/>
</linearGradient>
<linearGradient id="paint14_linear_827_26309" x1="140.706" y1="143.589" x2="172.784" y2="99.1547" gradientUnits="userSpaceOnUse">
<stop stop-color="#464646"/>
<stop offset="1" stop-color="#2A2A2A"/>
</linearGradient>
<linearGradient id="paint15_linear_827_26309" x1="194.723" y1="123.159" x2="182.334" y2="123.159" gradientUnits="userSpaceOnUse">
<stop stop-color="#424242"/>
<stop offset="1" stop-color="#232323"/>
</linearGradient>
<linearGradient id="paint16_linear_827_26309" x1="237.235" y1="-13.1147" x2="-45.8661" y2="146.57" gradientUnits="userSpaceOnUse">
<stop stop-color="#484848"/>
<stop offset="1"/>
</linearGradient>
<linearGradient id="paint17_linear_827_26309" x1="81.9044" y1="10.2973" x2="104.779" y2="50.445" gradientUnits="userSpaceOnUse">
<stop stop-color="#292929"/>
<stop offset="1" stop-color="#292929"/>
</linearGradient>
<linearGradient id="paint18_linear_827_26309" x1="130.565" y1="95.2386" x2="57.3961" y2="32.7915" gradientUnits="userSpaceOnUse">
<stop stop-color="#515151"/>
<stop offset="1" stop-color="#494949"/>
</linearGradient>
</defs>
</svg>
