<svg width="16" height="16" viewBox="0 0 16 16" fill="none" xmlns="http://www.w3.org/2000/svg">
<path d="M12.5714 8.2853V11.1424C12.5714 11.8508 12.3199 12.4564 11.817 12.9594C11.314 13.4624 10.7083 13.7139 10 13.7139H2.57143C1.8631 13.7139 1.25744 13.4624 0.754464 12.9594C0.251488 12.4564 0 11.8508 0 11.1424V3.71387C0 3.00553 0.251488 2.39988 0.754464 1.8969C1.25744 1.39393 1.8631 1.14244 2.57143 1.14244H8.85714C8.94048 1.14244 9.00893 1.16922 9.0625 1.2228C9.11607 1.27637 9.14286 1.34482 9.14286 1.42815V1.99958C9.14286 2.08291 9.11607 2.15137 9.0625 2.20494C9.00893 2.25851 8.94048 2.2853 8.85714 2.2853H2.57143C2.17857 2.2853 1.84226 2.42518 1.5625 2.70494C1.28274 2.9847 1.14286 3.32101 1.14286 3.71387V11.1424C1.14286 11.5353 1.28274 11.8716 1.5625 12.1514C1.84226 12.4311 2.17857 12.571 2.57143 12.571H10C10.3929 12.571 10.7292 12.4311 11.0089 12.1514C11.2887 11.8716 11.4286 11.5353 11.4286 11.1424V8.2853C11.4286 8.20196 11.4554 8.13351 11.5089 8.07994C11.5625 8.02637 11.631 7.99958 11.7143 7.99958H12.2857C12.369 7.99958 12.4375 8.02637 12.4911 8.07994C12.5446 8.13351 12.5714 8.20196 12.5714 8.2853ZM16 0.57101V5.14244C16 5.2972 15.9435 5.43113 15.8304 5.54422C15.7173 5.65732 15.5833 5.71387 15.4286 5.71387C15.2738 5.71387 15.1399 5.65732 15.0268 5.54422L13.4554 3.9728L7.63393 9.79422C7.57441 9.85375 7.50595 9.88351 7.42857 9.88351C7.35119 9.88351 7.28274 9.85375 7.22321 9.79422L6.20536 8.77637C6.14583 8.71684 6.11607 8.64839 6.11607 8.57101C6.11607 8.49363 6.14583 8.42518 6.20536 8.36565L12.0268 2.54422L10.4554 0.972795C10.3423 0.8597 10.2857 0.725771 10.2857 0.57101C10.2857 0.416247 10.3423 0.282319 10.4554 0.169224C10.5685 0.0561285 10.7024 -0.000419617 10.8571 -0.000419617H15.4286C15.5833 -0.000419617 15.7173 0.0561285 15.8304 0.169224C15.9435 0.282319 16 0.416247 16 0.57101Z" fill="#333333"/>
</svg>
