<svg width="21" height="1" viewBox="0 0 21 1" fill="none" xmlns="http://www.w3.org/2000/svg">
<path d="M-4.37114e-08 0.447266C-0.276142 0.447266 -0.5 0.671123 -0.5 0.947266C-0.5 1.22341 -0.276142 1.44727 4.37114e-08 1.44727L-4.37114e-08 0.447266ZM21.3536 1.30082C21.5488 1.10555 21.5488 0.788972 21.3536 0.59371L18.1716 -2.58827C17.9763 -2.78353 17.6597 -2.78353 17.4645 -2.58827C17.2692 -2.39301 17.2692 -2.07643 17.4645 -1.88116L20.2929 0.947264L17.4645 3.77569C17.2692 3.97095 17.2692 4.28754 17.4645 4.4828C17.6597 4.67806 17.9763 4.67806 18.1716 4.4828L21.3536 1.30082ZM0 0.947266L4.37114e-08 1.44727L21 1.44726L21 0.947264L21 0.447264L-4.37114e-08 0.447266L0 0.947266Z" fill="white"/>
</svg>
