<svg width="180" height="1" viewBox="0 0 180 1" fill="none" xmlns="http://www.w3.org/2000/svg">
<path d="M180.707 1.65436C181.098 1.26383 181.098 0.630667 180.707 0.240143L174.343 -6.12382C173.953 -6.51434 173.319 -6.51434 172.929 -6.12382C172.538 -5.73329 172.538 -5.10013 172.929 -4.7096L178.586 0.94725L172.929 6.6041C172.538 6.99463 172.538 7.62779 172.929 8.01832C173.319 8.40884 173.953 8.40884 174.343 8.01832L180.707 1.65436ZM0 0.947266L8.74228e-08 1.94727L1 1.94727L1 0.947266L1 -0.0527345L-8.74228e-08 -0.0527344L0 0.947266ZM3 0.947265L3 1.94727L5 1.94727L5 0.947265L5 -0.0527348L3 -0.0527346L3 0.947265ZM7 0.947265L7 1.94727L9 1.94726L9 0.947265L9 -0.0527352L7 -0.052735L7 0.947265ZM11 0.947265L11 1.94726L13 1.94726L13 0.947264L13 -0.0527355L11 -0.0527353L11 0.947265ZM15 0.947264L15 1.94726L17 1.94726L17 0.947264L17 -0.0527359L15 -0.0527357L15 0.947264ZM19 0.947264L19 1.94726L21 1.94726L21 0.947264L21 -0.0527362L19 -0.052736L19 0.947264ZM23 0.947264L23 1.94726L25 1.94726L25 0.947263L25 -0.0527366L23 -0.0527364L23 0.947264ZM27 0.947263L27 1.94726L29 1.94726L29 0.947263L29 -0.0527369L27 -0.0527367L27 0.947263ZM31 0.947263L31 1.94726L33 1.94726L33 0.947263L33 -0.0527373L31 -0.0527371L31 0.947263ZM35 0.947263L35 1.94726L37 1.94726L37 0.947262L37 -0.0527376L35 -0.0527374L35 0.947263ZM39 0.947262L39 1.94726L41 1.94726L41 0.947262L41 -0.052738L39 -0.0527378L39 0.947262ZM43 0.947262L43 1.94726L45 1.94726L45 0.947262L45 -0.0527383L43 -0.0527381L43 0.947262ZM47 0.947262L47 1.94726L49 1.94726L49 0.947261L49 -0.0527387L47 -0.0527385L47 0.947262ZM51 0.947261L51 1.94726L53 1.94726L53 0.947261L53 -0.052739L51 -0.0527388L51 0.947261ZM55 0.947261L55 1.94726L57 1.94726L57 0.947261L57 -0.0527394L55 -0.0527392L55 0.947261ZM59 0.94726L59 1.94726L61 1.94726L61 0.94726L61 -0.0527397L59 -0.0527395L59 0.94726ZM63 0.94726L63 1.94726L65 1.94726L65 0.94726L65 -0.0527401L63 -0.0527399L63 0.94726ZM67 0.94726L67 1.94726L69 1.94726L69 0.94726L69 -0.0527404L67 -0.0527402L67 0.94726ZM71 0.947259L71 1.94726L73 1.94726L73 0.947259L73 -0.0527408L71 -0.0527406L71 0.947259ZM75 0.947259L75 1.94726L77 1.94726L77 0.947259L77 -0.0527411L75 -0.0527409L75 0.947259ZM79 0.947259L79 1.94726L81 1.94726L81 0.947259L81 -0.0527415L79 -0.0527413L79 0.947259ZM83 0.947258L83 1.94726L85 1.94726L85 0.947258L85 -0.0527418L83 -0.0527416L83 0.947258ZM87 0.947258L87 1.94726L89 1.94726L89 0.947258L89 -0.0527422L87 -0.052742L87 0.947258ZM91 0.947258L91 1.94726L93 1.94726L93 0.947257L93 -0.0527425L91 -0.0527423L91 0.947258ZM95 0.947257L95 1.94726L97 1.94726L97 0.947257L97 -0.0527429L95 -0.0527427L95 0.947257ZM99 0.947257L99 1.94726L101 1.94726L101 0.947257L101 -0.0527432L99 -0.052743L99 0.947257ZM103 0.947257L103 1.94726L105 1.94726L105 0.947256L105 -0.0527436L103 -0.0527434L103 0.947257ZM107 0.947256L107 1.94726L109 1.94726L109 0.947256L109 -0.0527439L107 -0.0527437L107 0.947256ZM111 0.947256L111 1.94726L113 1.94726L113 0.947256L113 -0.0527443L111 -0.0527441L111 0.947256ZM115 0.947256L115 1.94726L117 1.94726L117 0.947255L117 -0.0527446L115 -0.0527444L115 0.947256ZM119 0.947255L119 1.94726L121 1.94726L121 0.947255L121 -0.052745L119 -0.0527448L119 0.947255ZM123 0.947255L123 1.94725L125 1.94725L125 0.947255L125 -0.0527453L123 -0.0527451L123 0.947255ZM127 0.947255L127 1.94725L129 1.94725L129 0.947254L129 -0.0527457L127 -0.0527455L127 0.947255ZM131 0.947254L131 1.94725L133 1.94725L133 0.947254L133 -0.052746L131 -0.0527458L131 0.947254ZM135 0.947254L135 1.94725L137 1.94725L137 0.947254L137 -0.0527464L135 -0.0527462L135 0.947254ZM139 0.947253L139 1.94725L141 1.94725L141 0.947253L141 -0.0527467L139 -0.0527465L139 0.947253ZM143 0.947253L143 1.94725L145 1.94725L145 0.947253L145 -0.0527471L143 -0.0527469L143 0.947253ZM147 0.947253L147 1.94725L149 1.94725L149 0.947253L149 -0.0527474L147 -0.0527472L147 0.947253ZM151 0.947252L151 1.94725L153 1.94725L153 0.947252L153 -0.0527478L151 -0.0527476L151 0.947252ZM155 0.947252L155 1.94725L157 1.94725L157 0.947252L157 -0.0527481L155 -0.0527479L155 0.947252ZM159 0.947252L159 1.94725L161 1.94725L161 0.947252L161 -0.0527485L159 -0.0527483L159 0.947252ZM163 0.947251L163 1.94725L165 1.94725L165 0.947251L165 -0.0527488L163 -0.0527486L163 0.947251ZM167 0.947251L167 1.94725L169 1.94725L169 0.947251L169 -0.0527491L167 -0.052749L167 0.947251ZM171 0.947251L171 1.94725L173 1.94725L173 0.947251L173 -0.0527495L171 -0.0527493L171 0.947251ZM175 0.94725L175 1.94725L177 1.94725L177 0.94725L177 -0.0527498L175 -0.0527497L175 0.94725ZM179 0.94725L179 1.94725L180 1.94725L180 0.94725L180 -0.0527501L179 -0.05275L179 0.94725Z" fill="url(#paint0_linear_827_26091)"/>
<defs>
<linearGradient id="paint0_linear_827_26091" x1="4.37114e-08" y1="1.44727" x2="180" y2="1.44725" gradientUnits="userSpaceOnUse">
<stop stop-color="#FFECBD"/>
<stop offset="1" stop-color="#FF6700"/>
</linearGradient>
</defs>
</svg>
