<svg width="697" height="612" viewBox="0 0 697 612" fill="none" xmlns="http://www.w3.org/2000/svg">
<path d="M697.701 597.241C683.122 612.195 669.327 621.839 658.428 629.458C530.313 719.021 378.718 692.914 346.5 686.538C298.924 677.123 206.96 658.925 140.472 582.745C39.8814 467.49 55.5449 285.91 133.57 166.046C147.842 144.121 223.231 22.4312 376.458 2.9161C469.19 -8.89417 577.285 14.9258 655.565 78.8241C819.881 212.953 808.183 483.916 697.701 597.241Z" fill="url(#paint0_linear_167_348)"/>
<path d="M309.209 323.425C309.209 323.425 285.916 257.132 246.091 250.067C206.266 243.002 139.085 252.026 100.82 158.368C78.4184 103.536 67.7324 79.8458 62.7223 69.6273C60.768 65.6413 63.5026 61.0529 68.229 60.4066C101.663 55.8345 212.059 45.669 257.615 102.469C311.623 169.806 309.209 323.425 309.209 323.425Z" fill="#FDE6D8"/>
<path opacity="0.25" d="M102.5 78.9402C147.62 96.0751 206.342 133.116 246.463 176.068C252.301 183.393 266.894 198.278 282.119 228.126C295.022 252.955 303.852 280.718 306.966 299.964C307.163 301.18 306.244 302.313 304.912 302.493C302.624 302.803 302.107 300.601 302.152 300.662C294.708 268.455 278.337 230.626 255.358 199.101C226.656 160.548 183.024 128.192 140.814 102.403L136.529 99.9045C104.131 80.7257 99.3412 82.0309 100.738 79.532C101.068 78.9418 101.841 78.692 102.5 78.9402Z" fill="white"/>
<path d="M403.065 398.233C409.155 398.823 330.27 354.76 274.337 262.856C247.979 219.549 224.848 161.985 187.319 149.359C156.084 138.851 79.5916 177.621 54.8093 190.922C51.7126 192.584 52.1268 196.788 55.5023 197.908C72.1437 203.428 108.601 217.383 124.987 238.245C146.584 265.744 186.229 274.581 216.858 270.327C247.486 266.072 265.396 265.888 295.955 302.93C326.513 339.973 385.764 396.559 403.065 398.233Z" fill="#FDBF95"/>
<path opacity="0.25" d="M97.347 191.358C131.747 181.339 173.763 183.314 202.811 203.641L205.564 205.587C211.957 210.17 251.608 244.689 278.239 275.387C278.571 275.77 278.5 276.326 278.082 276.629C277.37 277.144 276.639 276.466 276.745 276.512C260.032 259.727 237.356 238.944 219.782 223.607C200.796 206.809 187.693 195.514 157.71 190.517C124.528 185.434 97.6893 192.733 97.7741 192.722C97.3585 192.818 96.936 192.589 96.8306 192.209C96.7289 191.843 96.9597 191.472 97.347 191.358Z" fill="white"/>
<path d="M219.562 121.128C219.562 103.108 235.552 88.499 255.277 88.499H558.99C575.745 88.499 589.562 100.496 590.414 115.784L612.832 518.079C613.499 530.043 603.191 540.134 590.081 540.352L241.987 546.132C229.669 546.337 219.563 537.27 219.563 526.013V121.128H219.562Z" fill="url(#paint1_linear_167_348)"/>
<path d="M243.47 108.452C243.433 102.687 248.065 98.9991 255.236 98.9991C297.243 101.388 440.306 106.269 558.224 97.999C563.601 97.6218 568.268 101.344 568.554 106.265L592.061 510.352C592.384 515.893 587.752 520.631 581.69 520.959C532.096 523.64 327.853 534.006 255.003 527.034C250.569 526.61 247.204 523.2 247.177 519.127L243.47 108.452Z" fill="#D3D3D3"/>
<path d="M251.96 112.937C251.924 107.389 256.617 103.84 263.283 103.84C304.192 103.84 437.816 115.959 551.293 108C556.468 107.637 560.959 111.219 561.235 115.955L583.856 504.826C584.166 510.158 579.71 514.718 573.876 515.033C526.149 517.614 329.598 527.589 259.49 520.88C255.224 520.472 251.985 517.19 251.96 513.27L251.96 112.937Z" fill="#ECEAE9"/>
<path opacity="0.58" d="M517.269 168.7H302.197C300.992 168.7 300.016 167.808 300.016 166.708V129.57C300.016 128.47 300.992 127.578 302.197 127.578H517.269C518.474 127.578 519.45 128.47 519.45 129.57V166.707C519.45 167.808 518.474 168.7 517.269 168.7Z" fill="white"/>
<path opacity="0.58" d="M550.182 318.87H276.501C275.824 318.87 275.274 318.369 275.274 317.75V303.321C275.274 302.702 275.823 302.2 276.501 302.2H550.181C550.859 302.2 551.408 302.702 551.408 303.321V317.75C551.408 318.368 550.859 318.87 550.182 318.87Z" fill="white"/>
<path opacity="0.58" d="M550.513 344.59H276.17C275.676 344.59 275.275 344.223 275.275 343.772V328.738C275.275 328.286 275.676 327.92 276.17 327.92H550.513C551.007 327.92 551.408 328.286 551.408 328.738V343.772C551.408 344.223 551.007 344.59 550.513 344.59Z" fill="white"/>
<path opacity="0.58" d="M556.328 491.445H276.584C275.988 491.445 275.504 491.004 275.504 490.459V475.762C275.504 475.217 275.988 474.775 276.584 474.775H556.328C556.924 474.775 557.407 475.217 557.407 475.762V490.459C557.407 491.004 556.924 491.445 556.328 491.445Z" fill="white"/>
<path opacity="0.25" d="M544.482 284.737H281.894C278.238 284.737 275.275 282.029 275.275 278.689V188.861C275.275 185.52 278.238 182.812 281.894 182.812H540.029C543.569 182.812 546.482 185.356 546.642 188.587L551.095 278.415C551.265 281.859 548.255 284.737 544.482 284.737Z" fill="white"/>
<path d="M544.634 285.696H282.048C277.818 285.696 274.377 282.553 274.377 278.689V188.86C274.377 184.996 277.818 181.853 282.048 181.853H540.182C544.293 181.853 547.659 184.792 547.844 188.543L552.297 278.372C552.393 280.301 551.641 282.134 550.18 283.53C548.719 284.927 546.749 285.696 544.634 285.696ZM282.048 183.772C278.977 183.772 276.478 186.055 276.478 188.86V278.689C276.478 281.495 278.977 283.778 282.048 283.778H544.634C546.17 283.778 547.6 283.219 548.662 282.205C549.723 281.19 550.268 279.86 550.199 278.459L545.747 188.63C545.612 185.906 543.167 183.772 540.182 183.772H282.048Z" fill="white"/>
<path opacity="0.25" d="M548.679 464.606H283.901C279.263 464.606 275.504 461.172 275.504 456.935V370.353C275.504 366.116 279.263 362.682 283.901 362.682H545.005C549.516 362.682 553.221 365.938 553.395 370.056L557.069 456.638C557.254 460.988 553.444 464.606 548.679 464.606Z" fill="white"/>
<path d="M548.678 465.566H283.9C278.691 465.566 274.454 461.694 274.454 456.935V370.353C274.454 365.594 278.691 361.722 283.9 361.722H545.005C550.1 361.722 554.247 365.366 554.445 370.018L558.118 456.6C558.219 458.967 557.284 461.211 555.487 462.918C553.689 464.625 551.271 465.566 548.678 465.566ZM283.9 363.641C279.849 363.641 276.554 366.652 276.554 370.353V456.935C276.554 460.636 279.849 463.647 283.9 463.647H548.678C550.694 463.647 552.575 462.915 553.973 461.588C555.37 460.26 556.097 458.516 556.019 456.675L552.346 370.093C552.192 366.475 548.967 363.641 545.005 363.641H283.9Z" fill="white"/>
<path d="M358.121 182.811L356.021 182.843L357.873 284.771L359.974 284.74L358.121 182.811Z" fill="white"/>
<path d="M459.119 182.772L457.02 182.824L460.033 284.745L462.132 284.694L459.119 182.772Z" fill="white"/>
<path d="M276.105 216.267L276.098 218.186L549.6 219.06L549.608 217.141L276.105 216.267Z" fill="white"/>
<path d="M549.607 252.488H276.107V254.407H549.607V252.488Z" fill="white"/>
<path d="M357.395 362.692L356.012 464.614L358.112 464.638L359.495 362.716L357.395 362.692Z" fill="white"/>
<path d="M554.473 386.489H276.107V388.408H554.473V386.489Z" fill="white"/>
<path d="M555.168 409.987H276.107V411.906H555.168V409.987Z" fill="white"/>
<path d="M275.521 435.262L275.495 437.181L556.323 440.388L556.349 438.469L275.521 435.262Z" fill="white"/>
<path d="M423.929 32.0401C414.307 27.1563 404.685 29.0293 398.805 32.04C392.128 35.4586 389.135 41.8567 389.718 47.6676L392.128 70.3676L426.602 71.1097C426.602 71.1097 429.274 55.9702 430.878 47.6676C432.01 41.8075 428.74 34.482 423.929 32.0401ZM410.815 56.946C406.07 56.946 402.223 53.4313 402.223 49.0956C402.223 44.76 406.07 41.2451 410.815 41.2451C415.561 41.2451 419.408 44.76 419.408 49.0956C419.408 53.4313 415.561 56.946 410.815 56.946Z" fill="#E25B00"/>
<path d="M396.664 60.4143C396.239 60.4143 395.877 60.1182 395.837 59.7237L395.376 55.1246C395.334 54.7069 395.671 54.3374 396.128 54.2988C396.594 54.2588 396.99 54.5681 397.032 54.9866L397.493 59.5857C397.535 60.0033 397.198 60.3729 396.741 60.4115C396.715 60.4136 396.689 60.4143 396.664 60.4143ZM395.76 51.4018C395.335 51.4018 394.973 51.1057 394.933 50.7111L394.583 47.2198C394.028 41.6844 397.84 36.5304 403.647 34.9642C407.76 33.8551 411.998 33.6963 416.242 34.4917C416.692 34.5754 416.981 34.9776 416.889 35.3886C416.797 35.7988 416.361 36.0615 415.908 35.9799C411.933 35.2364 407.967 35.384 404.118 36.4212C399.07 37.7827 395.756 42.2659 396.239 47.0816L396.589 50.5729C396.631 50.9906 396.294 51.3601 395.837 51.3987C395.811 51.401 395.786 51.4018 395.76 51.4018Z" fill="#FDE6D8"/>
<path d="M345.096 89.0314V74.5123C345.096 69.5003 349.643 65.486 355.126 65.6577L464.693 69.0874C469.555 69.2396 473.493 72.7462 473.785 77.1834L474.7 91.1341L345.096 89.0314Z" fill="#E25B00"/>
<path d="M385.951 71.1277H381.239C380.78 71.1277 380.408 70.788 380.408 70.3681C380.408 69.9481 380.78 69.6084 381.239 69.6084H385.951C386.41 69.6084 386.783 69.9481 386.783 70.3681C386.783 70.788 386.41 71.1277 385.951 71.1277Z" fill="#FDE6D8"/>
<path d="M351.027 84.4716C350.567 84.4716 350.195 84.1319 350.195 83.7119V77.8384C350.195 73.3001 354.236 69.6084 359.204 69.6084H376.527C376.986 69.6084 377.358 69.9481 377.358 70.3681C377.358 70.788 376.986 71.1277 376.527 71.1277H359.204C355.153 71.1277 351.858 74.1383 351.858 77.8384V83.7119C351.858 84.1317 351.486 84.4716 351.027 84.4716Z" fill="#FDE6D8"/>
<path d="M300.452 92.6969C300.717 87.6693 305.256 83.7169 310.765 83.7167L502.364 83.7119C509.253 83.7117 515.143 88.2412 516.318 94.4434L516.481 95.2992C517.768 102.092 512.043 108.306 504.497 108.306H307.928C303.412 108.306 299.813 104.856 300.03 100.735L300.452 92.6969Z" fill="url(#paint2_linear_167_348)"/>
<path d="M273.785 444.504H154.424C153.777 444.504 153.252 444.025 153.252 443.434V426.461C153.252 425.87 153.777 425.391 154.424 425.391H273.785C274.432 425.391 274.956 425.87 274.956 426.461V443.434C274.956 444.025 274.432 444.504 273.785 444.504Z" fill="url(#paint3_linear_167_348)"/>
<path d="M273.785 444.504H154.424C153.777 444.504 153.252 444.025 153.252 443.434V426.461C153.252 425.87 153.777 425.391 154.424 425.391H273.785C274.432 425.391 274.956 425.87 274.956 426.461V443.434C274.956 444.025 274.432 444.504 273.785 444.504Z" fill="url(#paint4_linear_167_348)"/>
<path d="M273.785 424.236H154.424C153.777 424.236 153.252 423.757 153.252 423.166V406.192C153.252 405.601 153.777 405.122 154.424 405.122H273.785C274.432 405.122 274.956 405.601 274.956 406.192V423.165C274.956 423.757 274.432 424.236 273.785 424.236Z" fill="url(#paint5_linear_167_348)"/>
<path d="M273.785 424.236H154.424C153.777 424.236 153.252 423.757 153.252 423.166V406.192C153.252 405.601 153.777 405.122 154.424 405.122H273.785C274.432 405.122 274.956 405.601 274.956 406.192V423.165C274.956 423.757 274.432 424.236 273.785 424.236Z" fill="url(#paint6_linear_167_348)"/>
<path d="M273.785 465.113H154.424C153.777 465.113 153.252 464.633 153.252 464.042V447.069C153.252 446.478 153.777 445.999 154.424 445.999H273.785C274.432 445.999 274.956 446.478 274.956 447.069V464.042C274.956 464.633 274.432 465.113 273.785 465.113Z" fill="url(#paint7_linear_167_348)"/>
<path d="M273.785 465.113H154.424C153.777 465.113 153.252 464.633 153.252 464.042V447.069C153.252 446.478 153.777 445.999 154.424 445.999H273.785C274.432 445.999 274.956 446.478 274.956 447.069V464.042C274.956 464.633 274.432 465.113 273.785 465.113Z" fill="url(#paint8_linear_167_348)"/>
<path d="M273.785 485.72H154.424C153.777 485.72 153.252 485.241 153.252 484.65V467.677C153.252 467.086 153.777 466.606 154.424 466.606H273.785C274.432 466.606 274.956 467.086 274.956 467.677V484.65C274.956 485.241 274.432 485.72 273.785 485.72Z" fill="url(#paint9_linear_167_348)"/>
<path d="M273.785 485.72H154.424C153.777 485.72 153.252 485.241 153.252 484.65V467.677C153.252 467.086 153.777 466.606 154.424 466.606H273.785C274.432 466.606 274.956 467.086 274.956 467.677V484.65C274.956 485.241 274.432 485.72 273.785 485.72Z" fill="url(#paint10_linear_167_348)"/>
<path d="M273.785 506.328H154.424C153.777 506.328 153.252 505.848 153.252 505.257V488.284C153.252 487.693 153.777 487.214 154.424 487.214H273.785C274.432 487.214 274.956 487.693 274.956 488.284V505.257C274.956 505.848 274.432 506.328 273.785 506.328Z" fill="url(#paint11_linear_167_348)"/>
<path d="M273.785 506.328H154.424C153.777 506.328 153.252 505.848 153.252 505.257V488.284C153.252 487.693 153.777 487.214 154.424 487.214H273.785C274.432 487.214 274.956 487.693 274.956 488.284V505.257C274.956 505.848 274.432 506.328 273.785 506.328Z" fill="url(#paint12_linear_167_348)"/>
<path d="M273.785 526.318H154.424C153.777 526.318 153.252 525.839 153.252 525.248V508.274C153.252 507.683 153.777 507.204 154.424 507.204H273.785C274.432 507.204 274.956 507.683 274.956 508.274V525.248C274.956 525.839 274.432 526.318 273.785 526.318Z" fill="url(#paint13_linear_167_348)"/>
<path d="M273.785 526.318H154.424C153.777 526.318 153.252 525.839 153.252 525.248V508.274C153.252 507.683 153.777 507.204 154.424 507.204H273.785C274.432 507.204 274.956 507.683 274.956 508.274V525.248C274.956 525.839 274.432 526.318 273.785 526.318Z" fill="url(#paint14_linear_167_348)"/>
<path d="M273.785 546.306H154.424C153.777 546.306 153.253 545.827 153.253 545.236V528.263C153.253 527.672 153.777 527.192 154.424 527.192H273.785C274.432 527.192 274.957 527.672 274.957 528.263V545.236C274.957 545.827 274.432 546.306 273.785 546.306Z" fill="url(#paint15_linear_167_348)"/>
<path d="M401.471 485.933H282.11C281.463 485.933 280.938 485.454 280.938 484.863V467.89C280.938 467.299 281.463 466.819 282.11 466.819H401.471C402.118 466.819 402.642 467.299 402.642 467.89V484.863C402.642 485.454 402.118 485.933 401.471 485.933Z" fill="url(#paint16_linear_167_348)"/>
<path d="M401.471 485.933H282.11C281.463 485.933 280.938 485.454 280.938 484.863V467.89C280.938 467.299 281.463 466.819 282.11 466.819H401.471C402.118 466.819 402.642 467.299 402.642 467.89V484.863C402.642 485.454 402.118 485.933 401.471 485.933Z" fill="url(#paint17_linear_167_348)"/>
<path d="M401.471 506.541H282.11C281.463 506.541 280.938 506.061 280.938 505.47V488.497C280.938 487.906 281.463 487.427 282.11 487.427H401.471C402.118 487.427 402.642 487.906 402.642 488.497V505.47C402.642 506.061 402.118 506.541 401.471 506.541Z" fill="url(#paint18_linear_167_348)"/>
<path d="M401.471 506.541H282.11C281.463 506.541 280.938 506.061 280.938 505.47V488.497C280.938 487.906 281.463 487.427 282.11 487.427H401.471C402.118 487.427 402.642 487.906 402.642 488.497V505.47C402.642 506.061 402.118 506.541 401.471 506.541Z" fill="url(#paint19_linear_167_348)"/>
<path d="M401.471 526.53H282.11C281.463 526.53 280.938 526.051 280.938 525.459V508.486C280.938 507.895 281.463 507.416 282.11 507.416H401.471C402.118 507.416 402.642 507.895 402.642 508.486V525.459C402.642 526.051 402.118 526.53 401.471 526.53Z" fill="url(#paint20_linear_167_348)"/>
<path d="M401.471 526.53H282.11C281.463 526.53 280.938 526.051 280.938 525.459V508.486C280.938 507.895 281.463 507.416 282.11 507.416H401.471C402.118 507.416 402.642 507.895 402.642 508.486V525.459C402.642 526.051 402.118 526.53 401.471 526.53Z" fill="url(#paint21_linear_167_348)"/>
<path d="M401.471 546.518H282.11C281.463 546.518 280.938 546.039 280.938 545.448V528.475C280.938 527.883 281.463 527.404 282.11 527.404H401.471C402.118 527.404 402.642 527.884 402.642 528.475V545.448C402.642 546.039 402.118 546.518 401.471 546.518Z" fill="url(#paint22_linear_167_348)"/>
<path d="M401.471 546.518H282.11C281.463 546.518 280.938 546.039 280.938 545.448V528.475C280.938 527.883 281.463 527.404 282.11 527.404H401.471C402.118 527.404 402.642 527.884 402.642 528.475V545.448C402.642 546.039 402.118 546.518 401.471 546.518Z" fill="url(#paint23_linear_167_348)"/>
<path d="M443.835 553.986H652.799V509.491H443.835V553.986Z" fill="#C9570A"/>
<path d="M441.235 551.138H655.532C656.425 551.138 657.15 550.476 657.15 549.659V534.052H440.154V550.15C440.154 550.695 440.638 551.138 441.235 551.138Z" fill="url(#paint24_linear_167_348)"/>
<path d="M441.758 531.739H655.148C656.253 531.739 657.149 530.92 657.149 529.91V514.653H440.154V530.274C440.154 531.083 440.872 531.739 441.758 531.739Z" fill="url(#paint25_linear_167_348)"/>
<path d="M440.154 514.653H657.15V513.299C657.15 510.508 654.674 508.246 651.619 508.246H445.755C442.662 508.246 440.154 510.537 440.154 513.363V514.653Z" fill="#FFD1B2"/>
<path d="M263.804 556.45C270.835 553.326 273.315 544.744 269.343 537.281C265.371 529.818 256.451 526.301 249.42 529.424C242.389 532.548 239.909 541.13 243.882 548.593C247.854 556.056 256.773 559.574 263.804 556.45Z" fill="#FFD1B2"/>
<path d="M260.916 532.909L267.909 546.047C268.225 546.641 269.008 546.888 269.658 546.599L278.242 542.786C278.892 542.497 279.162 541.782 278.846 541.188L271.853 528.05C271.538 527.456 270.755 527.209 270.105 527.498L261.52 531.311C260.871 531.6 260.6 532.315 260.916 532.909Z" fill="#C9570A"/>
<path d="M270.043 526.188C271.335 532.245 274.278 537.655 278.754 542.466C281.172 545.065 285.051 546.229 288.91 545.521C325.796 538.754 403.105 495.1 478.183 456.964C483.159 454.437 486.598 451.569 484.253 447.164L479.075 437.436C476.745 433.058 471.169 435.523 465.936 437.487C386.52 467.297 302.289 493.281 273.373 517.323C270.597 519.631 269.362 522.991 270.043 526.188Z" fill="url(#paint26_linear_167_348)"/>
<path d="M467.133 427.681L484.512 460.333C484.815 460.903 485.567 461.14 486.19 460.863L495.053 456.925C495.677 456.648 495.936 455.962 495.633 455.392L478.254 422.74C477.951 422.171 477.2 421.933 476.576 422.21L467.713 426.148C467.089 426.425 466.83 427.112 467.133 427.681Z" fill="url(#paint27_linear_167_348)"/>
<path d="M545.268 394.712L562.647 427.364C562.95 427.934 563.701 428.171 564.325 427.894L573.188 423.957C573.811 423.68 574.071 422.993 573.768 422.424L556.389 389.772C556.085 389.202 555.334 388.965 554.711 389.242L545.848 393.179C545.224 393.457 544.964 394.143 545.268 394.712Z" fill="#C9570A"/>
<path d="M459.32 395.24L514.864 499.597L592.248 465.217L536.704 360.86L459.32 395.24Z" fill="url(#paint28_linear_167_348)"/>
<path d="M511.935 494.094L518.92 507.218L596.304 472.838L589.319 459.714L511.935 494.094Z" fill="#C9570A"/>
<path d="M515.766 501.29L519.237 507.813C520.299 509.807 522.785 510.808 525.112 510.176C549.234 503.631 572.581 493.432 595.043 479.07C597.01 477.813 597.685 475.433 596.636 473.46L593.149 466.91L515.766 501.29Z" fill="url(#paint29_linear_167_348)"/>
<path d="M509.325 494.032L509.474 494.312C510.21 495.696 512.036 496.272 513.551 495.599L591.009 461.186C592.524 460.513 593.155 458.845 592.418 457.461L592.269 457.182C591.533 455.798 589.707 455.221 588.192 455.895L510.734 490.307C509.219 490.98 508.588 492.648 509.325 494.032Z" fill="#FFD1B2"/>
<path d="M458.87 394.394L451.885 381.27L529.269 346.89L536.254 360.014L458.87 394.394Z" fill="#C9570A"/>
<path d="M455.039 387.197L451.568 380.674C450.506 378.68 451.18 376.275 453.16 374.993C473.691 361.7 496.889 351.22 523.124 343.947C525.421 343.31 527.887 344.294 528.937 346.267L532.423 352.817L455.039 387.197Z" fill="url(#paint30_linear_167_348)"/>
<path d="M455.039 387.197L451.568 380.674C450.506 378.68 451.18 376.275 453.16 374.993C473.691 361.7 496.889 351.22 523.124 343.947C525.421 343.31 527.887 344.294 528.937 346.267L532.423 352.817L455.039 387.197Z" fill="url(#paint31_linear_167_348)"/>
<path d="M457.309 396.307L457.161 396.028C456.424 394.644 457.055 392.976 458.57 392.303L536.028 357.89C537.543 357.217 539.369 357.793 540.105 359.177L540.254 359.457C540.991 360.841 540.36 362.509 538.844 363.182L461.387 397.594C459.872 398.268 458.046 397.691 457.309 396.307Z" fill="#FFD1B2"/>
<path d="M496.636 186.07L497.95 288.947L498.152 304.877C498.232 306.954 496.433 308.715 494.159 308.788L270.454 316.003C268.18 316.077 266.249 314.436 266.169 312.358L265.301 296.451L259.769 194.966C259.689 192.889 262.212 188.748 267.132 188.895L485.562 176.674C488.414 176.517 491.214 177.429 493.307 179.207C495.399 180.983 496.603 183.464 496.636 186.07Z" fill="url(#paint32_linear_167_348)"/>
<path opacity="0.09" d="M492.558 301.839C492.633 303.777 490.92 305.42 488.753 305.49L275.65 312.363C273.482 312.433 271.648 310.905 271.573 308.967L265.564 199.415C265.489 197.477 267.894 193.611 272.581 193.745L480.663 182.205C483.38 182.054 486.045 182.906 488.038 184.562C490.03 186.218 491.174 188.533 491.204 190.967L492.558 301.839Z" fill="#FDE6D8"/>
<path d="M464.788 307.352C464.442 307.352 464.155 307.1 464.143 306.781C464.13 306.455 464.409 306.181 464.766 306.17L488.622 305.401C491.517 305.307 494.258 302.607 494.155 299.948L491.579 233.286C491.566 232.959 491.846 232.686 492.203 232.674C492.553 232.66 492.859 232.917 492.871 233.244L495.447 299.907C495.575 303.221 492.281 306.465 488.667 306.582L464.811 307.351C464.804 307.351 464.796 307.352 464.788 307.352Z" fill="#DEDEDE"/>
<path d="M267.324 241.109C266.977 241.109 266.691 240.858 266.679 240.539L265.135 200.582C265.056 198.558 265.827 196.489 267.249 194.905C268.75 193.233 270.784 192.273 272.976 192.202L291.926 191.591C292.275 191.582 292.583 191.834 292.595 192.161C292.608 192.487 292.329 192.761 291.972 192.772L273.021 193.383C271.206 193.441 269.511 194.248 268.249 195.655C267.024 197.02 266.36 198.8 266.427 200.54L267.971 240.497C267.984 240.824 267.704 241.098 267.347 241.109C267.34 241.109 267.332 241.109 267.324 241.109Z" fill="#DEDEDE"/>
<path d="M321.066 235.655C320.986 233.567 319.067 231.934 316.782 232.007L289.15 232.898C286.865 232.972 285.077 234.725 285.158 236.813L285.9 256.015C285.981 258.103 287.899 259.736 290.184 259.662L317.816 258.771C320.101 258.697 321.889 256.945 321.808 254.856L321.066 235.655Z" fill="url(#paint33_linear_167_348)"/>
<path opacity="0.8" d="M298.265 251.348C297.245 251.348 296.398 250.607 296.361 249.669L296.117 243.333C296.098 242.868 296.279 242.425 296.627 242.085C296.973 241.745 297.444 241.549 297.953 241.532L305.833 241.278C306.912 241.235 307.767 241.997 307.803 242.956L308.048 249.292C308.085 250.251 307.261 251.058 306.213 251.092L298.331 251.346C298.309 251.347 298.287 251.348 298.265 251.348ZM305.9 242.458C305.893 242.458 305.886 242.459 305.878 242.459L297.998 242.713C297.834 242.718 297.683 242.781 297.572 242.89C297.461 243 297.403 243.142 297.409 243.291L297.653 249.627C297.665 249.935 297.949 250.164 298.286 250.166L306.167 249.912C306.503 249.901 306.768 249.641 306.756 249.333L306.511 242.997C306.5 242.696 306.228 242.458 305.9 242.458Z" fill="white"/>
<path d="M285.478 245.71C285.132 245.71 284.845 245.459 284.833 245.14C284.82 244.814 285.099 244.54 285.456 244.529L296.796 244.163C297.124 244.155 297.452 244.406 297.465 244.733C297.478 245.059 297.198 245.333 296.841 245.344L285.501 245.71C285.494 245.71 285.486 245.71 285.478 245.71Z" fill="white"/>
<path d="M285.578 248.3C285.231 248.3 284.945 248.049 284.933 247.73C284.92 247.404 285.199 247.13 285.556 247.119L296.896 246.753C297.243 246.749 297.552 246.996 297.565 247.322C297.578 247.648 297.298 247.922 296.941 247.934L285.601 248.299C285.594 248.3 285.586 248.3 285.578 248.3Z" fill="white"/>
<path d="M309.102 244.948C308.755 244.948 308.469 244.697 308.456 244.378C308.444 244.052 308.723 243.778 309.08 243.767L321.365 243.371C321.696 243.358 322.021 243.614 322.033 243.94C322.046 244.266 321.767 244.54 321.41 244.551L309.125 244.947C309.118 244.948 309.11 244.948 309.102 244.948Z" fill="white"/>
<path d="M309.202 247.538C308.856 247.538 308.569 247.286 308.557 246.968C308.544 246.641 308.823 246.368 309.18 246.356L321.464 245.96C321.814 245.951 322.121 246.203 322.133 246.529C322.146 246.856 321.866 247.129 321.509 247.141L309.226 247.537C309.218 247.537 309.211 247.538 309.202 247.538Z" fill="white"/>
<path d="M299.299 242.712C299.015 242.712 298.755 242.539 298.676 242.277L295.878 232.96C295.783 232.645 295.986 232.32 296.33 232.234C296.673 232.148 297.03 232.333 297.125 232.647L299.923 241.964C300.017 242.279 299.815 242.604 299.471 242.69C299.414 242.705 299.356 242.712 299.299 242.712Z" fill="white"/>
<path d="M305.886 242.499C305.842 242.499 305.798 242.495 305.754 242.487C305.404 242.42 305.18 242.107 305.252 241.788L307.415 232.311C307.488 231.992 307.831 231.787 308.18 231.853C308.53 231.92 308.754 232.233 308.681 232.552L306.519 242.029C306.455 242.308 306.186 242.499 305.886 242.499Z" fill="white"/>
<path d="M297.544 260.344C297.502 260.344 297.459 260.341 297.416 260.333C297.066 260.269 296.839 259.958 296.909 259.638L298.981 250.164C299.051 249.844 299.392 249.636 299.742 249.7C300.092 249.764 300.319 250.075 300.249 250.395L298.177 259.869C298.116 260.15 297.846 260.344 297.544 260.344Z" fill="white"/>
<path d="M309.089 259.972C308.806 259.972 308.547 259.802 308.467 259.542L305.578 250.228C305.481 249.914 305.681 249.587 306.024 249.498C306.367 249.409 306.725 249.592 306.823 249.906L309.711 259.22C309.808 259.534 309.609 259.86 309.265 259.949C309.206 259.965 309.147 259.972 309.089 259.972Z" fill="white"/>
<path d="M319.979 207.529C320.075 210.009 317.953 212.09 315.238 212.177L284.434 213.171C281.72 213.258 279.442 211.319 279.346 208.839L279.326 208.323C279.231 205.843 281.353 203.762 284.068 203.674L314.871 202.681C317.586 202.593 319.864 204.532 319.96 207.012L319.979 207.529Z" fill="#E0D5CD"/>
<path d="M325.424 274.984C325.516 277.35 323.49 279.336 320.9 279.419L286.811 280.519C284.221 280.603 282.047 278.752 281.956 276.386L281.953 276.321C281.862 273.955 283.887 271.969 286.477 271.885L320.567 270.786C323.157 270.702 325.33 272.553 325.422 274.919L325.424 274.984Z" fill="#E0D5CD"/>
<path d="M374.562 273.399C374.654 275.765 372.628 277.751 370.038 277.834L335.949 278.934C333.359 279.018 331.185 277.167 331.094 274.801L331.091 274.736C331 272.37 333.025 270.384 335.615 270.301L369.705 269.201C372.295 269.117 374.468 270.968 374.56 273.334L374.562 273.399Z" fill="#E0D5CD"/>
<path d="M423.701 271.814C423.792 274.18 421.767 276.166 419.177 276.249L385.088 277.349C382.498 277.433 380.324 275.582 380.233 273.216L380.23 273.151C380.139 270.785 382.164 268.799 384.754 268.716L418.843 267.616C421.433 267.532 423.607 269.383 423.698 271.749L423.701 271.814Z" fill="#E0D5CD"/>
<path d="M473.783 270.198C473.875 272.564 471.849 274.55 469.26 274.633L435.17 275.733C432.58 275.816 430.406 273.966 430.315 271.6L430.313 271.535C430.221 269.169 432.246 267.183 434.836 267.099L468.926 266C471.516 265.916 473.689 267.767 473.781 270.133L473.783 270.198Z" fill="#E0D5CD"/>
<g opacity="0.47">
<path d="M358.287 292.954C358.36 294.836 356.75 296.415 354.691 296.481L291.276 298.526C289.216 298.593 287.488 297.122 287.416 295.24L287.412 295.146C287.339 293.265 288.95 291.686 291.009 291.62L354.424 289.574C356.483 289.508 358.211 290.979 358.284 292.86L358.287 292.954Z" fill="url(#paint34_linear_167_348)"/>
<path d="M468.781 287.663C468.854 289.544 467.243 291.123 465.184 291.189L437.678 292.076C435.619 292.142 433.89 290.671 433.818 288.79L433.814 288.696C433.741 286.815 435.352 285.236 437.411 285.17L464.917 284.282C466.977 284.216 468.705 285.687 468.777 287.568L468.781 287.663Z" fill="url(#paint35_linear_167_348)"/>
</g>
<defs>
<linearGradient id="paint0_linear_167_348" x1="872.317" y1="900.127" x2="257.519" y2="116.459" gradientUnits="userSpaceOnUse">
<stop stop-color="#FB944E"/>
<stop offset="1" stop-color="#FDF2E9"/>
</linearGradient>
<linearGradient id="paint1_linear_167_348" x1="677.91" y1="-71.1471" x2="386.236" y2="512.78" gradientUnits="userSpaceOnUse">
<stop stop-color="#262626"/>
<stop offset="1" stop-color="#494949"/>
</linearGradient>
<linearGradient id="paint2_linear_167_348" x1="445.154" y1="39.0184" x2="372.086" y2="180.621" gradientUnits="userSpaceOnUse">
<stop stop-color="#FF6700"/>
<stop offset="1" stop-color="#FB944E"/>
</linearGradient>
<linearGradient id="paint3_linear_167_348" x1="249.445" y1="383.17" x2="171.787" y2="519.476" gradientUnits="userSpaceOnUse">
<stop stop-color="#FF928E"/>
<stop offset="1" stop-color="#FE7062"/>
</linearGradient>
<linearGradient id="paint4_linear_167_348" x1="249.445" y1="383.17" x2="171.787" y2="519.476" gradientUnits="userSpaceOnUse">
<stop stop-color="#FFAE8E"/>
<stop offset="1" stop-color="#FF8336"/>
</linearGradient>
<linearGradient id="paint5_linear_167_348" x1="249.445" y1="362.901" x2="171.787" y2="499.207" gradientUnits="userSpaceOnUse">
<stop stop-color="#FF928E"/>
<stop offset="1" stop-color="#FE7062"/>
</linearGradient>
<linearGradient id="paint6_linear_167_348" x1="249.445" y1="362.901" x2="171.787" y2="499.207" gradientUnits="userSpaceOnUse">
<stop stop-color="#FFAE8E"/>
<stop offset="1" stop-color="#FF8336"/>
</linearGradient>
<linearGradient id="paint7_linear_167_348" x1="249.445" y1="403.778" x2="171.787" y2="540.084" gradientUnits="userSpaceOnUse">
<stop stop-color="#FF928E"/>
<stop offset="1" stop-color="#FE7062"/>
</linearGradient>
<linearGradient id="paint8_linear_167_348" x1="249.445" y1="403.778" x2="171.788" y2="540.084" gradientUnits="userSpaceOnUse">
<stop stop-color="#FFAE8E"/>
<stop offset="1" stop-color="#FF8336"/>
</linearGradient>
<linearGradient id="paint9_linear_167_348" x1="249.445" y1="424.386" x2="171.787" y2="560.692" gradientUnits="userSpaceOnUse">
<stop stop-color="#FF928E"/>
<stop offset="1" stop-color="#FE7062"/>
</linearGradient>
<linearGradient id="paint10_linear_167_348" x1="249.445" y1="424.385" x2="171.787" y2="560.692" gradientUnits="userSpaceOnUse">
<stop stop-color="#FFAE8E"/>
<stop offset="1" stop-color="#FF8336"/>
</linearGradient>
<linearGradient id="paint11_linear_167_348" x1="249.445" y1="444.993" x2="171.787" y2="581.299" gradientUnits="userSpaceOnUse">
<stop stop-color="#FF928E"/>
<stop offset="1" stop-color="#FE7062"/>
</linearGradient>
<linearGradient id="paint12_linear_167_348" x1="249.445" y1="444.993" x2="171.787" y2="581.299" gradientUnits="userSpaceOnUse">
<stop stop-color="#FFAE8E"/>
<stop offset="1" stop-color="#FF8336"/>
</linearGradient>
<linearGradient id="paint13_linear_167_348" x1="249.445" y1="464.983" x2="171.787" y2="601.289" gradientUnits="userSpaceOnUse">
<stop stop-color="#FF928E"/>
<stop offset="1" stop-color="#FE7062"/>
</linearGradient>
<linearGradient id="paint14_linear_167_348" x1="249.445" y1="464.983" x2="171.787" y2="601.289" gradientUnits="userSpaceOnUse">
<stop stop-color="#FFAE8E"/>
<stop offset="1" stop-color="#FF8336"/>
</linearGradient>
<linearGradient id="paint15_linear_167_348" x1="249.446" y1="484.971" x2="171.788" y2="621.277" gradientUnits="userSpaceOnUse">
<stop stop-color="#FFAE8E"/>
<stop offset="1" stop-color="#FF8336"/>
</linearGradient>
<linearGradient id="paint16_linear_167_348" x1="377.131" y1="424.598" x2="299.473" y2="560.905" gradientUnits="userSpaceOnUse">
<stop stop-color="#FF928E"/>
<stop offset="1" stop-color="#FE7062"/>
</linearGradient>
<linearGradient id="paint17_linear_167_348" x1="377.131" y1="424.598" x2="299.473" y2="560.904" gradientUnits="userSpaceOnUse">
<stop stop-color="#FFAE8E"/>
<stop offset="1" stop-color="#FF8336"/>
</linearGradient>
<linearGradient id="paint18_linear_167_348" x1="377.131" y1="445.206" x2="299.473" y2="581.512" gradientUnits="userSpaceOnUse">
<stop stop-color="#FF928E"/>
<stop offset="1" stop-color="#FE7062"/>
</linearGradient>
<linearGradient id="paint19_linear_167_348" x1="377.131" y1="445.206" x2="299.473" y2="581.512" gradientUnits="userSpaceOnUse">
<stop stop-color="#FFAE8E"/>
<stop offset="1" stop-color="#FF8336"/>
</linearGradient>
<linearGradient id="paint20_linear_167_348" x1="377.131" y1="465.195" x2="299.473" y2="601.501" gradientUnits="userSpaceOnUse">
<stop stop-color="#FF928E"/>
<stop offset="1" stop-color="#FE7062"/>
</linearGradient>
<linearGradient id="paint21_linear_167_348" x1="377.131" y1="465.195" x2="299.473" y2="601.501" gradientUnits="userSpaceOnUse">
<stop stop-color="#FFAE8E"/>
<stop offset="1" stop-color="#FF8336"/>
</linearGradient>
<linearGradient id="paint22_linear_167_348" x1="377.131" y1="485.183" x2="299.473" y2="621.489" gradientUnits="userSpaceOnUse">
<stop stop-color="#FF928E"/>
<stop offset="1" stop-color="#FE7062"/>
</linearGradient>
<linearGradient id="paint23_linear_167_348" x1="377.131" y1="485.183" x2="299.473" y2="621.489" gradientUnits="userSpaceOnUse">
<stop stop-color="#FFAE8E"/>
<stop offset="1" stop-color="#FF8336"/>
</linearGradient>
<linearGradient id="paint24_linear_167_348" x1="349.309" y1="554.686" x2="385.257" y2="444.033" gradientUnits="userSpaceOnUse">
<stop stop-color="#E25B00"/>
<stop offset="1" stop-color="#EB7A2E"/>
</linearGradient>
<linearGradient id="paint25_linear_167_348" x1="349.309" y1="535.288" x2="385.258" y2="424.635" gradientUnits="userSpaceOnUse">
<stop stop-color="#E25B00"/>
<stop offset="1" stop-color="#EB7A2E"/>
</linearGradient>
<linearGradient id="paint26_linear_167_348" x1="179.788" y1="568.723" x2="485.365" y2="424.823" gradientUnits="userSpaceOnUse">
<stop stop-color="#E25B00"/>
<stop offset="1" stop-color="#EB7A2E"/>
</linearGradient>
<linearGradient id="paint27_linear_167_348" x1="481.738" y1="443.085" x2="503.367" y2="556.001" gradientUnits="userSpaceOnUse">
<stop stop-color="#FB944E"/>
<stop offset="1" stop-color="#FAC5A2"/>
</linearGradient>
<linearGradient id="paint28_linear_167_348" x1="360.344" y1="288.725" x2="673.456" y2="609.564" gradientUnits="userSpaceOnUse">
<stop stop-color="#FB944E"/>
<stop offset="1" stop-color="#FF6802"/>
</linearGradient>
<linearGradient id="paint29_linear_167_348" x1="515.766" y1="488.637" x2="597.128" y2="488.637" gradientUnits="userSpaceOnUse">
<stop stop-color="#E75D00"/>
<stop offset="1" stop-color="#FB944E"/>
</linearGradient>
<linearGradient id="paint30_linear_167_348" x1="451.068" y1="365.475" x2="532.423" y2="365.475" gradientUnits="userSpaceOnUse">
<stop stop-color="#4F52FF"/>
<stop offset="1" stop-color="#4042E2"/>
</linearGradient>
<linearGradient id="paint31_linear_167_348" x1="451.068" y1="365.475" x2="532.423" y2="365.475" gradientUnits="userSpaceOnUse">
<stop stop-color="#E75D00"/>
<stop offset="1" stop-color="#FB944E"/>
</linearGradient>
<linearGradient id="paint32_linear_167_348" x1="456.001" y1="170.738" x2="369.461" y2="302.21" gradientUnits="userSpaceOnUse">
<stop stop-color="#3E3E3E"/>
<stop offset="1" stop-color="#282828"/>
</linearGradient>
<linearGradient id="paint33_linear_167_348" x1="382.834" y1="215.276" x2="294.864" y2="255.862" gradientUnits="userSpaceOnUse">
<stop stop-color="#FECEBE"/>
<stop offset="1" stop-color="#FFB68E"/>
</linearGradient>
<linearGradient id="paint34_linear_167_348" x1="287.409" y1="294.05" x2="358.29" y2="294.05" gradientUnits="userSpaceOnUse">
<stop stop-color="#E0D5CD"/>
<stop offset="1" stop-color="#D5C8BF"/>
</linearGradient>
<linearGradient id="paint35_linear_167_348" x1="433.811" y1="288.179" x2="468.784" y2="288.179" gradientUnits="userSpaceOnUse">
<stop stop-color="#E0D5CD"/>
<stop offset="1" stop-color="#D5C8BF"/>
</linearGradient>
</defs>
</svg>
