<svg width="16" height="17" viewBox="0 0 16 17" fill="none" xmlns="http://www.w3.org/2000/svg">
<path d="M13.6036 2.47031C12.1071 0.876562 10.1143 0 7.99643 0C3.625 0 0.0678571 3.77946 0.0678571 8.42411C0.0678571 9.90781 0.432143 11.3574 1.125 12.6362L0 17L4.20357 15.8275C5.36071 16.4991 6.66429 16.852 7.99286 16.852H7.99643C12.3643 16.852 16 13.0725 16 8.4279C16 6.17768 15.1 4.06406 13.6036 2.47031ZM7.99643 15.4328C6.81071 15.4328 5.65 15.0951 4.63929 14.4576L4.4 14.3058L1.90714 15.0002L2.57143 12.4161L2.41429 12.1504C1.75357 11.0348 1.40714 9.74844 1.40714 8.42411C1.40714 4.56496 4.36429 1.42299 8 1.42299C9.76071 1.42299 11.4143 2.15156 12.6571 3.47589C13.9 4.80022 14.6643 6.55714 14.6607 8.4279C14.6607 12.2908 11.6286 15.4328 7.99643 15.4328ZM11.6107 10.1886C11.4143 10.0824 10.4393 9.57388 10.2571 9.50558C10.075 9.43348 9.94286 9.39933 9.81071 9.61183C9.67857 9.82433 9.3 10.2949 9.18214 10.4391C9.06786 10.5795 8.95 10.5984 8.75357 10.4922C7.58929 9.87366 6.825 9.38795 6.05714 7.98772C5.85357 7.61585 6.26071 7.64241 6.63929 6.83795C6.70357 6.69754 6.67143 6.57612 6.62143 6.46987C6.57143 6.36362 6.175 5.32768 6.01071 4.90647C5.85 4.49665 5.68571 4.55357 5.56429 4.54598C5.45 4.53839 5.31786 4.53839 5.18571 4.53839C5.05357 4.53839 4.83929 4.59152 4.65714 4.80022C4.475 5.01272 3.96429 5.52121 3.96429 6.55714C3.96429 7.59308 4.675 8.59487 4.77143 8.73527C4.87143 8.87567 6.16786 11.0007 8.15714 11.9152C9.41429 12.492 9.90714 12.5413 10.5357 12.4426C10.9179 12.3819 11.7071 11.9342 11.8714 11.4408C12.0357 10.9475 12.0357 10.5263 11.9857 10.4391C11.9393 10.3442 11.8071 10.2911 11.6107 10.1886Z" fill="#00A884"/>
</svg>
