<svg width="17" height="17" viewBox="0 0 17 17" fill="none" xmlns="http://www.w3.org/2000/svg">
<path d="M8.5 0C3.80558 0 0 3.80558 0 8.5C0 13.1944 3.80558 17 8.5 17C13.1944 17 17 13.1944 17 8.5C17 3.80558 13.1944 0 8.5 0ZM8.5 2.87933C10.8401 2.87933 12.7375 4.77677 12.7375 7.11688C12.7375 7.82574 12.5433 8.7615 12.144 9.29063L8.5 14.1207L4.85595 9.29066C4.41637 8.70808 4.26244 7.8995 4.26244 7.11691C4.26245 4.77677 6.15988 2.87933 8.5 2.87933ZM8.5 5.33429C7.51537 5.33429 6.71741 6.13225 6.71741 7.11688C6.71741 8.10151 7.51537 8.89947 8.5 8.89947C9.48463 8.89947 10.2826 8.10151 10.2826 7.11688C10.2826 6.13225 9.48463 5.33429 8.5 5.33429Z" fill="#4C4C4C"/>
</svg>
