<svg width="17" height="15" viewBox="0 0 17 15" fill="none" xmlns="http://www.w3.org/2000/svg">
<path d="M13.9389 14.3999C15.627 14.3999 16.9954 13.0951 16.9954 11.4856C16.9954 9.87603 15.627 8.57129 13.9389 8.57129C12.2508 8.57129 10.8823 9.87603 10.8823 11.4856C10.8823 13.0951 12.2508 14.3999 13.9389 14.3999Z" fill="#FF4053"/>
<path d="M5.08367 15.0002C7.88886 15.0002 10.1629 12.8319 10.1629 10.1573C10.1629 7.48265 7.88886 5.31445 5.08367 5.31445C2.27848 5.31445 0.00439453 7.48265 0.00439453 10.1573C0.00439453 12.8319 2.27848 15.0002 5.08367 15.0002Z" fill="#04E061"/>
<path d="M12.7252 7.88572C15.0091 7.88572 16.8605 6.12042 16.8605 3.94286C16.8605 1.76525 15.0091 0 12.7252 0C10.4413 0 8.58984 1.76525 8.58984 3.94286C8.58984 6.12042 10.4413 7.88572 12.7252 7.88572Z" fill="#00AAFF"/>
<path d="M6.05046 4.67118C7.10555 4.67118 7.96083 3.8557 7.96083 2.84977C7.96083 1.8438 7.10555 1.02832 6.05046 1.02832C4.99542 1.02832 4.14014 1.8438 4.14014 2.84977C4.14014 3.8557 4.99542 4.67118 6.05046 4.67118Z" fill="#965EEB"/>
</svg>
