<svg width="16" height="14" viewBox="0 0 16 14" fill="none" xmlns="http://www.w3.org/2000/svg">
<path d="M13.119 13.44C14.7078 13.44 15.9957 12.2222 15.9957 10.72C15.9957 9.21776 14.7078 8 13.119 8C11.5302 8 10.2422 9.21776 10.2422 10.72C10.2422 12.2222 11.5302 13.44 13.119 13.44Z" fill="#4C4C4C"/>
<path d="M4.78489 14C7.42506 14 9.56538 11.9763 9.56538 9.47996C9.56538 6.98361 7.42506 4.95996 4.78489 4.95996C2.14471 4.95996 0.00439453 6.98361 0.00439453 9.47996C0.00439453 11.9763 2.14471 14 4.78489 14Z" fill="#4C4C4C"/>
<path d="M11.9766 7.36C14.1261 7.36 15.8686 5.7124 15.8686 3.68C15.8686 1.64757 14.1261 0 11.9766 0C9.827 0 8.08447 1.64757 8.08447 3.68C8.08447 5.7124 9.827 7.36 11.9766 7.36Z" fill="#4C4C4C"/>
<path d="M5.69444 4.35996C6.68746 4.35996 7.49243 3.59885 7.49243 2.65998C7.49243 1.72107 6.68746 0.959961 5.69444 0.959961C4.70146 0.959961 3.89648 1.72107 3.89648 2.65998C3.89648 3.59885 4.70146 4.35996 5.69444 4.35996Z" fill="#4C4C4C"/>
</svg>
