<svg width="17" height="17" viewBox="0 0 17 17" fill="none" xmlns="http://www.w3.org/2000/svg">
<path d="M8.5 17C13.1944 17 17 13.1944 17 8.5C17 3.80558 13.1944 0 8.5 0C3.80558 0 0 3.80558 0 8.5C0 13.1944 3.80558 17 8.5 17Z" fill="#37AFE2"/>
<path d="M5.77202 9.2212L3.6976 8.54531C3.6976 8.54531 3.44968 8.44473 3.52951 8.21664C3.54594 8.16961 3.57909 8.12959 3.67826 8.06081C4.1379 7.74043 12.1858 4.84781 12.1858 4.84781C12.1858 4.84781 12.413 4.77124 12.547 4.82217C12.6145 4.84306 12.6655 4.89874 12.6805 4.96773C12.695 5.02765 12.7011 5.08928 12.6985 5.15083C12.6979 5.2041 12.6914 5.25347 12.6866 5.33089C12.6375 6.12175 11.1707 12.0241 11.1707 12.0241C11.1707 12.0241 11.083 12.3695 10.7685 12.3814C10.6125 12.3864 10.4609 12.3277 10.3488 12.219C9.73182 11.6883 7.59917 10.255 7.12791 9.9398C7.10645 9.92514 7.09228 9.90191 7.08924 9.87605C7.08265 9.84283 7.11878 9.80168 7.11878 9.80168C7.11878 9.80168 10.8323 6.50085 10.9311 6.15433C10.9387 6.12748 10.9098 6.11424 10.871 6.126C10.6244 6.21673 6.34875 8.91683 5.87686 9.21483C5.84286 9.2251 5.80701 9.22729 5.77202 9.2212Z" fill="white"/>
</svg>
