<svg width="16" height="16" viewBox="0 0 16 16" fill="none" xmlns="http://www.w3.org/2000/svg">
<path d="M0 7.68C0 4.05968 0 2.24944 1.12464 1.12464C2.24944 0 4.05968 0 7.68 0H8.32C11.9403 0 13.7506 0 14.8754 1.12464C16 2.24944 16 4.05968 16 7.68V8.32C16 11.9403 16 13.7506 14.8754 14.8754C13.7506 16 11.9403 16 8.32 16H7.68C4.05968 16 2.24944 16 1.12464 14.8754C0 13.7506 0 11.9403 0 8.32V7.68Z" fill="#4C4C4C"/>
<path d="M8.51364 11.5272C4.86692 11.5272 2.78692 9.02719 2.7002 4.86719H4.52692C4.58692 7.92047 5.93348 9.21391 7.0002 9.48047V4.86719H8.7202V7.50047C9.77364 7.38719 10.88 6.18719 11.2535 4.86719H12.9735C12.6869 6.49391 11.4869 7.69391 10.6335 8.18719C11.4869 8.58719 12.8536 9.63391 13.3736 11.5272H11.4802C11.0735 10.2605 10.0602 9.28047 8.7202 9.14719V11.5272H8.51364Z" fill="white"/>
</svg>
