<svg width="16" height="17" viewBox="0 0 16 17" fill="none" xmlns="http://www.w3.org/2000/svg">
<path d="M0 8.16C0 4.31341 0 2.39003 1.12464 1.19493C2.24944 0 4.05968 0 7.68 0H8.32C11.9403 0 13.7506 0 14.8754 1.19493C16 2.39003 16 4.31341 16 8.16V8.84C16 12.6866 16 14.61 14.8754 15.8051C13.7506 17 11.9403 17 8.32 17H7.68C4.05968 17 2.24944 17 1.12464 15.8051C0 14.61 0 12.6866 0 8.84V8.16Z" fill="#00AAFF"/>
<path d="M8.51364 12.2471C4.86692 12.2471 2.78692 9.5909 2.7002 5.1709H4.52692C4.58692 8.41501 5.93348 9.78929 7.0002 10.0725V5.1709H8.7202V7.96876C9.77364 7.8484 10.88 6.5734 11.2535 5.1709H12.9735C12.6869 6.89929 11.4869 8.17429 10.6335 8.6984C11.4869 9.1234 12.8536 10.2355 13.3736 12.2471H11.4802C11.0735 10.9013 10.0602 9.86001 8.7202 9.7184V12.2471H8.51364Z" fill="white"/>
</svg>
