<svg width="16" height="16" viewBox="0 0 16 16" fill="none" xmlns="http://www.w3.org/2000/svg">
<path d="M8 16C12.4183 16 16 12.4183 16 8C16 3.58172 12.4183 0 8 0C3.58172 0 0 3.58172 0 8C0 12.4183 3.58172 16 8 16Z" fill="#4C4C4C"/>
<path d="M5.43263 8.6782L3.48024 8.04207C3.48024 8.04207 3.2469 7.9474 3.32203 7.73274C3.3375 7.68847 3.3687 7.6508 3.46203 7.58607C3.89463 7.28454 11.4691 4.56207 11.4691 4.56207C11.4691 4.56207 11.683 4.49 11.8091 4.53794C11.8726 4.5576 11.9206 4.61 11.9348 4.67494C11.9484 4.73134 11.9541 4.78934 11.9517 4.84727C11.9511 4.8974 11.945 4.94387 11.9404 5.01674C11.8943 5.76107 10.5138 11.3163 10.5138 11.3163C10.5138 11.3163 10.4312 11.6413 10.1352 11.6525C9.98837 11.6572 9.8457 11.602 9.74023 11.4997C9.1595 11.0001 7.1523 9.6512 6.70877 9.35454C6.68857 9.34074 6.67523 9.31887 6.67237 9.29454C6.66617 9.26327 6.70017 9.22454 6.70017 9.22454C6.70017 9.22454 10.1952 6.11787 10.2882 5.79174C10.2954 5.76647 10.2682 5.754 10.2317 5.76507C9.99957 5.85047 5.97544 8.39174 5.5313 8.6722C5.4993 8.68187 5.46557 8.68394 5.43263 8.6782Z" fill="white"/>
</svg>
