<svg width="52" height="52" viewBox="0 0 52 52" fill="none" xmlns="http://www.w3.org/2000/svg">
<rect width="52" height="52" rx="26" fill="#FF6700"/>
<path d="M35.7266 33.8047C36.0781 34.1953 36.0781 34.7812 35.6875 35.1328L34.5938 36.2266C34.2422 36.6172 33.6562 36.6172 33.2656 36.2266L29.3984 32.3594C29.2031 32.1641 29.125 31.9297 29.125 31.6953V31.0312C27.7188 32.125 26 32.75 24.125 32.75C19.6328 32.75 16 29.1172 16 24.625C16 20.1719 19.6328 16.5 24.125 16.5C28.5781 16.5 32.25 20.1719 32.25 24.625C32.25 26.5391 31.5859 28.2578 30.5312 29.625H31.1562C31.3906 29.625 31.625 29.7422 31.8203 29.8984L35.7266 33.8047ZM24.125 29.625C26.8594 29.625 29.125 27.3984 29.125 24.625C29.125 21.8906 26.8594 19.625 24.125 19.625C21.3516 19.625 19.125 21.8906 19.125 24.625C19.125 27.3984 21.3516 29.625 24.125 29.625Z" fill="white"/>
</svg>
