<svg width="40" height="32" viewBox="0 0 40 32" fill="none" xmlns="http://www.w3.org/2000/svg">
<mask id="mask0_750_5237" style="mask-type:luminance" maskUnits="userSpaceOnUse" x="0" y="0" width="40" height="32">
<path d="M39.9921 0.0664062H0.00976562V31.2699H39.9921V0.0664062Z" fill="white"/>
</mask>
<g mask="url(#mask0_750_5237)">
<path d="M13.6953 4.13758C14.8158 4.13758 15.7706 3.72648 16.563 2.93413C17.3553 2.14178 17.7664 1.18697 17.7664 0.0664062H4.10746C2.98689 0.0664062 2.00225 0.45098 1.21321 1.24333C0.420861 2.03237 0.00976562 3.01701 0.00976562 4.13758H13.6953Z" fill="#FF6700"/>
<path d="M26.3061 4.13758C25.1856 4.13758 24.2308 3.72648 23.4384 2.93413C22.6461 2.14509 22.2383 1.18697 22.2383 0.0664062H35.8939C37.0145 0.0664062 37.9958 0.447664 38.7882 1.24002C39.5805 2.03237 39.9916 3.01701 39.9916 4.13758H26.3061Z" fill="#FF6700"/>
<path d="M17.7631 23.7411V14.6671C17.7631 13.1355 17.2161 11.8259 16.1254 10.7319C15.0612 9.63784 13.7483 9.09082 12.1934 9.09082H5.39048C4.26991 9.09082 3.28858 9.50192 2.49623 10.2943C1.70388 11.0866 1.32262 12.0713 1.32262 13.1918H11.8387C12.3592 13.1918 12.7935 13.3841 13.1482 13.7389C13.503 14.0936 13.6953 14.5312 13.6953 15.0517V19.6434H4.10746C2.98689 19.6434 2.00557 20.0545 1.21321 20.8468C0.420861 21.6325 0.00976562 22.6172 0.00976562 23.7378L17.7631 23.7411Z" fill="#FF6700"/>
<path d="M22.2363 23.7411V14.6671C22.2363 13.1355 22.7833 11.8259 23.8741 10.7319C24.9383 9.63784 26.2511 9.09082 27.806 9.09082H34.609C35.7295 9.09082 36.7109 9.50192 37.5032 10.2943C38.2956 11.0866 38.6768 12.0713 38.6768 13.1918H28.1641C27.6436 13.1918 27.2093 13.3841 26.8545 13.7389C26.4998 14.0936 26.3075 14.5312 26.3075 15.0517V19.6434H35.8953C37.0159 19.6434 37.9972 20.0545 38.7896 20.8468C39.5819 21.6392 39.993 22.6238 39.993 23.7444L22.2363 23.7411Z" fill="#FF6700"/>
<path d="M7.3926 26.2012H32.6087C33.7392 26.2012 34.6575 27.1195 34.6575 28.2467H5.34375C5.34375 27.1195 6.26208 26.2012 7.3926 26.2012Z" fill="#333333"/>
<path d="M2.0553 29.2246H37.9433C39.0738 29.2246 39.9921 30.1429 39.9921 31.2735H0.00976562C0.00976562 30.1429 0.9281 29.2246 2.0553 29.2246Z" fill="#333333"/>
</g>
</svg>
