<svg width="26" height="18" viewBox="0 0 26 18" fill="none" xmlns="http://www.w3.org/2000/svg">
<path d="M16.75 9C16.75 9.99456 16.3549 10.9484 15.6517 11.6517C14.9484 12.3549 13.9946 12.75 13 12.75C12.0054 12.75 11.0516 12.3549 10.3483 11.6517C9.64509 10.9484 9.25 9.99456 9.25 9C9.25 8.00544 9.64509 7.05161 10.3483 6.34835C11.0516 5.64509 12.0054 5.25 13 5.25C13.9946 5.25 14.9484 5.64509 15.6517 6.34835C16.3549 7.05161 16.75 8.00544 16.75 9Z" stroke="#828282" stroke-width="2" stroke-linecap="round" stroke-linejoin="round"/>
<path d="M0.5 9C2.5 3.87875 7.17 0.25 13 0.25C18.83 0.25 23.5 3.87875 25.5 9C23.5 14.1213 18.83 17.75 13 17.75C7.17 17.75 2.5 14.1213 0.5 9Z" stroke="#828282" stroke-width="2" stroke-linecap="round" stroke-linejoin="round"/>
</svg>
