<svg width="29" height="20" viewBox="0 0 29 20" fill="none" xmlns="http://www.w3.org/2000/svg">
<path d="M18.75 10C18.75 11.1272 18.3022 12.2082 17.5052 13.0052C16.7082 13.8022 15.6272 14.25 14.5 14.25C13.3728 14.25 12.2918 13.8022 11.4948 13.0052C10.6978 12.2082 10.25 11.1272 10.25 10C10.25 8.87283 10.6978 7.79183 11.4948 6.9948C12.2918 6.19777 13.3728 5.75 14.5 5.75C15.6272 5.75 16.7082 6.19777 17.5052 6.9948C18.3022 7.79183 18.75 8.87283 18.75 10Z" stroke="#767676" stroke-width="2" stroke-linecap="round" stroke-linejoin="round"/>
<path d="M0.333984 9.99968C2.60065 4.19559 7.89332 0.0830078 14.5007 0.0830078C21.108 0.0830078 26.4007 4.19559 28.6673 9.99968C26.4007 15.8038 21.108 19.9163 14.5007 19.9163C7.89332 19.9163 2.60065 15.8038 0.333984 9.99968Z" stroke="#767676" stroke-width="2" stroke-linecap="round" stroke-linejoin="round"/>
</svg>
