<svg width="22" height="1" viewBox="0 0 22 1" fill="none" xmlns="http://www.w3.org/2000/svg">
<path d="M0.5 0C0.223858 2.41411e-08 -2.41411e-08 0.223858 0 0.5C2.41411e-08 0.776142 0.223858 1 0.5 1L0.5 0ZM21.8536 0.853552C22.0488 0.658289 22.0488 0.341707 21.8536 0.146445L18.6716 -3.03554C18.4763 -3.2308 18.1597 -3.2308 17.9645 -3.03554C17.7692 -2.84027 17.7692 -2.52369 17.9645 -2.32843L20.7929 0.499998L17.9645 3.32843C17.7692 3.52369 17.7692 3.84027 17.9645 4.03553C18.1597 4.23079 18.4763 4.23079 18.6716 4.03553L21.8536 0.853552ZM0.5 0.5L0.5 1L21.5 0.999998L21.5 0.499998L21.5 -1.83588e-06L0.5 0L0.5 0.5Z" fill="#222222"/>
</svg>
