<svg width="23" height="23" viewBox="0 0 23 23" fill="none" xmlns="http://www.w3.org/2000/svg">
<g opacity="0.65">
<path fill-rule="evenodd" clip-rule="evenodd" d="M11.5 18.666C15.6766 18.666 19.0625 15.2801 19.0625 11.1035C19.0625 6.92686 15.6766 3.54102 11.5 3.54102C7.32334 3.54102 3.9375 6.92686 3.9375 11.1035C3.9375 15.2801 7.32334 18.666 11.5 18.666ZM11.5 20.7285C16.8157 20.7285 21.125 16.4192 21.125 11.1035C21.125 5.78778 16.8157 1.47852 11.5 1.47852C6.18426 1.47852 1.875 5.78778 1.875 11.1035C1.875 16.4192 6.18426 20.7285 11.5 20.7285ZM9.35528 6.34523C9.94645 5.85963 10.7222 5.56898 11.5 5.56898C13.1736 5.56898 14.7167 6.69688 14.7167 8.51252C14.7167 9.02976 14.6095 9.53618 14.3078 10.0254C14.0213 10.49 13.6023 10.8681 13.1048 11.2167C12.8057 11.4262 12.6569 11.5698 12.5839 11.6677C12.5312 11.7383 12.5312 11.7645 12.5313 11.7895V11.7907C12.5313 12.3602 12.0695 12.822 11.5 12.822C10.9305 12.822 10.4688 12.3602 10.4688 11.7907C10.4688 10.698 11.2163 10.0214 11.9214 9.52749C12.306 9.25803 12.4732 9.07102 12.5523 8.94276C12.6163 8.839 12.6542 8.72463 12.6542 8.51252C12.6542 8.10112 12.3192 7.63148 11.5 7.63148C11.218 7.63148 10.901 7.74462 10.6644 7.93898C10.4342 8.12809 10.3458 8.3333 10.3458 8.51252C10.3458 9.08206 9.88408 9.54377 9.31454 9.54377C8.74499 9.54377 8.28329 9.08206 8.28329 8.51252C8.28329 7.58703 8.75771 6.83609 9.35528 6.34523ZM11.5 16.6035C12.2594 16.6035 12.875 15.9879 12.875 15.2285C12.875 14.4691 12.2594 13.8535 11.5 13.8535C10.7406 13.8535 10.125 14.4691 10.125 15.2285C10.125 15.9879 10.7406 16.6035 11.5 16.6035Z" fill="black"/>
</g>
</svg>
