<svg width="383" height="664" viewBox="0 0 383 664" fill="none" xmlns="http://www.w3.org/2000/svg">
<path d="M289.873 448.849C289.873 448.849 277.924 352.791 230.105 333.764C182.287 314.737 96.2247 311.253 72.6668 174.28C58.8747 94.0905 51.6602 59.2074 48.0486 44.0668C46.6399 38.1606 51.231 32.5355 57.2887 32.7648C100.14 34.3879 240.361 46.4846 282.506 134.813C332.471 239.528 289.873 448.849 289.873 448.849Z" fill="#FFA275"/>
<path opacity="0.5" d="M95.1958 66.1741C147.03 100.199 210.693 164.621 249.646 232.744C255.038 244.125 269.395 267.895 280.688 312.256C290.378 349.214 294.236 389.223 293.161 416.25C293.093 417.959 291.655 419.29 289.949 419.223C287.016 419.108 286.939 415.978 286.979 416.071C285.995 370.317 275.329 314.782 254.803 266.306C228.952 206.88 182.894 152.409 136.916 107.244L132.217 102.823C96.7687 68.9978 90.4618 69.6538 92.8473 66.5686C93.4112 65.8395 94.439 65.6799 95.1958 66.1741Z" fill="white"/>
<path d="M381.67 509.994C388.337 511.091 304.529 452.875 249.375 338.334C223.385 284.359 201.953 213.37 161.494 195.743C127.821 181.073 40.816 223.047 12.5758 237.542C9.04702 239.353 9.20738 244.456 12.8474 246.022C30.7935 253.744 69.9774 272.908 86.5617 299.144C108.421 333.724 151.477 346.91 185.522 343.713C219.566 340.515 239.312 341.429 270.372 388.103C301.431 434.778 362.726 506.875 381.67 509.994Z" fill="#FBD6C0"/>
<path opacity="0.5" d="M59.3745 240.768C97.9738 230.849 144.118 235.899 174.685 262.29L177.581 264.814C184.3 270.755 225.546 314.961 252.72 353.725C253.058 354.208 252.941 354.876 252.459 355.215C251.639 355.793 250.881 354.927 250.995 354.989C233.766 333.658 210.251 307.118 191.973 287.481C172.241 265.988 158.604 251.516 125.927 243.58C89.7335 235.336 59.6546 242.451 59.7486 242.442C59.2841 242.532 58.8345 242.228 58.7453 241.763C58.6595 241.315 58.9398 240.88 59.3745 240.768Z" fill="white"/>
<path d="M367.814 603.377C372.782 604.891 332.998 559.051 322.019 514.033C311.04 469.014 285.983 393.393 237.981 354.511C189.978 315.63 146.309 319.644 100.362 372.233C62.0725 416.057 37.3885 439.205 21.555 445.673C17.6343 447.274 16.4341 452.284 19.117 455.562C33.3968 473.008 71.7957 512.004 121.321 499.206C184.495 482.882 254.034 426.333 284.286 456.52C314.537 486.706 315.216 506.724 319.085 523.045C322.954 539.366 334.941 593.354 367.814 603.377Z" fill="#FF9964"/>
<path opacity="0.5" d="M129.128 424.469C145.122 401.892 173.491 377.271 202.027 375.352C239.417 374.223 268.213 393.834 288.29 427.413C296.372 441.756 300.055 449.534 306.691 467.745C307.22 469.199 305.096 470.073 304.448 468.679C300.545 460.276 296.584 451.454 291.474 442.524C260.574 384.516 218.175 384.061 216.347 383.105C213.32 384.004 191.936 373.578 152.122 406.041C144.697 412.155 137.615 418.865 131.127 426.012L131.091 426.051C130.622 426.569 129.823 426.607 129.307 426.137C128.83 425.702 128.762 424.984 129.128 424.469Z" fill="white"/>
</svg>
