<svg width="768" height="736" viewBox="0 0 768 736" fill="none" xmlns="http://www.w3.org/2000/svg">
<path d="M713.318 144.64C710.652 140.054 707.878 135.56 704.997 131.153C666.446 72.5883 602.193 32.4944 539.899 14.3412C512.72 6.49955 484.733 2.03824 456.531 1.05327C272.848 -5.7554 205.381 150.834 146.204 191.195C87.0284 231.553 -3.79449 300.531 7.69144 445.395C16.3332 555.548 76.9406 660.866 187.599 708.783C200.1 714.208 212.93 718.785 226.008 722.485C252.494 729.916 279.705 734.245 307.126 735.391C390.8 739.243 458.749 718.383 525.202 665.865C540.654 653.657 556.026 639.889 576.074 638.377C590.643 637.28 604.458 642.695 589.23 657.261C571.32 674.369 591.977 708.035 637.42 684.649C713.318 645.585 744.545 561.31 759.259 475.625C777.251 370.439 768.495 239.71 713.318 144.64Z" fill="url(#paint0_linear_827_26780)"/>
<path d="M14.8777 115.061C15.1256 115.945 15.394 116.817 15.6828 117.679C19.5628 129.141 28.2293 138.483 37.424 144.023C41.4386 146.427 45.7108 148.289 50.15 149.57C79.0486 157.976 95.7475 134.061 106.685 129.546C117.623 125.032 134.679 116.909 138.396 91.8671C141.237 72.8293 135.643 52.5606 119.909 40.0591C118.132 38.6449 116.271 37.3615 114.336 36.2173C110.416 33.9104 106.262 32.1015 101.953 30.8246C88.8171 26.8677 77.2328 27.7261 64.675 34.0169C61.7551 35.4792 58.7882 37.2093 55.548 36.6744C53.1932 36.2856 51.2072 34.8212 54.1816 32.9499C57.6791 30.753 55.6876 24.2233 47.5792 26.3988C34.0367 30.0333 25.8563 43.105 20.2435 57.068C13.3645 74.2116 9.75457 96.7465 14.8777 115.061Z" fill="#FF6700"/>
<path d="M14.8777 115.061C15.1256 115.945 15.394 116.817 15.6828 117.679C19.5628 129.141 28.2293 138.483 37.424 144.023C41.4386 146.427 45.7108 148.289 50.15 149.57C79.0486 157.976 95.7475 134.061 106.685 129.546C117.623 125.032 134.679 116.909 138.396 91.8671C141.237 72.8293 135.643 52.5606 119.909 40.0591C118.132 38.6449 116.271 37.3615 114.336 36.2173C110.416 33.9104 106.262 32.1015 101.953 30.8246C88.8171 26.8677 77.2328 27.7261 64.675 34.0169C61.7551 35.4792 58.7882 37.2093 55.548 36.6744C53.1932 36.2856 51.2072 34.8212 54.1816 32.9499C57.6791 30.753 55.6876 24.2233 47.5792 26.3988C34.0367 30.0333 25.8563 43.105 20.2435 57.068C13.3645 74.2116 9.75457 96.7465 14.8777 115.061Z" fill="white" fill-opacity="0.7"/>
<defs>
<linearGradient id="paint0_linear_827_26780" x1="792.148" y1="783.196" x2="231.062" y2="150.319" gradientUnits="userSpaceOnUse">
<stop stop-color="#FB944E"/>
<stop offset="1" stop-color="#FDF2E9"/>
</linearGradient>
</defs>
</svg>
