<svg width="497" height="446" viewBox="0 0 497 446" fill="none" xmlns="http://www.w3.org/2000/svg">
<path d="M77.8362 195.859C98.5994 191.388 169.418 178.266 243.573 188.908C268.409 192.473 290.394 206.935 303.798 228.194C327.95 266.499 362.112 334.782 354.888 405.997L316.982 415.393C316.982 415.393 290.785 330.899 261.3 296.51C261.3 296.51 226.381 376.294 228.146 420.106C228.196 421.344 228.275 422.554 228.385 423.732C232.393 466.597 60.7633 431.731 60.7633 431.731L71.4541 203.413C71.6264 199.733 74.2424 196.633 77.8362 195.859Z" fill="url(#paint0_linear_827_26988)"/>
<path d="M136.887 115.678L131.897 174.995C131.432 180.513 134.271 185.674 138.999 187.884C149.891 192.974 170.805 200.275 193.17 194.916C197.263 193.935 199.93 189.649 199.255 185.275L184.75 91.2539L136.887 115.678Z" fill="url(#paint1_linear_827_26988)"/>
<path d="M203.483 43.7871C203.483 43.7871 214.749 87.6163 212.516 109.316C210.283 131.016 212.682 145.713 187.181 146.071C161.68 146.429 142.753 130.693 134.845 107.455C134.845 107.455 122.366 71.6001 128.5 58.7174C134.635 45.8344 203.483 43.7871 203.483 43.7871Z" fill="url(#paint2_linear_827_26988)"/>
<path d="M145.777 93.4076L148.913 93.9098C148.913 93.9098 140.224 65.2695 152.324 62.4198C164.423 59.5702 210.869 57.5788 223.123 43.1349C234.937 29.2104 229.769 7.95214 218.174 0.377947C217.44 -0.101328 216.45 0.122051 215.923 0.823722L214.577 2.61939C213.655 3.84906 211.708 3.32856 211.519 1.80202C211.34 0.353952 209.527 -0.246532 208.572 0.855201C204.839 5.16368 195.555 11.6549 173.344 12.1914C141.828 12.952 119.611 22.1302 115.733 43.2576C115.487 44.596 113.937 45.1072 112.903 44.2244C110.863 42.4817 107.35 41.2548 101.867 44.5547C92.3323 50.2935 92.8424 69.2226 108.86 87.2914C109.621 88.15 109.396 89.5194 108.349 89.9864C104.661 91.6314 98.8553 96.0208 110.657 105.001C122.729 114.187 130.663 114.667 133.732 114.383C134.558 114.307 135.206 113.667 135.286 112.84L137.123 93.8606C137.218 92.879 138.119 92.1811 139.091 92.3366L145.777 93.4076Z" fill="url(#paint3_linear_827_26988)"/>
<path d="M145.922 97.463C145.922 97.463 143.305 70.1988 130.426 75.6634C117.548 81.1279 131.827 105.966 141.084 108.453L145.922 97.463Z" fill="url(#paint4_linear_827_26988)"/>
<path d="M72.2606 363.606C68.5596 337.41 95.6239 298.901 106.819 284.289C110.021 280.11 111.811 274.999 111.857 269.729C112.185 232.629 99.653 213.248 74.7525 197.248C74.7525 197.248 -18.634 298.343 4.37807 379.523C6.86101 388.283 10.7091 395.81 15.5882 402.278C19.2146 371.69 54.4856 365.018 72.2606 363.606Z" fill="url(#paint5_linear_827_26988)"/>
<path d="M73.9437 353.471L70.5003 353.077C73.419 327.387 95.9088 295.672 105.442 283.229L108.191 285.345C98.8343 297.558 76.766 328.645 73.9437 353.471Z" fill="url(#paint6_linear_827_26988)"/>
<path d="M72.9687 367.233C72.6529 366.057 72.4338 364.84 72.2595 363.605C54.4845 365.017 19.2136 371.689 15.5871 402.277C55.9187 455.745 167.086 436.455 167.086 436.455V415.65C167.086 415.65 81.7089 399.751 72.9687 367.233Z" fill="url(#paint7_linear_827_26988)"/>
<path d="M156.399 430.709C156.399 430.709 172.813 391.885 201.735 405.657C230.657 419.428 228.384 428.439 228.384 428.439L156.399 430.709Z" fill="url(#paint8_linear_827_26988)"/>
<path d="M152.713 438.766C152.943 441.703 155.44 443.938 158.377 443.836L308.25 438.595C310.58 438.513 312.604 436.966 313.299 434.736L317.649 420.783C318.718 417.355 316.278 413.837 312.7 413.646L258.047 410.736C257.551 410.71 257.053 410.751 256.568 410.859L156.999 432.963C154.327 433.556 152.499 436.031 152.713 438.766Z" fill="url(#paint9_linear_827_26988)"/>
<path d="M253.174 433.283L257.298 414.021L313.438 416.707L309.744 432.688L253.174 433.283Z" fill="url(#paint10_linear_827_26988)"/>
<path d="M224.395 225.485C221.218 251.509 206.925 357.24 202.834 387.45C202.258 391.698 205.625 395.435 209.9 395.312L452.368 388.358C455.541 388.267 458.246 386.026 458.934 382.92L496.652 212.655C497.649 208.154 494.075 203.946 489.482 204.215L230.867 219.399C227.524 219.595 224.802 222.153 224.395 225.485Z" fill="url(#paint11_linear_827_26988)"/>
<path d="M321.857 332.732L286.022 434.684L369.348 436.455L376.286 333.344C376.611 328.505 372.608 324.488 367.781 324.809L328.867 327.399C325.677 327.611 322.919 329.709 321.857 332.732Z" fill="url(#paint12_linear_827_26988)"/>
<path d="M252.243 436.135C251.325 438.94 253.41 441.825 256.355 441.825H386.848C389.238 441.825 391.176 439.883 391.176 437.487V431.877C391.176 429.408 389.123 427.437 386.663 427.543L256.17 433.153C254.369 433.231 252.805 434.418 252.243 436.135Z" fill="url(#paint13_linear_827_26988)"/>
<path d="M187.145 124.563C157.928 132.239 135.103 104.69 134.876 104.41L136.661 102.951C136.879 103.219 158.789 129.626 186.561 122.33L187.145 124.563Z" fill="url(#paint14_linear_827_26988)"/>
<path d="M194.525 120.649C195.137 122.324 194.278 124.179 192.607 124.792L187.009 126.846C185.337 127.459 183.487 126.598 182.875 124.923L182.532 123.983C181.92 122.308 182.779 120.453 184.45 119.839L190.048 117.786C191.719 117.172 193.57 118.033 194.182 119.708L194.525 120.649Z" fill="url(#paint15_linear_827_26988)"/>
<path d="M130.328 70.341C130.328 70.341 132.375 20.9417 160.98 10.6588C160.98 10.6588 152.019 8.41981 144.057 14.3475C136.094 20.2753 118.043 47.6944 123.183 72.9623C129.474 73.7747 130.328 70.341 130.328 70.341Z" fill="url(#paint16_linear_827_26988)"/>
<path d="M124.786 68.395C109.104 74.6945 114.874 94.9725 114.874 94.9725C116.435 110.17 122.152 116.797 128.388 119.311C132.649 121.028 137.497 120.37 141.157 117.591C144.817 114.812 146.756 110.313 146.265 105.737C145.821 101.604 145.458 97.6652 145.509 96.2334C145.632 92.7643 140.467 62.0952 124.786 68.395Z" fill="url(#paint17_linear_827_26988)"/>
<path d="M127.237 73.3284C123.749 73.3592 120.743 75.7718 119.96 79.1792C114.351 103.567 128.985 116.078 134.909 115.308C141.151 114.498 135.583 84.7001 132.875 77.2958C131.74 74.193 129.48 73.3087 127.237 73.3284Z" fill="url(#paint18_linear_827_26988)"/>
<path d="M220.839 333.532L218.909 333.288L230.82 239.114C231.567 233.221 236.4 228.687 242.312 228.329L465.796 214.799L465.914 216.745L242.43 230.275C237.449 230.576 233.379 234.396 232.75 239.358L220.839 333.532Z" fill="#C8C8C8"/>
<path d="M215.484 360.135L217.414 360.379L214.851 380.769L212.921 380.525L215.484 360.135Z" fill="#A8A8A8"/>
<defs>
<linearGradient id="paint0_linear_827_26988" x1="4767.23" y1="5071.53" x2="4556.89" y2="4854.98" gradientUnits="userSpaceOnUse">
<stop stop-color="#393939"/>
<stop offset="1" stop-color="#282828"/>
</linearGradient>
<linearGradient id="paint1_linear_827_26988" x1="139.84" y1="271.896" x2="174.999" y2="123.155" gradientUnits="userSpaceOnUse">
<stop stop-color="#FEBBBA"/>
<stop offset="1" stop-color="#FF928E"/>
</linearGradient>
<linearGradient id="paint2_linear_827_26988" x1="145.076" y1="104.456" x2="208.719" y2="87.8339" gradientUnits="userSpaceOnUse">
<stop stop-color="#FEBBBA"/>
<stop offset="1" stop-color="#FF928E"/>
</linearGradient>
<linearGradient id="paint3_linear_827_26988" x1="85.2625" y1="134.61" x2="205.469" y2="-6.70579" gradientUnits="userSpaceOnUse">
<stop stop-color="#262626"/>
<stop offset="1" stop-color="#525252"/>
</linearGradient>
<linearGradient id="paint4_linear_827_26988" x1="141.434" y1="90.5125" x2="205.079" y2="73.8902" gradientUnits="userSpaceOnUse">
<stop stop-color="#FEBBBA"/>
<stop offset="1" stop-color="#FF928E"/>
</linearGradient>
<linearGradient id="paint5_linear_827_26988" x1="4538.14" y1="4945.47" x2="4335.68" y2="4737.02" gradientUnits="userSpaceOnUse">
<stop stop-color="#434343"/>
<stop offset="1" stop-color="#232323"/>
</linearGradient>
<linearGradient id="paint6_linear_827_26988" x1="-223.464" y1="-5.7267" x2="382.462" y2="620.716" gradientUnits="userSpaceOnUse">
<stop stop-color="#4E4E4E"/>
<stop offset="1" stop-color="#7A7A7A"/>
</linearGradient>
<linearGradient id="paint7_linear_827_26988" x1="62.7561" y1="333.573" x2="128.908" y2="507.244" gradientUnits="userSpaceOnUse">
<stop stop-color="#FEBBBA"/>
<stop offset="1" stop-color="#FF928E"/>
</linearGradient>
<linearGradient id="paint8_linear_827_26988" x1="144.493" y1="302.437" x2="210.644" y2="476.107" gradientUnits="userSpaceOnUse">
<stop stop-color="#FEBBBA"/>
<stop offset="1" stop-color="#FF928E"/>
</linearGradient>
<linearGradient id="paint9_linear_827_26988" x1="287.471" y1="365.541" x2="253.276" y2="409.485" gradientUnits="userSpaceOnUse">
<stop stop-color="#656565"/>
<stop offset="1" stop-color="#393939"/>
</linearGradient>
<linearGradient id="paint10_linear_827_26988" x1="312.944" y1="385.363" x2="278.749" y2="429.308" gradientUnits="userSpaceOnUse">
<stop stop-color="#444444"/>
<stop offset="1" stop-color="#292929"/>
</linearGradient>
<linearGradient id="paint11_linear_827_26988" x1="342.933" y1="303.132" x2="620.183" y2="134.477" gradientUnits="userSpaceOnUse">
<stop stop-color="#484848"/>
<stop offset="1" stop-color="#0E0E0E"/>
</linearGradient>
<linearGradient id="paint12_linear_827_26988" x1="350.705" y1="425.303" x2="299.855" y2="315.389" gradientUnits="userSpaceOnUse">
<stop stop-color="#3B3B3B"/>
<stop offset="1" stop-color="#5B5B5B"/>
</linearGradient>
<linearGradient id="paint13_linear_827_26988" x1="318.014" y1="413.403" x2="275.61" y2="162.962" gradientUnits="userSpaceOnUse">
<stop stop-color="#363636"/>
<stop offset="1" stop-color="#505050"/>
</linearGradient>
<linearGradient id="paint14_linear_827_26988" x1="140.706" y1="142.745" x2="172.784" y2="98.3109" gradientUnits="userSpaceOnUse">
<stop stop-color="#464646"/>
<stop offset="1" stop-color="#2A2A2A"/>
</linearGradient>
<linearGradient id="paint15_linear_827_26988" x1="194.723" y1="122.316" x2="182.334" y2="122.316" gradientUnits="userSpaceOnUse">
<stop stop-color="#424242"/>
<stop offset="1" stop-color="#232323"/>
</linearGradient>
<linearGradient id="paint16_linear_827_26988" x1="237.235" y1="-13.9585" x2="-45.8661" y2="145.726" gradientUnits="userSpaceOnUse">
<stop stop-color="#484848"/>
<stop offset="1"/>
</linearGradient>
<linearGradient id="paint17_linear_827_26988" x1="81.9044" y1="9.45352" x2="104.779" y2="49.6013" gradientUnits="userSpaceOnUse">
<stop stop-color="#292929"/>
<stop offset="1" stop-color="#292929"/>
</linearGradient>
<linearGradient id="paint18_linear_827_26988" x1="130.565" y1="94.3948" x2="57.3961" y2="31.9477" gradientUnits="userSpaceOnUse">
<stop stop-color="#515151"/>
<stop offset="1" stop-color="#494949"/>
</linearGradient>
</defs>
</svg>
