<svg width="23" height="24" viewBox="0 0 23 24" fill="none" xmlns="http://www.w3.org/2000/svg">
<path d="M10.5452 3.06628C10.837 2.12935 12.163 2.12935 12.4548 3.06628L13.8631 7.5891C13.9933 8.00707 14.3801 8.2918 14.8179 8.2918H19.4629C20.4213 8.2918 20.8307 9.50967 20.067 10.0887L16.2369 12.9924C15.9013 13.2468 15.7611 13.6844 15.8863 14.0866L17.3318 18.7288C17.621 19.6577 16.5481 20.4107 15.7729 19.823L12.1041 17.0416C11.7469 16.7708 11.2531 16.7708 10.8959 17.0416L7.22712 19.823C6.45188 20.4107 5.37897 19.6577 5.6682 18.7288L7.11371 14.0866C7.23894 13.6844 7.09873 13.2468 6.76306 12.9924L2.93299 10.0887C2.16927 9.50968 2.57874 8.2918 3.53713 8.2918H8.18211C8.61987 8.2918 9.00675 8.00706 9.1369 7.5891L10.5452 3.06628Z" stroke="#333333" stroke-width="1.5"/>
</svg>
