<svg width="45" height="44" viewBox="0 0 45 44" fill="none" xmlns="http://www.w3.org/2000/svg">
<mask id="path-1-inside-1_1501_5126" fill="white">
<path d="M0.5 0.0507812H23C34.8741 0.0507812 44.5 9.67666 44.5 21.5508V21.5508C44.5 33.4249 34.8741 43.0508 23 43.0508H0.5V0.0507812Z"/>
</mask>
<path d="M0.5 0.0507812H23C34.8741 0.0507812 44.5 9.67666 44.5 21.5508V21.5508C44.5 33.4249 34.8741 43.0508 23 43.0508H0.5V0.0507812Z" fill="white"/>
<path d="M0.5 0.0507812V-0.949219H-0.5V0.0507812H0.5ZM0.5 43.0508H-0.5V44.0508H0.5V43.0508ZM0.5 0.0507812V1.05078H23V0.0507812V-0.949219H0.5V0.0507812ZM23 43.0508V42.0508H0.5V43.0508V44.0508H23V43.0508ZM0.5 43.0508H1.5V0.0507812H0.5H-0.5V43.0508H0.5ZM44.5 21.5508H43.5C43.5 32.8726 34.3218 42.0508 23 42.0508V43.0508V44.0508C35.4264 44.0508 45.5 33.9772 45.5 21.5508H44.5ZM23 0.0507812V1.05078C34.3218 1.05078 43.5 10.2289 43.5 21.5508H44.5H45.5C45.5 9.12437 35.4264 -0.949219 23 -0.949219V0.0507812Z" fill="#CCCCCC" mask="url(#path-1-inside-1_1501_5126)"/>
<path d="M16.5 18.5508L22.5 24.5508L28.5 18.5508" stroke="#4C4C4C" stroke-linecap="round"/>
</svg>
