<svg width="45" height="44" viewBox="0 0 45 44" fill="none" xmlns="http://www.w3.org/2000/svg">
<mask id="path-1-inside-1_1501_3796" fill="white">
<path d="M0.167969 0.0507812H22.668C34.5421 0.0507812 44.168 9.67666 44.168 21.5508V21.5508C44.168 33.4249 34.5421 43.0508 22.668 43.0508H0.167969V0.0507812Z"/>
</mask>
<path d="M0.167969 0.0507812H22.668C34.5421 0.0507812 44.168 9.67666 44.168 21.5508V21.5508C44.168 33.4249 34.5421 43.0508 22.668 43.0508H0.167969V0.0507812Z" fill="white"/>
<path d="M0.167969 0.0507812V-0.949219H-0.832031V0.0507812H0.167969ZM0.167969 43.0508H-0.832031V44.0508H0.167969V43.0508ZM0.167969 0.0507812V1.05078H22.668V0.0507812V-0.949219H0.167969V0.0507812ZM22.668 43.0508V42.0508H0.167969V43.0508V44.0508H22.668V43.0508ZM0.167969 43.0508H1.16797V0.0507812H0.167969H-0.832031V43.0508H0.167969ZM44.168 21.5508H43.168C43.168 32.8726 33.9898 42.0508 22.668 42.0508V43.0508V44.0508C35.0944 44.0508 45.168 33.9772 45.168 21.5508H44.168ZM22.668 0.0507812V1.05078C33.9898 1.05078 43.168 10.2289 43.168 21.5508H44.168H45.168C45.168 9.12437 35.0944 -0.949219 22.668 -0.949219V0.0507812Z" fill="#CCCCCC" mask="url(#path-1-inside-1_1501_3796)"/>
<path d="M16.168 18.5508L22.168 24.5508L28.168 18.5508" stroke="#4C4C4C" stroke-linecap="round"/>
</svg>
