<svg width="21" height="1" viewBox="0 0 21 1" fill="none" xmlns="http://www.w3.org/2000/svg">
<path d="M-4.37114e-08 -0.396484C-0.276142 -0.396484 -0.5 -0.172627 -0.5 0.103516C-0.5 0.379658 -0.276142 0.603516 4.37114e-08 0.603516L-4.37114e-08 -0.396484ZM21.3536 0.457067C21.5488 0.261805 21.5488 -0.0547775 21.3536 -0.25004L18.1716 -3.43202C17.9763 -3.62728 17.6597 -3.62728 17.4645 -3.43202C17.2692 -3.23676 17.2692 -2.92018 17.4645 -2.72491L20.2929 0.103514L17.4645 2.93194C17.2692 3.1272 17.2692 3.44379 17.4645 3.63905C17.6597 3.83431 17.9763 3.83431 18.1716 3.63905L21.3536 0.457067ZM0 0.103516L4.37114e-08 0.603516L21 0.603514L21 0.103514L21 -0.396486L-4.37114e-08 -0.396484L0 0.103516Z" fill="white"/>
</svg>
