<svg width="160" height="1" viewBox="0 0 160 1" fill="none" xmlns="http://www.w3.org/2000/svg">
<path d="M160.707 0.810608C161.098 0.420084 161.098 -0.213081 160.707 -0.603605L154.343 -6.96757C153.953 -7.35809 153.319 -7.35809 152.929 -6.96757C152.538 -6.57704 152.538 -5.94388 152.929 -5.55335L158.586 0.103502L152.929 5.76036C152.538 6.15088 152.538 6.78405 152.929 7.17457C153.319 7.56509 153.953 7.56509 154.343 7.17457L160.707 0.810608ZM0 0.103516L8.74228e-08 1.10352L1 1.10352L1 0.103516L1 -0.896484L-8.74228e-08 -0.896484L0 0.103516ZM3 0.103515L3 1.10352L5 1.10352L5 0.103515L5 -0.896485L3 -0.896485L3 0.103515ZM7 0.103515L7 1.10352L9 1.10351L9 0.103515L9 -0.896485L7 -0.896485L7 0.103515ZM11 0.103515L11 1.10351L13 1.10351L13 0.103514L13 -0.896486L11 -0.896485L11 0.103515ZM15 0.103514L15 1.10351L17 1.10351L17 0.103514L17 -0.896486L15 -0.896486L15 0.103514ZM19 0.103514L19 1.10351L21 1.10351L21 0.103514L21 -0.896486L19 -0.896486L19 0.103514ZM23 0.103514L23 1.10351L25 1.10351L25 0.103513L25 -0.896487L23 -0.896486L23 0.103514ZM27 0.103513L27 1.10351L29 1.10351L29 0.103513L29 -0.896487L27 -0.896487L27 0.103513ZM31 0.103513L31 1.10351L33 1.10351L33 0.103513L33 -0.896487L31 -0.896487L31 0.103513ZM35 0.103513L35 1.10351L37 1.10351L37 0.103512L37 -0.896488L35 -0.896487L35 0.103513ZM39 0.103512L39 1.10351L41 1.10351L41 0.103512L41 -0.896488L39 -0.896488L39 0.103512ZM43 0.103512L43 1.10351L45 1.10351L45 0.103512L45 -0.896488L43 -0.896488L43 0.103512ZM47 0.103512L47 1.10351L49 1.10351L49 0.103511L49 -0.896489L47 -0.896488L47 0.103512ZM51 0.103511L51 1.10351L53 1.10351L53 0.103511L53 -0.896489L51 -0.896489L51 0.103511ZM55 0.103511L55 1.10351L57 1.10351L57 0.103511L57 -0.896489L55 -0.896489L55 0.103511ZM59 0.10351L59 1.10351L61 1.10351L61 0.10351L61 -0.89649L59 -0.89649L59 0.10351ZM63 0.10351L63 1.10351L65 1.10351L65 0.10351L65 -0.89649L63 -0.89649L63 0.10351ZM67 0.10351L67 1.10351L69 1.10351L69 0.10351L69 -0.89649L67 -0.89649L67 0.10351ZM71 0.103509L71 1.10351L73 1.10351L73 0.103509L73 -0.896491L71 -0.896491L71 0.103509ZM75 0.103509L75 1.10351L77 1.10351L77 0.103509L77 -0.896491L75 -0.896491L75 0.103509ZM79 0.103509L79 1.10351L81 1.10351L81 0.103509L81 -0.896491L79 -0.896491L79 0.103509ZM83 0.103508L83 1.10351L85 1.10351L85 0.103508L85 -0.896492L83 -0.896492L83 0.103508ZM87 0.103508L87 1.10351L89 1.10351L89 0.103508L89 -0.896492L87 -0.896492L87 0.103508ZM91 0.103508L91 1.10351L93 1.10351L93 0.103507L93 -0.896493L91 -0.896492L91 0.103508ZM95 0.103507L95 1.10351L97 1.10351L97 0.103507L97 -0.896493L95 -0.896493L95 0.103507ZM99 0.103507L99 1.10351L101 1.10351L101 0.103507L101 -0.896493L99 -0.896493L99 0.103507ZM103 0.103507L103 1.10351L105 1.10351L105 0.103506L105 -0.896494L103 -0.896493L103 0.103507ZM107 0.103506L107 1.10351L109 1.10351L109 0.103506L109 -0.896494L107 -0.896494L107 0.103506ZM111 0.103506L111 1.10351L113 1.10351L113 0.103506L113 -0.896494L111 -0.896494L111 0.103506ZM115 0.103506L115 1.10351L117 1.10351L117 0.103505L117 -0.896495L115 -0.896494L115 0.103506ZM119 0.103505L119 1.10351L121 1.10351L121 0.103505L121 -0.896495L119 -0.896495L119 0.103505ZM123 0.103505L123 1.1035L125 1.1035L125 0.103505L125 -0.896495L123 -0.896495L123 0.103505ZM127 0.103505L127 1.1035L129 1.1035L129 0.103504L129 -0.896496L127 -0.896495L127 0.103505ZM131 0.103504L131 1.1035L133 1.1035L133 0.103504L133 -0.896496L131 -0.896496L131 0.103504ZM135 0.103504L135 1.1035L137 1.1035L137 0.103504L137 -0.896496L135 -0.896496L135 0.103504ZM139 0.103503L139 1.1035L141 1.1035L141 0.103503L141 -0.896497L139 -0.896497L139 0.103503ZM143 0.103503L143 1.1035L145 1.1035L145 0.103503L145 -0.896497L143 -0.896497L143 0.103503ZM147 0.103503L147 1.1035L149 1.1035L149 0.103503L149 -0.896497L147 -0.896497L147 0.103503ZM151 0.103502L151 1.1035L153 1.1035L153 0.103502L153 -0.896498L151 -0.896498L151 0.103502ZM155 0.103502L155 1.1035L157 1.1035L157 0.103502L157 -0.896498L155 -0.896498L155 0.103502ZM159 0.103502L159 1.1035L160 1.1035L160 0.103502L160 -0.896498L159 -0.896498L159 0.103502Z" fill="url(#paint0_linear_827_26775)"/>
<defs>
<linearGradient id="paint0_linear_827_26775" x1="4.37114e-08" y1="0.603516" x2="160" y2="0.603502" gradientUnits="userSpaceOnUse">
<stop stop-color="#FFECBD"/>
<stop offset="1" stop-color="#FF6700"/>
</linearGradient>
</defs>
</svg>
