<svg width="160" height="1" viewBox="0 0 160 1" fill="none" xmlns="http://www.w3.org/2000/svg">
<path d="M160.707 0.757869C161.098 0.367344 161.098 -0.265821 160.707 -0.656345L154.343 -7.02031C153.953 -7.41083 153.319 -7.41083 152.929 -7.02031C152.538 -6.62978 152.538 -5.99662 152.929 -5.60609L158.586 0.0507621L152.929 5.70762C152.538 6.09814 152.538 6.73131 152.929 7.12183C153.319 7.51235 153.953 7.51235 154.343 7.12183L160.707 0.757869ZM0 0.0507812L1.20709e-07 1.05078L1 1.05078L1 0.0507811L1 -0.949219L-1.20709e-07 -0.949219L0 0.0507812ZM3 0.0507809L3 1.05078L5 1.05078L5 0.0507806L5 -0.949219L3 -0.949219L3 0.0507809ZM7 0.0507804L7 1.05078L9 1.05078L9 0.0507802L9 -0.94922L7 -0.94922L7 0.0507804ZM11 0.0507799L11 1.05078L13 1.05078L13 0.0507797L13 -0.94922L11 -0.94922L11 0.0507799ZM15 0.0507794L15 1.05078L17 1.05078L17 0.0507792L17 -0.949221L15 -0.949221L15 0.0507794ZM19 0.050779L19 1.05078L21 1.05078L21 0.0507787L21 -0.949221L19 -0.949221L19 0.050779ZM23 0.0507785L23 1.05078L25 1.05078L25 0.0507782L25 -0.949222L23 -0.949222L23 0.0507785ZM27 0.050778L27 1.05078L29 1.05078L29 0.0507777L29 -0.949222L27 -0.949222L27 0.050778ZM31 0.0507775L31 1.05078L33 1.05078L33 0.0507773L33 -0.949223L31 -0.949222L31 0.0507775ZM35 0.050777L35 1.05078L37 1.05078L37 0.0507768L37 -0.949223L35 -0.949223L35 0.050777ZM39 0.0507765L39 1.05078L41 1.05078L41 0.0507763L41 -0.949224L39 -0.949223L39 0.0507765ZM43 0.0507761L43 1.05078L45 1.05078L45 0.0507758L45 -0.949224L43 -0.949224L43 0.0507761ZM47 0.0507756L47 1.05078L49 1.05078L49 0.0507753L49 -0.949225L47 -0.949224L47 0.0507756ZM51 0.0507751L51 1.05078L53 1.05077L53 0.0507749L53 -0.949225L51 -0.949225L51 0.0507751ZM55 0.0507746L55 1.05077L57 1.05077L57 0.0507744L57 -0.949226L55 -0.949225L55 0.0507746ZM59 0.0507741L59 1.05077L61 1.05077L61 0.0507739L61 -0.949226L59 -0.949226L59 0.0507741ZM63 0.0507736L63 1.05077L65 1.05077L65 0.0507734L65 -0.949227L63 -0.949226L63 0.0507736ZM67 0.0507732L67 1.05077L69 1.05077L69 0.0507729L69 -0.949227L67 -0.949227L67 0.0507732ZM71 0.0507727L71 1.05077L73 1.05077L73 0.0507724L73 -0.949228L71 -0.949227L71 0.0507727ZM75 0.0507722L75 1.05077L77 1.05077L77 0.050772L77 -0.949228L75 -0.949228L75 0.0507722ZM79 0.0507717L79 1.05077L81 1.05077L81 0.0507715L81 -0.949229L79 -0.949228L79 0.0507717ZM83 0.0507712L83 1.05077L85 1.05077L85 0.050771L85 -0.949229L83 -0.949229L83 0.0507712ZM87 0.0507707L87 1.05077L89 1.05077L89 0.0507705L89 -0.949229L87 -0.949229L87 0.0507707ZM91 0.0507703L91 1.05077L93 1.05077L93 0.05077L93 -0.94923L91 -0.94923L91 0.0507703ZM95 0.0507698L95 1.05077L97 1.05077L97 0.0507695L97 -0.94923L95 -0.94923L95 0.0507698ZM99 0.0507693L99 1.05077L101 1.05077L101 0.0507691L101 -0.949231L99 -0.949231L99 0.0507693ZM103 0.0507688L103 1.05077L105 1.05077L105 0.0507686L105 -0.949231L103 -0.949231L103 0.0507688ZM107 0.0507683L107 1.05077L109 1.05077L109 0.0507681L109 -0.949232L107 -0.949232L107 0.0507683ZM111 0.0507679L111 1.05077L113 1.05077L113 0.0507676L113 -0.949232L111 -0.949232L111 0.0507679ZM115 0.0507674L115 1.05077L117 1.05077L117 0.0507671L117 -0.949233L115 -0.949233L115 0.0507674ZM119 0.0507669L119 1.05077L121 1.05077L121 0.0507666L121 -0.949233L119 -0.949233L119 0.0507669ZM123 0.0507664L123 1.05077L125 1.05077L125 0.0507662L125 -0.949234L123 -0.949234L123 0.0507664ZM127 0.0507659L127 1.05077L129 1.05077L129 0.0507657L129 -0.949234L127 -0.949234L127 0.0507659ZM131 0.0507654L131 1.05077L133 1.05077L133 0.0507652L133 -0.949235L131 -0.949235L131 0.0507654ZM135 0.050765L135 1.05076L137 1.05076L137 0.0507647L137 -0.949235L135 -0.949235L135 0.050765ZM139 0.0507645L139 1.05076L141 1.05076L141 0.0507642L141 -0.949236L139 -0.949236L139 0.0507645ZM143 0.050764L143 1.05076L145 1.05076L145 0.0507637L145 -0.949236L143 -0.949236L143 0.050764ZM147 0.0507635L147 1.05076L149 1.05076L149 0.0507633L149 -0.949237L147 -0.949236L147 0.0507635ZM151 0.050763L151 1.05076L153 1.05076L153 0.0507628L153 -0.949237L151 -0.949237L151 0.050763ZM155 0.0507625L155 1.05076L157 1.05076L157 0.0507623L157 -0.949238L155 -0.949237L155 0.0507625ZM159 0.0507621L159 1.05076L160 1.05076L160 0.0507619L160 -0.949238L159 -0.949238L159 0.0507621Z" fill="url(#paint0_linear_827_26774)"/>
<defs>
<linearGradient id="paint0_linear_827_26774" x1="6.03546e-08" y1="0.550781" x2="160" y2="0.550762" gradientUnits="userSpaceOnUse">
<stop stop-color="#FFECBD"/>
<stop offset="1" stop-color="#FF6700"/>
</linearGradient>
</defs>
</svg>
