<svg width="130" height="129" viewBox="0 0 130 129" fill="none" xmlns="http://www.w3.org/2000/svg">
<mask id="mask0_777_10391" style="mask-type:luminance" maskUnits="userSpaceOnUse" x="0" y="0" width="130" height="129">
<path d="M129.102 0.0195312H0.896484V128.225H129.102V0.0195312Z" fill="white"/>
</mask>
<g mask="url(#mask0_777_10391)">
<path d="M64.999 128.225C100.402 128.225 129.102 99.525 129.102 64.1221C129.102 28.7192 100.402 0.0195312 64.999 0.0195312C29.5962 0.0195312 0.896484 28.7192 0.896484 64.1221C0.896484 99.525 29.5962 128.225 64.999 128.225Z" fill="white"/>
<path d="M60.3282 69.0381H16.8887C17.1918 72.1905 17.8058 75.3053 18.7216 78.337H44.4548L27.706 95.0938C29.6835 97.4893 31.885 99.6908 34.2805 101.668L51.0373 84.9115V110.645C54.069 111.561 57.1838 112.174 60.3362 112.478L60.3282 69.0381Z" fill="#0060AC"/>
<path d="M113.063 69.0381H69.625V112.476C72.7751 112.172 75.8878 111.56 78.9179 110.647V82.0169V78.337H101.388C99.5632 83.0534 96.8421 87.3718 93.375 91.0533V103.419C101.893 97.2203 108.16 88.4154 111.228 78.337C111.246 78.2789 111.26 78.2168 111.278 78.1547C111.454 77.5537 111.618 76.9648 111.772 76.3618C111.813 76.2016 111.857 76.0413 111.893 75.879C112.05 75.2393 112.195 74.5957 112.327 73.9479C112.361 73.7737 112.391 73.5994 112.425 73.4291C112.53 72.8776 112.625 72.322 112.712 71.7624C112.736 71.6042 112.762 71.4499 112.784 71.2917C112.858 70.7749 112.926 70.258 112.984 69.7352H112.974C113.006 69.5008 113.043 69.2705 113.063 69.0381Z" fill="#0060AC"/>
<path d="M64.9747 16.0361C52.922 16.0518 41.3105 20.5724 32.42 28.7105C23.5295 36.8485 18.0024 48.0161 16.9238 60.0205H49.7504L54.9266 50.7577H28.4242C29.2554 48.5215 30.29 46.3664 31.5152 44.3194H58.5284L63.7067 35.0566H39.2175C46.3262 28.7702 55.4882 25.3002 64.9778 25.3002C74.4673 25.3002 83.6293 28.7702 90.738 35.0566H66.2468L71.425 44.3194H98.4383C99.6634 46.3664 100.698 48.5215 101.529 50.7577H75.0228L80.2011 60.0205H113.028C111.949 48.016 106.421 36.8483 97.5302 28.7103C88.6394 20.5723 77.0276 16.0517 64.9747 16.0361Z" fill="#0060AC"/>
</g>
</svg>
