<svg width="72" height="24" viewBox="0 0 72 24" fill="none" xmlns="http://www.w3.org/2000/svg">
<mask id="mask0_769_9624" style="mask-type:luminance" maskUnits="userSpaceOnUse" x="0" y="0" width="72" height="24">
<path d="M72 0H0V24H72V0Z" fill="white"/>
</mask>
<g mask="url(#mask0_769_9624)">
<path fill-rule="evenodd" clip-rule="evenodd" d="M0 0H4.107C4.242 6.418 7.27 9.137 9.669 9.698V0H13.537V5.536C15.905 5.297 18.394 2.775 19.233 0H23.101C22.784 1.439 22.154 2.802 21.248 4.002C20.343 5.203 19.182 6.217 17.839 6.979C19.339 7.675 20.664 8.661 21.726 9.871C22.788 11.082 23.563 12.489 24 14H19.743C19.35 12.687 18.552 11.512 17.448 10.622C16.344 9.732 14.983 9.167 13.537 8.997V14H13.072C4.872 14 0.195 8.745 0 0Z" fill="white"/>
<path fill-rule="evenodd" clip-rule="evenodd" d="M47.9908 1.73613C47.6578 5.25013 46.2188 13.7761 45.4868 17.7121C45.1768 19.3771 44.5668 19.9361 43.9758 19.9901C42.6928 20.1091 41.7178 19.1371 40.4748 18.3181C38.5298 17.0361 37.4308 16.2381 35.5428 14.9871C33.3608 13.5411 34.7758 12.7471 36.0188 11.4481C36.3448 11.1081 41.9988 5.93613 42.1088 5.46713C42.1218 5.40813 42.1348 5.18913 42.0058 5.07413C41.8758 4.95913 41.6858 4.99813 41.5478 5.02913C41.3528 5.07413 38.2458 7.13913 32.2258 11.2251C31.3438 11.8341 30.5448 12.1301 29.8298 12.1151C29.0398 12.0981 27.5228 11.6661 26.3938 11.2971C25.0098 10.8451 23.9098 10.6061 24.0058 9.83813C24.0558 9.43713 24.6038 9.02813 25.6498 8.61013C32.0928 5.78813 36.3888 3.92713 38.5378 3.02813C44.6758 0.461135 45.9508 0.0151345 46.7828 0.000134467C46.9648 -0.00286553 47.3738 0.0431345 47.6388 0.259134C47.8148 0.412134 47.9268 0.627135 47.9528 0.860134C47.9978 1.15013 48.0108 1.44313 47.9908 1.73613Z" fill="white"/>
<path fill-rule="evenodd" clip-rule="evenodd" d="M58.661 5.33C58.661 8.274 56.276 10.662 53.331 10.662C50.387 10.662 48 8.274 48 5.33C48 2.387 50.387 0 53.331 0C56.276 0 58.661 2.387 58.661 5.33ZM72 17.515C72 21.097 69.096 24 65.514 24C61.934 24 59.032 21.097 59.032 17.515C59.032 13.933 61.934 11.029 65.514 11.029C69.096 11.029 72 13.933 72 17.515ZM69.689 5.33C69.689 7.636 67.82 9.506 65.514 9.506C63.211 9.506 61.341 7.636 61.341 5.33C61.341 3.025 63.211 1.157 65.514 1.157C67.82 1.157 69.689 3.025 69.689 5.33ZM56.351 17.515C56.351 19.183 54.999 20.533 53.331 20.533C51.664 20.533 50.311 19.183 50.311 17.515C50.311 15.847 51.664 14.498 53.331 14.498C54.999 14.498 56.351 15.847 56.351 17.515Z" fill="white"/>
</g>
</svg>
