<svg width="99" height="100" viewBox="0 0 99 100" fill="none" xmlns="http://www.w3.org/2000/svg">
<mask id="mask0_777_10423" style="mask-type:luminance" maskUnits="userSpaceOnUse" x="0" y="0" width="99" height="100">
<path d="M98.9061 0.93457H0.140625V99.7H98.9061V0.93457Z" fill="white"/>
</mask>
<g mask="url(#mask0_777_10423)">
<path d="M49.5233 99.7C76.7967 99.7 98.9061 77.5906 98.9061 50.3173C98.9061 23.044 76.7967 0.93457 49.5233 0.93457C22.25 0.93457 0.140625 23.044 0.140625 50.3173C0.140625 77.5906 22.25 99.7 49.5233 99.7Z" fill="#009DDB"/>
<path d="M37.7578 64.7481L62.7562 40.055C64.9365 37.9261 67.7399 36.5286 70.7695 36.0603C73.7992 35.592 76.9011 36.077 79.6361 37.4461C82.371 38.8152 84.6003 40.9994 86.0078 43.6891C87.4153 46.3786 87.9299 49.4373 87.4786 52.4316C87.0272 55.4261 85.6329 58.2044 83.493 60.3728C81.3532 62.5413 78.5765 63.99 75.5562 64.5137C72.536 65.0375 69.4253 64.6095 66.6651 63.2907C63.9048 61.9719 61.635 59.8291 60.1771 57.1657V57.1133L60.2808 57.0595L65.1507 52.2455C65.4207 53.3183 65.9105 54.3252 66.59 55.2039C67.2697 56.0825 68.1244 56.8144 69.1015 57.3541C70.3107 58.0098 71.6678 58.3533 73.0473 58.3526H73.1144C74.4653 58.3542 75.7958 58.0263 76.9876 57.3981C78.1793 56.7698 79.1953 55.8605 79.9455 54.7513C80.6955 53.6419 81.1563 52.3668 81.2871 51.0393C81.4178 49.7118 81.2142 48.3729 80.6946 47.1418C80.175 45.9105 79.3553 44.8252 78.3084 43.9821C77.2615 43.1391 76.0199 42.5642 74.6939 42.3091C73.3678 42.0537 71.9984 42.1258 70.7074 42.5189C69.4165 42.9119 68.2437 43.6137 67.2936 44.562L46.8694 64.7481H37.7578Z" fill="white"/>
<path d="M61.5999 35.8867L36.4574 60.3047C34.2637 62.4125 31.4421 63.797 28.3924 64.2617C25.3427 64.7263 22.2196 64.2478 19.4658 62.8939C16.712 61.5399 14.467 59.3792 13.0491 56.7179C11.6313 54.0567 11.1123 51.0298 11.5658 48.0663C12.0194 45.1029 13.4224 42.3531 15.5761 40.2066C17.7296 38.0602 20.5248 36.626 23.5652 36.1072C26.6056 35.5884 29.7372 36.0114 32.5161 37.3163C35.295 38.6212 37.5801 40.7417 39.048 43.3773V43.407L38.945 43.4599L34.0411 48.2402C33.7677 47.1754 33.2714 46.1766 32.5831 45.3061C31.8948 44.4355 31.0292 43.7118 30.0403 43.1798C28.8246 42.5356 27.4614 42.1986 26.0762 42.1998H26.0088C24.6496 42.1957 23.3105 42.5177 22.1104 43.137C20.9103 43.7563 19.8864 44.6538 19.1299 45.7497C18.3733 46.8455 17.9074 48.1059 17.7737 49.4186C17.64 50.7312 17.8426 52.0556 18.3633 53.2741C18.8842 54.4925 19.707 55.5672 20.759 56.4025C21.8109 57.2379 23.0591 57.8081 24.3929 58.0624C25.7266 58.3167 27.1043 58.2473 28.4038 57.8603C29.7032 57.4734 30.884 56.7808 31.841 55.8442L52.4166 35.8867H61.5999Z" fill="white"/>
</g>
</svg>
