<svg width="9" height="8" viewBox="0 0 9 8" fill="none" xmlns="http://www.w3.org/2000/svg">
<path d="M2.43215 4.1782L0.479747 3.54207C0.479747 3.54207 0.246413 3.4474 0.321547 3.23274C0.337013 3.18847 0.368213 3.1508 0.461547 3.08607C0.894147 2.78454 8.46861 0.0620688 8.46861 0.0620688C8.46861 0.0620688 8.68248 -0.00999787 8.80861 0.0379355C8.87208 0.0576021 8.92015 0.110002 8.93428 0.174935C8.94788 0.231335 8.95361 0.289335 8.95121 0.347269C8.95061 0.397402 8.94455 0.443869 8.93995 0.516735C8.89381 1.26107 7.51328 6.81627 7.51328 6.81627C7.51328 6.81627 7.43068 7.14134 7.13475 7.15247C6.98788 7.1572 6.84521 7.102 6.73975 6.99967C6.15901 6.50014 4.15181 5.1512 3.70828 4.85454C3.68808 4.84074 3.67475 4.81887 3.67188 4.79454C3.66568 4.76327 3.69968 4.72454 3.69968 4.72454C3.69968 4.72454 7.19475 1.61787 7.28775 1.29174C7.29495 1.26647 7.26775 1.254 7.23121 1.26507C6.99908 1.35047 2.97495 3.89174 2.53081 4.1722C2.49881 4.18187 2.46508 4.18394 2.43215 4.1782Z" fill="white"/>
</svg>
