<svg width="356" height="58" viewBox="0 0 356 58" fill="none" xmlns="http://www.w3.org/2000/svg">
<path d="M91.2811 18.7673C89.2405 17.1162 86.6674 16.2527 84.0385 16.3398H73.668V44.247H80.2031V34.8149H85.7886C86.3826 34.8167 86.9765 34.7556 87.5574 34.6296H87.8925C89.8866 34.0125 91.5883 32.695 92.6775 30.9234C93.7295 29.3984 94.2768 27.5842 94.2415 25.7349C94.4128 23.0794 93.3143 20.4944 91.2811 18.7673ZM87.5574 25.5866C87.63 26.4816 87.2781 27.36 86.6079 27.9585C85.7235 28.5812 84.6548 28.8888 83.573 28.8295H80.1845V22.3067H83.6475C84.7274 22.2326 85.798 22.5494 86.6637 23.1962C87.3489 23.7947 87.7138 24.6805 87.6505 25.5866H87.5574ZM325.093 18.7673C323.045 17.1162 320.466 16.2546 317.832 16.3398H307.461V44.247H313.996V34.8149H319.582C320.207 34.8242 320.833 34.763 321.444 34.6296H321.797C323.784 34.007 325.476 32.6913 326.564 30.9234C327.616 29.3984 328.163 27.5842 328.128 25.7349C328.275 23.0683 327.148 20.4833 325.093 18.7673ZM321.369 25.5866C321.444 26.4854 321.084 27.3674 320.401 27.9585C319.526 28.583 318.461 28.8906 317.385 28.8295H313.922V22.3067H317.385C318.459 22.2307 319.526 22.5476 320.382 23.1962C321.075 23.791 321.442 24.6786 321.369 25.5866ZM127.438 19.4715C121.812 13.9809 112.678 13.9809 107.051 19.4715C101.667 25.2586 101.667 34.309 107.051 40.0961C112.726 45.5608 121.857 45.5608 127.531 40.0961C132.899 34.3016 132.899 25.266 127.531 19.4715H127.438ZM122.709 35.797C121.264 37.2387 119.3 38.0485 117.254 38.0485C115.208 38.0485 113.244 37.2387 111.799 35.797C108.963 32.3429 108.963 27.3359 111.799 23.8818C113.238 22.416 115.213 21.5877 117.273 21.5877C119.287 21.5877 121.222 22.379 122.653 23.7891V23.8818C125.511 27.3266 125.511 32.3522 122.653 35.797H122.709ZM294.447 19.4715C288.822 13.9938 279.703 13.9938 274.078 19.4715C268.694 25.2586 268.694 34.309 274.078 40.0961C279.749 45.5701 288.887 45.5701 294.558 40.0961C299.943 34.309 299.943 25.2586 294.558 19.4715H294.447ZM289.718 35.7229C288.275 37.1627 286.314 37.9725 284.272 37.9725C282.229 37.9725 280.269 37.1627 278.826 35.7229C275.99 32.2688 275.99 27.2618 278.826 23.8077C280.265 22.3419 282.24 21.5136 284.3 21.5136C286.314 21.5136 288.249 22.3048 289.68 23.715L289.773 23.8077C292.669 27.2395 292.669 32.291 289.773 35.7229H289.718ZM356 16.3398H336.767V44.247H343.339V22.3623H351.997L352.313 21.8805L354.901 18.0076L356 16.3398ZM264.229 16.3398H240.081V22.3623H248.85V44.247H255.459V22.3623H264.229V16.3398ZM160.505 36.9644L159.89 36.668L159.351 37.0942C158.062 38.0578 156.474 38.5433 154.863 38.4654C152.639 38.5673 150.471 37.7242 148.906 36.1491C147.338 34.4925 146.511 32.2706 146.615 29.9969C146.509 27.7566 147.338 25.5681 148.906 23.9559C150.462 22.4012 152.605 21.5673 154.808 21.6581C155.772 21.6711 156.723 21.886 157.6 22.2882C158.561 22.7218 159.418 23.3537 160.114 24.1412L160.766 24.9195L161.566 24.308L164.564 22.0658L165.476 21.3802L164.75 20.5277C162.335 17.4924 158.641 15.7339 154.752 15.7654C152.806 15.7505 150.874 16.0971 149.054 16.7845C147.306 17.4387 145.714 18.4486 144.381 19.7495C143.015 21.0447 141.948 22.618 141.253 24.3636C140.538 26.1296 140.179 28.0178 140.192 29.9228C140.186 31.8222 140.533 33.7086 141.216 35.482C141.892 37.2072 142.905 38.7804 144.195 40.1147C145.513 41.4285 147.101 42.4477 148.85 43.0981C150.736 43.7726 152.728 44.1062 154.733 44.0802C158.04 44.2359 161.278 43.0759 163.726 40.8559C163.957 40.6409 164.175 40.4111 164.378 40.1702L165.29 39.114L164.024 38.5025L160.505 36.9644ZM198.375 24.3821C196.934 20.8946 194.1 18.154 190.555 16.8216C188.77 16.1527 186.878 15.8061 184.97 15.8024C181.077 15.7728 177.381 17.5387 174.971 20.5833L174.245 21.4543L175.158 22.1214L178.137 24.3636L178.956 24.9751L179.608 24.2153C180.298 23.4296 181.149 22.7977 182.102 22.3623C182.977 21.9583 183.931 21.7508 184.895 21.7508C187.103 21.6414 189.258 22.4698 190.816 24.03L191.412 24.6971C191.445 24.7861 191.503 24.8621 191.579 24.9195C192.272 25.8905 192.737 27.0061 192.938 28.1809H182.009L183.145 29.8487L185.137 32.795L185.454 33.2583H192.529C192.151 34.3776 191.512 35.3949 190.667 36.2232C189.105 37.8039 186.934 38.6489 184.709 38.5396C183.104 38.6229 181.52 38.1374 180.241 37.1683L179.701 36.7421L179.086 37.0386L175.53 38.7619L174.264 39.3734L175.176 40.4297C175.4 40.6891 175.623 40.8929 175.828 41.1153C178.276 43.3353 181.514 44.4953 184.821 44.3396C186.826 44.3674 188.818 44.0357 190.704 43.3575C192.449 42.7108 194.031 41.6935 195.34 40.3741C196.642 39.0454 197.662 37.4703 198.338 35.7414C199.021 33.968 199.367 32.0816 199.362 30.1822C199.418 28.2031 199.083 26.2333 198.375 24.3821ZM233.676 42.7831L223.026 17.044L222.765 16.3769H216.677L216.416 17.044L205.841 42.7831L205.227 44.2655H212.674L212.935 43.5799L219.805 26.6614L226.619 43.5614L226.899 44.247H234.346L233.676 42.7831Z" fill="#0450F2"/>
<path d="M26.3618 31.882H0.0898438C0.268515 33.776 0.640442 35.6465 1.20198 37.4645H16.7719L6.63503 47.5419C7.8201 48.9919 9.15101 50.315 10.6096 51.4932L20.7464 41.4157V56.8944C22.575 57.4526 24.4565 57.8224 26.3618 58V31.882ZM58.2673 31.882H31.9954V58C33.9006 57.8224 35.7821 57.4526 37.6107 56.8944V37.4645H51.1387C50.0338 40.301 48.3875 42.8983 46.289 45.1132V52.5625C51.4395 48.836 55.2299 43.5417 57.0822 37.4826V37.3738C57.1916 37.0295 57.2828 36.667 57.3739 36.3045C57.3794 36.2084 57.3794 36.1105 57.3739 36.0145C57.4833 35.6157 57.5563 35.2351 57.6474 34.8545V34.5282C57.6474 34.202 57.775 33.8757 57.8297 33.5313C57.8224 33.4353 57.8224 33.3374 57.8297 33.2413C57.8297 32.9332 57.9209 32.6251 57.9573 32.317C58.0467 32.1629 58.1506 32.0179 58.2673 31.882ZM29.2606 0.000217085C14.183 -0.0577827 1.41894 11.5132 0.0898438 26.4445H19.9624L23.0983 20.8801H7.0726C7.56121 19.5407 8.17197 18.2484 8.89577 17.0195H25.3043L28.4402 11.437H13.5996C22.4565 3.66145 35.9006 3.66145 44.7576 11.437H29.9534L33.0893 17.0195H49.4978C50.2216 18.2484 50.8306 19.5407 51.321 20.8801H35.2771L38.3765 26.4445H58.2491C56.9273 11.5821 44.269 0.0346545 29.2606 0.000217085Z" fill="#0450F2"/>
</svg>
