<svg width="16" height="17" viewBox="0 0 16 17" fill="none" xmlns="http://www.w3.org/2000/svg">
<path d="M0 8.18C0 4.55968 0 2.74944 1.12464 1.62464C2.24944 0.5 4.05968 0.5 7.68 0.5H8.32C11.9403 0.5 13.7506 0.5 14.8754 1.62464C16 2.74944 16 4.55968 16 8.18V8.82C16 12.4403 16 14.2506 14.8754 15.3754C13.7506 16.5 11.9403 16.5 8.32 16.5H7.68C4.05968 16.5 2.24944 16.5 1.12464 15.3754C0 14.2506 0 12.4403 0 8.82V8.18Z" fill="#4C4C4C"/>
<path d="M8.51266 12.0272C4.86594 12.0272 2.78594 9.52719 2.69922 5.36719H4.52594C4.58594 8.42047 5.9325 9.71391 6.99922 9.98047V5.36719H8.71922V8.00047C9.77266 7.88719 10.8791 6.68719 11.2525 5.36719H12.9725C12.6859 6.99391 11.4859 8.19391 10.6325 8.68719C11.4859 9.08719 12.8527 10.1339 13.3727 12.0272H11.4792C11.0725 10.7605 10.0592 9.78047 8.71922 9.64719V12.0272H8.51266Z" fill="white"/>
</svg>
