<svg width="543" height="417" viewBox="0 0 543 417" fill="none" xmlns="http://www.w3.org/2000/svg">
<path d="M189.675 61.0535C204.304 61.0535 216.77 55.6828 227.115 45.3312C237.46 34.9796 242.827 22.5057 242.827 7.86621L233 0.5L64.4985 7.86621C49.8687 7.86621 37.0134 12.8904 26.7119 23.242C16.3672 33.5503 0.5 39.3605 0.5 54L13 61.0535H189.675Z" fill="url(#paint0_linear_773_10251)"/>
<path d="M179.675 54.0535C194.304 54.0535 206.77 48.6828 217.115 38.3312C227.46 27.9796 232.827 15.5057 232.827 0.866211H54.4985C39.8687 0.866211 27.0134 5.89042 16.7119 16.242C6.36716 26.5503 1 39.414 1 54.0535H179.675Z" fill="url(#paint1_linear_773_10251)"/>
<path d="M349.533 63C334.511 63 321.711 56.9414 311.089 45.2638C300.467 33.6352 295 19.5147 295 3H478.067C493.089 3 506.244 8.61889 516.867 20.2964C527.489 31.9739 533 46.4853 533 63H349.533Z" fill="url(#paint2_linear_773_10251)"/>
<path d="M344.32 54.0535C329.69 54.0535 317.224 48.6828 306.88 38.3312C296.535 28.0229 291.211 15.5057 291.211 0.866211H469.496C484.126 0.866211 496.938 5.8471 507.283 16.1987C517.627 26.5503 522.995 39.414 522.995 54.0535H344.32Z" fill="url(#paint3_linear_773_10251)"/>
<path d="M242.784 318.158V199.613C242.784 179.602 235.642 162.494 221.401 148.201C207.507 133.908 190.367 126.762 170.067 126.762H81.2493C66.6194 126.762 53.8075 132.132 43.4627 142.484C33.1179 152.836 18 157.861 18 172.5L28 180.339H165.436C172.231 180.339 177.901 182.851 182.533 187.485C187.164 192.12 189.675 197.837 189.675 204.637V264.624H64.4985C49.8687 264.624 37.0567 269.995 26.7119 280.346C16.3672 290.611 1 295.361 1 310L11 318.158H242.784Z" fill="url(#paint4_linear_773_10251)"/>
<path d="M232.784 310.158V191.613C232.784 171.602 225.642 154.494 211.401 140.201C197.507 125.908 180.367 118.762 160.067 118.762H71.2493C56.6194 118.762 43.8075 124.132 33.4627 134.484C23.1179 144.836 18.1403 157.699 18.1403 172.339H155.436C162.231 172.339 167.901 174.851 172.533 179.485C177.164 184.12 179.675 189.837 179.675 196.637V256.624H54.4985C39.8687 256.624 27.0567 261.995 16.7119 272.346C6.36716 282.611 1 295.475 1 310.115L232.784 310.158Z" fill="url(#paint5_linear_773_10251)"/>
<path d="M291 310.283L303.526 199.303C303.526 179.443 310.687 162.464 324.967 148.278C338.9 134.093 356.088 127 376.445 127H465.511C480.182 127 493.03 132.33 503.403 142.604C513.777 152.878 518.768 165.645 518.768 180.174H381.133C374.318 180.174 368.632 182.667 363.988 187.267C359.344 191.867 356.826 197.541 356.826 204.29V263.826H482.352C497.023 263.826 509.87 269.156 520.244 279.43C530.618 289.704 536 302.471 536 317H303.526L291 310.283Z" fill="url(#paint6_linear_773_10251)"/>
<path d="M291.186 310.161V191.616C291.186 171.605 298.327 154.497 312.568 140.204C326.462 125.911 343.602 118.765 363.902 118.765H452.72C467.35 118.765 480.162 124.135 490.506 134.487C500.851 144.839 505.829 157.702 505.829 172.342H368.577C361.781 172.342 356.111 174.854 351.48 179.488C346.848 184.123 344.338 189.84 344.338 196.64V256.627H469.514C484.144 256.627 496.956 261.998 507.3 272.349C517.645 282.701 523.012 295.565 523.012 310.204L291.186 310.161Z" fill="url(#paint7_linear_773_10251)"/>
<path d="M113.269 343H438C452.709 343 468 357.815 468 376H87.4713L77 368.781C77 350.596 98.5609 343 113.269 343Z" fill="url(#paint8_linear_773_10251)"/>
<path d="M103.388 342.3H432.603C447.363 342.3 459.352 354.297 459.352 369.023H76.6387C76.6387 354.297 88.6282 342.3 103.388 342.3Z" fill="url(#paint9_linear_773_10251)"/>
<path d="M47.706 384H513C527.76 384 543 398.791 543 417H22L7 408.5C7 390.291 32.9896 384 47.706 384Z" fill="url(#paint10_linear_773_10251)"/>
<path d="M33.706 381.8H502.251C517.01 381.8 529 393.797 529 408.567H7C7 393.797 18.9896 381.8 33.706 381.8Z" fill="url(#paint11_linear_773_10251)"/>
<defs>
<linearGradient id="paint0_linear_773_10251" x1="20.4999" y1="1.50011" x2="344.5" y2="132.5" gradientUnits="userSpaceOnUse">
<stop stop-color="#FF6700"/>
<stop offset="1" stop-color="#993E00"/>
</linearGradient>
<linearGradient id="paint1_linear_773_10251" x1="171" y1="0.999992" x2="281.5" y2="318.5" gradientUnits="userSpaceOnUse">
<stop stop-color="#FF6700"/>
<stop offset="1" stop-color="#993E00"/>
</linearGradient>
<linearGradient id="paint2_linear_773_10251" x1="276.814" y1="-16.5906" x2="551.272" y2="63.6745" gradientUnits="userSpaceOnUse">
<stop stop-color="#FF6700"/>
<stop offset="1" stop-color="#993E00"/>
</linearGradient>
<linearGradient id="paint3_linear_773_10251" x1="344" y1="1.00003" x2="523" y2="322.5" gradientUnits="userSpaceOnUse">
<stop stop-color="#FF6700"/>
<stop offset="1" stop-color="#993E00"/>
</linearGradient>
<linearGradient id="paint4_linear_773_10251" x1="4.99999" y1="109.5" x2="262.5" y2="349" gradientUnits="userSpaceOnUse">
<stop stop-color="#FF6700"/>
<stop offset="1" stop-color="#993E00"/>
</linearGradient>
<linearGradient id="paint5_linear_773_10251" x1="139" y1="167.5" x2="322" y2="484.5" gradientUnits="userSpaceOnUse">
<stop stop-color="#FF6700"/>
<stop offset="1" stop-color="#993E00"/>
</linearGradient>
<linearGradient id="paint6_linear_773_10251" x1="209.578" y1="43.3689" x2="544.761" y2="359.457" gradientUnits="userSpaceOnUse">
<stop stop-color="#FF6700"/>
<stop offset="1" stop-color="#993E00"/>
</linearGradient>
<linearGradient id="paint7_linear_773_10251" x1="365" y1="119" x2="489" y2="438" gradientUnits="userSpaceOnUse">
<stop stop-color="#FF6700"/>
<stop offset="1" stop-color="#993E00"/>
</linearGradient>
<linearGradient id="paint8_linear_773_10251" x1="39.5481" y1="281.504" x2="478.151" y2="353.681" gradientUnits="userSpaceOnUse">
<stop stop-color="#464646"/>
<stop offset="1"/>
</linearGradient>
<linearGradient id="paint9_linear_773_10251" x1="-294" y1="16" x2="395.5" y2="369" gradientUnits="userSpaceOnUse">
<stop stop-color="#999999"/>
<stop offset="1" stop-color="#333333"/>
</linearGradient>
<linearGradient id="paint10_linear_773_10251" x1="21" y1="400.5" x2="543" y2="400.5" gradientUnits="userSpaceOnUse">
<stop stop-color="#333333"/>
<stop offset="1" stop-color="#0F0F0F"/>
</linearGradient>
<linearGradient id="paint11_linear_773_10251" x1="-168" y1="178.5" x2="522.5" y2="409" gradientUnits="userSpaceOnUse">
<stop stop-color="#686868"/>
<stop offset="1" stop-color="#333333"/>
</linearGradient>
</defs>
</svg>
