<svg width="912" height="661" viewBox="0 0 912 661" fill="none" xmlns="http://www.w3.org/2000/svg">
<path d="M828.06 568.129C813.341 582.336 799.413 591.497 788.409 598.736C659.062 683.821 506.009 659.019 473.481 652.962C425.448 644.018 332.6 626.729 265.472 554.358C163.914 444.866 179.728 272.365 258.504 158.494C272.913 137.666 349.027 22.0606 503.728 3.52127C597.351 -7.69848 706.486 14.9304 785.518 75.6338C951.415 203.056 939.605 460.471 828.06 568.129Z" fill="url(#paint0_linear_918_6448)"/>
<path d="M313.049 309.649C313.049 309.649 288.556 246.283 248.831 238.945C209.106 231.608 142.518 239.132 102.59 149.525C79.2139 97.0648 68.1132 74.3838 62.9267 64.5943C60.9036 60.7756 63.5286 56.4579 68.2131 55.9176C101.351 52.0958 210.867 44.1629 257.295 98.8557C312.337 163.694 313.049 309.649 313.049 309.649Z" fill="#FDE6D8"/>
<path opacity="0.25" d="M103.079 74.298C148.061 91.2483 206.9 127.284 247.457 168.634C253.38 175.67 268.116 190.011 283.78 218.548C297.045 242.29 306.341 268.75 309.809 287.046C310.028 288.203 309.142 289.262 307.828 289.412C305.571 289.67 305.015 287.575 305.06 287.633C297.047 256.98 280.089 220.859 256.721 190.611C227.549 153.61 183.733 122.251 141.456 97.1417L137.167 94.7058C104.729 76.0163 100.017 77.1789 101.349 74.8315C101.663 74.2772 102.423 74.0524 103.079 74.298Z" fill="white"/>
<path d="M406.596 382.155C412.682 382.814 333.091 339.582 275.404 251.14C248.221 209.464 223.962 154.258 186.268 141.633C154.897 131.125 79.4007 166.841 54.9565 179.118C51.902 180.652 52.4019 184.663 55.7919 185.784C72.5044 191.307 109.156 205.181 125.93 225.317C148.04 251.857 187.765 260.907 218.227 257.341C248.689 253.776 266.55 253.886 297.794 289.661C329.039 325.435 389.304 380.285 406.596 382.155Z" fill="#FDBF95"/>
<path opacity="0.25" d="M97.917 180.906C132.109 171.891 174.166 174.447 203.635 194.312L206.428 196.213C212.917 200.69 253.281 234.272 280.547 263.999C280.887 264.369 280.828 264.899 280.416 265.182C279.715 265.662 278.97 265.003 279.077 265.049C262.016 248.761 238.91 228.561 221.019 213.641C201.685 197.304 188.349 186.314 158.262 181.066C124.976 175.684 98.2878 182.224 98.3723 182.214C97.9587 182.3 97.5315 182.074 97.4182 181.71C97.309 181.359 97.5321 181.008 97.917 180.906Z" fill="white"/>
<path d="M268.324 115.822C268.324 98.7023 284.468 84.8242 304.382 84.8242H611.016C627.932 84.8242 641.882 96.2209 642.742 110.745L665.376 492.925C666.049 504.29 655.642 513.877 642.406 514.084L290.965 519.575C278.528 519.77 268.324 511.156 268.324 500.462V115.822H268.324Z" fill="url(#paint1_linear_918_6448)"/>
<path d="M292.461 103.78C292.424 98.3024 297.1 94.7994 304.34 94.7994C346.751 97.0692 491.19 101.706 610.241 93.8492C615.671 93.4909 620.382 97.0272 620.671 101.702L644.404 485.585C644.73 490.848 640.054 495.349 633.934 495.661C583.863 498.208 377.656 508.055 304.105 501.433C299.628 501.029 296.23 497.789 296.204 493.92L292.461 103.78Z" fill="#D3D3D3"/>
<path d="M301.031 108.041C300.995 102.77 305.734 99.3984 312.464 99.3984C353.766 99.3984 488.675 110.912 603.244 103.351C608.468 103.006 613.003 106.409 613.281 110.908L636.12 480.335C636.433 485.401 631.934 489.732 626.043 490.032C577.858 492.483 379.416 501.96 308.635 495.586C304.327 495.199 301.057 492.081 301.031 488.357L301.031 108.041Z" fill="#ECEAE9"/>
<path opacity="0.58" d="M568.894 161.015H351.753C350.537 161.015 349.551 160.167 349.551 159.122V123.842C349.551 122.797 350.536 121.949 351.753 121.949H568.894C570.109 121.949 571.095 122.797 571.095 123.842V159.122C571.095 160.167 570.11 161.015 568.894 161.015Z" fill="white"/>
<path opacity="0.58" d="M602.123 303.678H325.811C325.127 303.678 324.572 303.202 324.572 302.614V288.906C324.572 288.318 325.127 287.842 325.811 287.842H602.123C602.807 287.842 603.361 288.318 603.361 288.906V302.614C603.361 303.202 602.807 303.678 602.123 303.678Z" fill="white"/>
<path opacity="0.58" d="M602.457 328.111H325.476C324.977 328.111 324.572 327.763 324.572 327.334V313.051C324.572 312.622 324.977 312.274 325.476 312.274H602.457C602.957 312.274 603.361 312.622 603.361 313.051V327.334C603.361 327.763 602.957 328.111 602.457 328.111Z" fill="white"/>
<path opacity="0.58" d="M608.327 467.624H325.893C325.291 467.624 324.803 467.204 324.803 466.686V452.724C324.803 452.207 325.291 451.787 325.893 451.787H608.327C608.929 451.787 609.417 452.207 609.417 452.724V466.686C609.417 467.204 608.929 467.624 608.327 467.624Z" fill="white"/>
<path opacity="0.25" d="M596.368 271.25H331.256C327.565 271.25 324.572 268.678 324.572 265.504V180.168C324.572 176.994 327.565 174.422 331.256 174.422H591.873C595.447 174.422 598.388 176.839 598.55 179.908L603.045 265.245C603.217 268.516 600.178 271.25 596.368 271.25Z" fill="white"/>
<path d="M596.522 272.162H331.41C327.14 272.162 323.666 269.176 323.666 265.505V180.168C323.666 176.497 327.14 173.511 331.41 173.511H592.027C596.178 173.511 599.576 176.303 599.763 179.867L604.258 265.204C604.355 267.037 603.596 268.778 602.121 270.105C600.646 271.432 598.657 272.162 596.522 272.162ZM331.41 175.334C328.309 175.334 325.786 177.503 325.786 180.168V265.505C325.786 268.171 328.309 270.339 331.41 270.339H596.522C598.072 270.339 599.517 269.809 600.588 268.845C601.659 267.882 602.21 266.618 602.14 265.287L597.645 179.95C597.509 177.361 595.041 175.334 592.027 175.334H331.41Z" fill="white"/>
<path opacity="0.25" d="M600.605 442.126H333.28C328.598 442.126 324.803 438.863 324.803 434.839V352.586C324.803 348.561 328.598 345.298 333.28 345.298H596.896C601.45 345.298 605.19 348.391 605.366 352.303L609.075 434.556C609.262 438.689 605.415 442.126 600.605 442.126Z" fill="white"/>
<path d="M600.602 443.038H333.278C328.019 443.038 323.74 439.36 323.74 434.839V352.586C323.74 348.065 328.019 344.387 333.278 344.387H596.893C602.038 344.387 606.225 347.849 606.424 352.268L610.133 434.521C610.234 436.77 609.291 438.901 607.476 440.523C605.661 442.145 603.22 443.038 600.602 443.038ZM333.278 346.21C329.188 346.21 325.861 349.07 325.861 352.586V434.839C325.861 438.355 329.188 441.215 333.278 441.215H600.602C602.638 441.215 604.536 440.521 605.948 439.26C607.359 437.998 608.092 436.341 608.014 434.592L604.305 352.339C604.15 348.902 600.894 346.21 596.893 346.21H333.278Z" fill="white"/>
<path d="M408.214 174.421L406.094 174.451L407.964 271.283L410.084 271.253L408.214 174.421Z" fill="white"/>
<path d="M510.183 174.384L508.064 174.434L511.107 271.259L513.226 271.209L510.183 174.384Z" fill="white"/>
<path d="M325.41 206.203L325.402 208.026L601.535 208.857L601.543 207.034L325.41 206.203Z" fill="white"/>
<path d="M601.542 240.614H325.412V242.437H601.542V240.614Z" fill="white"/>
<path d="M407.481 345.308L406.084 442.135L408.204 442.157L409.601 345.331L407.481 345.308Z" fill="white"/>
<path d="M606.455 367.916H325.412V369.739H606.455V367.916Z" fill="white"/>
<path d="M607.156 390.237H325.412V392.06H607.156V390.237Z" fill="white"/>
<path d="M324.821 414.25L324.795 416.073L608.323 419.12L608.35 417.297L324.821 414.25Z" fill="white"/>
<path d="M474.655 31.1889C464.94 26.5493 455.226 28.3286 449.289 31.1887C442.548 34.4364 439.527 40.5147 440.115 46.035L442.547 67.6L477.353 68.305C477.353 68.305 480.051 53.9225 481.67 46.035C482.813 40.4679 479.512 33.5087 474.655 31.1889ZM461.415 54.8494C456.624 54.8494 452.74 51.5105 452.74 47.3916C452.74 43.2727 456.624 39.9337 461.415 39.9337C466.206 39.9337 470.09 43.2727 470.09 47.3916C470.09 51.5105 466.206 54.8494 461.415 54.8494Z" fill="#E25B00"/>
<path d="M447.13 58.1441C446.701 58.1441 446.335 57.8628 446.295 57.488L445.829 53.1188C445.787 52.722 446.127 52.371 446.589 52.3343C447.059 52.2964 447.459 52.5902 447.501 52.9877L447.967 57.3568C448.009 57.7536 447.669 58.1047 447.207 58.1414C447.181 58.1434 447.155 58.1441 447.13 58.1441ZM446.218 49.5822C445.788 49.5822 445.422 49.3009 445.383 48.926L445.029 45.6093C444.468 40.3507 448.317 35.4544 454.18 33.9665C458.333 32.9129 462.611 32.7619 466.896 33.5176C467.35 33.5971 467.643 33.9792 467.55 34.3697C467.457 34.7594 467.017 35.0089 466.559 34.9313C462.545 34.2251 458.541 34.3653 454.655 35.3507C449.559 36.644 446.213 40.9031 446.7 45.478L447.054 48.7947C447.097 49.1915 446.756 49.5426 446.295 49.5793C446.269 49.5814 446.243 49.5822 446.218 49.5822Z" fill="#FDE6D8"/>
<path d="M395.064 85.3302V71.5371C395.064 66.7757 399.655 62.9621 405.19 63.1252L515.811 66.3834C520.721 66.528 524.696 69.8593 524.99 74.0746L525.915 87.3278L395.064 85.3302Z" fill="#E25B00"/>
<path d="M436.313 68.3223H431.556C431.093 68.3223 430.717 67.9996 430.717 67.6006C430.717 67.2016 431.093 66.8789 431.556 66.8789H436.313C436.777 66.8789 437.153 67.2016 437.153 67.6006C437.153 67.9996 436.777 68.3223 436.313 68.3223Z" fill="#FDE6D8"/>
<path d="M401.052 80.9989C400.589 80.9989 400.213 80.6762 400.213 80.2772V74.6974C400.213 70.386 404.293 66.8789 409.308 66.8789H426.798C427.261 66.8789 427.637 67.2016 427.637 67.6006C427.637 67.9996 427.261 68.3223 426.798 68.3223H409.308C405.219 68.3223 401.892 71.1823 401.892 74.6974V80.2772C401.892 80.676 401.516 80.9989 401.052 80.9989Z" fill="#FDE6D8"/>
<path d="M349.991 88.8121C350.258 84.0359 354.84 80.2811 360.403 80.2809L553.844 80.2764C560.8 80.2762 566.746 84.5792 567.933 90.4713L568.097 91.2843C569.396 97.7378 563.616 103.641 555.998 103.641H357.538C352.979 103.641 349.345 100.363 349.564 96.4481L349.991 88.8121Z" fill="url(#paint2_linear_918_6448)"/>
<path d="M276.068 423.028H155.56C154.907 423.028 154.377 422.573 154.377 422.011V405.887C154.377 405.325 154.907 404.87 155.56 404.87H276.068C276.722 404.87 277.251 405.325 277.251 405.887V422.011C277.251 422.573 276.722 423.028 276.068 423.028Z" fill="url(#paint3_linear_918_6448)"/>
<path d="M276.068 423.028H155.56C154.907 423.028 154.377 422.573 154.377 422.011V405.887C154.377 405.325 154.907 404.87 155.56 404.87H276.068C276.722 404.87 277.251 405.325 277.251 405.887V422.011C277.251 422.573 276.722 423.028 276.068 423.028Z" fill="url(#paint4_linear_918_6448)"/>
<path d="M276.068 403.773H155.56C154.907 403.773 154.377 403.318 154.377 402.757V386.632C154.377 386.071 154.907 385.615 155.56 385.615H276.068C276.722 385.615 277.251 386.071 277.251 386.632V402.756C277.251 403.318 276.722 403.773 276.068 403.773Z" fill="url(#paint5_linear_918_6448)"/>
<path d="M276.068 403.773H155.56C154.907 403.773 154.377 403.318 154.377 402.757V386.632C154.377 386.071 154.907 385.615 155.56 385.615H276.068C276.722 385.615 277.251 386.071 277.251 386.632V402.756C277.251 403.318 276.722 403.773 276.068 403.773Z" fill="url(#paint6_linear_918_6448)"/>
<path d="M276.068 442.606H155.56C154.907 442.606 154.377 442.151 154.377 441.589V425.465C154.377 424.903 154.907 424.448 155.56 424.448H276.068C276.722 424.448 277.251 424.904 277.251 425.465V441.589C277.251 442.151 276.722 442.606 276.068 442.606Z" fill="url(#paint7_linear_918_6448)"/>
<path d="M276.068 442.606H155.56C154.907 442.606 154.377 442.151 154.377 441.589V425.465C154.377 424.903 154.907 424.448 155.56 424.448H276.068C276.722 424.448 277.251 424.904 277.251 425.465V441.589C277.251 442.151 276.722 442.606 276.068 442.606Z" fill="url(#paint8_linear_918_6448)"/>
<path d="M276.068 462.183H155.56C154.907 462.183 154.377 461.728 154.377 461.167V445.042C154.377 444.481 154.907 444.025 155.56 444.025H276.068C276.722 444.025 277.251 444.481 277.251 445.042V461.167C277.251 461.728 276.722 462.183 276.068 462.183Z" fill="url(#paint9_linear_918_6448)"/>
<path d="M276.068 462.183H155.56C154.907 462.183 154.377 461.728 154.377 461.167V445.042C154.377 444.481 154.907 444.025 155.56 444.025H276.068C276.722 444.025 277.251 444.481 277.251 445.042V461.167C277.251 461.728 276.722 462.183 276.068 462.183Z" fill="url(#paint10_linear_918_6448)"/>
<path d="M276.068 481.761H155.56C154.907 481.761 154.377 481.305 154.377 480.744V464.619C154.377 464.058 154.907 463.603 155.56 463.603H276.068C276.722 463.603 277.251 464.058 277.251 464.619V480.744C277.251 481.305 276.722 481.761 276.068 481.761Z" fill="url(#paint11_linear_918_6448)"/>
<path d="M276.068 481.761H155.56C154.907 481.761 154.377 481.305 154.377 480.744V464.619C154.377 464.058 154.907 463.603 155.56 463.603H276.068C276.722 463.603 277.251 464.058 277.251 464.619V480.744C277.251 481.305 276.722 481.761 276.068 481.761Z" fill="url(#paint12_linear_918_6448)"/>
<path d="M276.068 500.751H155.56C154.907 500.751 154.377 500.296 154.377 499.734V483.61C154.377 483.048 154.907 482.593 155.56 482.593H276.068C276.722 482.593 277.251 483.048 277.251 483.61V499.734C277.251 500.296 276.722 500.751 276.068 500.751Z" fill="url(#paint13_linear_918_6448)"/>
<path d="M276.068 500.751H155.56C154.907 500.751 154.377 500.296 154.377 499.734V483.61C154.377 483.048 154.907 482.593 155.56 482.593H276.068C276.722 482.593 277.251 483.048 277.251 483.61V499.734C277.251 500.296 276.722 500.751 276.068 500.751Z" fill="url(#paint14_linear_918_6448)"/>
<path d="M276.068 519.74H155.56C154.907 519.74 154.377 519.285 154.377 518.723V502.599C154.377 502.037 154.907 501.582 155.56 501.582H276.068C276.722 501.582 277.251 502.037 277.251 502.599V518.723C277.251 519.285 276.722 519.74 276.068 519.74Z" fill="url(#paint15_linear_918_6448)"/>
<path d="M528.979 462.387H408.47C407.817 462.387 407.287 461.931 407.287 461.37V445.245C407.287 444.684 407.817 444.229 408.47 444.229H528.979C529.632 444.229 530.161 444.684 530.161 445.245V461.37C530.161 461.931 529.632 462.387 528.979 462.387Z" fill="url(#paint16_linear_918_6448)"/>
<path d="M528.979 462.387H408.47C407.817 462.387 407.287 461.931 407.287 461.37V445.245C407.287 444.684 407.817 444.229 408.47 444.229H528.979C529.632 444.229 530.161 444.684 530.161 445.245V461.37C530.161 461.931 529.632 462.387 528.979 462.387Z" fill="url(#paint17_linear_918_6448)"/>
<path d="M528.979 481.964H408.47C407.817 481.964 407.287 481.508 407.287 480.947V464.822C407.287 464.261 407.817 463.806 408.47 463.806H528.979C529.632 463.806 530.161 464.261 530.161 464.822V480.947C530.161 481.508 529.632 481.964 528.979 481.964Z" fill="url(#paint18_linear_918_6448)"/>
<path d="M528.979 481.964H408.47C407.817 481.964 407.287 481.508 407.287 480.947V464.822C407.287 464.261 407.817 463.806 408.47 463.806H528.979C529.632 463.806 530.161 464.261 530.161 464.822V480.947C530.161 481.508 529.632 481.964 528.979 481.964Z" fill="url(#paint19_linear_918_6448)"/>
<path d="M528.979 500.953H408.47C407.817 500.953 407.287 500.498 407.287 499.936V483.812C407.287 483.25 407.817 482.795 408.47 482.795H528.979C529.632 482.795 530.161 483.25 530.161 483.812V499.936C530.161 500.498 529.632 500.953 528.979 500.953Z" fill="url(#paint20_linear_918_6448)"/>
<path d="M528.979 500.953H408.47C407.817 500.953 407.287 500.498 407.287 499.936V483.812C407.287 483.25 407.817 482.795 408.47 482.795H528.979C529.632 482.795 530.161 483.25 530.161 483.812V499.936C530.161 500.498 529.632 500.953 528.979 500.953Z" fill="url(#paint21_linear_918_6448)"/>
<path d="M528.979 519.942H408.47C407.817 519.942 407.287 519.487 407.287 518.925V502.801C407.287 502.239 407.817 501.784 408.47 501.784H528.979C529.632 501.784 530.161 502.239 530.161 502.801V518.925C530.161 519.487 529.632 519.942 528.979 519.942Z" fill="url(#paint22_linear_918_6448)"/>
<path d="M528.979 519.942H408.47C407.817 519.942 407.287 519.487 407.287 518.925V502.801C407.287 502.239 407.817 501.784 408.47 501.784H528.979C529.632 501.784 530.161 502.239 530.161 502.801V518.925C530.161 519.487 529.632 519.942 528.979 519.942Z" fill="url(#paint23_linear_918_6448)"/>
<path d="M494.754 527.036H705.728V484.767H494.754V527.036Z" fill="#C9570A"/>
<path d="M492.13 524.331H708.488C709.39 524.331 710.121 523.702 710.121 522.927V508.1H491.039V523.393C491.039 523.911 491.528 524.331 492.13 524.331Z" fill="url(#paint24_linear_918_6448)"/>
<path d="M492.658 505.902H708.1C709.216 505.902 710.121 505.125 710.121 504.165V489.671H491.039V504.51C491.039 505.279 491.764 505.902 492.658 505.902Z" fill="url(#paint25_linear_918_6448)"/>
<path d="M491.039 489.671H710.122V488.384C710.122 485.733 707.622 483.584 704.538 483.584H496.694C493.571 483.584 491.039 485.76 491.039 488.445V489.671Z" fill="#FFD1B2"/>
<path d="M312.993 529.378C320.092 526.41 322.595 518.257 318.585 511.167C314.575 504.077 305.569 500.736 298.47 503.703C291.372 506.671 288.868 514.824 292.878 521.913C296.889 529.003 305.894 532.345 312.993 529.378Z" fill="#FFD1B2"/>
<path d="M310.075 507.013L317.135 519.495C317.454 520.059 318.244 520.293 318.9 520.019L327.567 516.396C328.223 516.122 328.497 515.442 328.178 514.878L321.117 502.397C320.798 501.833 320.008 501.598 319.352 501.872L310.685 505.496C310.029 505.77 309.756 506.449 310.075 507.013Z" fill="#C9570A"/>
<path d="M319.291 500.628C320.596 506.382 323.567 511.522 328.085 516.092C330.527 518.562 334.443 519.667 338.339 518.995C375.581 512.566 453.633 471.095 529.433 434.866C534.456 432.465 537.928 429.741 535.561 425.556L530.333 416.314C527.981 412.155 522.351 414.497 517.068 416.363C436.888 444.682 351.847 469.367 322.653 492.207C319.851 494.399 318.603 497.591 319.291 500.628Z" fill="url(#paint26_linear_918_6448)"/>
<path d="M518.276 407.047L535.823 438.067C536.129 438.608 536.887 438.833 537.517 438.57L546.465 434.829C547.095 434.566 547.357 433.914 547.051 433.373L529.504 402.354C529.198 401.812 528.44 401.587 527.81 401.85L518.862 405.591C518.232 405.854 517.97 406.506 518.276 407.047Z" fill="url(#paint27_linear_918_6448)"/>
<path d="M597.163 375.727L614.709 406.746C615.015 407.288 615.774 407.513 616.403 407.25L625.352 403.509C625.981 403.246 626.243 402.594 625.937 402.053L608.391 371.033C608.085 370.492 607.326 370.267 606.697 370.53L597.749 374.271C597.119 374.534 596.857 375.186 597.163 375.727Z" fill="#C9570A"/>
<path d="M510.389 376.228L566.467 475.367L644.595 442.706L588.517 343.567L510.389 376.228Z" fill="url(#paint28_linear_918_6448)"/>
<path d="M563.51 470.14L570.562 482.607L648.69 449.946L641.638 437.479L563.51 470.14Z" fill="#C9570A"/>
<path d="M567.377 476.976L570.882 483.172C571.954 485.067 574.464 486.017 576.813 485.417C601.167 479.199 624.738 469.51 647.417 455.866C649.403 454.672 650.084 452.411 649.025 450.537L645.505 444.314L567.377 476.976Z" fill="url(#paint29_linear_918_6448)"/>
<path d="M560.875 470.081L561.025 470.346C561.769 471.661 563.612 472.209 565.142 471.57L643.345 438.877C644.874 438.238 645.511 436.654 644.767 435.339L644.618 435.073C643.874 433.758 642.031 433.211 640.501 433.85L562.298 466.542C560.768 467.182 560.131 468.766 560.875 470.081Z" fill="#FFD1B2"/>
<path d="M509.933 375.425L502.881 362.957L581.009 330.296L588.061 342.764L509.933 375.425Z" fill="#C9570A"/>
<path d="M506.067 368.587L502.561 362.39C501.49 360.496 502.17 358.212 504.17 356.994C524.898 344.365 548.318 334.41 574.806 327.5C577.125 326.894 579.615 327.83 580.675 329.704L584.195 335.926L506.067 368.587Z" fill="url(#paint30_linear_918_6448)"/>
<path d="M506.067 368.587L502.561 362.39C501.49 360.496 502.17 358.212 504.17 356.994C524.898 344.365 548.318 334.41 574.806 327.5C577.125 326.894 579.615 327.83 580.675 329.704L584.195 335.926L506.067 368.587Z" fill="url(#paint31_linear_918_6448)"/>
<path d="M508.359 377.242L508.209 376.977C507.465 375.662 508.102 374.077 509.632 373.438L587.835 340.746C589.365 340.106 591.208 340.654 591.951 341.969L592.101 342.234C592.845 343.549 592.208 345.134 590.678 345.773L512.476 378.465C510.946 379.105 509.103 378.557 508.359 377.242Z" fill="#FFD1B2"/>
<path d="M548.063 183.943L549.389 281.676L549.593 296.809C549.674 298.783 547.857 300.456 545.561 300.525L319.705 307.38C317.409 307.449 315.46 305.891 315.379 303.917L314.503 288.805L308.918 192.395C308.837 190.421 311.384 186.487 316.351 186.627L536.882 175.016C539.761 174.867 542.588 175.734 544.701 177.424C546.814 179.11 548.029 181.467 548.063 183.943Z" fill="url(#paint32_linear_918_6448)"/>
<path opacity="0.09" d="M543.944 293.923C544.02 295.764 542.291 297.325 540.103 297.391L324.95 303.921C322.761 303.987 320.909 302.535 320.834 300.694L314.767 196.62C314.692 194.779 317.12 191.107 321.851 191.234L531.934 180.27C534.678 180.127 537.369 180.936 539.38 182.51C541.392 184.083 542.547 186.282 542.577 188.594L543.944 293.923Z" fill="#FDE6D8"/>
<path d="M515.91 299.16C515.56 299.16 515.271 298.921 515.258 298.618C515.245 298.308 515.527 298.048 515.888 298.037L539.973 297.307C542.895 297.218 545.663 294.652 545.559 292.127L542.958 228.797C542.945 228.487 543.227 228.227 543.588 228.216C543.941 228.203 544.251 228.447 544.263 228.757L546.864 292.087C546.993 295.236 543.667 298.317 540.018 298.428L515.933 299.159C515.926 299.159 515.918 299.16 515.91 299.16Z" fill="#DEDEDE"/>
<path d="M316.544 236.23C316.194 236.23 315.905 235.991 315.892 235.688L314.334 197.729C314.254 195.807 315.032 193.841 316.468 192.336C317.984 190.747 320.037 189.835 322.25 189.768L341.383 189.188C341.735 189.179 342.046 189.419 342.058 189.729C342.071 190.039 341.789 190.299 341.429 190.309L322.295 190.89C320.463 190.946 318.752 191.712 317.477 193.048C316.241 194.345 315.57 196.036 315.639 197.689L317.197 235.649C317.21 235.959 316.928 236.219 316.568 236.23C316.56 236.23 316.552 236.23 316.544 236.23Z" fill="#DEDEDE"/>
<path d="M370.801 231.049C370.72 229.065 368.783 227.513 366.476 227.583L338.579 228.43C336.271 228.5 334.466 230.165 334.548 232.149L335.297 250.39C335.378 252.374 337.315 253.925 339.622 253.856L367.52 253.009C369.827 252.939 371.632 251.274 371.551 249.29L370.801 231.049Z" fill="url(#paint33_linear_918_6448)"/>
<path opacity="0.8" d="M347.781 245.956C346.752 245.956 345.896 245.253 345.86 244.362L345.613 238.342C345.594 237.901 345.777 237.48 346.128 237.157C346.478 236.834 346.953 236.647 347.467 236.632L355.423 236.39C356.512 236.349 357.375 237.074 357.412 237.984L357.659 244.003C357.696 244.914 356.864 245.682 355.806 245.714L347.849 245.955C347.826 245.956 347.804 245.956 347.781 245.956ZM355.49 237.512C355.483 237.512 355.476 237.512 355.468 237.512L347.512 237.753C347.347 237.759 347.195 237.818 347.082 237.922C346.97 238.026 346.912 238.161 346.917 238.302L347.164 244.322C347.176 244.614 347.462 244.832 347.803 244.834L355.759 244.592C356.099 244.582 356.366 244.335 356.355 244.043L356.107 238.024C356.096 237.738 355.821 237.512 355.49 237.512Z" fill="white"/>
<path d="M334.873 240.601C334.523 240.601 334.234 240.362 334.221 240.059C334.208 239.749 334.49 239.489 334.851 239.478L346.3 239.131C346.631 239.123 346.962 239.362 346.975 239.672C346.988 239.982 346.706 240.242 346.345 240.253L334.896 240.6C334.889 240.6 334.881 240.601 334.873 240.601Z" fill="white"/>
<path d="M334.972 243.062C334.622 243.062 334.333 242.823 334.321 242.52C334.308 242.21 334.59 241.95 334.95 241.939L346.399 241.592C346.749 241.588 347.062 241.823 347.074 242.133C347.087 242.442 346.805 242.703 346.445 242.713L334.996 243.061C334.988 243.061 334.981 243.062 334.972 243.062Z" fill="white"/>
<path d="M358.722 239.877C358.372 239.877 358.083 239.638 358.071 239.335C358.058 239.026 358.34 238.765 358.7 238.755L371.103 238.378C371.438 238.367 371.766 238.609 371.778 238.919C371.791 239.229 371.509 239.489 371.149 239.5L358.746 239.876C358.738 239.877 358.731 239.877 358.722 239.877Z" fill="white"/>
<path d="M358.824 242.337C358.474 242.337 358.185 242.098 358.172 241.795C358.159 241.485 358.441 241.225 358.802 241.215L371.204 240.838C371.557 240.83 371.867 241.069 371.879 241.379C371.892 241.689 371.61 241.949 371.25 241.96L358.847 242.336C358.84 242.336 358.832 242.337 358.824 242.337Z" fill="white"/>
<path d="M348.825 237.752C348.539 237.752 348.276 237.588 348.196 237.339L345.371 228.488C345.276 228.189 345.48 227.88 345.828 227.798C346.174 227.717 346.535 227.892 346.63 228.191L349.455 237.042C349.551 237.341 349.346 237.65 348.999 237.732C348.941 237.745 348.883 237.752 348.825 237.752Z" fill="white"/>
<path d="M355.478 237.55C355.434 237.55 355.389 237.547 355.344 237.539C354.991 237.475 354.765 237.178 354.838 236.875L357.021 227.872C357.095 227.568 357.441 227.374 357.794 227.437C358.147 227.5 358.373 227.797 358.3 228.101L356.116 237.104C356.052 237.368 355.78 237.55 355.478 237.55Z" fill="white"/>
<path d="M347.052 254.503C347.01 254.503 346.966 254.499 346.924 254.492C346.57 254.431 346.34 254.136 346.411 253.832L348.503 244.831C348.574 244.528 348.918 244.33 349.271 244.391C349.625 244.452 349.854 244.747 349.783 245.051L347.691 254.052C347.63 254.318 347.357 254.503 347.052 254.503Z" fill="white"/>
<path d="M358.706 254.149C358.421 254.149 358.159 253.988 358.078 253.741L355.161 244.893C355.063 244.594 355.265 244.284 355.612 244.199C355.958 244.114 356.319 244.289 356.418 244.586L359.334 253.435C359.432 253.733 359.231 254.043 358.884 254.128C358.825 254.142 358.765 254.149 358.706 254.149Z" fill="white"/>
<path d="M369.705 204.327C369.802 206.683 367.659 208.66 364.919 208.743L333.818 209.687C331.078 209.77 328.778 207.928 328.681 205.572L328.661 205.081C328.565 202.725 330.708 200.748 333.448 200.665L364.548 199.721C367.289 199.638 369.589 201.481 369.685 203.837L369.705 204.327Z" fill="#E0D5CD"/>
<path d="M375.204 268.41C375.297 270.658 373.252 272.545 370.637 272.624L336.22 273.669C333.605 273.748 331.41 271.99 331.318 269.743L331.316 269.681C331.223 267.433 333.268 265.546 335.883 265.467L370.3 264.423C372.915 264.343 375.11 266.101 375.202 268.349L375.204 268.41Z" fill="#E0D5CD"/>
<path d="M424.818 266.905C424.91 269.152 422.865 271.039 420.25 271.118L385.833 272.163C383.218 272.242 381.024 270.484 380.931 268.237L380.929 268.175C380.836 265.927 382.881 264.041 385.496 263.961L419.913 262.917C422.528 262.837 424.723 264.595 424.815 266.843L424.818 266.905Z" fill="#E0D5CD"/>
<path d="M474.429 265.4C474.521 267.648 472.476 269.534 469.862 269.614L435.444 270.658C432.83 270.737 430.635 268.98 430.543 266.732L430.54 266.67C430.448 264.422 432.493 262.536 435.107 262.456L469.525 261.412C472.14 261.332 474.334 263.09 474.426 265.338L474.429 265.4Z" fill="#E0D5CD"/>
<path d="M524.992 263.864C525.084 266.112 523.039 267.998 520.424 268.077L486.007 269.122C483.392 269.201 481.197 267.443 481.105 265.196L481.103 265.134C481.01 262.886 483.055 261 485.67 260.92L520.087 259.876C522.702 259.796 524.897 261.554 524.989 263.802L524.992 263.864Z" fill="#E0D5CD"/>
<g opacity="0.47">
<path d="M408.384 285.483C408.457 287.27 406.831 288.77 404.752 288.833L340.727 290.776C338.648 290.839 336.904 289.441 336.83 287.654L336.827 287.565C336.753 285.778 338.379 284.278 340.458 284.215L404.483 282.272C406.562 282.209 408.307 283.606 408.38 285.393L408.384 285.483Z" fill="url(#paint34_linear_918_6448)"/>
<path d="M519.941 280.455C520.014 282.242 518.388 283.742 516.309 283.805L488.538 284.648C486.459 284.711 484.714 283.314 484.641 281.527L484.637 281.437C484.564 279.65 486.19 278.15 488.268 278.087L516.04 277.244C518.119 277.181 519.864 278.579 519.937 280.366L519.941 280.455Z" fill="url(#paint35_linear_918_6448)"/>
</g>
<defs>
<linearGradient id="paint0_linear_918_6448" x1="1004.36" y1="855.871" x2="429.693" y2="77.3945" gradientUnits="userSpaceOnUse">
<stop stop-color="#FB944E"/>
<stop offset="1" stop-color="#FDF2E9"/>
</linearGradient>
<linearGradient id="paint1_linear_918_6448" x1="731.08" y1="-66.8395" x2="464.245" y2="500.884" gradientUnits="userSpaceOnUse">
<stop stop-color="#262626"/>
<stop offset="1" stop-color="#494949"/>
</linearGradient>
<linearGradient id="paint2_linear_918_6448" x1="496.084" y1="37.8175" x2="429.155" y2="175.662" gradientUnits="userSpaceOnUse">
<stop stop-color="#FF6700"/>
<stop offset="1" stop-color="#FB944E"/>
</linearGradient>
<linearGradient id="paint3_linear_918_6448" x1="251.495" y1="364.76" x2="180.07" y2="497.993" gradientUnits="userSpaceOnUse">
<stop stop-color="#FF928E"/>
<stop offset="1" stop-color="#FE7062"/>
</linearGradient>
<linearGradient id="paint4_linear_918_6448" x1="251.495" y1="364.76" x2="180.07" y2="497.993" gradientUnits="userSpaceOnUse">
<stop stop-color="#FFAE8E"/>
<stop offset="1" stop-color="#FF8336"/>
</linearGradient>
<linearGradient id="paint5_linear_918_6448" x1="251.495" y1="345.505" x2="180.07" y2="478.738" gradientUnits="userSpaceOnUse">
<stop stop-color="#FF928E"/>
<stop offset="1" stop-color="#FE7062"/>
</linearGradient>
<linearGradient id="paint6_linear_918_6448" x1="251.495" y1="345.505" x2="180.07" y2="478.738" gradientUnits="userSpaceOnUse">
<stop stop-color="#FFAE8E"/>
<stop offset="1" stop-color="#FF8336"/>
</linearGradient>
<linearGradient id="paint7_linear_918_6448" x1="251.495" y1="384.338" x2="180.07" y2="517.571" gradientUnits="userSpaceOnUse">
<stop stop-color="#FF928E"/>
<stop offset="1" stop-color="#FE7062"/>
</linearGradient>
<linearGradient id="paint8_linear_918_6448" x1="251.495" y1="384.339" x2="180.071" y2="517.571" gradientUnits="userSpaceOnUse">
<stop stop-color="#FFAE8E"/>
<stop offset="1" stop-color="#FF8336"/>
</linearGradient>
<linearGradient id="paint9_linear_918_6448" x1="251.495" y1="403.916" x2="180.07" y2="537.148" gradientUnits="userSpaceOnUse">
<stop stop-color="#FF928E"/>
<stop offset="1" stop-color="#FE7062"/>
</linearGradient>
<linearGradient id="paint10_linear_918_6448" x1="251.495" y1="403.915" x2="180.07" y2="537.148" gradientUnits="userSpaceOnUse">
<stop stop-color="#FFAE8E"/>
<stop offset="1" stop-color="#FF8336"/>
</linearGradient>
<linearGradient id="paint11_linear_918_6448" x1="251.495" y1="423.493" x2="180.07" y2="556.725" gradientUnits="userSpaceOnUse">
<stop stop-color="#FF928E"/>
<stop offset="1" stop-color="#FE7062"/>
</linearGradient>
<linearGradient id="paint12_linear_918_6448" x1="251.495" y1="423.493" x2="180.07" y2="556.725" gradientUnits="userSpaceOnUse">
<stop stop-color="#FFAE8E"/>
<stop offset="1" stop-color="#FF8336"/>
</linearGradient>
<linearGradient id="paint13_linear_918_6448" x1="251.495" y1="442.483" x2="180.07" y2="575.716" gradientUnits="userSpaceOnUse">
<stop stop-color="#FF928E"/>
<stop offset="1" stop-color="#FE7062"/>
</linearGradient>
<linearGradient id="paint14_linear_918_6448" x1="251.495" y1="442.483" x2="180.07" y2="575.716" gradientUnits="userSpaceOnUse">
<stop stop-color="#FFAE8E"/>
<stop offset="1" stop-color="#FF8336"/>
</linearGradient>
<linearGradient id="paint15_linear_918_6448" x1="251.495" y1="461.472" x2="180.07" y2="594.705" gradientUnits="userSpaceOnUse">
<stop stop-color="#FFAE8E"/>
<stop offset="1" stop-color="#FF8336"/>
</linearGradient>
<linearGradient id="paint16_linear_918_6448" x1="504.405" y1="404.119" x2="432.98" y2="537.351" gradientUnits="userSpaceOnUse">
<stop stop-color="#FF928E"/>
<stop offset="1" stop-color="#FE7062"/>
</linearGradient>
<linearGradient id="paint17_linear_918_6448" x1="504.405" y1="404.119" x2="432.98" y2="537.351" gradientUnits="userSpaceOnUse">
<stop stop-color="#FFAE8E"/>
<stop offset="1" stop-color="#FF8336"/>
</linearGradient>
<linearGradient id="paint18_linear_918_6448" x1="504.405" y1="423.696" x2="432.98" y2="556.929" gradientUnits="userSpaceOnUse">
<stop stop-color="#FF928E"/>
<stop offset="1" stop-color="#FE7062"/>
</linearGradient>
<linearGradient id="paint19_linear_918_6448" x1="504.405" y1="423.696" x2="432.98" y2="556.928" gradientUnits="userSpaceOnUse">
<stop stop-color="#FFAE8E"/>
<stop offset="1" stop-color="#FF8336"/>
</linearGradient>
<linearGradient id="paint20_linear_918_6448" x1="504.405" y1="442.685" x2="432.98" y2="575.918" gradientUnits="userSpaceOnUse">
<stop stop-color="#FF928E"/>
<stop offset="1" stop-color="#FE7062"/>
</linearGradient>
<linearGradient id="paint21_linear_918_6448" x1="504.405" y1="442.685" x2="432.98" y2="575.918" gradientUnits="userSpaceOnUse">
<stop stop-color="#FFAE8E"/>
<stop offset="1" stop-color="#FF8336"/>
</linearGradient>
<linearGradient id="paint22_linear_918_6448" x1="504.405" y1="461.674" x2="432.98" y2="594.907" gradientUnits="userSpaceOnUse">
<stop stop-color="#FF928E"/>
<stop offset="1" stop-color="#FE7062"/>
</linearGradient>
<linearGradient id="paint23_linear_918_6448" x1="504.405" y1="461.674" x2="432.98" y2="594.907" gradientUnits="userSpaceOnUse">
<stop stop-color="#FFAE8E"/>
<stop offset="1" stop-color="#FF8336"/>
</linearGradient>
<linearGradient id="paint24_linear_918_6448" x1="399.32" y1="527.702" x2="431.81" y2="421.419" gradientUnits="userSpaceOnUse">
<stop stop-color="#E25B00"/>
<stop offset="1" stop-color="#EB7A2E"/>
</linearGradient>
<linearGradient id="paint25_linear_918_6448" x1="399.32" y1="509.274" x2="431.81" y2="402.99" gradientUnits="userSpaceOnUse">
<stop stop-color="#E25B00"/>
<stop offset="1" stop-color="#EB7A2E"/>
</linearGradient>
<linearGradient id="paint26_linear_918_6448" x1="228.168" y1="541.036" x2="529.601" y2="390.18" gradientUnits="userSpaceOnUse">
<stop stop-color="#E25B00"/>
<stop offset="1" stop-color="#EB7A2E"/>
</linearGradient>
<linearGradient id="paint27_linear_918_6448" x1="533.022" y1="421.681" x2="552.435" y2="529.388" gradientUnits="userSpaceOnUse">
<stop stop-color="#FB944E"/>
<stop offset="1" stop-color="#FAC5A2"/>
</linearGradient>
<linearGradient id="paint28_linear_918_6448" x1="410.461" y1="275.039" x2="706.927" y2="597.886" gradientUnits="userSpaceOnUse">
<stop stop-color="#FB944E"/>
<stop offset="1" stop-color="#FF6802"/>
</linearGradient>
<linearGradient id="paint29_linear_918_6448" x1="567.377" y1="464.955" x2="649.522" y2="464.955" gradientUnits="userSpaceOnUse">
<stop stop-color="#E75D00"/>
<stop offset="1" stop-color="#FB944E"/>
</linearGradient>
<linearGradient id="paint30_linear_918_6448" x1="502.057" y1="347.952" x2="584.195" y2="347.952" gradientUnits="userSpaceOnUse">
<stop stop-color="#4F52FF"/>
<stop offset="1" stop-color="#4042E2"/>
</linearGradient>
<linearGradient id="paint31_linear_918_6448" x1="502.057" y1="347.952" x2="584.195" y2="347.952" gradientUnits="userSpaceOnUse">
<stop stop-color="#E75D00"/>
<stop offset="1" stop-color="#FB944E"/>
</linearGradient>
<linearGradient id="paint32_linear_918_6448" x1="507.037" y1="169.378" x2="426.902" y2="298.759" gradientUnits="userSpaceOnUse">
<stop stop-color="#3E3E3E"/>
<stop offset="1" stop-color="#282828"/>
</linearGradient>
<linearGradient id="paint33_linear_918_6448" x1="433.163" y1="211.688" x2="346.32" y2="254.269" gradientUnits="userSpaceOnUse">
<stop stop-color="#FECEBE"/>
<stop offset="1" stop-color="#FFB68E"/>
</linearGradient>
<linearGradient id="paint34_linear_918_6448" x1="336.824" y1="286.524" x2="408.386" y2="286.524" gradientUnits="userSpaceOnUse">
<stop stop-color="#E0D5CD"/>
<stop offset="1" stop-color="#D5C8BF"/>
</linearGradient>
<linearGradient id="paint35_linear_918_6448" x1="484.635" y1="280.946" x2="519.943" y2="280.946" gradientUnits="userSpaceOnUse">
<stop stop-color="#E0D5CD"/>
<stop offset="1" stop-color="#D5C8BF"/>
</linearGradient>
</defs>
</svg>
