<svg width="18" height="18" viewBox="0 0 18 18" fill="none" xmlns="http://www.w3.org/2000/svg">
<path d="M0 8.64C0 4.56714 0 2.53062 1.26522 1.26522C2.53062 0 4.56714 0 8.64 0H9.36C13.4329 0 15.4694 0 16.7348 1.26522C18 2.53062 18 4.56714 18 8.64V9.36C18 13.4329 18 15.4694 16.7348 16.7348C15.4694 18 13.4329 18 9.36 18H8.64C4.56714 18 2.53062 18 1.26522 16.7348C0 15.4694 0 13.4329 0 9.36V8.64Z" fill="#FF6700"/>
<path d="M9.57723 12.9681C5.47467 12.9681 3.13467 10.1556 3.03711 5.47559H5.09217C5.15967 8.91053 6.67455 10.3656 7.87461 10.6655V5.47559H9.80961V8.43803C10.9947 8.31059 12.2394 6.96059 12.6595 5.47559H14.5945C14.2722 7.30565 12.9222 8.65565 11.962 9.21059C12.9222 9.66059 14.4597 10.8381 15.0447 12.9681H12.9146C12.457 11.543 11.3171 10.4405 9.80961 10.2906V12.9681H9.57723Z" fill="white"/>
</svg>
