<svg width="833" height="982" viewBox="0 0 833 982" fill="none" xmlns="http://www.w3.org/2000/svg">
<g opacity="0.3">
<path d="M196.243 234.102C199.324 237.836 204.85 238.363 208.582 235.281C215.835 229.295 223.454 223.533 231.231 218.158C235.165 215.439 236.184 210.075 233.552 206.107C233.521 206.06 233.489 206.013 233.457 205.964C230.705 201.983 225.246 200.987 221.263 203.739C213.079 209.397 205.056 215.461 197.421 221.765C193.93 224.645 193.244 229.667 195.693 233.359C195.861 233.614 196.043 233.863 196.243 234.102ZM270.879 194.593C279.311 190.329 288.006 186.388 296.73 182.872C301.216 181.064 303.392 175.959 301.584 171.468C299.753 166.968 294.667 164.807 290.178 166.616C281 170.313 271.846 174.463 262.973 178.946C258.653 181.13 256.922 186.404 259.106 190.723C259.265 191.037 259.44 191.338 259.629 191.623C262.049 195.273 266.872 196.617 270.879 194.593ZM340.583 168.66C349.728 166.387 359.082 164.485 368.393 163.006C373.172 162.247 376.432 157.754 375.674 152.975C374.91 148.2 370.424 144.938 365.642 145.694C355.838 147.251 345.985 149.255 336.356 151.649C331.658 152.816 328.798 157.571 329.962 162.268C330.211 163.269 330.623 164.188 331.163 165.001C333.154 168.003 336.887 169.58 340.583 168.66ZM414.336 158.969C423.769 158.797 433.319 159.035 442.722 159.67C447.551 159.995 451.732 156.345 452.058 151.517C452.379 146.689 448.73 142.512 443.905 142.181C434.004 141.512 423.95 141.264 414.023 141.441C409.184 141.529 405.33 145.523 405.419 150.362C405.45 152.093 405.98 153.699 406.872 155.043C408.471 157.455 411.229 159.023 414.336 158.969ZM488.41 165.95C497.623 167.873 506.886 170.218 515.937 172.924C520.576 174.308 525.458 171.671 526.844 167.034C528.231 162.394 525.592 157.511 520.953 156.129C511.432 153.284 501.685 150.816 491.991 148.792C487.254 147.802 482.611 150.841 481.622 155.581C481.123 157.968 481.647 160.332 482.897 162.216C484.126 164.07 486.059 165.459 488.41 165.95ZM559.092 189.147C567.665 193.065 576.174 197.4 584.387 202.034C588.602 204.413 593.95 202.923 596.326 198.709C598.705 194.493 597.219 189.148 593.002 186.768C584.36 181.891 575.4 177.328 566.379 173.204C561.976 171.193 556.778 173.129 554.765 177.532C553.457 180.391 553.819 183.587 555.438 186.028C556.311 187.344 557.548 188.442 559.092 189.147ZM759.062 445.921C763.84 445.154 767.094 440.658 766.326 435.878C764.753 426.088 762.731 416.233 760.315 406.591C759.139 401.895 754.379 399.042 749.683 400.22C744.99 401.393 742.137 406.154 743.313 410.849C745.607 420.004 747.525 429.362 749.018 438.659C749.223 439.934 749.692 441.1 750.363 442.111C752.205 444.887 755.557 446.485 759.062 445.921ZM622.836 227.411C630.318 233.135 637.643 239.253 644.606 245.599C648.186 248.859 653.729 248.601 656.989 245.024C660.251 241.444 659.974 235.917 656.412 232.642C649.079 225.96 641.366 219.516 633.485 213.49C629.641 210.55 624.14 211.282 621.199 215.127C618.867 218.175 618.845 222.267 620.855 225.297C621.378 226.086 622.042 226.802 622.836 227.411ZM740.427 371.844C744.912 370.028 747.075 364.916 745.258 360.429C741.533 351.241 737.361 342.092 732.865 333.235C730.692 328.905 725.398 327.199 721.082 329.388C716.768 331.579 715.046 336.854 717.236 341.171C721.51 349.589 725.474 358.283 729.012 367.016C729.238 367.573 729.517 368.092 729.836 368.574C732.092 371.975 736.5 373.437 740.427 371.844ZM676.42 278.951C682.429 286.201 688.205 293.805 693.585 301.556C696.344 305.535 701.804 306.52 705.782 303.76C709.707 301.036 710.718 295.68 708.089 291.718C708.055 291.668 708.02 291.614 707.983 291.565C702.322 283.402 696.242 275.396 689.919 267.765C686.827 264.04 681.303 263.522 677.577 266.611C674.096 269.495 673.416 274.509 675.861 278.194C676.031 278.454 676.22 278.707 676.42 278.951Z" fill="#F5995C"/>
<path d="M754.583 503.511C753.63 502.074 753.088 500.34 753.129 498.483C753.23 493.965 753.234 489.37 753.151 484.824C753.06 479.986 756.91 475.987 761.748 475.897C766.588 475.805 770.592 479.654 770.674 484.497C770.765 489.279 770.757 494.111 770.653 498.865C770.548 503.703 766.538 507.543 761.701 507.435C758.717 507.371 756.117 505.822 754.583 503.511Z" fill="#F5995C"/>
</g>
<g opacity="0.3">
<path d="M644.882 747.145C642.544 743.62 643.042 738.822 646.251 735.863C649.574 732.801 652.889 729.618 656.101 726.403C659.523 722.978 665.073 722.975 668.496 726.396C671.933 729.832 671.922 735.369 668.501 738.791C665.118 742.176 661.628 745.528 658.13 748.753C654.571 752.033 649.026 751.806 645.746 748.248C645.424 747.899 645.137 747.528 644.882 747.145Z" fill="#F5995C"/>
<path d="M139 699.443C141.87 703.34 147.357 704.174 151.256 701.302C155.153 698.431 155.98 692.954 153.114 689.048C147.65 681.628 142.417 673.859 137.497 665.872C134.984 661.763 129.558 660.469 125.437 663.008C121.316 665.547 120.034 670.946 122.57 675.068C124.702 678.528 126.883 681.94 129.112 685.3C132.293 690.094 135.618 694.854 139 699.443ZM111.897 637.266C116.321 635.309 118.323 630.133 116.365 625.707C112.608 617.208 109.167 608.46 106.143 599.703C104.579 595.128 99.5738 592.699 94.9974 594.278C90.4247 595.858 87.9965 600.848 89.576 605.422C92.7597 614.642 96.3804 623.853 100.337 632.796C100.542 633.259 100.782 633.697 101.053 634.105C103.371 637.598 107.932 639.018 111.897 637.266ZM169.886 735.869C176.687 742.857 183.88 749.65 191.269 756.056C194.926 759.227 200.461 758.833 203.634 755.176C206.804 751.52 206.406 745.99 202.754 742.812C195.736 736.729 188.906 730.28 182.45 723.644C179.073 720.176 173.525 720.099 170.054 723.476C166.986 726.462 166.575 731.15 168.859 734.593C169.156 735.041 169.498 735.469 169.886 735.869ZM87.4124 566.198C92.1595 565.261 95.2517 560.651 94.3117 555.902C92.5138 546.8 91.0845 537.512 90.0619 528.297C89.5297 523.482 85.1987 520.019 80.3847 520.554C75.5747 521.087 72.108 525.418 72.6413 530.229C73.7182 539.933 75.2238 549.715 77.1165 559.299C77.3466 560.456 77.791 561.518 78.4058 562.445C80.3106 565.316 83.8235 566.908 87.4124 566.198ZM229.389 784.77C237.555 790.087 246.063 795.129 254.679 799.756C258.942 802.046 264.254 800.448 266.545 796.185C268.838 791.92 267.236 786.606 262.973 784.316C254.789 779.919 246.707 775.131 238.954 770.081C234.897 767.44 229.466 768.588 226.826 772.644C224.858 775.667 224.994 779.451 226.868 782.275C227.509 783.242 228.355 784.098 229.389 784.77ZM298.173 819.435C307.325 822.847 316.73 825.912 326.123 828.546C330.785 829.851 335.621 827.134 336.929 822.473C338.236 817.806 335.517 812.97 330.855 811.67C321.931 809.166 312.994 806.254 304.294 803.013C299.759 801.322 294.711 803.629 293.02 808.165C292.003 810.898 292.436 813.817 293.934 816.075C294.922 817.564 296.372 818.765 298.173 819.435ZM372.88 838.288C382.564 839.626 392.413 840.57 402.149 841.095C406.984 841.355 411.111 837.648 411.372 832.815C411.633 827.975 407.924 823.852 403.093 823.592C393.84 823.095 384.485 822.197 375.28 820.924C370.485 820.262 366.061 823.612 365.4 828.406C365.094 830.609 365.636 832.731 366.775 834.448C368.117 836.471 370.287 837.929 372.88 838.288ZM449.92 840.395C459.661 839.585 469.481 838.347 479.106 836.717C483.877 835.91 487.093 831.386 486.284 826.612C485.477 821.848 480.951 818.629 476.179 819.437C467.041 820.984 457.718 822.158 448.463 822.928C443.64 823.33 440.056 827.565 440.458 832.388C440.586 833.912 441.094 835.31 441.884 836.501C443.593 839.077 446.618 840.67 449.92 840.395ZM525.579 825.514C534.88 822.584 544.177 819.215 553.217 815.503C557.695 813.664 559.836 808.542 557.995 804.065C556.161 799.602 551.038 797.448 546.559 799.287C537.972 802.815 529.141 806.012 520.307 808.798C515.692 810.252 513.128 815.175 514.584 819.79C514.837 820.594 515.195 821.336 515.639 822.005C517.744 825.178 521.766 826.716 525.579 825.514ZM596.051 794.416C602.27 790.816 608.455 786.979 614.432 783.015C616.597 781.579 618.737 780.124 620.86 778.647C624.832 775.885 625.927 770.42 623.051 766.451C620.29 762.475 614.828 761.493 610.852 764.257C608.836 765.657 606.799 767.044 604.742 768.409C599.059 772.179 593.183 775.825 587.27 779.248C583.081 781.671 581.651 787.034 584.076 791.222C584.168 791.379 584.262 791.534 584.362 791.684C586.902 795.513 592.021 796.751 596.051 794.416Z" fill="#F5995C"/>
<path d="M72.1126 487.342C71.1495 485.89 70.6081 484.14 70.657 482.269C70.7842 477.526 71.0152 472.696 71.342 467.913C71.6709 463.083 75.8531 459.435 80.6809 459.765C85.5105 460.097 89.1591 464.272 88.8285 469.105C88.5185 473.649 88.301 478.237 88.1784 482.74C88.0507 487.577 84.0232 491.395 79.1832 491.265C76.2175 491.184 73.6359 489.638 72.1126 487.342Z" fill="#F5995C"/>
</g>
</svg>
