<svg width="622" height="710" viewBox="0 0 622 710" fill="none" xmlns="http://www.w3.org/2000/svg">
<path d="M473.802 474.421C473.802 474.421 437.071 377.116 376.721 366.072C316.372 355.028 215.051 367.004 155.062 229.434C119.942 148.895 103.245 114.08 95.4381 99.056C92.3926 93.1953 96.4195 86.5389 103.548 85.6797C153.97 79.601 320.574 66.7365 390.733 150.57C473.907 249.955 473.802 474.421 473.802 474.421Z" fill="#FDE6D8"/>
<path opacity="0.25" d="M156.254 113.648C224.598 139.459 313.884 194.555 375.294 257.941C384.255 268.732 406.573 290.711 430.188 334.53C450.19 370.984 464.127 411.647 469.259 439.781C469.583 441.559 468.224 443.195 466.224 443.433C462.784 443.844 461.956 440.623 462.024 440.712C450.074 393.592 424.55 338.109 389.22 291.704C345.108 234.942 278.655 186.951 214.494 148.568L207.984 144.846C158.751 116.282 151.568 118.1 153.615 114.479C154.098 113.624 155.256 113.274 156.254 113.648Z" fill="white"/>
<path d="M615.948 585.375C625.188 586.349 504.619 520.39 417.703 384.808C376.746 320.918 340.343 236.213 283.178 217.04C235.601 201.082 120.602 256.442 83.3613 275.462C78.7079 277.839 79.4342 284.001 84.5756 285.703C109.922 294.09 165.493 315.19 190.813 346.035C224.187 386.692 284.469 400.358 330.78 394.691C377.091 389.023 404.227 389.083 451.403 443.877C498.579 498.671 589.691 582.606 615.948 585.375Z" fill="url(#paint0_linear_773_10271)"/>
<path opacity="0.25" d="M148.426 277.683C200.417 263.624 264.253 267.292 308.835 297.629L313.06 300.533C322.875 307.371 383.886 358.714 425.041 404.214C425.553 404.781 425.46 405.595 424.831 406.033C423.763 406.775 422.638 405.767 422.8 405.836C397.03 380.919 362.113 350.028 335.071 327.218C305.849 302.238 285.69 285.436 240.051 277.559C189.554 269.496 148.978 279.706 149.106 279.691C148.477 279.824 147.831 279.48 147.662 278.921C147.499 278.383 147.84 277.842 148.426 277.683Z" fill="white"/>
<defs>
<linearGradient id="paint0_linear_773_10271" x1="95.0039" y1="264.021" x2="445.825" y2="497.806" gradientUnits="userSpaceOnUse">
<stop stop-color="#FDBF95"/>
<stop offset="1" stop-color="#F3AC7C" stop-opacity="0"/>
</linearGradient>
</defs>
</svg>
