<svg width="18" height="18" viewBox="0 0 18 18" fill="none" xmlns="http://www.w3.org/2000/svg">
<path d="M13.5 1.2059C14.8574 1.98967 15.9866 3.11438 16.7758 4.46867C17.565 5.82297 17.9868 7.3599 17.9995 8.92731C18.0121 10.4947 17.6152 12.0383 16.848 13.4051C16.0808 14.772 14.9699 15.9148 13.6253 16.7204C12.2807 17.526 10.749 17.9664 9.18189 17.9982C7.61475 18.0299 6.06649 17.6518 4.6904 16.9012C3.3143 16.1507 2.15808 15.0538 1.3362 13.7191C0.514316 12.3844 0.0552684 10.8581 0.0045001 9.2915L0 8.9999L0.0045001 8.7083C0.0549029 7.15399 0.507193 5.63927 1.31728 4.3118C2.12736 2.98433 3.26759 1.88941 4.6268 1.1338C5.98602 0.378185 7.51783 -0.0123397 9.07291 0.000297221C10.628 0.0129341 12.1532 0.428301 13.5 1.2059ZM12.3363 6.5636C12.1813 6.40864 11.9751 6.31556 11.7564 6.3018C11.5377 6.28805 11.3215 6.35458 11.1483 6.4889L11.0637 6.5636L8.1 9.5264L6.9363 8.3636L6.8517 8.2889C6.67853 8.15467 6.46233 8.08822 6.24366 8.10202C6.02499 8.11582 5.81887 8.20891 5.66394 8.36384C5.50901 8.51877 5.41591 8.7249 5.40212 8.94357C5.38832 9.16224 5.45477 9.37843 5.589 9.5516L5.6637 9.6362L7.4637 11.4362L7.5483 11.5109C7.70614 11.6334 7.90023 11.6998 8.1 11.6998C8.29977 11.6998 8.49387 11.6334 8.6517 11.5109L8.7363 11.4362L12.3363 7.8362L12.411 7.7516C12.5453 7.57844 12.6119 7.36221 12.5981 7.14349C12.5843 6.92477 12.4913 6.71858 12.3363 6.5636Z" fill="#333333"/>
</svg>
