<svg width="38" height="38" viewBox="0 0 38 38" fill="none" xmlns="http://www.w3.org/2000/svg">
<path fill-rule="evenodd" clip-rule="evenodd" d="M28.8326 9.17639C26.222 6.5658 22.7533 5.125 19.0587 5.125C11.4437 5.125 5.24243 11.3218 5.24243 18.9368C5.23791 21.3712 5.87476 23.7469 7.08521 25.8427L5.125 33.0015L12.4509 31.0774C14.4653 32.1794 16.7417 32.7576 19.0542 32.7621H19.0587C26.6737 32.7621 32.8705 26.5653 32.875 18.9458C32.875 15.2557 31.4387 11.787 28.8326 9.17639ZM19.0587 30.427H19.0542C16.9946 30.427 14.9712 29.8715 13.2097 28.8281L12.7897 28.5797L8.44019 29.7179L9.60095 25.4813L9.32996 25.0477C8.17822 23.2185 7.573 21.1047 7.573 18.9368C7.573 12.609 12.7264 7.46008 19.0632 7.46008C22.13 7.46008 25.0116 8.65698 27.1796 10.825C29.3475 12.9974 30.5399 15.879 30.5399 18.9458C30.5399 25.2781 25.3865 30.427 19.0587 30.427ZM25.3549 21.8274C25.0116 21.6558 23.3134 20.8202 22.9972 20.7073C22.681 20.5898 22.4507 20.5356 22.2203 20.8789C21.99 21.2267 21.3306 22.0035 21.1273 22.2339C20.9286 22.4597 20.7253 22.4913 20.3821 22.3197C20.0343 22.1481 18.9232 21.7822 17.6044 20.6034C16.5791 19.691 15.8835 18.5574 15.6848 18.2141C15.4816 17.8663 15.6622 17.6812 15.8339 17.5095C15.9919 17.356 16.1816 17.1075 16.3533 16.9043C16.5249 16.7056 16.5836 16.561 16.701 16.3307C16.814 16.1003 16.7552 15.8971 16.6694 15.7255C16.5836 15.5538 15.8926 13.8511 15.6035 13.16C15.3235 12.4871 15.0389 12.5819 14.8267 12.5684C14.6279 12.5593 14.3976 12.5593 14.1672 12.5593C13.9369 12.5593 13.562 12.6451 13.2459 12.9929C12.9297 13.3362 12.0399 14.1718 12.0399 15.87C12.0399 17.5682 13.2775 19.2123 13.4491 19.4426C13.6207 19.6685 15.8835 23.1553 19.3478 24.6503C20.1698 25.0071 20.8112 25.2194 21.3125 25.3774C22.139 25.6394 22.8933 25.6033 23.4895 25.5175C24.1534 25.4181 25.531 24.6819 25.8201 23.8734C26.1046 23.0695 26.1046 22.3784 26.0188 22.2339C25.933 22.0894 25.7026 22.0035 25.3549 21.8274Z" fill="white"/>
</svg>
