<svg width="774" height="676" viewBox="0 0 774 676" fill="none" xmlns="http://www.w3.org/2000/svg">
<g opacity="0.3">
<path d="M582.468 640.251C578.108 638.824 573.235 640.73 571.069 644.939C568.828 649.297 566.458 653.681 564.023 657.967C561.431 662.533 563.03 668.335 567.595 670.927C572.179 673.529 577.963 671.918 580.554 667.355C583.115 662.841 585.613 658.224 587.974 653.636C590.375 648.968 588.538 643.238 583.87 640.835C583.412 640.599 582.942 640.406 582.468 640.251Z" fill="url(#paint0_linear_726_4293)"/>
<path d="M368.927 118.92C364.771 117.56 360.575 116.265 356.342 115.035C351.3 113.573 346.026 116.472 344.562 121.513C343.098 126.554 346.016 131.853 351.038 133.294C360.807 136.132 370.439 139.359 379.774 142.93C384.685 144.799 390.171 142.353 392.047 137.45C393.924 132.544 391.469 127.048 386.566 125.174C380.792 122.964 374.857 120.861 368.927 118.92ZM307.306 104.366C306.801 104.2 306.274 104.075 305.73 103.995C295.24 102.44 284.566 101.314 274.007 100.648C268.769 100.317 264.253 104.296 263.922 109.532C263.592 114.772 267.577 119.303 272.81 119.618C282.838 120.251 292.977 121.324 302.948 122.798C308.139 123.567 312.972 119.98 313.741 114.79C314.429 110.139 311.627 105.78 307.306 104.366ZM431.932 146.242C427.674 144.848 422.892 146.631 420.656 150.7C418.127 155.303 419.809 161.081 424.41 163.61C433.212 168.444 441.925 173.722 450.31 179.303C454.685 182.204 460.582 181.024 463.489 176.654C466.397 172.282 465.211 166.381 460.839 163.473C452.009 157.598 442.83 152.04 433.563 146.947C433.033 146.657 432.486 146.423 431.932 146.242ZM225.855 101.377C224.708 101.002 223.471 100.843 222.194 100.937C211.628 101.725 200.968 102.975 190.512 104.651C185.329 105.482 181.802 110.356 182.633 115.539C183.464 120.725 188.335 124.253 193.523 123.419C203.451 121.829 213.573 120.641 223.608 119.894C228.843 119.505 232.771 114.942 232.379 109.709C232.084 105.752 229.406 102.539 225.855 101.377ZM498.525 193.119C495.032 191.976 491.036 192.926 488.445 195.856C484.966 199.788 485.334 205.795 489.266 209.274C496.784 215.923 504.123 222.99 511.081 230.275C514.706 234.072 520.723 234.213 524.521 230.584C528.315 226.958 528.454 220.944 524.829 217.148C517.504 209.476 509.778 202.037 501.861 195.035C500.859 194.149 499.72 193.511 498.525 193.119ZM553.22 253.475C550.427 252.561 547.25 252.951 544.687 254.804C540.433 257.881 539.479 263.823 542.556 268.076C548.455 276.234 554.08 284.736 559.273 293.344C561.979 297.842 567.819 299.289 572.321 296.575C576.816 293.862 578.261 288.022 575.551 283.525C570.086 274.466 564.167 265.52 557.958 256.936C556.736 255.247 555.062 254.078 553.22 253.475ZM593.456 324.319C591.331 323.624 588.957 323.671 586.742 324.625C581.921 326.7 579.696 332.293 581.773 337.114C585.76 346.369 589.401 355.89 592.591 365.419C594.258 370.395 599.639 373.082 604.623 371.412C609.6 369.744 612.284 364.359 610.616 359.38C607.257 349.354 603.428 339.33 599.232 329.592C598.109 326.987 595.957 325.138 593.456 324.319ZM617.282 402.247C615.81 401.765 614.201 401.637 612.572 401.943C607.413 402.915 604.021 407.884 604.994 413.042C606.86 422.939 608.323 433.025 609.344 443.024C609.877 448.246 614.549 452.049 619.763 451.517C624.986 450.984 628.788 446.317 628.254 441.095C627.179 430.563 625.638 419.94 623.674 409.523C623.008 405.992 620.47 403.29 617.282 402.247ZM623.422 483.534C622.594 483.264 621.715 483.104 620.802 483.072C615.557 482.883 611.15 486.983 610.963 492.228C610.601 502.267 609.807 512.422 608.598 522.418C607.968 527.63 611.699 532.364 616.894 532.994C622.105 533.625 626.842 529.909 627.472 524.697C628.744 514.174 629.581 503.482 629.959 492.914C630.114 488.581 627.346 484.819 623.422 483.534ZM611.561 564.131C611.376 564.071 611.187 564.016 610.996 563.966C605.918 562.64 600.725 565.683 599.4 570.761C597.528 577.931 595.413 585.126 593.112 592.156C592.28 594.7 591.418 597.231 590.535 599.743C588.795 604.697 591.398 610.124 596.351 611.862C601.331 613.722 606.729 611 608.47 606.05C609.4 603.405 610.303 600.747 611.18 598.069C613.599 590.676 615.825 583.103 617.792 575.563C619.069 570.675 616.299 565.682 611.561 564.131Z" fill="url(#paint1_linear_726_4293)"/>
<path d="M145.526 116.47C143.73 115.882 141.744 115.822 139.802 116.413C134.88 117.916 129.897 119.55 124.991 121.273C120.037 123.011 117.431 128.436 119.17 133.389C120.911 138.342 126.329 140.952 131.286 139.21C135.947 137.574 140.68 136.022 145.353 134.594C150.371 133.064 153.2 127.752 151.668 122.73C150.727 119.652 148.367 117.4 145.526 116.47Z" fill="url(#paint2_linear_726_4293)"/>
</g>
<defs>
<linearGradient id="paint0_linear_726_4293" x1="3146.5" y1="-7577.12" x2="2964.89" y2="-6995.46" gradientUnits="userSpaceOnUse">
<stop stop-color="#FFB28E"/>
<stop offset="1" stop-color="#E7510B"/>
</linearGradient>
<linearGradient id="paint1_linear_726_4293" x1="2897.78" y1="-7654.57" x2="2716.17" y2="-7072.91" gradientUnits="userSpaceOnUse">
<stop stop-color="#FFB68E"/>
<stop offset="1" stop-color="#F07532"/>
</linearGradient>
<linearGradient id="paint2_linear_726_4293" x1="2594.87" y1="-7749.41" x2="2413.26" y2="-7167.74" gradientUnits="userSpaceOnUse">
<stop stop-color="#FFB98E"/>
<stop offset="1" stop-color="#FE9E62"/>
</linearGradient>
</defs>
</svg>
