<svg width="770" height="699" viewBox="0 0 770 699" fill="none" xmlns="http://www.w3.org/2000/svg">
<g opacity="0.3">
<path d="M208.373 35.1809C212.636 36.8753 217.617 35.2758 220.041 31.2088C222.547 26.9985 225.185 22.7694 227.881 18.6428C230.751 14.2461 229.515 8.35633 225.12 5.48643C220.706 2.60502 214.833 3.85442 211.964 8.24817C209.128 12.5942 206.348 17.0472 203.708 21.4798C201.022 25.99 202.5 31.8234 207.01 34.5111C207.452 34.7746 207.91 34.9967 208.373 35.1809Z" fill="url(#paint0_linear_728_4544)"/>
<path d="M389.178 568.749C393.242 570.364 397.349 571.917 401.498 573.407C406.439 575.179 411.883 572.613 413.656 567.672C415.431 562.731 412.846 557.261 407.924 555.512C398.349 552.074 388.936 548.256 379.841 544.113C375.055 541.943 369.427 544.044 367.251 548.821C365.073 553.601 367.183 559.239 371.961 561.413C377.586 563.977 383.38 566.444 389.178 568.749ZM449.778 587.096C450.271 587.292 450.789 587.45 451.328 587.564C461.701 589.766 472.285 591.552 482.782 592.871C487.989 593.527 492.743 589.836 493.398 584.63C494.053 579.42 490.357 574.651 485.153 574.012C475.183 572.758 465.13 571.059 455.271 568.97C450.137 567.88 445.09 571.16 444.002 576.293C443.026 580.893 445.553 585.417 449.778 587.096ZM327.988 537.573C332.152 539.229 337.035 537.746 339.519 533.823C342.328 529.385 341.007 523.514 336.573 520.705C328.088 515.335 319.718 509.527 311.695 503.436C307.508 500.27 301.55 501.082 298.378 505.263C295.204 509.446 296.022 515.409 300.205 518.583C308.654 524.994 317.47 531.111 326.404 536.768C326.915 537.091 327.447 537.358 327.988 537.573ZM530.887 595.129C532.008 595.575 533.233 595.81 534.513 595.796C545.108 595.664 555.825 595.078 566.365 594.053C571.589 593.545 575.411 588.899 574.903 583.675C574.396 578.447 569.753 574.624 564.523 575.134C554.516 576.106 544.339 576.664 534.277 576.788C529.029 576.851 524.826 581.162 524.891 586.409C524.941 590.376 527.414 593.749 530.887 595.129ZM264.43 486.657C267.846 488.015 271.892 487.314 274.66 484.551C278.376 480.842 278.381 474.823 274.673 471.107C267.581 464.005 260.695 456.496 254.202 448.794C250.819 444.78 244.822 444.266 240.807 447.653C236.795 451.036 236.284 457.03 239.667 461.044C246.501 469.154 253.752 477.058 261.219 484.538C262.164 485.484 263.261 486.192 264.43 486.657ZM213.583 423.026C216.313 424.111 219.508 423.919 222.182 422.229C226.618 419.422 227.939 413.55 225.132 409.114C219.749 400.606 214.663 391.771 210.013 382.859C207.592 378.201 201.853 376.395 197.191 378.825C192.536 381.253 190.732 386.993 193.158 391.649C198.051 401.029 203.404 410.325 209.069 419.277C210.183 421.04 211.782 422.31 213.583 423.026ZM177.817 349.823C179.894 350.649 182.267 350.749 184.537 349.934C189.477 348.162 192.044 342.718 190.27 337.777C186.865 328.293 183.822 318.565 181.228 308.856C179.873 303.786 174.669 300.77 169.591 302.128C164.52 303.485 161.508 308.693 162.863 313.766C165.594 323.981 168.795 334.223 172.378 344.202C173.338 346.872 175.371 348.851 177.817 349.823ZM158.869 270.568C160.307 271.141 161.905 271.368 163.551 271.163C168.76 270.513 172.453 265.764 171.803 260.555C170.554 250.562 169.718 240.405 169.32 230.361C169.111 225.116 164.684 221.031 159.447 221.239C154.201 221.447 150.117 225.869 150.326 231.114C150.746 241.693 151.625 252.391 152.94 262.91C153.386 266.475 155.751 269.33 158.869 270.568ZM157.78 189.056C158.59 189.378 159.457 189.591 160.367 189.68C165.59 190.195 170.243 186.375 170.755 181.152C171.739 171.155 173.161 161.069 174.987 151.167C175.939 146.003 172.509 141.048 167.363 140.097C162.2 139.144 157.243 142.559 156.291 147.722C154.369 158.145 152.87 168.765 151.837 179.29C151.414 183.604 153.944 187.531 157.78 189.056ZM174.616 109.35C174.797 109.422 174.983 109.488 175.169 109.55C180.155 111.188 185.528 108.473 187.165 103.487C189.477 96.447 192.035 89.397 194.767 82.5233C195.756 80.0358 196.773 77.5632 197.809 75.1103C199.854 70.2738 197.592 64.6956 192.756 62.6539C187.901 60.4885 182.345 62.8709 180.301 67.7033C179.208 70.2858 178.142 72.8824 177.101 75.5011C174.228 82.7294 171.537 90.1503 169.106 97.5543C167.528 102.353 169.984 107.509 174.616 109.35Z" fill="url(#paint1_linear_728_4544)"/>
<path d="M611.997 585.047C613.753 585.745 615.731 585.928 617.707 585.459C622.712 584.264 627.787 582.941 632.79 581.526C637.842 580.098 640.78 574.845 639.351 569.795C637.921 564.743 632.676 561.803 627.62 563.233C622.866 564.577 618.046 565.833 613.294 566.968C608.19 568.184 605.037 573.311 606.255 578.418C607.003 581.548 609.219 583.943 611.997 585.047Z" fill="url(#paint2_linear_728_4544)"/>
</g>
<defs>
<linearGradient id="paint0_linear_728_4544" x1="-2860.25" y1="8077.76" x2="-2642.92" y2="7508.47" gradientUnits="userSpaceOnUse">
<stop stop-color="#FFB28E"/>
<stop offset="1" stop-color="#E7510B"/>
</linearGradient>
<linearGradient id="paint1_linear_728_4544" x1="-2616.81" y1="8170.47" x2="-2399.48" y2="7601.2" gradientUnits="userSpaceOnUse">
<stop stop-color="#FFB68E"/>
<stop offset="1" stop-color="#F07532"/>
</linearGradient>
<linearGradient id="paint2_linear_728_4544" x1="-2320.36" y1="8283.92" x2="-2103.03" y2="7714.63" gradientUnits="userSpaceOnUse">
<stop stop-color="#FFB98E"/>
<stop offset="1" stop-color="#FE9E62"/>
</linearGradient>
</defs>
</svg>
