<svg width="781" height="445" viewBox="0 0 781 445" fill="none" xmlns="http://www.w3.org/2000/svg">
<g opacity="0.3">
<path d="M23.3174 38.9377C28.4193 37.8168 32.0973 33.131 31.7889 27.7493C31.4678 22.1793 31.2586 16.5079 31.1691 10.8962C31.0724 4.91835 26.1495 0.151634 20.1737 0.247702C14.1723 0.345314 9.42985 5.2695 9.52595 11.2438C9.62285 17.1519 9.84153 23.1249 10.178 28.9901C10.5214 34.9573 15.6363 39.5166 21.6041 39.1754C22.1896 39.1418 22.7627 39.0596 23.3174 38.9377Z" fill="url(#paint0_linear_726_4285)"/>
<path d="M534.174 426.893C539.037 425.825 543.902 424.67 548.765 423.429C554.556 421.949 558.054 416.056 556.576 410.264C555.098 404.473 549.172 400.961 543.413 402.451C532.189 405.315 520.875 407.718 509.653 409.611C503.756 410.617 499.788 416.188 500.781 422.082C501.777 427.979 507.362 431.952 513.255 430.956C520.196 429.786 527.235 428.417 534.174 426.893ZM603.036 405.547C603.626 405.418 604.216 405.236 604.796 405C615.985 400.461 627.107 395.395 637.85 389.944C643.179 387.241 645.309 380.728 642.607 375.399C639.901 370.068 633.373 367.927 628.057 370.644C617.854 375.82 607.288 380.629 596.656 384.947C591.118 387.193 588.45 393.506 590.697 399.041C592.711 404.002 597.98 406.658 603.036 405.547ZM456.573 436.515C461.557 435.421 465.217 430.908 465.058 425.623C464.877 419.646 459.887 414.95 453.912 415.129C442.483 415.475 430.885 415.335 419.433 414.708C413.464 414.392 408.361 418.958 408.036 424.925C407.711 430.895 412.286 435.998 418.255 436.323C430.314 436.982 442.531 437.128 454.566 436.766C455.254 436.744 455.925 436.657 456.573 436.515ZM684.664 361.392C686.006 361.097 687.311 360.537 688.51 359.707C698.419 352.826 708.153 345.438 717.441 337.749C722.045 333.937 722.687 327.118 718.876 322.514C715.063 317.907 708.244 317.261 703.638 321.078C694.818 328.378 685.575 335.395 676.163 341.929C671.253 345.336 670.038 352.083 673.447 356.991C676.024 360.701 680.508 362.305 684.664 361.392ZM364.149 429.027C368.236 428.13 371.606 424.888 372.455 420.516C373.594 414.647 369.76 408.967 363.892 407.827C352.673 405.652 341.389 402.961 330.352 399.837C324.6 398.209 318.617 401.549 316.989 407.305C315.363 413.055 318.704 419.035 324.455 420.663C336.074 423.954 347.954 426.784 359.768 429.077C361.263 429.367 362.749 429.334 364.149 429.027ZM275.603 401.44C278.871 400.722 281.762 398.503 283.206 395.204C285.599 389.726 283.1 383.345 277.623 380.952C267.12 376.359 256.687 371.271 246.617 365.83C241.362 362.981 234.797 364.938 231.95 370.203C229.108 375.463 231.067 382.027 236.325 384.872C246.924 390.599 257.901 395.953 268.954 400.783C271.13 401.735 273.448 401.913 275.603 401.44ZM195.178 355.205C197.664 354.659 199.966 353.24 201.587 351.023C205.117 346.201 204.066 339.428 199.242 335.9C189.98 329.126 180.905 321.891 172.266 314.387C167.755 310.47 160.923 310.944 156.999 315.464C153.081 319.978 153.561 326.811 158.076 330.733C167.167 338.626 176.719 346.245 186.463 353.372C189.071 355.278 192.251 355.848 195.178 355.205ZM126.756 292.535C128.478 292.157 130.13 291.352 131.551 290.109C136.05 286.174 136.505 279.339 132.569 274.841C125.017 266.211 117.751 257.163 110.969 247.945C107.427 243.13 100.646 242.101 95.8388 245.637C91.0225 249.179 89.9915 255.955 93.5339 260.769C100.677 270.479 108.33 280.009 116.279 289.093C118.974 292.171 123.025 293.355 126.756 292.535ZM73.7396 216.344C74.7081 216.131 75.6626 215.779 76.5777 215.283C81.8324 212.437 83.7845 205.866 80.9365 200.614C75.488 190.557 70.3961 180.136 65.8032 169.631C63.4076 164.154 57.0117 161.667 51.5511 164.053C46.074 166.446 43.5763 172.83 45.9713 178.307C50.8064 189.364 56.1663 200.336 61.9046 210.923C64.2572 215.263 69.1481 217.352 73.7396 216.344ZM38.7815 130.425C38.9984 130.377 39.2155 130.321 39.4312 130.261C45.1794 128.626 48.5147 122.638 46.8788 116.891C44.5699 108.776 42.4856 100.495 40.6784 92.2686C40.0245 89.2918 39.4069 86.3107 38.8199 83.3362C37.6637 77.47 31.972 73.6515 26.1087 74.8098C20.148 75.8641 16.4268 81.655 17.5809 87.5168C18.1979 90.6495 18.8484 93.7785 19.5366 96.9128C21.4365 105.563 23.6319 114.279 26.0608 122.814C27.6333 128.346 33.238 131.643 38.7815 130.425Z" fill="url(#paint1_linear_726_4285)"/>
<path d="M754.74 300.15C756.842 299.688 758.824 298.599 760.388 296.896C764.348 292.577 768.29 288.093 772.107 283.567C775.962 278.997 775.383 272.169 770.813 268.316C766.243 264.463 759.419 265.036 755.563 269.61C751.936 273.909 748.19 278.168 744.433 282.27C740.394 286.672 740.69 293.519 745.096 297.56C747.798 300.034 751.416 300.88 754.74 300.15Z" fill="url(#paint2_linear_726_4285)"/>
</g>
<defs>
<linearGradient id="paint0_linear_726_4285" x1="2258.57" y1="9582.14" x2="2100.46" y2="8906.56" gradientUnits="userSpaceOnUse">
<stop stop-color="#FFB28E"/>
<stop offset="1" stop-color="#E7510B"/>
</linearGradient>
<linearGradient id="paint1_linear_726_4285" x1="2547.32" y1="9514.33" x2="2389.22" y2="8838.76" gradientUnits="userSpaceOnUse">
<stop stop-color="#FFB68E"/>
<stop offset="1" stop-color="#F07532"/>
</linearGradient>
<linearGradient id="paint2_linear_726_4285" x1="2899.3" y1="9432.25" x2="2741.19" y2="8756.67" gradientUnits="userSpaceOnUse">
<stop stop-color="#FFB98E"/>
<stop offset="1" stop-color="#FE9E62"/>
</linearGradient>
</defs>
</svg>
