<svg width="639" height="655" viewBox="0 0 639 655" fill="none" xmlns="http://www.w3.org/2000/svg">
<g opacity="0.3">
<path d="M29.1844 445.723C31.1091 442.228 30.2691 437.756 27.0224 435.224C23.6611 432.604 20.2979 429.869 17.0293 427.095C13.5467 424.141 8.33007 424.57 5.37681 428.051C2.41151 431.547 2.8526 436.751 6.33286 439.703C9.77548 442.622 13.3167 445.503 16.8553 448.263C20.4559 451.07 25.6501 450.427 28.4585 446.827C28.7339 446.474 28.9752 446.103 29.1844 445.723Z" fill="url(#paint0_linear_726_4289)"/>
<path d="M509.228 347.581C511.063 344.25 512.849 340.873 514.584 337.455C516.649 333.384 515.025 328.408 510.954 326.341C506.883 324.274 501.883 325.911 499.839 329.969C495.834 337.858 491.518 345.567 486.956 352.966C484.565 356.86 485.768 361.945 489.653 364.341C493.542 366.738 498.636 365.529 501.031 361.643C503.853 357.067 506.61 352.335 509.228 347.581ZM531.634 297.278C531.857 296.874 532.05 296.443 532.206 295.991C535.232 287.279 537.921 278.339 540.198 269.424C541.329 265.002 538.659 260.499 534.238 259.369C529.814 258.239 525.297 260.911 524.181 265.333C522.018 273.8 519.461 282.29 516.589 290.572C515.091 294.884 517.374 299.594 521.685 301.09C525.549 302.431 529.727 300.742 531.634 297.278ZM475.688 397.002C477.568 393.588 476.818 389.214 473.702 386.644C470.178 383.739 464.969 384.242 462.063 387.764C456.509 394.504 450.589 401.096 444.463 407.358C441.276 410.628 441.331 415.858 444.594 419.049C447.86 422.241 453.095 422.182 456.287 418.917C462.736 412.321 468.971 405.377 474.822 398.281C475.155 397.875 475.443 397.446 475.688 397.002ZM547.365 228.158C547.871 227.239 548.207 226.207 548.333 225.101C549.369 215.944 550.026 206.633 550.285 197.426C550.413 192.863 546.819 189.061 542.256 188.933C537.689 188.803 533.886 192.395 533.759 196.963C533.513 205.705 532.89 214.546 531.905 223.243C531.39 227.779 534.654 231.873 539.19 232.386C542.619 232.773 545.797 231.005 547.365 228.158ZM424.856 446.325C426.399 443.525 426.233 439.956 424.149 437.268C421.351 433.659 416.158 433.002 412.549 435.799C405.651 441.148 398.425 446.276 391.074 451.043C387.243 453.527 386.149 458.646 388.636 462.478C391.12 466.308 396.238 467.399 400.068 464.915C407.808 459.897 415.415 454.498 422.679 448.866C423.599 448.153 424.328 447.283 424.856 446.325ZM364.431 483.3C365.664 481.061 365.845 478.283 364.677 475.793C362.735 471.661 357.812 469.883 353.679 471.825C345.753 475.546 337.578 478.977 329.383 482.023C325.101 483.607 322.92 488.364 324.511 492.65C326.102 496.93 330.859 499.11 335.14 497.521C343.765 494.316 352.368 490.706 360.707 486.789C362.349 486.018 363.618 484.776 364.431 483.3ZM297.383 506.222C298.321 504.519 298.665 502.483 298.208 500.435C297.214 495.98 292.795 493.174 288.339 494.169C279.785 496.079 271.061 497.65 262.401 498.835C257.879 499.454 254.713 503.617 255.333 508.147C255.954 512.67 260.121 515.834 264.646 515.215C273.757 513.966 282.943 512.315 291.942 510.306C294.351 509.767 296.279 508.228 297.383 506.222ZM226.936 513.976C227.586 512.797 227.956 511.442 227.957 510C227.961 505.435 224.264 501.733 219.699 501.729C210.939 501.722 202.084 501.341 193.374 500.596C188.825 500.207 184.82 503.584 184.431 508.125C184.042 512.675 187.414 516.679 191.963 517.067C201.137 517.853 210.465 518.255 219.684 518.261C222.809 518.263 225.529 516.532 226.936 513.976ZM156.479 506.073C156.844 505.409 157.123 504.684 157.298 503.908C158.309 499.457 155.517 495.028 151.066 494.019C142.546 492.086 133.996 489.765 125.65 487.114C121.297 485.733 116.649 488.155 115.27 492.493C113.888 496.844 116.297 501.493 120.649 502.874C129.435 505.664 138.436 508.109 147.406 510.142C151.084 510.975 154.746 509.218 156.479 506.073ZM89.5243 482.899C89.6061 482.75 89.683 482.597 89.7569 482.443C91.7118 478.318 89.9515 473.387 85.8262 471.434C80.0022 468.675 74.196 465.703 68.5608 462.6C66.5216 461.477 64.4982 460.331 62.494 459.17C58.5422 456.881 53.4832 458.228 51.1967 462.18C48.8015 466.134 50.2546 471.187 54.203 473.475C56.3131 474.698 58.438 475.9 60.5849 477.082C66.5106 480.346 72.6225 483.473 78.7478 486.374C82.7175 488.256 87.433 486.696 89.5243 482.899Z" fill="url(#paint1_linear_726_4289)"/>
<path d="M547.463 157.072C548.256 155.632 548.629 153.945 548.438 152.189C547.95 147.74 547.359 143.218 546.681 138.747C545.997 134.232 541.782 131.127 537.269 131.813C532.755 132.498 529.648 136.706 530.334 141.224C530.978 145.472 531.539 149.768 532.003 153.992C532.499 158.528 536.581 161.805 541.12 161.308C543.902 161.001 546.209 159.349 547.463 157.072Z" fill="url(#paint2_linear_726_4289)"/>
</g>
<defs>
<linearGradient id="paint0_linear_726_4289" x1="6636.48" y1="3966.16" x2="6168.81" y2="3716.87" gradientUnits="userSpaceOnUse">
<stop stop-color="#FFB28E"/>
<stop offset="1" stop-color="#E7510B"/>
</linearGradient>
<linearGradient id="paint1_linear_726_4289" x1="6742.9" y1="3766.15" x2="6275.23" y2="3516.86" gradientUnits="userSpaceOnUse">
<stop stop-color="#FFB68E"/>
<stop offset="1" stop-color="#F07532"/>
</linearGradient>
<linearGradient id="paint2_linear_726_4289" x1="6872.95" y1="3522.64" x2="6405.27" y2="3273.35" gradientUnits="userSpaceOnUse">
<stop stop-color="#FFB98E"/>
<stop offset="1" stop-color="#FE9E62"/>
</linearGradient>
</defs>
</svg>
