<svg width="21" height="1" viewBox="0 0 21 1" fill="none" xmlns="http://www.w3.org/2000/svg">
<path d="M-4.37114e-08 0C-0.276142 2.41411e-08 -0.5 0.223858 -0.5 0.5C-0.5 0.776142 -0.276142 1 4.37114e-08 1L-4.37114e-08 0ZM21.3536 0.853552C21.5488 0.658289 21.5488 0.341707 21.3536 0.146445L18.1716 -3.03554C17.9763 -3.2308 17.6597 -3.2308 17.4645 -3.03554C17.2692 -2.84027 17.2692 -2.52369 17.4645 -2.32843L20.2929 0.499998L17.4645 3.32843C17.2692 3.52369 17.2692 3.84027 17.4645 4.03553C17.6597 4.23079 17.9763 4.23079 18.1716 4.03553L21.3536 0.853552ZM0 0.5L4.37114e-08 1L21 0.999998L21 0.499998L21 -1.83588e-06L-4.37114e-08 0L0 0.5Z" fill="#222222"/>
</svg>
