<svg width="23" height="23" viewBox="0 0 23 23" fill="none" xmlns="http://www.w3.org/2000/svg">
<g opacity="0.65">
<path fill-rule="evenodd" clip-rule="evenodd" d="M11.5 18.6025C15.6766 18.6025 19.0625 15.2166 19.0625 11.04C19.0625 6.86338 15.6766 3.47754 11.5 3.47754C7.32334 3.47754 3.9375 6.86338 3.9375 11.04C3.9375 15.2166 7.32334 18.6025 11.5 18.6025ZM11.5 20.665C16.8157 20.665 21.125 16.3557 21.125 11.04C21.125 5.7243 16.8157 1.41504 11.5 1.41504C6.18426 1.41504 1.875 5.7243 1.875 11.04C1.875 16.3557 6.18426 20.665 11.5 20.665ZM9.35528 6.28175C9.94645 5.79615 10.7222 5.5055 11.5 5.5055C13.1736 5.5055 14.7167 6.6334 14.7167 8.44904C14.7167 8.96628 14.6095 9.4727 14.3078 9.96189C14.0213 10.4265 13.6023 10.8046 13.1048 11.1532C12.8057 11.3627 12.6569 11.5063 12.5839 11.6042C12.5312 11.6748 12.5312 11.701 12.5313 11.726V11.7272C12.5313 12.2967 12.0695 12.7585 11.5 12.7585C10.9305 12.7585 10.4688 12.2967 10.4688 11.7272C10.4688 10.6345 11.2163 9.95794 11.9214 9.46401C12.306 9.19455 12.4732 9.00754 12.5523 8.87928C12.6163 8.77552 12.6542 8.66115 12.6542 8.44904C12.6542 8.03764 12.3192 7.568 11.5 7.568C11.218 7.568 10.901 7.68114 10.6644 7.8755C10.4342 8.06461 10.3458 8.26982 10.3458 8.44904C10.3458 9.01858 9.88408 9.48029 9.31454 9.48029C8.74499 9.48029 8.28329 9.01858 8.28329 8.44904C8.28329 7.52355 8.75771 6.77261 9.35528 6.28175ZM11.5 16.54C12.2594 16.54 12.875 15.9244 12.875 15.165C12.875 14.4056 12.2594 13.79 11.5 13.79C10.7406 13.79 10.125 14.4056 10.125 15.165C10.125 15.9244 10.7406 16.54 11.5 16.54Z" fill="black"/>
</g>
</svg>
