<svg width="87" height="87" viewBox="0 0 87 87" fill="none" xmlns="http://www.w3.org/2000/svg">
<mask id="mask0_725_3298" style="mask-type:luminance" maskUnits="userSpaceOnUse" x="0" y="0" width="87" height="87">
<path d="M86.4256 0.196289H0.574219V86.0477H86.4256V0.196289Z" fill="white"/>
</mask>
<g mask="url(#mask0_725_3298)">
<path d="M43.4999 86.0477C67.2071 86.0477 86.4256 66.8292 86.4256 43.122C86.4256 19.4148 67.2071 0.196289 43.4999 0.196289C19.7927 0.196289 0.574219 19.4148 0.574219 43.122C0.574219 66.8292 19.7927 86.0477 43.4999 86.0477Z" fill="white"/>
<path d="M40.3731 46.415H11.2842C11.4872 48.526 11.8983 50.6118 12.5116 52.642H29.7436L18.5279 63.863C19.8522 65.4671 21.3263 66.9413 22.9305 68.2656L34.1515 57.0445V74.2765C36.1816 74.8898 38.2675 75.3009 40.3785 75.5039L40.3731 46.415Z" fill="#0060AC"/>
<path d="M75.6862 46.415H46.5986V75.5026C48.7081 75.2996 50.7925 74.8894 52.8215 74.2779V55.1062V52.642H67.8683C66.6465 55.8003 64.8243 58.692 62.5026 61.1573V69.438C68.2067 65.287 72.4034 59.3909 74.4574 52.642C74.4695 52.6031 74.4789 52.5615 74.491 52.5199C74.609 52.1175 74.719 51.7231 74.8223 51.3193C74.8491 51.212 74.8786 51.1047 74.9028 50.996C75.0083 50.5677 75.1054 50.1366 75.1939 49.7029C75.2167 49.5862 75.2368 49.4695 75.2596 49.3555C75.3293 48.9861 75.3933 48.6141 75.4514 48.2394C75.4675 48.1334 75.485 48.0301 75.4997 47.9241C75.5494 47.5781 75.595 47.232 75.6339 46.8819H75.6272C75.6486 46.7249 75.6728 46.5706 75.6862 46.415Z" fill="#0060AC"/>
<path d="M43.4837 10.9219C35.4127 10.9323 27.6372 13.9595 21.6838 19.4091C15.7303 24.8587 12.0291 32.337 11.3069 40.3756H33.2889L36.7551 34.1729H19.008C19.5646 32.6754 20.2574 31.2323 21.0778 29.8615H39.167L42.6346 23.6587H26.2356C30.9959 19.4491 37.1312 17.1255 43.4858 17.1255C49.8404 17.1255 55.9756 19.4491 60.7359 23.6587H44.3355L47.8031 29.8615H65.8923C66.7127 31.2323 67.4056 32.6754 67.9621 34.1729H50.2124L53.6799 40.3756H75.6619C74.9394 32.3369 71.2379 24.8586 65.2842 19.409C59.3306 13.9595 51.5549 10.9323 43.4837 10.9219Z" fill="#0060AC"/>
</g>
</svg>
