<svg width="85" height="86" viewBox="0 0 85 86" fill="none" xmlns="http://www.w3.org/2000/svg">
<mask id="mask0_725_3330" style="mask-type:luminance" maskUnits="userSpaceOnUse" x="0" y="0" width="85" height="86">
<path d="M84.9143 0.728516H0.122803V85.52H84.9143V0.728516Z" fill="white"/>
</mask>
<g mask="url(#mask0_725_3330)">
<path d="M42.5186 85.52C65.9331 85.52 84.9143 66.5388 84.9143 43.1243C84.9143 19.7097 65.9331 0.728516 42.5186 0.728516C19.104 0.728516 0.122803 19.7097 0.122803 43.1243C0.122803 66.5388 19.104 85.52 42.5186 85.52Z" fill="#009DDB"/>
<path d="M32.4185 55.5132L53.8799 34.3139C55.7517 32.4862 58.1585 31.2864 60.7595 30.8844C63.3605 30.4823 66.0236 30.8987 68.3716 32.0741C70.7195 33.2495 72.6334 35.1247 73.8418 37.4338C75.0502 39.7427 75.4919 42.3687 75.1044 44.9394C74.7169 47.5102 73.5199 49.8954 71.6828 51.757C69.8458 53.6187 67.4618 54.8625 64.8689 55.3121C62.276 55.7617 59.6055 55.3943 57.2358 54.262C54.8661 53.1298 52.9173 51.2902 51.6657 49.0037V48.9586L51.7547 48.9125L55.9356 44.7796C56.1674 45.7006 56.588 46.5651 57.1713 47.3194C57.7548 48.0737 58.4886 48.702 59.3275 49.1654C60.3655 49.7283 61.5307 50.0232 62.715 50.0227H62.7726C63.9324 50.024 65.0746 49.7425 66.0978 49.2031C67.1209 48.6638 67.9932 47.8832 68.6372 46.9308C69.281 45.9784 69.6767 44.8838 69.789 43.7441C69.9012 42.6044 69.7264 41.4549 69.2803 40.398C68.8342 39.3409 68.1305 38.4092 67.2317 37.6854C66.333 36.9616 65.267 36.4681 64.1286 36.249C62.9902 36.0298 61.8145 36.0917 60.7062 36.4292C59.5979 36.7666 58.5911 37.3691 57.7754 38.1832L40.2409 55.5132H32.4185Z" fill="white"/>
<path d="M52.8874 30.7354L31.3022 51.6986C29.4189 53.5081 26.9965 54.6967 24.3782 55.0956C21.7601 55.4946 19.0789 55.0838 16.7147 53.9214C14.3505 52.759 12.4232 50.904 11.2059 48.6193C9.98858 46.3346 9.54305 43.7359 9.93241 41.1917C10.3218 38.6476 11.5263 36.2869 13.3753 34.444C15.2241 32.6013 17.6238 31.37 20.234 30.9246C22.8442 30.4793 25.5328 30.8424 27.9185 31.9627C30.3042 33.0829 32.2661 34.9034 33.5263 37.1662V37.1916L33.4378 37.2371L29.2278 41.341C28.993 40.4268 28.5669 39.5694 27.976 38.822C27.3851 38.0746 26.642 37.4533 25.793 36.9966C24.7493 36.4435 23.579 36.1542 22.3898 36.1552H22.3319C21.1651 36.1517 20.0154 36.4281 18.9851 36.9598C17.9547 37.4915 17.0758 38.262 16.4263 39.2028C15.7768 40.1436 15.3768 41.2257 15.262 42.3526C15.1472 43.4795 15.3211 44.6166 15.7682 45.6627C16.2153 46.7087 16.9218 47.6313 17.8249 48.3485C18.7279 49.0657 19.7996 49.5551 20.9446 49.7735C22.0896 49.9918 23.2724 49.9323 24.3881 49.6C25.5036 49.2678 26.5173 48.6732 27.3389 47.8692L45.0033 30.7354H52.8874Z" fill="white"/>
</g>
</svg>
