<svg width="72" height="25" viewBox="0 0 72 25" fill="none" xmlns="http://www.w3.org/2000/svg">
<mask id="mask0_726_3886" style="mask-type:luminance" maskUnits="userSpaceOnUse" x="0" y="0" width="72" height="25">
<path d="M72 0.0390625H0V24.0391H72V0.0390625Z" fill="white"/>
</mask>
<g mask="url(#mask0_726_3886)">
<path fill-rule="evenodd" clip-rule="evenodd" d="M0 0.0390625H4.107C4.242 6.45706 7.27 9.17606 9.669 9.73706V0.0390625H13.537V5.57506C15.905 5.33606 18.394 2.81406 19.233 0.0390625H23.101C22.784 1.47806 22.154 2.84106 21.248 4.04106C20.343 5.24206 19.182 6.25606 17.839 7.01806C19.339 7.71406 20.664 8.70006 21.726 9.91006C22.788 11.1211 23.563 12.5281 24 14.0391H19.743C19.35 12.7261 18.552 11.5511 17.448 10.6611C16.344 9.77106 14.983 9.20606 13.537 9.03606V14.0391H13.072C4.872 14.0391 0.195 8.78406 0 0.0390625Z" fill="white"/>
<path fill-rule="evenodd" clip-rule="evenodd" d="M47.9908 1.7752C47.6578 5.2892 46.2188 13.8152 45.4868 17.7512C45.1768 19.4162 44.5668 19.9752 43.9758 20.0292C42.6928 20.1482 41.7178 19.1762 40.4748 18.3572C38.5298 17.0752 37.4308 16.2772 35.5428 15.0262C33.3608 13.5802 34.7758 12.7862 36.0188 11.4872C36.3448 11.1472 41.9988 5.9752 42.1088 5.5062C42.1218 5.4472 42.1348 5.2282 42.0058 5.1132C41.8758 4.9982 41.6858 5.0372 41.5478 5.0682C41.3528 5.1132 38.2458 7.1782 32.2258 11.2642C31.3438 11.8732 30.5448 12.1692 29.8298 12.1542C29.0398 12.1372 27.5228 11.7052 26.3938 11.3362C25.0098 10.8842 23.9098 10.6452 24.0058 9.8772C24.0558 9.4762 24.6038 9.0672 25.6498 8.6492C32.0928 5.8272 36.3888 3.9662 38.5378 3.0672C44.6758 0.500197 45.9508 0.054197 46.7828 0.039197C46.9648 0.036197 47.3738 0.082197 47.6388 0.298197C47.8148 0.451197 47.9268 0.666197 47.9528 0.899197C47.9978 1.1892 48.0108 1.4822 47.9908 1.7752Z" fill="white"/>
<path fill-rule="evenodd" clip-rule="evenodd" d="M58.661 5.36906C58.661 8.31306 56.276 10.7011 53.331 10.7011C50.387 10.7011 48 8.31306 48 5.36906C48 2.42606 50.387 0.0390625 53.331 0.0390625C56.276 0.0390625 58.661 2.42606 58.661 5.36906ZM72 17.5541C72 21.1361 69.096 24.0391 65.514 24.0391C61.934 24.0391 59.032 21.1361 59.032 17.5541C59.032 13.9721 61.934 11.0681 65.514 11.0681C69.096 11.0681 72 13.9721 72 17.5541ZM69.689 5.36906C69.689 7.67506 67.82 9.54506 65.514 9.54506C63.211 9.54506 61.341 7.67506 61.341 5.36906C61.341 3.06406 63.211 1.19606 65.514 1.19606C67.82 1.19606 69.689 3.06406 69.689 5.36906ZM56.351 17.5541C56.351 19.2221 54.999 20.5721 53.331 20.5721C51.664 20.5721 50.311 19.2221 50.311 17.5541C50.311 15.8861 51.664 14.5371 53.331 14.5371C54.999 14.5371 56.351 15.8861 56.351 17.5541Z" fill="white"/>
</g>
</svg>
