<svg width="234" height="38" viewBox="0 0 234 38" fill="none" xmlns="http://www.w3.org/2000/svg">
<path d="M60.7179 12.6115C59.3821 11.5534 57.6978 11.0001 55.9769 11.0559H49.1885V28.9396H53.4663V22.8953H57.1225C57.5113 22.8964 57.9001 22.8573 58.2804 22.7765H58.4997C59.805 22.3811 60.9189 21.5367 61.6319 20.4015C62.3205 19.4242 62.6788 18.2616 62.6557 17.0765C62.7678 15.3748 62.0487 13.7182 60.7179 12.6115ZM58.2804 16.9815C58.3279 17.5551 58.0975 18.1179 57.6588 18.5015C57.0799 18.9005 56.3803 19.0976 55.6722 19.0596H53.4541V14.8796H55.721C56.4279 14.8321 57.1286 15.0352 57.6954 15.4496C58.1439 15.8332 58.3827 16.4008 58.3413 16.9815H58.2804ZM213.768 12.6115C212.428 11.5534 210.74 11.0013 209.015 11.0559H202.227V28.9396H206.505V22.8953H210.161C210.57 22.9012 210.98 22.862 211.38 22.7765H211.611C212.912 22.3775 214.02 21.5344 214.731 20.4015C215.42 19.4242 215.778 18.2616 215.755 17.0765C215.851 15.3677 215.114 13.7111 213.768 12.6115ZM211.331 16.9815C211.38 17.5574 211.145 18.1227 210.697 18.5015C210.124 18.9017 209.427 19.0988 208.723 19.0596H206.456V14.8796H208.723C209.426 14.8309 210.124 15.034 210.685 15.4496C211.138 15.8308 211.378 16.3996 211.331 16.9815ZM84.386 13.0627C80.7029 9.54419 74.7237 9.54419 71.0407 13.0627C67.516 16.7713 67.516 22.5711 71.0407 26.2796C74.7554 29.7816 80.7322 29.7816 84.4469 26.2796C87.9606 22.5663 87.9606 16.7761 84.4469 13.0627H84.386ZM81.2903 23.5246C80.3446 24.4485 79.0588 24.9674 77.7194 24.9674C76.38 24.9674 75.0942 24.4485 74.1485 23.5246C72.2923 21.3111 72.2923 18.1025 74.1485 15.889C75.0906 14.9497 76.3837 14.4189 77.7316 14.4189C79.0503 14.4189 80.3166 14.9259 81.2538 15.8296V15.889C83.1246 18.0966 83.1246 21.3171 81.2538 23.5246H81.2903ZM193.708 13.0627C190.026 9.5525 184.057 9.5525 180.375 13.0627C176.85 16.7713 176.85 22.5711 180.375 26.2796C184.087 29.7875 190.069 29.7875 193.781 26.2796C197.306 22.5711 197.306 16.7713 193.781 13.0627H193.708ZM190.612 23.4771C189.668 24.3998 188.384 24.9187 187.047 24.9187C185.71 24.9187 184.427 24.3998 183.483 23.4771C181.626 21.2636 181.626 18.055 183.483 15.8415C184.425 14.9022 185.718 14.3714 187.066 14.3714C188.384 14.3714 189.651 14.8784 190.588 15.7821L190.649 15.8415C192.544 18.0408 192.544 21.2779 190.649 23.4771H190.612ZM234 11.0559H221.41V28.9396H225.712V14.9153H231.379L231.587 14.6065L233.281 12.1246L234 11.0559ZM173.928 11.0559H158.12V14.9153H163.861V28.9396H168.187V14.9153H173.928V11.0559ZM106.031 24.2728L105.629 24.0828L105.275 24.3559C104.432 24.9734 103.392 25.2845 102.338 25.2346C100.882 25.2999 99.4631 24.7596 98.4382 23.7502C97.412 22.6886 96.8709 21.2648 96.9391 19.8078C96.8696 18.3721 97.412 16.9696 98.4382 15.9365C99.457 14.9402 100.86 14.4058 102.302 14.464C102.933 14.4723 103.556 14.6101 104.13 14.8678C104.759 15.1456 105.319 15.5506 105.775 16.0553L106.202 16.554L106.726 16.1621L108.688 14.7252L109.285 14.2859L108.81 13.7396C107.229 11.7945 104.811 10.6676 102.265 10.6878C100.991 10.6783 99.7264 10.9003 98.5357 11.3409C97.3913 11.7601 96.3492 12.4072 95.4766 13.2409C94.582 14.0709 93.8837 15.0791 93.4291 16.1978C92.9611 17.3294 92.7259 18.5395 92.7344 19.7602C92.7308 20.9774 92.9574 22.1863 93.4047 23.3227C93.8471 24.4283 94.5101 25.4365 95.3547 26.2915C96.2176 27.1334 97.2572 27.7866 98.4016 28.2034C99.6362 28.6356 100.94 28.8494 102.253 28.8328C104.417 28.9325 106.537 28.1891 108.139 26.7665C108.291 26.6288 108.433 26.4815 108.566 26.3271L109.163 25.6503L108.334 25.2584L106.031 24.2728ZM130.82 16.2096C129.877 13.9747 128.022 12.2184 125.702 11.3646C124.533 10.9359 123.295 10.7139 122.045 10.7115C119.497 10.6925 117.078 11.8242 115.501 13.7753L115.025 14.3334L115.623 14.7609L117.573 16.1978L118.109 16.5896L118.535 16.1028C118.988 15.5993 119.544 15.1943 120.168 14.9153C120.741 14.6564 121.365 14.5234 121.997 14.5234C123.442 14.4533 124.852 14.9841 125.872 15.984L126.262 16.4115C126.284 16.4685 126.322 16.5172 126.372 16.554C126.825 17.1762 127.13 17.8911 127.262 18.644H120.108L120.851 19.7128L122.155 21.6009L122.362 21.8978H126.993C126.746 22.615 126.328 23.2669 125.775 23.7978C124.752 24.8107 123.331 25.3522 121.875 25.2821C120.824 25.3356 119.787 25.0244 118.95 24.4034L118.596 24.1302L118.194 24.3202L115.866 25.4246L115.038 25.8165L115.635 26.4934C115.781 26.6596 115.927 26.7903 116.061 26.9328C117.664 28.3554 119.783 29.0987 121.948 28.999C123.26 29.0168 124.565 28.8042 125.799 28.3696C126.941 27.9552 127.977 27.3033 128.834 26.4578C129.686 25.6063 130.354 24.5969 130.796 23.489C131.243 22.3526 131.47 21.1437 131.466 19.9265C131.503 18.6583 131.283 17.3959 130.82 16.2096ZM153.928 28.0015L146.957 11.5071L146.786 11.0796H142.801L142.63 11.5071L135.708 28.0015L135.305 28.9515H140.18L140.351 28.5121L144.848 17.6702L149.309 28.5002L149.492 28.9396H154.367L153.928 28.0015Z" fill="#0450F2"/>
<path d="M17.5622 20.8883H0C0.119437 22.1292 0.368063 23.3547 0.743438 24.5458H11.1516L4.37531 31.1483C5.1675 32.0983 6.05719 32.9651 7.03219 33.737L13.8084 27.1345V37.2758C15.0308 37.6415 16.2886 37.8838 17.5622 38.0001V20.8883ZM38.8903 20.8883H21.3281V38.0001C22.6017 37.8838 23.8595 37.6415 25.0819 37.2758V24.5458H34.125C33.3864 26.4042 32.2859 28.1059 30.8831 29.557V34.4376C34.3261 31.9961 36.8599 28.5275 38.0981 24.5576V24.4864C38.1712 24.2608 38.2322 24.0233 38.2931 23.7858C38.2968 23.7228 38.2968 23.6587 38.2931 23.5958C38.3662 23.3345 38.415 23.0851 38.4759 22.8358V22.622C38.4759 22.4083 38.5612 22.1945 38.5978 21.9689C38.5929 21.906 38.5929 21.8418 38.5978 21.7789C38.5978 21.577 38.6587 21.3751 38.6831 21.1733C38.7428 21.0723 38.8123 20.9773 38.8903 20.8883ZM19.5 0.000142229C9.42094 -0.0378578 0.888469 7.54314 0 17.3258H13.2844L15.3806 13.6801H4.66781C4.99444 12.8026 5.40272 11.9559 5.88656 11.1508H16.8553L18.9516 7.49327H9.03094C14.9516 2.39889 23.9387 2.39889 29.8594 7.49327H19.9631L22.0594 11.1508H33.0281C33.512 11.9559 33.919 12.8026 34.2469 13.6801H23.5219L25.5938 17.3258H38.8781C37.9945 7.58827 29.5328 0.0227047 19.5 0.000142229Z" fill="#0450F2"/>
</svg>
