<svg width="383" height="664" viewBox="0 0 383 664" fill="none" xmlns="http://www.w3.org/2000/svg">
<path d="M289.875 448.786C289.875 448.786 277.926 352.727 230.107 333.7C182.289 314.673 96.2262 311.189 72.6683 174.217C58.8762 94.027 51.6617 59.144 48.05 44.0033C46.6414 38.0971 51.2324 32.4721 57.2901 32.7014C100.142 34.3244 240.363 46.4211 282.508 134.75C332.472 239.464 289.875 448.786 289.875 448.786Z" fill="#FFA275"/>
<path opacity="0.5" d="M95.198 66.1106C147.032 100.136 210.695 164.558 249.648 232.681C255.04 244.061 269.397 267.831 280.69 312.193C290.38 349.151 294.238 389.159 293.163 416.187C293.095 417.895 291.657 419.226 289.951 419.159C287.018 419.044 286.941 415.915 286.981 416.008C285.997 370.254 275.331 314.719 254.805 266.243C228.954 206.817 182.896 152.345 136.918 107.181L132.22 102.759C96.7709 68.9343 90.464 69.5903 92.8495 66.5051C93.4134 65.7761 94.4412 65.6164 95.198 66.1106Z" fill="white"/>
<path d="M381.673 509.93C388.34 511.028 304.531 452.811 249.377 338.27C223.388 284.296 201.956 213.307 161.497 195.68C127.824 181.009 40.8184 222.984 12.5783 237.478C9.04946 239.289 9.20982 244.392 12.8499 245.959C30.7959 253.68 69.9799 272.845 86.5641 299.08C108.424 333.66 151.48 346.846 185.524 343.649C219.568 340.452 239.314 341.366 270.374 388.04C301.434 434.714 362.729 506.812 381.673 509.93Z" fill="#FBD6C0"/>
<path opacity="0.5" d="M59.3758 240.704C97.9751 230.785 144.119 235.835 174.687 262.226L177.582 264.751C184.302 270.692 225.548 314.897 252.721 353.661C253.059 354.145 252.943 354.812 252.46 355.152C251.64 355.729 250.882 354.863 250.996 354.926C233.767 333.594 210.252 307.054 191.974 287.417C172.243 265.925 158.605 251.452 125.928 243.517C89.7348 235.273 59.6558 242.387 59.7498 242.379C59.2853 242.469 58.8357 242.165 58.7465 241.699C58.6607 241.251 58.941 240.817 59.3758 240.704Z" fill="white"/>
<path d="M367.816 603.313C372.784 604.828 333 558.988 322.021 513.969C311.042 468.951 285.985 393.33 237.983 354.448C189.98 315.566 146.311 319.581 100.364 372.169C62.0745 415.993 37.3904 439.142 21.5569 445.609C17.6363 447.21 16.4361 452.221 19.119 455.498C33.3987 472.944 71.7977 511.94 121.323 499.143C184.497 482.819 254.036 426.269 284.287 456.456C314.539 486.643 315.218 506.661 319.087 522.981C322.956 539.302 334.943 593.29 367.816 603.313Z" fill="#FF9964"/>
<path opacity="0.5" d="M129.129 424.407C145.123 401.83 173.492 377.208 202.029 375.289C239.418 374.16 268.214 393.772 288.292 427.351C296.373 441.694 300.056 449.472 306.692 467.683C307.222 469.137 305.097 470.011 304.449 468.616C300.546 460.214 296.586 451.391 291.475 442.462C260.575 384.454 218.177 383.999 216.348 383.042C213.321 383.941 191.938 373.516 152.124 405.979C144.699 412.092 137.616 418.803 131.129 425.949L131.093 425.989C130.623 426.506 129.825 426.545 129.309 426.074C128.832 425.64 128.764 424.921 129.129 424.407Z" fill="white"/>
</svg>
