<svg width="84" height="66" viewBox="0 0 84 66" fill="none" xmlns="http://www.w3.org/2000/svg">
<mask id="mask0_726_3813" style="mask-type:luminance" maskUnits="userSpaceOnUse" x="0" y="0" width="84" height="66">
<path d="M83.5907 0.554688H0.472412V65.4275H83.5907V0.554688Z" fill="white"/>
</mask>
<g mask="url(#mask0_726_3813)">
<path d="M28.9173 9.02495C31.242 9.02495 33.2332 8.16899 34.882 6.52915C36.5309 4.8803 37.3778 2.89807 37.3778 0.564453H8.98697C6.65335 0.564453 4.61706 1.35734 2.96821 3.0062C1.31936 4.64604 0.472412 6.70034 0.472412 9.02495H28.9173Z" fill="#FF6700"/>
<path d="M55.1368 9.02495C52.8032 9.02495 50.8209 8.16899 49.1721 6.52915C47.5232 4.8803 46.6763 2.89807 46.6763 0.564453H75.0672C77.4008 0.564453 79.437 1.35734 81.0859 3.0062C82.7348 4.65505 83.5817 6.70034 83.5817 9.02495H55.1368Z" fill="#FF6700"/>
<path d="M37.3778 49.7694V30.9112C37.3778 27.7307 36.2426 25.0006 33.972 22.73C31.7555 20.4595 29.0345 19.3242 25.7998 19.3242H11.663C9.32936 19.3242 7.29307 20.1802 5.64422 21.82C3.99537 23.4689 3.20248 25.5142 3.20248 27.8388H25.061C26.1422 27.8388 27.0523 28.2352 27.7821 28.9741C28.5209 29.7129 28.9173 30.6229 28.9173 31.7041V41.2458H8.98697C6.65335 41.2458 4.61706 42.1018 2.96821 43.7416C1.31936 45.3905 0.472412 47.4358 0.472412 49.7604L37.3778 49.7694Z" fill="#FF6700"/>
<path d="M46.6765 49.7694V30.9112C46.6765 27.7307 47.8118 25.0006 50.0823 22.73C52.2988 20.4595 55.0199 19.3242 58.2545 19.3242H72.3914C74.725 19.3242 76.7613 20.1802 78.4101 21.82C80.059 23.4689 80.8519 25.5142 80.8519 27.8388H59.0024C57.9211 27.8388 57.0111 28.2352 56.2813 28.9741C55.5425 29.7129 55.146 30.6229 55.146 31.7041V41.2458H75.0764C77.41 41.2458 79.4463 42.1018 81.0952 43.7416C82.744 45.3905 83.591 47.4358 83.591 49.7604L46.6765 49.7694Z" fill="#FF6700"/>
<path d="M15.8165 54.8867H68.2374C70.589 54.8867 72.4901 56.7969 72.4901 59.1395H11.5637C11.5637 56.7969 13.4739 54.8867 15.8165 54.8867Z" fill="white"/>
<path d="M4.72519 61.166H79.3289C81.6806 61.166 83.5817 63.0762 83.5817 65.4188H0.472412C0.472412 63.0762 2.38256 61.166 4.72519 61.166Z" fill="white"/>
</g>
</svg>
