<svg width="9" height="8" viewBox="0 0 9 8" fill="none" xmlns="http://www.w3.org/2000/svg">
<path d="M2.43263 4.1782L0.480235 3.54207C0.480235 3.54207 0.246902 3.4474 0.322035 3.23274C0.337502 3.18847 0.368702 3.1508 0.462035 3.08607C0.894635 2.78454 8.4691 0.0620688 8.4691 0.0620688C8.4691 0.0620688 8.68297 -0.00999787 8.8091 0.0379355C8.87257 0.0576021 8.92064 0.110002 8.93477 0.174935C8.94837 0.231335 8.9541 0.289335 8.9517 0.347269C8.9511 0.397402 8.94503 0.443869 8.94043 0.516735C8.8943 1.26107 7.51377 6.81627 7.51377 6.81627C7.51377 6.81627 7.43117 7.14134 7.13523 7.15247C6.98837 7.1572 6.8457 7.102 6.74023 6.99967C6.1595 6.50014 4.1523 5.1512 3.70877 4.85454C3.68857 4.84074 3.67523 4.81887 3.67237 4.79454C3.66617 4.76327 3.70017 4.72454 3.70017 4.72454C3.70017 4.72454 7.19524 1.61787 7.28824 1.29174C7.29543 1.26647 7.26823 1.254 7.2317 1.26507C6.99957 1.35047 2.97544 3.89174 2.5313 4.1722C2.4993 4.18187 2.46557 4.18394 2.43263 4.1782Z" fill="white"/>
</svg>
