<svg width="88" height="87" viewBox="0 0 88 87" fill="none" xmlns="http://www.w3.org/2000/svg">
<path d="M43.4999 86.0477C67.2071 86.0477 86.4256 66.8292 86.4256 43.122C86.4256 19.4148 67.2071 0.196289 43.4999 0.196289C19.7927 0.196289 0.574219 19.4148 0.574219 43.122C0.574219 66.8292 19.7927 86.0477 43.4999 86.0477Z" fill="white"/>
<path d="M78.2565 34.9535H72.7152C69.3852 34.9535 67.5901 37.7372 67.1478 40.755L65.5609 51.6035L85.5929 51.6295C86.5815 51.6295 87.388 52.436 87.388 53.4246C87.388 54.4132 86.5815 55.2197 85.5929 55.2197L63.4796 55.1937C62.9333 55.1937 62.465 54.9855 62.1268 54.5693C61.7626 54.153 61.6325 53.6587 61.7106 53.1384L63.5837 40.2347C64.2861 35.3958 67.5381 31.3374 72.7152 31.3374H80.0516C81.0402 31.3374 81.8466 32.1439 81.8466 33.1324V47.8573C81.8466 48.8459 81.0402 49.6523 80.0516 49.6523C79.063 49.6523 78.2565 48.8459 78.2565 47.8573V34.9535ZM52.6051 46.0882H55.1026C55.9351 44.3452 56.3514 42.472 56.3514 40.5209C56.3514 33.3926 50.5759 27.6171 43.4476 27.6171C36.3194 27.6171 30.5439 33.3926 30.5439 40.5209C30.5439 47.6491 36.3194 53.4246 43.4476 53.4246H45.2427C46.2313 53.4246 47.0378 54.2311 47.0378 55.2197C47.0378 56.2083 46.2313 57.0148 45.2427 57.0148H43.4476C34.3162 57.0148 26.9277 49.6263 26.9277 40.4949C26.9277 31.3634 34.3162 24.001 43.4476 24.001C52.5791 24.001 59.9675 31.3894 59.9675 40.5209C59.9675 43.4346 59.2131 46.2703 57.7562 48.7938C57.418 49.3662 56.8457 49.7044 56.1953 49.7044H50.8101C49.8215 49.7044 49.015 48.8979 49.015 47.9093V40.5469C49.015 37.477 46.5435 35.0056 43.4737 35.0056C40.4038 35.0056 37.9323 37.477 37.9323 40.5469C37.9323 43.6167 40.4298 46.0882 43.4737 46.1142L45.3208 46.0882C46.3094 46.0882 47.1419 46.8687 47.1419 47.8573C47.1419 48.8459 46.3614 49.6784 45.3468 49.6784L43.4997 49.7044H43.4737C38.4266 49.6784 34.3162 45.5939 34.3162 40.5209C34.3162 35.4738 38.4006 31.3634 43.4737 31.3634C48.5207 31.3634 52.6311 35.4738 52.6311 40.5209L52.6051 46.0882ZM9.88754 49.7304V53.3986C9.88754 54.3872 9.08106 55.1937 8.09247 55.1937C7.10388 55.1937 6.29739 54.3872 6.29739 53.3986V49.7304H2.60318C1.61459 49.7304 0.808105 48.9239 0.808105 47.9353C0.808105 46.9467 1.61459 46.1402 2.60318 46.1402H15.4809C18.5507 46.1402 21.0222 43.5907 21.0222 40.5469C21.0222 37.477 18.5507 35.0056 15.4809 35.0056H9.88754V42.42C9.88754 43.4086 9.08106 44.2151 8.09247 44.2151C7.10388 44.2151 6.29739 43.4086 6.29739 42.42V33.1585C6.29739 32.1699 7.10388 31.3634 8.09247 31.3634H15.4549C20.5019 31.3634 24.6124 35.4738 24.6124 40.5209C24.6124 45.5679 20.5279 49.7304 15.4809 49.7304H9.88754Z" fill="#007EEE"/>
</svg>
