<svg width="121" height="24" viewBox="0 0 121 24" fill="none" xmlns="http://www.w3.org/2000/svg">
<path d="M1.00188 0.4375H10.5796V2.3026H3.10124V7.59154C3.38956 7.53747 3.74096 7.49242 4.15542 7.43836C4.5789 7.3843 4.97535 7.36628 5.36278 7.36628C6.21874 7.36628 7.02965 7.44737 7.80452 7.60956C8.57939 7.77174 9.25515 8.04204 9.84081 8.42947C10.4265 8.81691 10.895 9.3395 11.2374 10.0062C11.5798 10.673 11.751 11.5019 11.751 12.5111C11.751 13.5202 11.5708 14.3852 11.2194 15.115C10.868 15.8448 10.3994 16.4395 9.80477 16.908C9.21911 17.3675 8.53434 17.7099 7.75046 17.9442C6.96658 18.1694 6.14666 18.2865 5.2907 18.2865C5.00238 18.2865 4.67801 18.2865 4.31761 18.2775C3.9572 18.2685 3.57878 18.2505 3.18233 18.2145C2.78589 18.1784 2.39845 18.1424 2.02003 18.0973C1.6416 18.0523 1.29021 17.9892 0.974854 17.9081V0.4375H1.00188ZM5.561 16.4575C6.10161 16.4575 6.60618 16.3854 7.10173 16.2322C7.58828 16.0791 8.01176 15.8628 8.37216 15.5655C8.73256 15.2681 9.02089 14.8987 9.22812 14.4482C9.43535 13.9977 9.54348 13.4661 9.54348 12.8624C9.54348 12.0876 9.41733 11.4659 9.17406 10.9883C8.93079 10.5108 8.60642 10.1324 8.20097 9.87109C7.79551 9.60079 7.336 9.42059 6.8044 9.33049C6.2728 9.24039 5.72319 9.19533 5.15555 9.19533C5.00238 9.19533 4.83118 9.20434 4.62395 9.22236C4.42573 9.24038 4.2185 9.25841 4.02027 9.27643C3.82205 9.29445 3.63284 9.31246 3.46165 9.33949C3.29045 9.36652 3.16431 9.38455 3.08322 9.40257V16.3313C3.20035 16.3674 3.35352 16.3944 3.55175 16.4034C3.74096 16.4214 3.9572 16.4395 4.18245 16.4575C4.40771 16.4755 4.64197 16.4845 4.87623 16.4845C5.11951 16.4575 5.34476 16.4575 5.561 16.4575Z" fill="white"/>
<path d="M21.7884 10.6174L21.8605 9.05868H21.7884L20.7523 10.6715L15.0849 18.0778H13.9226V5.47266H15.9409V13.1583L15.8688 14.645H15.9679L16.95 13.0862L22.6174 5.48166H23.7977V18.0688H21.7794L21.7884 10.6174Z" fill="white"/>
<path d="M38.0874 21.2674H36.7269L36.3485 18.0688H26.8788L26.5004 21.2674H25.1399V16.3028H26.6266C26.7617 16.1226 26.9329 15.7892 27.1582 15.3117C27.3744 14.8342 27.5906 14.1584 27.7979 13.2934C28.0051 12.4285 28.1943 11.3563 28.3565 10.0678C28.5187 8.77937 28.6088 7.24765 28.6448 5.47266H36.2494V16.3028H38.0874V21.2674ZM34.2311 16.3118V7.23864H30.4559C30.4198 7.94143 30.3658 8.7163 30.2757 9.54523C30.1946 10.3742 30.0774 11.2121 29.9333 12.041C29.7891 12.87 29.6089 13.6538 29.3927 14.3927C29.1764 15.1315 28.9241 15.7712 28.6358 16.3118H34.2311Z" fill="white"/>
<path d="M41.187 7.74378H47.9626C47.9086 7.06803 47.7734 6.45533 47.5482 5.8877C47.3229 5.32907 47.0166 4.84253 46.6291 4.43707C46.2417 4.03162 45.7642 3.71626 45.1965 3.49101C44.6289 3.26576 43.9802 3.14862 43.2594 3.14862C42.3493 3.14862 41.5655 3.24773 40.8897 3.43694C40.2139 3.62616 39.6733 3.8424 39.2499 4.07667L38.52 1.15739C39.1057 0.851042 39.8445 0.598759 40.7365 0.391526C41.6285 0.184293 42.5115 0.0761719 43.3855 0.0761719C44.5478 0.0761719 45.611 0.238353 46.6021 0.553707C47.5842 0.869061 48.4312 1.40066 49.143 2.13048C49.8548 2.8603 50.4134 3.80636 50.8188 4.97768C51.2243 6.14899 51.4225 7.57259 51.4225 9.24847C51.4225 10.9964 51.1883 12.4561 50.7197 13.6364C50.2512 14.8167 49.6205 15.7538 48.8276 16.4566C48.0347 17.1594 47.1337 17.6639 46.1066 17.9703C45.0794 18.2766 44.0162 18.4208 42.908 18.4208C41.9529 18.4208 41.0789 18.3397 40.304 18.1685C39.5202 17.9973 38.8985 17.8081 38.4299 17.5918L39.34 14.5915C39.7274 14.7807 40.25 14.9519 40.8987 15.105C41.5564 15.2672 42.3133 15.3483 43.1693 15.3483C43.827 15.3483 44.4307 15.2582 44.9803 15.069C45.5389 14.8888 46.0255 14.5915 46.4579 14.204C46.8904 13.8076 47.2328 13.312 47.5031 12.7084C47.7734 12.1047 47.9356 11.3749 48.0077 10.5189H41.187V7.74378Z" fill="white"/>
<path d="M57.234 12.8609H56.351V18.0778H53.0803V5.47266H56.36V10.8427L57.1439 10.4913L60.0902 5.48166H63.5951L60.5497 10.266L59.2613 11.2211L60.6758 12.2032L64.0727 18.0778H60.3154L57.234 12.8609Z" fill="white"/>
<path d="M73.2539 17.2938C72.7493 17.6632 72.1366 17.9425 71.4248 18.1407C70.713 18.3299 69.9742 18.429 69.2174 18.429C68.2082 18.429 67.3613 18.2669 66.6585 17.9515C65.9647 17.6361 65.3971 17.1856 64.9556 16.6C64.5231 16.0233 64.2077 15.3205 64.0095 14.5006C63.8203 13.6807 63.7212 12.7707 63.7212 11.7796C63.7212 9.64417 64.1987 8.00433 65.1538 6.85104C66.1089 5.69774 67.5054 5.12109 69.3345 5.12109C70.2535 5.12109 71.0014 5.19317 71.56 5.34635C72.1186 5.49952 72.6322 5.68873 73.0827 5.923L72.2988 8.58999C71.9114 8.40979 71.533 8.26563 71.1545 8.1575C70.7761 8.05839 70.3436 8.00433 69.8571 8.00433C68.9471 8.00433 68.2623 8.30167 67.7938 8.89633C67.3252 9.491 67.091 10.4461 67.091 11.7525C67.091 12.2931 67.154 12.7887 67.2712 13.2392C67.3883 13.6897 67.5685 14.0862 67.8028 14.4195C68.037 14.7529 68.3434 15.0232 68.7218 15.2124C69.1002 15.4016 69.5417 15.5007 70.0463 15.5007C70.6049 15.5007 71.0734 15.4287 71.4609 15.2845C71.8483 15.1403 72.1907 14.9692 72.497 14.7709L73.2539 17.2938Z" fill="white"/>
<path d="M81.7775 8.37391H77.7951V18.0688H74.5154V5.47266H85.0482V18.0688H81.7685V8.37391H81.7775Z" fill="white"/>
<path d="M97.2658 16.9886C96.7613 17.3941 96.0765 17.7274 95.2115 18.0068C94.3466 18.2861 93.4275 18.4212 92.4544 18.4212C90.4181 18.4212 88.9315 17.8266 87.9944 16.6462C87.0574 15.4659 86.5798 13.8351 86.5798 11.7718C86.5798 9.55527 87.1114 7.8884 88.1656 6.78015C89.2198 5.67191 90.7065 5.11328 92.6256 5.11328C93.2653 5.11328 93.887 5.19437 94.4907 5.36556C95.0944 5.53676 95.635 5.80706 96.1035 6.1945C96.5721 6.58193 96.9505 7.10452 97.2388 7.75324C97.5271 8.41098 97.6713 9.22189 97.6713 10.195C97.6713 10.5464 97.6533 10.9248 97.6082 11.3303C97.5632 11.7357 97.5001 12.1502 97.419 12.5917H89.8865C89.9406 13.6459 90.2109 14.4478 90.7065 14.9884C91.202 15.529 92.0039 15.7903 93.1032 15.7903C93.7879 15.7903 94.4006 15.6821 94.9502 15.4749C95.4908 15.2677 95.9053 15.0514 96.1936 14.8352L97.2658 16.9886ZM92.5896 7.74424C91.7336 7.74424 91.1029 7.99652 90.6975 8.5101C90.292 9.02367 90.0397 9.70844 89.9586 10.5644H94.6169C94.6799 9.65438 94.5448 8.9606 94.2024 8.47405C93.869 7.98751 93.3284 7.74424 92.5896 7.74424Z" fill="white"/>
<path d="M99.2573 5.47249H101.654L102.032 6.98619H102.132C102.564 6.34647 103.087 5.87794 103.681 5.5716C104.276 5.26526 105.006 5.12109 105.862 5.12109C107.438 5.12109 108.628 5.61665 109.412 6.61678C110.205 7.6169 110.592 9.2207 110.592 11.4372C110.592 12.5094 110.466 13.4825 110.214 14.3474C109.961 15.2124 109.592 15.9513 109.096 16.5549C108.601 17.1586 107.997 17.6181 107.285 17.9425C106.574 18.2578 105.754 18.42 104.826 18.42C104.303 18.42 103.879 18.384 103.537 18.3029C103.204 18.2308 102.861 18.1047 102.528 17.9335V23.0963H99.2483V5.47249H99.2573ZM104.88 7.89621C104.24 7.89621 103.744 8.05839 103.384 8.37375C103.024 8.6891 102.744 9.17565 102.537 9.80635V15.0502C102.771 15.2395 103.033 15.3836 103.303 15.4917C103.582 15.5999 103.943 15.6539 104.402 15.6539C105.339 15.6539 106.051 15.3205 106.519 14.6628C106.988 13.9961 107.222 12.9058 107.222 11.3741C107.222 10.2659 107.033 9.40991 106.664 8.80623C106.294 8.19355 105.7 7.89621 104.88 7.89621Z" fill="white"/>
<path d="M120.999 8.37391H117.449V18.0688H114.07V8.37391H110.52V5.47266H120.999V8.37391Z" fill="white"/>
</svg>
