<svg width="497" height="446" viewBox="0 0 497 446" fill="none" xmlns="http://www.w3.org/2000/svg">
<path d="M77.8377 195.795C98.6009 191.324 169.42 178.202 243.575 188.845C268.41 192.409 290.396 206.872 303.8 228.131C327.952 266.435 362.114 334.718 354.89 405.934L316.983 415.329C316.983 415.329 290.786 330.835 261.301 296.447C261.301 296.447 226.382 376.23 228.148 420.043C228.198 421.281 228.277 422.491 228.387 423.669C232.394 466.533 60.7647 431.668 60.7647 431.668L71.4556 203.35C71.6279 199.67 74.2439 196.569 77.8377 195.795Z" fill="url(#paint0_linear_725_3572)"/>
<path d="M136.888 115.615L131.897 174.932C131.433 180.451 134.272 185.612 139 187.822C149.892 192.911 170.806 200.213 193.171 194.854C197.264 193.873 199.931 189.587 199.256 185.212L184.75 91.1914L136.888 115.615Z" fill="url(#paint1_linear_725_3572)"/>
<path d="M203.485 43.7236C203.485 43.7236 214.75 87.5528 212.517 109.253C210.284 130.953 212.683 145.65 187.182 146.008C161.681 146.366 142.754 130.63 134.846 107.391C134.846 107.391 122.367 71.5366 128.502 58.6539C134.636 45.7709 203.485 43.7236 203.485 43.7236Z" fill="url(#paint2_linear_725_3572)"/>
<path d="M145.779 93.3451L148.916 93.8473C148.916 93.8473 140.227 65.207 152.327 62.3573C164.426 59.5077 210.871 57.5163 223.126 43.0724C234.94 29.1479 229.771 7.88964 218.176 0.315447C217.443 -0.163828 216.452 0.0595511 215.926 0.761222L214.579 2.55689C213.657 3.78656 211.711 3.26606 211.522 1.73952C211.343 0.291452 209.53 -0.309032 208.575 0.792701C204.842 5.10118 195.558 11.5924 173.347 12.1289C141.831 12.8895 119.613 22.0677 115.736 43.1951C115.49 44.5335 113.939 45.0447 112.906 44.1619C110.866 42.4192 107.353 41.1923 101.87 44.4922C92.335 50.231 92.8451 69.1601 108.863 87.2289C109.624 88.0875 109.398 89.4569 108.351 89.9239C104.663 91.5689 98.8579 95.9583 110.659 104.938C122.732 114.125 130.666 114.604 133.735 114.32C134.56 114.244 135.209 113.605 135.289 112.777L137.126 93.7981C137.221 92.8165 138.122 92.1186 139.094 92.2741L145.779 93.3451Z" fill="url(#paint3_linear_725_3572)"/>
<path d="M145.923 97.4014C145.923 97.4014 143.306 70.1372 130.428 75.6019C117.549 81.0664 131.829 105.905 141.086 108.392L145.923 97.4014Z" fill="url(#paint4_linear_725_3572)"/>
<path d="M72.262 363.543C68.5611 337.346 95.6254 298.838 106.82 284.226C110.022 280.046 111.813 274.936 111.858 269.666C112.186 232.565 99.6544 213.184 74.754 197.185C74.754 197.185 -18.6326 298.28 4.37953 379.459C6.86247 388.22 10.7105 395.747 15.5897 402.214C19.2161 371.627 54.4871 364.954 72.262 363.543Z" fill="url(#paint5_linear_725_3572)"/>
<path d="M73.9472 353.408L70.5037 353.014C73.4224 327.324 95.9122 295.609 105.445 283.166L108.195 285.282C98.8377 297.496 76.7694 328.583 73.9472 353.408Z" fill="url(#paint6_linear_725_3572)"/>
<path d="M72.9714 367.17C72.6556 365.993 72.4365 364.776 72.2622 363.542C54.4872 364.953 19.2163 371.626 15.5898 402.214C55.9214 455.682 167.089 436.392 167.089 436.392V415.586C167.089 415.586 81.7116 399.687 72.9714 367.17Z" fill="url(#paint7_linear_725_3572)"/>
<path d="M156.402 430.647C156.402 430.647 172.816 391.824 201.738 405.595C230.66 419.366 228.387 428.377 228.387 428.377L156.402 430.647Z" fill="url(#paint8_linear_725_3572)"/>
<path d="M152.715 438.702C152.945 441.64 155.442 443.875 158.379 443.772L308.252 438.531C310.582 438.45 312.606 436.903 313.301 434.673L317.651 420.72C318.72 417.292 316.28 413.773 312.702 413.583L258.049 410.673C257.553 410.646 257.055 410.687 256.57 410.795L157.001 432.899C154.329 433.493 152.501 435.968 152.715 438.702Z" fill="url(#paint9_linear_725_3572)"/>
<path d="M253.177 433.22L257.301 413.958L313.441 416.643L309.747 432.625L253.177 433.22Z" fill="url(#paint10_linear_725_3572)"/>
<path d="M224.397 225.423C221.219 251.446 206.926 357.178 202.835 387.387C202.26 391.636 205.626 395.372 209.902 395.25L452.369 388.295C455.542 388.204 458.248 385.964 458.936 382.858L496.654 212.593C497.651 208.091 494.076 203.883 489.484 204.153L230.869 219.336C227.526 219.532 224.804 222.091 224.397 225.423Z" fill="url(#paint11_linear_725_3572)"/>
<path d="M321.86 332.67L286.025 434.623L369.351 436.393L376.289 333.282C376.614 328.444 372.611 324.426 367.783 324.747L328.87 327.338C325.679 327.55 322.922 329.647 321.86 332.67Z" fill="url(#paint12_linear_725_3572)"/>
<path d="M252.243 436.073C251.325 438.878 253.41 441.764 256.355 441.764H386.848C389.238 441.764 391.176 439.822 391.176 437.426V431.816C391.176 429.347 389.123 427.376 386.663 427.482L256.17 433.092C254.369 433.169 252.805 434.357 252.243 436.073Z" fill="url(#paint13_linear_725_3572)"/>
<path d="M187.146 124.501C157.93 132.177 135.105 104.628 134.878 104.348L136.663 102.89C136.881 103.157 158.791 129.565 186.563 122.268L187.146 124.501Z" fill="url(#paint14_linear_725_3572)"/>
<path d="M194.527 120.587C195.139 122.262 194.28 124.117 192.609 124.731L187.011 126.785C185.339 127.398 183.489 126.537 182.877 124.862L182.534 123.921C181.922 122.246 182.781 120.391 184.452 119.778L190.05 117.724C191.721 117.111 193.572 117.972 194.184 119.647L194.527 120.587Z" fill="url(#paint15_linear_725_3572)"/>
<path d="M130.332 70.2785C130.332 70.2785 132.379 20.8792 160.984 10.5963C160.984 10.5963 152.023 8.35731 144.06 14.285C136.098 20.2128 118.047 47.6319 123.187 72.8998C129.478 73.7122 130.332 70.2785 130.332 70.2785Z" fill="url(#paint16_linear_725_3572)"/>
<path d="M124.789 68.3315C109.107 74.631 114.877 94.909 114.877 94.909C116.438 110.106 122.155 116.733 128.392 119.247C132.652 120.964 137.5 120.307 141.16 117.528C144.82 114.749 146.759 110.25 146.268 105.673C145.824 101.541 145.461 97.6018 145.512 96.1699C145.635 92.7008 140.471 62.0317 124.789 68.3315Z" fill="url(#paint17_linear_725_3572)"/>
<path d="M127.238 73.2659C123.749 73.2967 120.743 75.7093 119.96 79.1167C114.351 103.504 128.986 116.015 134.909 115.246C141.152 114.435 135.584 84.6376 132.875 77.2333C131.74 74.1305 129.481 73.2462 127.238 73.2659Z" fill="url(#paint18_linear_725_3572)"/>
<path d="M220.839 333.47L218.909 333.226L230.821 239.052C231.567 233.158 236.4 228.624 242.312 228.266L465.797 214.736L465.915 216.683L242.43 230.212C237.449 230.513 233.38 234.333 232.751 239.296L220.839 333.47Z" fill="#C8C8C8"/>
<path d="M215.484 360.073L217.414 360.316L214.851 380.707L212.921 380.463L215.484 360.073Z" fill="#A8A8A8"/>
<defs>
<linearGradient id="paint0_linear_725_3572" x1="4767.23" y1="5071.47" x2="4556.9" y2="4854.92" gradientUnits="userSpaceOnUse">
<stop stop-color="#393939"/>
<stop offset="1" stop-color="#282828"/>
</linearGradient>
<linearGradient id="paint1_linear_725_3572" x1="139.841" y1="271.834" x2="175" y2="123.093" gradientUnits="userSpaceOnUse">
<stop stop-color="#FEBBBA"/>
<stop offset="1" stop-color="#FF928E"/>
</linearGradient>
<linearGradient id="paint2_linear_725_3572" x1="145.078" y1="104.392" x2="208.72" y2="87.7704" gradientUnits="userSpaceOnUse">
<stop stop-color="#FEBBBA"/>
<stop offset="1" stop-color="#FF928E"/>
</linearGradient>
<linearGradient id="paint3_linear_725_3572" x1="85.2652" y1="134.548" x2="205.471" y2="-6.76829" gradientUnits="userSpaceOnUse">
<stop stop-color="#262626"/>
<stop offset="1" stop-color="#525252"/>
</linearGradient>
<linearGradient id="paint4_linear_725_3572" x1="141.436" y1="90.451" x2="205.08" y2="73.8287" gradientUnits="userSpaceOnUse">
<stop stop-color="#FEBBBA"/>
<stop offset="1" stop-color="#FF928E"/>
</linearGradient>
<linearGradient id="paint5_linear_725_3572" x1="4538.14" y1="4945.41" x2="4335.68" y2="4736.96" gradientUnits="userSpaceOnUse">
<stop stop-color="#434343"/>
<stop offset="1" stop-color="#232323"/>
</linearGradient>
<linearGradient id="paint6_linear_725_3572" x1="-223.461" y1="-5.7892" x2="382.466" y2="620.654" gradientUnits="userSpaceOnUse">
<stop stop-color="#4E4E4E"/>
<stop offset="1" stop-color="#7A7A7A"/>
</linearGradient>
<linearGradient id="paint7_linear_725_3572" x1="62.7588" y1="333.51" x2="128.91" y2="507.181" gradientUnits="userSpaceOnUse">
<stop stop-color="#FEBBBA"/>
<stop offset="1" stop-color="#FF928E"/>
</linearGradient>
<linearGradient id="paint8_linear_725_3572" x1="144.496" y1="302.375" x2="210.648" y2="476.046" gradientUnits="userSpaceOnUse">
<stop stop-color="#FEBBBA"/>
<stop offset="1" stop-color="#FF928E"/>
</linearGradient>
<linearGradient id="paint9_linear_725_3572" x1="287.473" y1="365.478" x2="253.278" y2="409.422" gradientUnits="userSpaceOnUse">
<stop stop-color="#656565"/>
<stop offset="1" stop-color="#393939"/>
</linearGradient>
<linearGradient id="paint10_linear_725_3572" x1="312.947" y1="385.3" x2="278.752" y2="429.244" gradientUnits="userSpaceOnUse">
<stop stop-color="#444444"/>
<stop offset="1" stop-color="#292929"/>
</linearGradient>
<linearGradient id="paint11_linear_725_3572" x1="342.934" y1="303.07" x2="620.185" y2="134.415" gradientUnits="userSpaceOnUse">
<stop stop-color="#484848"/>
<stop offset="1" stop-color="#0E0E0E"/>
</linearGradient>
<linearGradient id="paint12_linear_725_3572" x1="350.708" y1="425.242" x2="299.858" y2="315.327" gradientUnits="userSpaceOnUse">
<stop stop-color="#3B3B3B"/>
<stop offset="1" stop-color="#5B5B5B"/>
</linearGradient>
<linearGradient id="paint13_linear_725_3572" x1="318.014" y1="413.341" x2="275.61" y2="162.901" gradientUnits="userSpaceOnUse">
<stop stop-color="#363636"/>
<stop offset="1" stop-color="#505050"/>
</linearGradient>
<linearGradient id="paint14_linear_725_3572" x1="140.708" y1="142.684" x2="172.786" y2="98.2494" gradientUnits="userSpaceOnUse">
<stop stop-color="#464646"/>
<stop offset="1" stop-color="#2A2A2A"/>
</linearGradient>
<linearGradient id="paint15_linear_725_3572" x1="194.725" y1="122.254" x2="182.336" y2="122.254" gradientUnits="userSpaceOnUse">
<stop stop-color="#424242"/>
<stop offset="1" stop-color="#232323"/>
</linearGradient>
<linearGradient id="paint16_linear_725_3572" x1="237.239" y1="-14.021" x2="-45.8622" y2="145.664" gradientUnits="userSpaceOnUse">
<stop stop-color="#484848"/>
<stop offset="1"/>
</linearGradient>
<linearGradient id="paint17_linear_725_3572" x1="81.9076" y1="9.39004" x2="104.783" y2="49.5378" gradientUnits="userSpaceOnUse">
<stop stop-color="#292929"/>
<stop offset="1" stop-color="#292929"/>
</linearGradient>
<linearGradient id="paint18_linear_725_3572" x1="130.565" y1="94.3323" x2="57.3964" y2="31.8852" gradientUnits="userSpaceOnUse">
<stop stop-color="#515151"/>
<stop offset="1" stop-color="#494949"/>
</linearGradient>
</defs>
</svg>
