<svg width="768" height="736" viewBox="0 0 768 736" fill="none" xmlns="http://www.w3.org/2000/svg">
<path d="M713.319 144.577C710.652 139.992 707.879 135.497 704.998 131.091C666.447 72.5258 602.193 32.4319 539.899 14.2787C512.72 6.43705 484.733 1.97574 456.532 0.990774C272.848 -5.8179 205.382 150.772 146.205 191.132C87.0289 231.491 -3.794 300.468 7.69193 445.333C16.3336 555.485 76.941 660.804 187.6 708.721C200.101 714.146 212.93 718.723 226.008 722.423C252.494 729.854 279.705 734.183 307.126 735.328C390.8 739.18 458.749 718.321 525.202 665.803C540.654 653.594 556.027 639.826 576.074 638.315C590.643 637.217 604.459 642.632 589.231 657.198C571.32 674.307 591.977 707.973 637.421 684.587C713.319 645.523 744.546 561.248 759.259 475.562C777.251 370.376 768.496 239.647 713.319 144.577Z" fill="url(#paint0_linear_725_3364)"/>
<path d="M14.8753 114.999C15.1231 115.882 15.3916 116.755 15.6804 117.616C19.5603 129.079 28.2269 138.42 37.4215 143.961C41.4362 146.365 45.7083 148.227 50.1476 149.507C79.0462 157.914 95.7451 133.998 106.683 129.484C117.62 124.969 134.676 116.847 138.393 91.8046C141.234 72.7668 135.641 52.4981 119.907 39.9966C118.13 38.5824 116.268 37.299 114.334 36.1548C110.413 33.8479 106.259 32.039 101.95 30.7621C88.8147 26.8052 77.2303 27.6636 64.6726 33.9544C61.7527 35.4167 58.7858 37.1468 55.5455 36.6119C53.1908 36.2231 51.2047 34.7587 54.1792 32.8874C57.6767 30.6905 55.6851 24.1608 47.5767 26.3363C34.0342 29.9708 25.8539 43.0425 20.2411 57.0055C13.362 74.1491 9.75213 96.684 14.8753 114.999Z" fill="#FF6700"/>
<path d="M14.8753 114.999C15.1231 115.882 15.3916 116.755 15.6804 117.616C19.5603 129.079 28.2269 138.42 37.4215 143.961C41.4362 146.365 45.7083 148.227 50.1476 149.507C79.0462 157.914 95.7451 133.998 106.683 129.484C117.62 124.969 134.676 116.847 138.393 91.8046C141.234 72.7668 135.641 52.4981 119.907 39.9966C118.13 38.5824 116.268 37.299 114.334 36.1548C110.413 33.8479 106.259 32.039 101.95 30.7621C88.8147 26.8052 77.2303 27.6636 64.6726 33.9544C61.7527 35.4167 58.7858 37.1468 55.5455 36.6119C53.1908 36.2231 51.2047 34.7587 54.1792 32.8874C57.6767 30.6905 55.6851 24.1608 47.5767 26.3363C34.0342 29.9708 25.8539 43.0425 20.2411 57.0055C13.362 74.1491 9.75213 96.684 14.8753 114.999Z" fill="white" fill-opacity="0.7"/>
<defs>
<linearGradient id="paint0_linear_725_3364" x1="792.148" y1="783.133" x2="231.063" y2="150.257" gradientUnits="userSpaceOnUse">
<stop stop-color="#FB944E"/>
<stop offset="1" stop-color="#FDF2E9"/>
</linearGradient>
</defs>
</svg>
