<svg width="512" height="641" viewBox="0 0 512 641" fill="none" xmlns="http://www.w3.org/2000/svg">
<path d="M395.18 449.129C395.18 449.129 371.629 357.855 318.829 338.866C266.028 319.876 174.489 314.851 134.003 184.57C110.301 108.298 98.7035 75.0953 93.1613 60.6741C90.9995 55.0487 95.2235 49.8095 101.665 50.1483C147.231 52.5447 297.103 66.8168 351.757 151.37C416.549 251.609 395.18 449.129 395.18 449.129Z" fill="#E9E8E8"/>
<path opacity="0.25" d="M148.118 83.7682C205.532 116.795 278.559 178.643 326.426 243.481C333.268 254.291 350.762 276.93 367.369 318.874C381.497 353.823 389.927 391.525 391.813 416.922C391.932 418.527 390.591 419.75 388.819 419.653C385.771 419.487 385.344 416.543 385.396 416.631C379.302 373.582 362.104 321.143 335.486 275.147C302.142 218.747 248.437 166.606 195.847 123.22L190.495 118.968C150.06 86.4545 143.605 86.9465 145.732 84.0923C146.234 83.4182 147.28 83.2886 148.118 83.7682Z" fill="white"/>
<path d="M505.426 569.078C513.69 571.376 410.914 494.233 345.174 360.649C314.196 297.701 289.31 217.023 239.433 191.165C197.923 169.644 88.6776 200.822 53.197 211.886C48.7635 213.269 48.8359 218.84 53.3239 221.145C75.4495 232.509 123.702 259.826 143.673 291.079C169.997 332.271 223.215 353.735 265.632 355.906C308.049 358.077 332.582 362.343 370.047 418.201C407.512 474.058 481.945 562.549 505.426 569.078Z" fill="#C9C7C7"/>
<path opacity="0.25" d="M114.378 226.238C163.187 221.831 221.109 235.061 258.898 269.042L262.477 272.288C270.781 279.91 321.555 335.165 354.762 382.117C355.175 382.702 355.012 383.413 354.396 383.704C353.35 384.199 352.419 383.125 352.56 383.212C331.424 356.995 302.511 324.03 280.012 299.492C255.731 272.681 238.939 254.568 198.032 240.429C152.708 225.365 114.689 228.126 114.807 228.133C114.221 228.154 113.663 227.746 113.562 227.222C113.465 226.717 113.829 226.289 114.378 226.238Z" fill="white"/>
</svg>
