<svg width="17" height="17" viewBox="0 0 17 17" fill="none" xmlns="http://www.w3.org/2000/svg">
<g clip-path="url(#clip0_1124_3993)">
<path d="M8.5 0C3.80558 0 0 3.80558 0 8.5C0 13.1944 3.80558 17 8.5 17C13.1944 17 17 13.1944 17 8.5C17 3.80558 13.1944 0 8.5 0ZM9.08313 3.68348C11.3573 3.68348 13.2003 5.52749 13.2003 7.8017C13.2003 10.0759 11.3573 11.9189 9.08313 11.9189C8.3949 11.9189 7.74625 11.7505 7.17603 11.452C7.17661 11.4546 7.17753 11.4576 7.17809 11.4603L5.3208 13.3165L3.79968 11.7944L5.59058 10.0024C5.59354 10.0011 5.59695 10.0006 5.59991 9.99933C5.19776 9.36335 4.96491 8.60975 4.96491 7.8017C4.96491 5.52748 6.80891 3.68348 9.08313 3.68348ZM9.08313 5.51276C7.81928 5.51276 6.79419 6.53785 6.79419 7.8017C6.79419 9.06555 7.81928 10.0896 9.08313 10.0896C10.347 10.0896 11.371 9.06555 11.371 7.8017C11.371 6.53785 10.347 5.51276 9.08313 5.51276Z" fill="#4C4C4C"/>
</g>
<defs>
<clipPath id="clip0_1124_3993">
<rect width="17" height="17" fill="white"/>
</clipPath>
</defs>
</svg>
