<svg width="38" height="38" viewBox="0 0 38 38" fill="none" xmlns="http://www.w3.org/2000/svg">
<path fill-rule="evenodd" clip-rule="evenodd" d="M28.8326 9.21545C26.222 6.60486 22.7533 5.16406 19.0587 5.16406C11.4437 5.16406 5.24243 11.3608 5.24243 18.9758C5.23791 21.4103 5.87476 23.786 7.08521 25.8817L5.125 33.0405L12.4509 31.1165C14.4653 32.2185 16.7417 32.7966 19.0542 32.8011H19.0587C26.6737 32.8011 32.8705 26.6044 32.875 18.9849C32.875 15.2948 31.4387 11.826 28.8326 9.21545ZM19.0587 30.4661H19.0542C16.9946 30.4661 14.9712 29.9105 13.2097 28.8672L12.7897 28.6188L8.44019 29.757L9.60095 25.5204L9.32996 25.0868C8.17822 23.2576 7.573 21.1438 7.573 18.9758C7.573 12.6481 12.7264 7.49915 19.0632 7.49915C22.13 7.49915 25.0116 8.69605 27.1796 10.864C29.3475 13.0365 30.5399 15.9181 30.5399 18.9849C30.5399 25.3171 25.3865 30.4661 19.0587 30.4661ZM25.3549 21.8665C25.0116 21.6948 23.3134 20.8593 22.9972 20.7463C22.681 20.6289 22.4507 20.5747 22.2203 20.918C21.99 21.2657 21.3306 22.0426 21.1273 22.2729C20.9286 22.4988 20.7253 22.5304 20.3821 22.3588C20.0343 22.1871 18.9232 21.8213 17.6044 20.6425C16.5791 19.7301 15.8835 18.5964 15.6848 18.2532C15.4816 17.9054 15.6622 17.7202 15.8339 17.5486C15.9919 17.395 16.1816 17.1466 16.3533 16.9434C16.5249 16.7446 16.5836 16.6001 16.701 16.3698C16.814 16.1394 16.7552 15.9362 16.6694 15.7645C16.5836 15.5929 15.8926 13.8901 15.6035 13.1991C15.3235 12.5261 15.0389 12.621 14.8267 12.6074C14.6279 12.5984 14.3976 12.5984 14.1672 12.5984C13.9369 12.5984 13.562 12.6842 13.2459 13.032C12.9297 13.3752 12.0399 14.2108 12.0399 15.9091C12.0399 17.6073 13.2775 19.2513 13.4491 19.4817C13.6207 19.7075 15.8835 23.1943 19.3478 24.6893C20.1698 25.0461 20.8112 25.2584 21.3125 25.4165C22.139 25.6785 22.8933 25.6423 23.4895 25.5565C24.1534 25.4572 25.531 24.7209 25.8201 23.9125C26.1046 23.1085 26.1046 22.4175 26.0188 22.2729C25.933 22.1284 25.7026 22.0426 25.3549 21.8665Z" fill="white"/>
</svg>
