<svg width="1189" height="988" viewBox="0 0 1189 988" fill="none" xmlns="http://www.w3.org/2000/svg">
<path d="M1069.26 851.832C1048.05 872.637 1027.98 886.055 1012.12 896.656C825.723 1021.27 605.163 984.943 558.288 976.072C489.068 962.973 355.268 937.654 258.532 831.663C112.18 671.308 134.969 418.674 248.49 251.906C269.255 221.401 378.94 52.0934 601.875 24.942C736.793 8.51022 894.064 41.6511 1007.96 130.554C1247.02 317.168 1230 694.162 1069.26 851.832Z" fill="url(#paint0_linear_718_2972)"/>
<path d="M473.807 475.11C473.807 475.11 437.075 377.805 376.726 366.761C316.376 355.717 215.056 367.693 155.067 230.124C119.946 149.585 103.25 114.77 95.4425 99.7455C92.397 93.8848 96.4239 87.2284 103.552 86.3691C153.975 80.2905 320.578 67.426 390.737 151.259C473.911 250.644 473.807 475.11 473.807 475.11Z" fill="#FDE6D8"/>
<path opacity="0.25" d="M156.258 114.337C224.602 140.148 313.888 195.245 375.298 258.63C384.259 269.421 406.577 291.4 430.192 335.219C450.194 371.674 464.131 412.336 469.263 440.47C469.587 442.249 468.228 443.884 466.228 444.123C462.788 444.534 461.959 441.313 462.028 441.402C450.078 394.281 424.554 338.798 389.224 292.393C345.112 235.631 278.659 187.641 214.498 149.257L207.988 145.535C158.755 116.972 151.572 118.789 153.619 115.169C154.102 114.314 155.26 113.963 156.258 114.337Z" fill="white"/>
<path d="M615.952 586.065C625.192 587.04 504.623 521.08 417.707 385.498C376.75 321.608 340.347 236.904 283.182 217.73C235.605 201.773 120.606 257.132 83.3652 276.153C78.7118 278.529 79.4382 284.691 84.5795 286.393C109.926 294.78 165.497 315.88 190.817 346.726C224.191 387.383 284.473 401.048 330.784 395.381C377.095 389.713 404.231 389.773 451.407 444.567C498.583 499.361 589.695 583.297 615.952 586.065Z" fill="#FDBF95"/>
<path opacity="0.25" d="M148.429 278.373C200.42 264.315 264.257 267.983 308.839 298.32L313.064 301.224C322.878 308.062 383.89 359.404 425.045 404.904C425.557 405.472 425.464 406.286 424.835 406.723C423.767 407.465 422.641 406.457 422.803 406.527C397.033 381.609 362.117 350.718 335.075 327.908C305.853 302.928 285.694 286.126 240.055 278.249C189.558 270.186 148.982 280.396 149.11 280.381C148.481 280.515 147.834 280.17 147.666 279.611C147.502 279.074 147.844 278.533 148.429 278.373Z" fill="white"/>
<path d="M335.336 177.644C335.336 151.315 359.787 129.971 389.949 129.971H854.382C880.004 129.971 901.132 147.498 902.435 169.836L936.717 757.613C937.737 775.093 921.973 789.837 901.926 790.155L369.628 798.6C350.791 798.899 335.336 785.652 335.336 769.206V177.644H335.336Z" fill="url(#paint1_linear_718_2972)"/>
<path d="M371.896 159.124C371.839 150.7 378.922 145.312 389.888 145.312C454.124 148.803 672.894 155.934 853.211 143.851C861.434 143.3 868.571 148.739 869.008 155.928L904.955 746.324C905.448 754.42 898.366 761.342 889.096 761.821C813.258 765.739 500.933 780.883 389.531 770.698C382.751 770.078 377.605 765.095 377.565 759.144L371.896 159.124Z" fill="#D3D3D3"/>
<path d="M384.877 165.677C384.823 157.571 392 152.386 402.192 152.386C464.749 152.386 669.086 170.092 842.613 158.464C850.526 157.934 857.394 163.168 857.815 170.086L892.408 738.251C892.882 746.042 886.067 752.704 877.146 753.165C804.163 756.935 503.6 771.509 396.393 761.707C389.868 761.111 384.916 756.315 384.877 750.588L384.877 165.677Z" fill="#ECEAE9"/>
<path opacity="0.58" d="M790.584 247.149H461.699C459.857 247.149 458.364 245.845 458.364 244.238V189.978C458.364 188.371 459.857 187.067 461.699 187.067H790.584C792.426 187.067 793.919 188.371 793.919 189.978V244.238C793.919 245.845 792.426 247.149 790.584 247.149Z" fill="white"/>
<path opacity="0.58" d="M840.913 466.558H422.405C421.37 466.558 420.53 465.825 420.53 464.921V443.839C420.53 442.935 421.369 442.202 422.405 442.202H840.913C841.948 442.202 842.788 442.935 842.788 443.839V464.921C842.788 465.825 841.949 466.558 840.913 466.558Z" fill="white"/>
<path opacity="0.58" d="M841.419 504.135H421.899C421.143 504.135 420.53 503.6 420.53 502.94V480.974C420.53 480.314 421.143 479.779 421.899 479.779H841.419C842.176 479.779 842.788 480.314 842.788 480.974V502.94C842.788 503.6 842.176 504.135 841.419 504.135Z" fill="white"/>
<path opacity="0.58" d="M850.312 718.7H422.533C421.621 718.7 420.881 718.054 420.881 717.258V695.785C420.881 694.989 421.621 694.344 422.533 694.344H850.312C851.223 694.344 851.963 694.989 851.963 695.785V717.258C851.963 718.054 851.223 718.7 850.312 718.7Z" fill="white"/>
<path opacity="0.25" d="M832.197 416.687H430.653C425.062 416.687 420.53 412.731 420.53 407.851V276.606C420.53 271.726 425.062 267.77 430.653 267.77H825.388C830.801 267.77 835.256 271.486 835.501 276.206L842.31 407.451C842.57 412.483 837.967 416.687 832.197 416.687Z" fill="white"/>
<path d="M832.43 418.089H430.888C424.42 418.089 419.158 413.496 419.158 407.85V276.605C419.158 270.959 424.42 266.366 430.888 266.366H825.622C831.909 266.366 837.056 270.66 837.339 276.142L844.147 407.387C844.294 410.206 843.145 412.883 840.91 414.924C838.676 416.965 835.664 418.089 832.43 418.089ZM430.888 269.17C426.191 269.17 422.37 272.506 422.37 276.605V407.85C422.37 411.95 426.191 415.285 430.888 415.285H832.43C834.779 415.285 836.966 414.469 838.589 412.987C840.211 411.505 841.045 409.561 840.94 407.514L834.132 276.269C833.925 272.288 830.187 269.17 825.622 269.17H430.888Z" fill="white"/>
<path opacity="0.25" d="M838.615 679.487H433.721C426.63 679.487 420.881 674.468 420.881 668.278V541.777C420.881 535.586 426.63 530.568 433.721 530.568H832.998C839.896 530.568 845.561 535.326 845.828 541.342L851.445 667.844C851.728 674.2 845.902 679.487 838.615 679.487Z" fill="white"/>
<path d="M838.614 680.888H433.721C425.755 680.888 419.275 675.231 419.275 668.278V541.776C419.275 534.823 425.755 529.166 433.721 529.166H832.997C840.789 529.166 847.13 534.491 847.432 541.288L853.05 667.789C853.203 671.248 851.774 674.526 849.026 677.02C846.277 679.515 842.579 680.888 838.614 680.888ZM433.721 531.97C427.526 531.97 422.487 536.369 422.487 541.776V668.278C422.487 673.686 427.526 678.084 433.721 678.084H838.614C841.697 678.084 844.573 677.016 846.711 675.077C848.848 673.137 849.959 670.588 849.84 667.898L844.223 541.397C843.987 536.111 839.057 531.97 832.997 531.97H433.721Z" fill="white"/>
<path d="M547.218 267.765L544.006 267.812L546.838 416.735L550.05 416.689L547.218 267.765Z" fill="white"/>
<path d="M701.662 267.709L698.452 267.785L703.06 416.698L706.269 416.623L701.662 267.709Z" fill="white"/>
<path d="M421.8 316.646L421.789 319.449L840.025 320.727L840.036 317.924L421.8 316.646Z" fill="white"/>
<path d="M840.035 369.568H421.804V372.372H840.035V369.568Z" fill="white"/>
<path d="M546.107 530.584L543.992 679.499L547.203 679.534L549.319 530.619L546.107 530.584Z" fill="white"/>
<path d="M847.476 565.354H421.804V568.157H847.476V565.354Z" fill="white"/>
<path d="M848.538 599.686H421.804V602.489H848.538V599.686Z" fill="white"/>
<path d="M420.907 636.612L420.867 639.416L850.304 644.102L850.344 641.299L420.907 636.612Z" fill="white"/>
<path d="M647.85 47.4804C633.136 40.3449 618.423 43.0814 609.431 47.4802C599.22 52.475 594.644 61.8231 595.535 70.3131L599.22 103.479L651.937 104.564C651.937 104.564 656.024 82.4438 658.476 70.3131C660.207 61.7511 655.206 51.0482 647.85 47.4804ZM627.796 83.8694C620.54 83.8694 614.657 78.7343 614.657 72.3996C614.657 66.0649 620.54 60.9295 627.796 60.9295C635.053 60.9295 640.936 66.0649 640.936 72.3996C640.936 78.7343 635.053 83.8694 627.796 83.8694Z" fill="#E25B00"/>
<path d="M606.156 88.9365C605.506 88.9365 604.952 88.5038 604.892 87.9274L604.186 81.2078C604.122 80.5976 604.637 80.0577 605.336 80.0013C606.049 79.9429 606.655 80.3948 606.718 81.0062L607.423 87.7257C607.488 88.336 606.973 88.8759 606.274 88.9323C606.234 88.9354 606.195 88.9365 606.156 88.9365ZM604.774 75.7686C604.124 75.7686 603.57 75.3359 603.509 74.7595L602.974 69.6585C602.124 61.5709 607.954 54.0406 616.835 51.7523C623.124 50.1318 629.604 49.8998 636.094 51.0619C636.782 51.1842 637.225 51.7719 637.084 52.3723C636.943 52.9717 636.277 53.3555 635.584 53.2362C629.505 52.15 623.44 52.3656 617.554 53.8811C609.835 55.8702 604.767 62.4205 605.506 69.4565L606.041 74.5575C606.106 75.1678 605.59 75.7077 604.891 75.7641C604.852 75.7675 604.813 75.7686 604.774 75.7686Z" fill="#FDE6D8"/>
<path d="M527.3 130.747V109.534C527.3 102.211 534.253 96.3458 542.637 96.5966L710.185 101.608C717.621 101.83 723.642 106.953 724.088 113.436L725.488 133.819L527.3 130.747Z" fill="#E25B00"/>
<path d="M589.775 104.589H582.569C581.867 104.589 581.298 104.093 581.298 103.479C581.298 102.865 581.867 102.369 582.569 102.369H589.775C590.477 102.369 591.046 102.865 591.046 103.479C591.046 104.093 590.477 104.589 589.775 104.589Z" fill="#FDE6D8"/>
<path d="M536.369 124.085C535.667 124.085 535.097 123.589 535.097 122.975V114.394C535.097 107.763 541.277 102.369 548.873 102.369H575.363C576.065 102.369 576.635 102.865 576.635 103.479C576.635 104.093 576.065 104.589 575.363 104.589H548.873C542.679 104.589 537.64 108.988 537.64 114.394V122.975C537.64 123.589 537.071 124.085 536.369 124.085Z" fill="#FDE6D8"/>
<path d="M459.031 136.103C459.436 128.758 466.376 122.983 474.801 122.983L767.791 122.976C778.326 122.975 787.333 129.593 789.13 138.655L789.378 139.905C791.346 149.831 782.592 158.909 771.053 158.909H470.462C463.557 158.909 458.053 153.868 458.385 147.847L459.031 136.103Z" fill="url(#paint2_linear_718_2972)"/>
<path d="M418.252 650.116H235.727C234.738 650.116 233.936 649.416 233.936 648.552V623.753C233.936 622.889 234.738 622.189 235.727 622.189H418.252C419.241 622.189 420.043 622.89 420.043 623.753V648.552C420.043 649.416 419.241 650.116 418.252 650.116Z" fill="url(#paint3_linear_718_2972)"/>
<path d="M418.252 650.116H235.727C234.738 650.116 233.936 649.416 233.936 648.552V623.753C233.936 622.889 234.738 622.189 235.727 622.189H418.252C419.241 622.189 420.043 622.89 420.043 623.753V648.552C420.043 649.416 419.241 650.116 418.252 650.116Z" fill="url(#paint4_linear_718_2972)"/>
<path d="M418.252 620.503H235.727C234.738 620.503 233.936 619.802 233.936 618.939V594.14C233.936 593.276 234.738 592.576 235.727 592.576H418.252C419.241 592.576 420.043 593.276 420.043 594.14V618.939C420.043 619.802 419.241 620.503 418.252 620.503Z" fill="url(#paint5_linear_718_2972)"/>
<path d="M418.252 620.503H235.727C234.738 620.503 233.936 619.802 233.936 618.939V594.14C233.936 593.276 234.738 592.576 235.727 592.576H418.252C419.241 592.576 420.043 593.276 420.043 594.14V618.939C420.043 619.802 419.241 620.503 418.252 620.503Z" fill="url(#paint6_linear_718_2972)"/>
<path d="M418.252 680.225H235.727C234.738 680.225 233.936 679.525 233.936 678.661V653.863C233.936 652.999 234.738 652.299 235.727 652.299H418.252C419.241 652.299 420.043 652.999 420.043 653.863V678.661C420.043 679.525 419.241 680.225 418.252 680.225Z" fill="url(#paint7_linear_718_2972)"/>
<path d="M418.252 680.225H235.727C234.738 680.225 233.936 679.525 233.936 678.661V653.863C233.936 652.999 234.738 652.299 235.727 652.299H418.252C419.241 652.299 420.043 652.999 420.043 653.863V678.661C420.043 679.525 419.241 680.225 418.252 680.225Z" fill="url(#paint8_linear_718_2972)"/>
<path d="M418.252 710.335H235.727C234.738 710.335 233.936 709.634 233.936 708.771V683.972C233.936 683.108 234.738 682.408 235.727 682.408H418.252C419.241 682.408 420.043 683.108 420.043 683.972V708.771C420.043 709.634 419.241 710.335 418.252 710.335Z" fill="url(#paint9_linear_718_2972)"/>
<path d="M418.252 710.335H235.727C234.738 710.335 233.936 709.634 233.936 708.771V683.972C233.936 683.108 234.738 682.408 235.727 682.408H418.252C419.241 682.408 420.043 683.108 420.043 683.972V708.771C420.043 709.634 419.241 710.335 418.252 710.335Z" fill="url(#paint10_linear_718_2972)"/>
<path d="M418.252 740.444H235.727C234.738 740.444 233.936 739.744 233.936 738.88V714.081C233.936 713.218 234.738 712.518 235.727 712.518H418.252C419.241 712.518 420.043 713.218 420.043 714.081V738.88C420.043 739.744 419.241 740.444 418.252 740.444Z" fill="url(#paint11_linear_718_2972)"/>
<path d="M418.252 740.444H235.727C234.738 740.444 233.936 739.744 233.936 738.88V714.081C233.936 713.218 234.738 712.518 235.727 712.518H418.252C419.241 712.518 420.043 713.218 420.043 714.081V738.88C420.043 739.744 419.241 740.444 418.252 740.444Z" fill="url(#paint12_linear_718_2972)"/>
<path d="M418.252 769.649H235.727C234.738 769.649 233.936 768.949 233.936 768.085V743.286C233.936 742.423 234.738 741.723 235.727 741.723H418.252C419.241 741.723 420.043 742.423 420.043 743.286V768.085C420.043 768.949 419.241 769.649 418.252 769.649Z" fill="url(#paint13_linear_718_2972)"/>
<path d="M418.252 769.649H235.727C234.738 769.649 233.936 768.949 233.936 768.085V743.286C233.936 742.423 234.738 741.723 235.727 741.723H418.252C419.241 741.723 420.043 742.423 420.043 743.286V768.085C420.043 768.949 419.241 769.649 418.252 769.649Z" fill="url(#paint14_linear_718_2972)"/>
<path d="M418.252 798.855H235.727C234.738 798.855 233.936 798.155 233.936 797.291V772.492C233.936 771.629 234.738 770.929 235.727 770.929H418.252C419.242 770.929 420.043 771.629 420.043 772.492V797.291C420.044 798.155 419.242 798.855 418.252 798.855Z" fill="url(#paint15_linear_718_2972)"/>
<path d="M613.506 710.646H430.982C429.993 710.646 429.19 709.946 429.19 709.082V684.284C429.19 683.42 429.993 682.72 430.982 682.72H613.506C614.496 682.72 615.298 683.42 615.298 684.284V709.082C615.298 709.946 614.496 710.646 613.506 710.646Z" fill="url(#paint16_linear_718_2972)"/>
<path d="M613.506 710.646H430.982C429.993 710.646 429.19 709.946 429.19 709.082V684.284C429.19 683.42 429.993 682.72 430.982 682.72H613.506C614.496 682.72 615.298 683.42 615.298 684.284V709.082C615.298 709.946 614.496 710.646 613.506 710.646Z" fill="url(#paint17_linear_718_2972)"/>
<path d="M613.506 740.755H430.982C429.993 740.755 429.19 740.054 429.19 739.191V714.392C429.19 713.528 429.993 712.828 430.982 712.828H613.506C614.496 712.828 615.298 713.528 615.298 714.392V739.191C615.298 740.054 614.496 740.755 613.506 740.755Z" fill="url(#paint18_linear_718_2972)"/>
<path d="M613.506 740.755H430.982C429.993 740.755 429.19 740.054 429.19 739.191V714.392C429.19 713.528 429.993 712.828 430.982 712.828H613.506C614.496 712.828 615.298 713.528 615.298 714.392V739.191C615.298 740.054 614.496 740.755 613.506 740.755Z" fill="url(#paint19_linear_718_2972)"/>
<path d="M613.506 769.961H430.982C429.993 769.961 429.19 769.26 429.19 768.397V743.598C429.19 742.734 429.993 742.034 430.982 742.034H613.506C614.496 742.034 615.298 742.734 615.298 743.598V768.397C615.298 769.26 614.496 769.961 613.506 769.961Z" fill="url(#paint20_linear_718_2972)"/>
<path d="M613.506 769.961H430.982C429.993 769.961 429.19 769.26 429.19 768.397V743.598C429.19 742.734 429.993 742.034 430.982 742.034H613.506C614.496 742.034 615.298 742.734 615.298 743.598V768.397C615.298 769.26 614.496 769.961 613.506 769.961Z" fill="url(#paint21_linear_718_2972)"/>
<path d="M613.506 799.166H430.982C429.993 799.166 429.19 798.465 429.19 797.602V772.803C429.19 771.939 429.993 771.239 430.982 771.239H613.506C614.496 771.239 615.298 771.939 615.298 772.803V797.602C615.298 798.465 614.496 799.166 613.506 799.166Z" fill="url(#paint22_linear_718_2972)"/>
<path d="M613.506 799.166H430.982C429.993 799.166 429.19 798.465 429.19 797.602V772.803C429.19 771.939 429.993 771.239 430.982 771.239H613.506C614.496 771.239 615.298 771.939 615.298 772.803V797.602C615.298 798.465 614.496 799.166 613.506 799.166Z" fill="url(#paint23_linear_718_2972)"/>
<path d="M678.29 810.075H997.834V745.066H678.29V810.075Z" fill="#C9570A"/>
<path d="M674.314 805.914H1002.01C1003.38 805.914 1004.49 804.947 1004.49 803.754V780.95H672.661V804.471C672.661 805.267 673.401 805.914 674.314 805.914Z" fill="url(#paint24_linear_718_2972)"/>
<path d="M675.114 777.572H1001.43C1003.12 777.572 1004.49 776.376 1004.49 774.9V752.608H672.661V775.43C672.661 776.613 673.759 777.572 675.114 777.572Z" fill="url(#paint25_linear_718_2972)"/>
<path d="M672.661 752.608H1004.49V750.63C1004.49 746.553 1000.7 743.247 996.029 743.247H681.226C676.496 743.247 672.661 746.594 672.661 750.724V752.608Z" fill="#FFD1B2"/>
<path d="M402.99 813.676C413.742 809.112 417.534 796.573 411.46 785.669C405.386 774.765 391.746 769.626 380.994 774.19C370.242 778.753 366.45 791.292 372.524 802.196C378.598 813.1 392.238 818.24 402.99 813.676Z" fill="#FFD1B2"/>
<path d="M398.573 779.281L409.266 798.477C409.749 799.344 410.947 799.705 411.941 799.284L425.067 793.711C426.061 793.29 426.475 792.244 425.992 791.377L415.298 772.181C414.815 771.314 413.618 770.953 412.624 771.374L399.497 776.947C398.504 777.368 398.09 778.413 398.573 779.281Z" fill="#C9570A"/>
<path d="M412.53 769.46C414.506 778.31 419.007 786.215 425.85 793.243C429.548 797.041 435.48 798.742 441.38 797.707C497.787 787.821 616.006 724.039 730.814 668.32C738.423 664.627 743.681 660.438 740.096 654.002L732.178 639.789C728.615 633.393 720.088 636.994 712.086 639.863C590.644 683.417 461.839 721.381 417.621 756.508C413.378 759.88 411.488 764.79 412.53 769.46Z" fill="url(#paint26_linear_718_2972)"/>
<path d="M713.916 625.537L740.492 673.244C740.956 674.076 742.105 674.423 743.058 674.018L756.611 668.265C757.565 667.86 757.962 666.857 757.498 666.025L730.922 618.318C730.459 617.486 729.31 617.139 728.356 617.544L714.803 623.297C713.85 623.702 713.453 624.705 713.916 625.537Z" fill="url(#paint27_linear_718_2972)"/>
<path d="M833.399 577.367L859.975 625.074C860.438 625.906 861.587 626.253 862.541 625.848L876.094 620.095C877.047 619.69 877.444 618.687 876.981 617.855L850.405 570.148C849.941 569.316 848.792 568.969 847.839 569.374L834.286 575.127C833.332 575.532 832.935 576.535 833.399 577.367Z" fill="#C9570A"/>
<path d="M701.97 578.14L786.907 730.61L905.241 680.379L820.304 527.908L701.97 578.14Z" fill="url(#paint28_linear_718_2972)"/>
<path d="M782.427 722.57L793.109 741.745L911.443 691.514L900.761 672.339L782.427 722.57Z" fill="#C9570A"/>
<path d="M788.285 733.084L793.593 742.614C795.216 745.528 799.018 746.989 802.576 746.067C839.464 736.504 875.165 721.602 909.515 700.619C912.522 698.782 913.555 695.304 911.95 692.422L906.619 682.853L788.285 733.084Z" fill="url(#paint29_linear_718_2972)"/>
<path d="M778.436 722.481L778.663 722.889C779.79 724.912 782.582 725.754 784.898 724.771L903.345 674.491C905.662 673.508 906.627 671.071 905.501 669.049L905.273 668.641C904.147 666.618 901.355 665.776 899.039 666.76L780.591 717.039C778.274 718.022 777.309 720.459 778.436 722.481Z" fill="#FFD1B2"/>
<path d="M701.281 576.903L690.599 557.729L808.933 507.497L819.615 526.672L701.281 576.903Z" fill="#C9570A"/>
<path d="M695.423 566.386L690.114 556.857C688.491 553.943 689.522 550.43 692.55 548.557C723.945 529.134 759.418 513.823 799.537 503.196C803.049 502.265 806.82 503.703 808.426 506.585L813.757 516.155L695.423 566.386Z" fill="url(#paint30_linear_718_2972)"/>
<path d="M695.423 566.386L690.114 556.857C688.491 553.943 689.522 550.43 692.55 548.557C723.945 529.134 759.418 513.823 799.537 503.196C803.049 502.265 806.82 503.703 808.426 506.585L813.757 516.155L695.423 566.386Z" fill="url(#paint31_linear_718_2972)"/>
<path d="M698.894 579.698L698.667 579.29C697.54 577.268 698.505 574.831 700.822 573.848L819.269 523.568C821.586 522.585 824.378 523.427 825.504 525.449L825.731 525.858C826.858 527.88 825.893 530.317 823.576 531.3L705.129 581.579C702.812 582.563 700.021 581.721 698.894 579.698Z" fill="#FFD1B2"/>
<path d="M759.032 272.529L761.04 422.838L761.35 446.112C761.472 449.148 758.721 451.72 755.244 451.827L413.158 462.369C409.681 462.476 406.728 460.079 406.606 457.044L405.279 433.802L396.82 285.527C396.697 282.491 400.555 276.441 408.078 276.656L742.098 258.8C746.459 258.57 750.741 259.903 753.941 262.502C757.141 265.096 758.982 268.72 759.032 272.529Z" fill="url(#paint32_linear_718_2972)"/>
<path opacity="0.09" d="M752.795 441.674C752.91 444.506 750.292 446.906 746.977 447.008L421.103 457.05C417.789 457.153 414.983 454.919 414.869 452.088L405.681 292.026C405.566 289.195 409.244 283.546 416.41 283.742L734.606 266.88C738.761 266.66 742.837 267.905 745.883 270.325C748.93 272.744 750.68 276.126 750.725 279.682L752.795 441.674Z" fill="#FDE6D8"/>
<path d="M710.33 449.728C709.8 449.728 709.362 449.361 709.343 448.895C709.324 448.418 709.751 448.018 710.297 448.002L746.777 446.878C751.203 446.741 755.395 442.795 755.238 438.912L751.298 341.513C751.279 341.036 751.706 340.637 752.252 340.62C752.787 340.599 753.256 340.975 753.274 341.452L757.214 438.85C757.41 443.693 752.371 448.433 746.846 448.603L710.366 449.727C710.354 449.727 710.343 449.728 710.33 449.728Z" fill="#DEDEDE"/>
<path d="M408.372 352.944C407.842 352.944 407.404 352.577 407.385 352.111L405.025 293.731C404.904 290.775 406.083 287.752 408.257 285.437C410.553 282.994 413.663 281.591 417.014 281.488L445.994 280.595C446.527 280.582 446.997 280.95 447.016 281.427C447.036 281.904 446.609 282.304 446.063 282.32L417.083 283.213C414.309 283.299 411.717 284.477 409.786 286.532C407.914 288.526 406.897 291.128 407.001 293.67L409.361 352.05C409.381 352.527 408.954 352.927 408.408 352.944C408.396 352.944 408.385 352.944 408.372 352.944Z" fill="#DEDEDE"/>
<path d="M490.554 344.977C490.43 341.926 487.497 339.54 484.002 339.647L441.748 340.949C438.253 341.057 435.52 343.618 435.643 346.669L436.778 374.723C436.901 377.774 439.835 380.16 443.33 380.053L485.583 378.751C489.078 378.643 491.812 376.082 491.688 373.031L490.554 344.977Z" fill="url(#paint33_linear_718_2972)"/>
<path opacity="0.8" d="M455.686 367.904C454.127 367.904 452.831 366.822 452.776 365.451L452.401 356.194C452.373 355.515 452.65 354.868 453.181 354.371C453.712 353.874 454.432 353.587 455.21 353.564L467.26 353.192C468.91 353.129 470.217 354.243 470.273 355.643L470.647 364.901C470.703 366.302 469.443 367.482 467.84 367.531L455.788 367.902C455.754 367.904 455.721 367.904 455.686 367.904ZM467.362 354.916C467.351 354.916 467.34 354.917 467.329 354.917L455.278 355.288C455.028 355.296 454.798 355.388 454.627 355.548C454.458 355.707 454.369 355.915 454.377 356.133L454.751 365.391C454.769 365.84 455.203 366.175 455.72 366.178L467.77 365.806C468.284 365.79 468.689 365.411 468.671 364.961L468.297 355.704C468.279 355.264 467.863 354.916 467.362 354.916Z" fill="white"/>
<path d="M436.133 359.666C435.603 359.666 435.165 359.299 435.146 358.833C435.126 358.356 435.554 357.956 436.1 357.94L453.44 357.406C453.942 357.394 454.443 357.761 454.463 358.238C454.483 358.714 454.055 359.114 453.51 359.13L436.169 359.665C436.157 359.665 436.146 359.666 436.133 359.666Z" fill="white"/>
<path d="M436.286 363.451C435.755 363.451 435.317 363.084 435.299 362.618C435.279 362.142 435.706 361.741 436.252 361.725L453.593 361.191C454.123 361.184 454.596 361.546 454.615 362.022C454.635 362.499 454.208 362.899 453.662 362.915L436.321 363.45C436.31 363.451 436.298 363.451 436.286 363.451Z" fill="white"/>
<path d="M472.258 358.553C471.728 358.553 471.29 358.186 471.271 357.721C471.251 357.244 471.679 356.844 472.225 356.827L491.01 356.249C491.517 356.231 492.014 356.604 492.033 357.081C492.053 357.557 491.625 357.957 491.079 357.974L472.294 358.553C472.282 358.553 472.271 358.553 472.258 358.553Z" fill="white"/>
<path d="M472.412 362.337C471.881 362.337 471.443 361.97 471.424 361.504C471.405 361.028 471.832 360.628 472.378 360.612L491.162 360.033C491.698 360.02 492.166 360.388 492.185 360.864C492.205 361.341 491.777 361.74 491.231 361.757L472.447 362.336C472.436 362.337 472.424 362.337 472.412 362.337Z" fill="white"/>
<path d="M457.268 355.284C456.834 355.284 456.436 355.033 456.315 354.65L452.036 341.037C451.892 340.577 452.201 340.102 452.728 339.976C453.253 339.851 453.799 340.12 453.943 340.58L458.222 354.192C458.366 354.652 458.057 355.127 457.53 355.253C457.443 355.274 457.354 355.284 457.268 355.284Z" fill="white"/>
<path d="M467.341 354.975C467.274 354.975 467.206 354.969 467.138 354.957C466.603 354.86 466.26 354.403 466.371 353.936L469.678 340.09C469.79 339.623 470.314 339.323 470.849 339.421C471.383 339.518 471.726 339.975 471.615 340.442L468.308 354.288C468.211 354.695 467.798 354.975 467.341 354.975Z" fill="white"/>
<path d="M454.584 381.048C454.52 381.048 454.454 381.043 454.389 381.032C453.853 380.938 453.506 380.484 453.613 380.016L456.782 366.174C456.889 365.707 457.409 365.403 457.945 365.496C458.481 365.59 458.828 366.044 458.721 366.512L455.552 380.354C455.459 380.764 455.046 381.048 454.584 381.048Z" fill="white"/>
<path d="M472.238 380.504C471.806 380.504 471.41 380.256 471.287 379.877L466.87 366.268C466.721 365.81 467.026 365.332 467.551 365.202C468.076 365.071 468.623 365.34 468.773 365.797L473.19 379.406C473.338 379.864 473.033 380.342 472.508 380.472C472.418 380.494 472.327 380.504 472.238 380.504Z" fill="white"/>
<path d="M488.892 303.881C489.039 307.504 485.793 310.545 481.642 310.673L434.537 312.124C430.386 312.252 426.903 309.418 426.756 305.795L426.726 305.041C426.579 301.417 429.825 298.377 433.976 298.249L481.081 296.797C485.232 296.669 488.715 299.503 488.862 303.126L488.892 303.881Z" fill="#E0D5CD"/>
<path d="M497.218 402.434C497.358 405.891 494.261 408.793 490.3 408.915L438.171 410.521C434.211 410.643 430.887 407.94 430.747 404.483L430.743 404.388C430.604 400.931 433.701 398.029 437.661 397.907L489.79 396.301C493.751 396.179 497.074 398.882 497.214 402.34L497.218 402.434Z" fill="#E0D5CD"/>
<path d="M572.359 400.12C572.499 403.577 569.401 406.478 565.441 406.6L513.312 408.207C509.352 408.329 506.028 405.625 505.888 402.168L505.884 402.074C505.744 398.617 508.841 395.715 512.802 395.593L564.931 393.986C568.891 393.864 572.215 396.568 572.355 400.025L572.359 400.12Z" fill="#E0D5CD"/>
<path d="M647.501 397.805C647.64 401.262 644.543 404.163 640.583 404.285L588.454 405.891C584.494 406.014 581.17 403.31 581.03 399.853L581.026 399.758C580.886 396.301 583.983 393.4 587.944 393.277L640.073 391.671C644.033 391.549 647.357 394.252 647.497 397.71L647.501 397.805Z" fill="#E0D5CD"/>
<path d="M724.086 395.443C724.226 398.9 721.129 401.802 717.168 401.924L665.039 403.53C661.079 403.652 657.755 400.949 657.615 397.492L657.611 397.397C657.471 393.94 660.568 391.038 664.529 390.916L716.658 389.31C720.618 389.188 723.942 391.891 724.082 395.348L724.086 395.443Z" fill="#E0D5CD"/>
<g opacity="0.47">
<path d="M547.472 428.692C547.583 431.44 545.12 433.747 541.972 433.844L444.998 436.833C441.849 436.929 439.207 434.78 439.096 432.031L439.09 431.894C438.979 429.145 441.441 426.839 444.59 426.742L541.564 423.753C544.712 423.656 547.355 425.806 547.466 428.554L547.472 428.692Z" fill="url(#paint34_linear_718_2972)"/>
<path d="M716.437 420.96C716.548 423.709 714.085 426.016 710.937 426.113L668.874 427.409C665.725 427.506 663.082 425.356 662.971 422.608L662.966 422.47C662.855 419.722 665.317 417.415 668.465 417.318L710.529 416.022C713.677 415.925 716.32 418.074 716.431 420.823L716.437 420.96Z" fill="url(#paint35_linear_718_2972)"/>
</g>
<defs>
<linearGradient id="paint0_linear_718_2972" x1="1323.31" y1="1273.24" x2="477.787" y2="146.185" gradientUnits="userSpaceOnUse">
<stop stop-color="#FB944E"/>
<stop offset="1" stop-color="#FDF2E9"/>
</linearGradient>
<linearGradient id="paint1_linear_718_2972" x1="1036.23" y1="-103.282" x2="621.856" y2="764.974" gradientUnits="userSpaceOnUse">
<stop stop-color="#262626"/>
<stop offset="1" stop-color="#494949"/>
</linearGradient>
<linearGradient id="paint2_linear_718_2972" x1="680.306" y1="57.6756" x2="576.402" y2="268.426" gradientUnits="userSpaceOnUse">
<stop stop-color="#FF6700"/>
<stop offset="1" stop-color="#FB944E"/>
</linearGradient>
<linearGradient id="paint3_linear_718_2972" x1="381.032" y1="560.502" x2="270.259" y2="763.997" gradientUnits="userSpaceOnUse">
<stop stop-color="#FF928E"/>
<stop offset="1" stop-color="#FE7062"/>
</linearGradient>
<linearGradient id="paint4_linear_718_2972" x1="381.032" y1="560.502" x2="270.259" y2="763.997" gradientUnits="userSpaceOnUse">
<stop stop-color="#FFAE8E"/>
<stop offset="1" stop-color="#FF8336"/>
</linearGradient>
<linearGradient id="paint5_linear_718_2972" x1="381.032" y1="530.889" x2="270.259" y2="734.384" gradientUnits="userSpaceOnUse">
<stop stop-color="#FF928E"/>
<stop offset="1" stop-color="#FE7062"/>
</linearGradient>
<linearGradient id="paint6_linear_718_2972" x1="381.032" y1="530.889" x2="270.259" y2="734.384" gradientUnits="userSpaceOnUse">
<stop stop-color="#FFAE8E"/>
<stop offset="1" stop-color="#FF8336"/>
</linearGradient>
<linearGradient id="paint7_linear_718_2972" x1="381.032" y1="590.611" x2="270.258" y2="794.107" gradientUnits="userSpaceOnUse">
<stop stop-color="#FF928E"/>
<stop offset="1" stop-color="#FE7062"/>
</linearGradient>
<linearGradient id="paint8_linear_718_2972" x1="381.032" y1="590.612" x2="270.26" y2="794.106" gradientUnits="userSpaceOnUse">
<stop stop-color="#FFAE8E"/>
<stop offset="1" stop-color="#FF8336"/>
</linearGradient>
<linearGradient id="paint9_linear_718_2972" x1="381.032" y1="620.721" x2="270.259" y2="824.216" gradientUnits="userSpaceOnUse">
<stop stop-color="#FF928E"/>
<stop offset="1" stop-color="#FE7062"/>
</linearGradient>
<linearGradient id="paint10_linear_718_2972" x1="381.032" y1="620.721" x2="270.259" y2="824.216" gradientUnits="userSpaceOnUse">
<stop stop-color="#FFAE8E"/>
<stop offset="1" stop-color="#FF8336"/>
</linearGradient>
<linearGradient id="paint11_linear_718_2972" x1="381.032" y1="650.83" x2="270.258" y2="854.326" gradientUnits="userSpaceOnUse">
<stop stop-color="#FF928E"/>
<stop offset="1" stop-color="#FE7062"/>
</linearGradient>
<linearGradient id="paint12_linear_718_2972" x1="381.032" y1="650.83" x2="270.259" y2="854.326" gradientUnits="userSpaceOnUse">
<stop stop-color="#FFAE8E"/>
<stop offset="1" stop-color="#FF8336"/>
</linearGradient>
<linearGradient id="paint13_linear_718_2972" x1="381.032" y1="680.035" x2="270.258" y2="883.531" gradientUnits="userSpaceOnUse">
<stop stop-color="#FF928E"/>
<stop offset="1" stop-color="#FE7062"/>
</linearGradient>
<linearGradient id="paint14_linear_718_2972" x1="381.032" y1="680.035" x2="270.259" y2="883.531" gradientUnits="userSpaceOnUse">
<stop stop-color="#FFAE8E"/>
<stop offset="1" stop-color="#FF8336"/>
</linearGradient>
<linearGradient id="paint15_linear_718_2972" x1="381.033" y1="709.241" x2="270.259" y2="912.737" gradientUnits="userSpaceOnUse">
<stop stop-color="#FFAE8E"/>
<stop offset="1" stop-color="#FF8336"/>
</linearGradient>
<linearGradient id="paint16_linear_718_2972" x1="576.287" y1="621.032" x2="465.513" y2="824.528" gradientUnits="userSpaceOnUse">
<stop stop-color="#FF928E"/>
<stop offset="1" stop-color="#FE7062"/>
</linearGradient>
<linearGradient id="paint17_linear_718_2972" x1="576.287" y1="621.032" x2="465.513" y2="824.528" gradientUnits="userSpaceOnUse">
<stop stop-color="#FFAE8E"/>
<stop offset="1" stop-color="#FF8336"/>
</linearGradient>
<linearGradient id="paint18_linear_718_2972" x1="576.287" y1="651.14" x2="465.513" y2="854.636" gradientUnits="userSpaceOnUse">
<stop stop-color="#FF928E"/>
<stop offset="1" stop-color="#FE7062"/>
</linearGradient>
<linearGradient id="paint19_linear_718_2972" x1="576.287" y1="651.141" x2="465.513" y2="854.636" gradientUnits="userSpaceOnUse">
<stop stop-color="#FFAE8E"/>
<stop offset="1" stop-color="#FF8336"/>
</linearGradient>
<linearGradient id="paint20_linear_718_2972" x1="576.287" y1="680.347" x2="465.514" y2="883.842" gradientUnits="userSpaceOnUse">
<stop stop-color="#FF928E"/>
<stop offset="1" stop-color="#FE7062"/>
</linearGradient>
<linearGradient id="paint21_linear_718_2972" x1="576.287" y1="680.347" x2="465.514" y2="883.842" gradientUnits="userSpaceOnUse">
<stop stop-color="#FFAE8E"/>
<stop offset="1" stop-color="#FF8336"/>
</linearGradient>
<linearGradient id="paint22_linear_718_2972" x1="576.287" y1="709.552" x2="465.513" y2="913.047" gradientUnits="userSpaceOnUse">
<stop stop-color="#FF928E"/>
<stop offset="1" stop-color="#FE7062"/>
</linearGradient>
<linearGradient id="paint23_linear_718_2972" x1="576.287" y1="709.552" x2="465.513" y2="913.047" gradientUnits="userSpaceOnUse">
<stop stop-color="#FFAE8E"/>
<stop offset="1" stop-color="#FF8336"/>
</linearGradient>
<linearGradient id="paint24_linear_718_2972" x1="533.742" y1="811.098" x2="584.346" y2="648.072" gradientUnits="userSpaceOnUse">
<stop stop-color="#E25B00"/>
<stop offset="1" stop-color="#EB7A2E"/>
</linearGradient>
<linearGradient id="paint25_linear_718_2972" x1="533.742" y1="782.757" x2="584.346" y2="619.73" gradientUnits="userSpaceOnUse">
<stop stop-color="#E25B00"/>
<stop offset="1" stop-color="#EB7A2E"/>
</linearGradient>
<linearGradient id="paint26_linear_718_2972" x1="274.514" y1="831.606" x2="733.84" y2="605.219" gradientUnits="userSpaceOnUse">
<stop stop-color="#E25B00"/>
<stop offset="1" stop-color="#EB7A2E"/>
</linearGradient>
<linearGradient id="paint27_linear_718_2972" x1="736.251" y1="648.043" x2="766.537" y2="813.53" gradientUnits="userSpaceOnUse">
<stop stop-color="#FB944E"/>
<stop offset="1" stop-color="#FAC5A2"/>
</linearGradient>
<linearGradient id="paint28_linear_718_2972" x1="550.617" y1="422.514" x2="1007.11" y2="912.083" gradientUnits="userSpaceOnUse">
<stop stop-color="#FB944E"/>
<stop offset="1" stop-color="#FF6802"/>
</linearGradient>
<linearGradient id="paint29_linear_718_2972" x1="788.285" y1="714.597" x2="912.702" y2="714.597" gradientUnits="userSpaceOnUse">
<stop stop-color="#E75D00"/>
<stop offset="1" stop-color="#FB944E"/>
</linearGradient>
<linearGradient id="paint30_linear_718_2972" x1="689.35" y1="534.65" x2="813.757" y2="534.65" gradientUnits="userSpaceOnUse">
<stop stop-color="#4F52FF"/>
<stop offset="1" stop-color="#4042E2"/>
</linearGradient>
<linearGradient id="paint31_linear_718_2972" x1="689.35" y1="534.65" x2="813.757" y2="534.65" gradientUnits="userSpaceOnUse">
<stop stop-color="#E75D00"/>
<stop offset="1" stop-color="#FB944E"/>
</linearGradient>
<linearGradient id="paint32_linear_718_2972" x1="696.894" y1="250.128" x2="572.818" y2="447.411" gradientUnits="userSpaceOnUse">
<stop stop-color="#3E3E3E"/>
<stop offset="1" stop-color="#282828"/>
</linearGradient>
<linearGradient id="paint33_linear_718_2972" x1="585.008" y1="315.201" x2="452.702" y2="379.089" gradientUnits="userSpaceOnUse">
<stop stop-color="#FECEBE"/>
<stop offset="1" stop-color="#FFB68E"/>
</linearGradient>
<linearGradient id="paint34_linear_718_2972" x1="439.086" y1="430.293" x2="547.475" y2="430.293" gradientUnits="userSpaceOnUse">
<stop stop-color="#E0D5CD"/>
<stop offset="1" stop-color="#D5C8BF"/>
</linearGradient>
<linearGradient id="paint35_linear_718_2972" x1="662.962" y1="421.715" x2="716.44" y2="421.715" gradientUnits="userSpaceOnUse">
<stop stop-color="#E0D5CD"/>
<stop offset="1" stop-color="#D5C8BF"/>
</linearGradient>
</defs>
</svg>
