<svg width="21" height="1" viewBox="0 0 21 1" fill="none" xmlns="http://www.w3.org/2000/svg">
<path d="M-4.37114e-08 -0.460938C-0.276142 -0.460937 -0.5 -0.23708 -0.5 0.0390625C-0.5 0.315205 -0.276142 0.539063 4.37114e-08 0.539062L-4.37114e-08 -0.460938ZM21.3536 0.392614C21.5488 0.197352 21.5488 -0.119231 21.3536 -0.314493L18.1716 -3.49647C17.9763 -3.69174 17.6597 -3.69174 17.4645 -3.49647C17.2692 -3.30121 17.2692 -2.98463 17.4645 -2.78937L20.2929 0.0390607L17.4645 2.86749C17.2692 3.06275 17.2692 3.37933 17.4645 3.57459C17.6597 3.76986 17.9763 3.76986 18.1716 3.57459L21.3536 0.392614ZM0 0.0390625L4.37114e-08 0.539062L21 0.539061L21 0.0390607L21 -0.460939L-4.37114e-08 -0.460938L0 0.0390625Z" fill="white"/>
</svg>
