<svg width="9" height="8" viewBox="0 0 9 8" fill="none" xmlns="http://www.w3.org/2000/svg">
<path d="M2.4341 4.1782L0.4817 3.54207C0.4817 3.54207 0.248367 3.4474 0.3235 3.23274C0.338967 3.18847 0.370166 3.1508 0.4635 3.08607C0.8961 2.78454 8.47057 0.0620688 8.47057 0.0620688C8.47057 0.0620688 8.68443 -0.00999787 8.81057 0.0379355C8.87403 0.0576021 8.9221 0.110002 8.93623 0.174935C8.94983 0.231335 8.95557 0.289335 8.95317 0.347269C8.95257 0.397402 8.9465 0.443869 8.9419 0.516735C8.89577 1.26107 7.51523 6.81627 7.51523 6.81627C7.51523 6.81627 7.43263 7.14134 7.1367 7.15247C6.98983 7.1572 6.84717 7.102 6.7417 6.99967C6.16097 6.50014 4.15377 5.1512 3.71023 4.85454C3.69003 4.84074 3.6767 4.81887 3.67383 4.79454C3.66763 4.76327 3.70163 4.72454 3.70163 4.72454C3.70163 4.72454 7.1967 1.61787 7.2897 1.29174C7.2969 1.26647 7.2697 1.254 7.23317 1.26507C7.00103 1.35047 2.9769 3.89174 2.53277 4.1722C2.50077 4.18187 2.46703 4.18394 2.4341 4.1782Z" fill="white"/>
</svg>
