<svg width="40" height="32" viewBox="0 0 40 32" fill="none" xmlns="http://www.w3.org/2000/svg">
<mask id="mask0_789_13175" style="mask-type:luminance" maskUnits="userSpaceOnUse" x="0" y="0" width="40" height="32">
<path d="M39.9902 0.0664062H0.0078125V31.2699H39.9902V0.0664062Z" fill="white"/>
</mask>
<g mask="url(#mask0_789_13175)">
<path d="M13.6933 4.13758C14.8139 4.13758 15.7687 3.72648 16.561 2.93413C17.3534 2.14178 17.7645 1.18697 17.7645 0.0664062H4.10551C2.98494 0.0664062 2.0003 0.45098 1.21126 1.24333C0.418908 2.03237 0.0078125 3.01701 0.0078125 4.13758H13.6933Z" fill="#FF6700"/>
<path d="M26.3022 4.13758C25.1817 4.13758 24.2269 3.72648 23.4345 2.93413C22.6422 2.14509 22.2344 1.18697 22.2344 0.0664062H35.89C37.0106 0.0664062 37.9919 0.447664 38.7843 1.24002C39.5766 2.03237 39.9877 3.01701 39.9877 4.13758H26.3022Z" fill="#FF6700"/>
<path d="M17.7612 23.7411V14.6671C17.7612 13.1355 17.2142 11.8259 16.1234 10.7319C15.0592 9.63784 13.7464 9.09082 12.1915 9.09082H5.38852C4.26796 9.09082 3.28663 9.50192 2.49428 10.2943C1.70192 11.0866 1.32067 12.0713 1.32067 13.1918H11.8368C12.3573 13.1918 12.7916 13.3841 13.1463 13.7389C13.501 14.0936 13.6933 14.5312 13.6933 15.0517V19.6434H4.10551C2.98494 19.6434 2.00362 20.0545 1.21126 20.8468C0.418908 21.6325 0.0078125 22.6172 0.0078125 23.7378L17.7612 23.7411Z" fill="#FF6700"/>
<path d="M22.2344 23.7411V14.6671C22.2344 13.1355 22.7814 11.8259 23.8721 10.7319C24.9363 9.63784 26.2492 9.09082 27.8041 9.09082H34.607C35.7276 9.09082 36.7089 9.50192 37.5013 10.2943C38.2936 11.0866 38.6749 12.0713 38.6749 13.1918H28.1621C27.6416 13.1918 27.2073 13.3841 26.8526 13.7389C26.4978 14.0936 26.3055 14.5312 26.3055 15.0517V19.6434H35.8934C37.0139 19.6434 37.9952 20.0545 38.7876 20.8468C39.58 21.6392 39.991 22.6238 39.991 23.7444L22.2344 23.7411Z" fill="#FF6700"/>
<path d="M7.3926 26.2012H32.6087C33.7392 26.2012 34.6575 27.1195 34.6575 28.2467H5.34375C5.34375 27.1195 6.26208 26.2012 7.3926 26.2012Z" fill="#333333"/>
<path d="M2.05334 29.2246H37.9413C39.0718 29.2246 39.9902 30.1429 39.9902 31.2735H0.0078125C0.0078125 30.1429 0.926147 29.2246 2.05334 29.2246Z" fill="#333333"/>
</g>
</svg>
