<svg width="97" height="96" viewBox="0 0 97 96" fill="none" xmlns="http://www.w3.org/2000/svg">
<path d="M17 81.7888H80C88.3965 81.7888 92.6171 77.6522 92.6171 69.3757V26.666C92.6171 18.3894 88.3965 14.21 80 14.21H17C8.60338 14.21 4.38281 18.3894 4.38281 26.666V69.3757C4.38281 77.6522 8.60167 81.7888 17 81.7888ZM10.8525 27.0294C10.8525 22.85 13.1034 20.6814 17.12 20.6814H79.9194C83.8965 20.6814 86.1474 22.85 86.1474 27.0294V30.4031H10.8525V27.0294ZM17.12 75.3242C13.1017 75.3242 10.8525 73.1934 10.8525 69.0157V39.5231H86.1474V69.014C86.1474 73.1917 83.8965 75.3225 79.9194 75.3225L17.12 75.3242ZM21.74 63.4288H31.5851C33.956 63.4288 35.5228 61.862 35.5228 59.5717V52.1385C35.5228 49.8894 33.956 48.2814 31.5851 48.2814H21.74C19.3691 48.2814 17.8022 49.8894 17.8022 52.1385V59.5717C17.8022 61.862 19.3691 63.4288 21.74 63.4288Z" fill="#4C4C4C"/>
</svg>
