<svg width="97" height="96" viewBox="0 0 97 96" fill="none" xmlns="http://www.w3.org/2000/svg">
<path d="M20.5 60H40.5M20.5 48H40.5M20.5 36H40.5M52.5 48L60.5 56L76.5 40M14.1 16H82.9C85.4461 16 87.8879 17.0114 89.6882 18.8118C91.4886 20.6121 92.5 23.0539 92.5 25.6V70.4C92.5 72.9461 91.4886 75.3879 89.6882 77.1882C87.8879 78.9886 85.4461 80 82.9 80H14.1C11.5539 80 9.11212 78.9886 7.31177 77.1882C5.51143 75.3879 4.5 72.9461 4.5 70.4V25.6C4.5 23.0539 5.51143 20.6121 7.31177 18.8118C9.11212 17.0114 11.5539 16 14.1 16Z" stroke="#4C4C4C" stroke-width="4" stroke-linecap="round" stroke-linejoin="round"/>
</svg>
