<svg width="100" height="100" viewBox="0 0 100 100" fill="none" xmlns="http://www.w3.org/2000/svg">
<path d="M75 6.69946C82.5413 11.0537 88.8147 17.3021 93.1991 24.826C97.5835 32.3498 99.9268 40.8883 99.9971 49.5962C100.067 58.304 97.8624 66.8792 93.6001 74.4729C89.3378 82.0667 83.1662 88.4155 75.6962 92.8911C68.2262 97.3666 59.7168 99.8136 51.0105 99.9898C42.3042 100.166 33.7027 98.0653 26.0578 93.8957C18.4128 89.7261 11.9894 83.6321 7.42333 76.217C2.85731 68.802 0.307047 60.323 0.0250006 51.6195L0 49.9995L0.0250006 48.3795C0.305016 39.7444 2.81774 31.3293 7.3182 23.9544C11.8187 16.5796 18.1533 10.4967 25.7045 6.29887C33.2557 2.10103 41.7657 -0.0685539 50.405 0.00165123C59.0443 0.0718564 67.518 2.37945 75 6.69946ZM68.535 36.4645C67.674 35.6036 66.5285 35.0864 65.3134 35.01C64.0983 34.9336 62.897 35.3032 61.935 36.0495L61.465 36.4645L45 52.9245L38.535 46.4645L38.065 46.0495C37.1029 45.3037 35.9019 44.9346 34.687 45.0112C33.4722 45.0879 32.327 45.605 31.4663 46.4658C30.6056 47.3265 30.0884 48.4716 30.0118 49.6865C29.9351 50.9013 30.3043 52.1024 31.05 53.0645L31.465 53.5345L41.465 63.5345L41.935 63.9495C42.8119 64.6298 43.8902 64.999 45 64.999C46.1098 64.999 47.1881 64.6298 48.065 63.9495L48.535 63.5345L68.535 43.5345L68.95 43.0645C69.6963 42.1024 70.0658 40.9012 69.9894 39.6861C69.913 38.4709 69.3959 37.3254 68.535 36.4645Z" fill="url(#paint0_linear_789_13309)"/>
<defs>
<linearGradient id="paint0_linear_789_13309" x1="49.9994" y1="0" x2="49.9994" y2="100" gradientUnits="userSpaceOnUse">
<stop stop-color="#FB944E"/>
<stop offset="1" stop-color="#FF6700"/>
</linearGradient>
</defs>
</svg>
