<svg width="101" height="100" viewBox="0 0 101 100" fill="none" xmlns="http://www.w3.org/2000/svg">
<path d="M75.5 6.69946C83.0413 11.0537 89.3147 17.3021 93.6991 24.826C98.0835 32.3498 100.427 40.8883 100.497 49.5962C100.567 58.304 98.3624 66.8792 94.1001 74.4729C89.8378 82.0667 83.6662 88.4155 76.1962 92.8911C68.7262 97.3666 60.2168 99.8136 51.5105 99.9898C42.8042 100.166 34.2027 98.0653 26.5578 93.8957C18.9128 89.7261 12.4894 83.6321 7.92333 76.217C3.35731 68.802 0.807047 60.323 0.525001 51.6195L0.5 49.9995L0.525001 48.3795C0.805016 39.7444 3.31774 31.3293 7.8182 23.9544C12.3187 16.5796 18.6533 10.4967 26.2045 6.29887C33.7557 2.10103 42.2657 -0.0685539 50.905 0.00165123C59.5443 0.0718564 68.018 2.37945 75.5 6.69946ZM69.035 36.4645C68.174 35.6036 67.0285 35.0864 65.8134 35.01C64.5983 34.9336 63.397 35.3032 62.435 36.0495L61.965 36.4645L45.5 52.9245L39.035 46.4645L38.565 46.0495C37.6029 45.3037 36.4019 44.9346 35.187 45.0112C33.9722 45.0879 32.827 45.605 31.9663 46.4658C31.1056 47.3265 30.5884 48.4716 30.5118 49.6865C30.4351 50.9013 30.8043 52.1024 31.55 53.0645L31.965 53.5345L41.965 63.5345L42.435 63.9495C43.3119 64.6298 44.3902 64.999 45.5 64.999C46.6098 64.999 47.6881 64.6298 48.565 63.9495L49.035 63.5345L69.035 43.5345L69.45 43.0645C70.1963 42.1024 70.5658 40.9012 70.4894 39.6861C70.413 38.4709 69.8959 37.3254 69.035 36.4645Z" fill="url(#paint0_linear_789_13339)"/>
<defs>
<linearGradient id="paint0_linear_789_13339" x1="50.4994" y1="0" x2="50.4994" y2="100" gradientUnits="userSpaceOnUse">
<stop stop-color="#FB944E"/>
<stop offset="1" stop-color="#FF6700"/>
</linearGradient>
</defs>
</svg>
