<svg width="1156" height="970" viewBox="0 0 1156 970" fill="none" xmlns="http://www.w3.org/2000/svg">
<path d="M1046.23 845.374C1026.78 864.438 1008.38 876.732 993.847 886.446C822.966 1000.62 620.769 967.341 577.796 959.213C514.339 947.211 391.678 924.011 302.996 826.895C168.828 679.966 189.72 448.483 293.79 295.679C312.826 267.728 413.38 112.596 617.755 87.7175C741.44 72.6615 885.618 103.028 990.028 184.487C1209.19 355.477 1193.59 700.906 1046.23 845.374Z" fill="url(#paint0_linear_789_13475)"/>
<path d="M473.8 474.405C473.8 474.405 437.069 377.1 376.719 366.056C316.37 355.012 215.049 366.988 155.06 229.419C119.94 148.88 103.244 114.065 95.4361 99.0404C92.3907 93.1797 96.4176 86.5233 103.546 85.6641C153.968 79.5854 320.572 66.7209 390.731 150.554C473.905 249.939 473.8 474.405 473.8 474.405Z" fill="#FDE6D8"/>
<path opacity="0.25" d="M156.25 113.632C224.594 139.443 313.88 194.54 375.29 257.925C384.251 268.716 406.569 290.695 430.184 334.514C450.187 370.969 464.123 411.631 469.255 439.765C469.579 441.544 468.221 443.179 466.22 443.418C462.781 443.829 461.952 440.608 462.02 440.697C450.07 393.576 424.546 338.093 389.216 291.688C345.104 234.926 278.652 186.936 214.49 148.552L207.98 144.83C158.748 116.266 151.564 118.084 153.611 114.464C154.094 113.609 155.253 113.258 156.25 113.632Z" fill="white"/>
<path d="M615.944 585.36C625.185 586.335 504.615 520.375 417.699 384.793C376.742 320.903 340.339 236.199 283.174 217.025C235.597 201.068 120.598 256.427 83.3574 275.448C78.704 277.824 79.4303 283.986 84.5717 285.688C109.918 294.075 165.489 315.175 190.809 346.021C224.183 386.677 284.465 400.343 330.776 394.676C377.087 389.008 404.223 389.068 451.399 443.862C498.575 498.656 589.687 582.592 615.944 585.36Z" fill="url(#paint1_linear_789_13475)"/>
<path opacity="0.25" d="M148.424 277.668C200.415 263.61 264.251 267.278 308.833 297.615L313.058 300.519C322.873 307.357 383.884 358.699 425.039 404.199C425.551 404.767 425.458 405.581 424.829 406.018C423.761 406.76 422.636 405.752 422.798 405.822C397.028 380.904 362.111 350.013 335.069 327.203C305.847 302.223 285.688 285.421 240.049 277.544C189.552 269.481 148.976 279.691 149.104 279.676C148.475 279.81 147.829 279.465 147.66 278.906C147.497 278.369 147.838 277.828 148.424 277.668Z" fill="white"/>
<g opacity="0.3">
<path d="M781.812 136.992C783.285 137.015 784.498 135.839 784.521 134.366C784.565 131.505 784.734 128.602 785.024 125.74C785.171 124.292 784.129 122.997 782.691 122.824C782.674 122.822 782.657 122.819 782.639 122.817C781.173 122.669 779.865 123.737 779.717 125.203C779.412 128.216 779.233 131.271 779.187 134.284C779.165 135.661 780.193 136.811 781.531 136.973C781.624 136.984 781.717 136.991 781.812 136.992ZM787.391 111.904C788.067 109.109 788.87 106.317 789.778 103.602C790.244 102.206 789.491 100.694 788.094 100.227C786.69 99.7625 785.186 100.514 784.719 101.911C783.764 104.767 782.918 107.707 782.206 110.647C781.859 112.079 782.739 113.521 784.17 113.867C784.275 113.892 784.379 113.911 784.482 113.924C785.805 114.084 787.069 113.232 787.391 111.904ZM795.141 90.6379C796.419 88.0707 797.825 85.5284 799.32 83.0796C800.087 81.8226 799.69 80.1804 798.433 79.4129C797.176 78.6475 795.535 79.0428 794.767 80.2997C793.192 82.8783 791.712 85.5564 790.366 88.2595C789.709 89.578 790.246 91.1791 791.564 91.8366C791.845 91.9765 792.139 92.0624 792.434 92.0978C793.522 92.2291 794.624 91.6756 795.141 90.6379ZM807.453 71.6395C809.275 69.4203 811.215 67.2551 813.218 65.2021C814.246 64.1476 814.226 62.4586 813.172 61.4302C812.117 60.4027 810.429 60.4238 809.4 61.4762C807.291 63.6379 805.249 65.9179 803.33 68.2525C802.396 69.3908 802.56 71.0718 803.699 72.0066C804.106 72.341 804.583 72.5351 805.07 72.5938C805.944 72.6993 806.852 72.3701 807.453 71.6395ZM823.69 55.8576C825.954 54.1029 828.326 52.4198 830.739 50.8572C831.975 50.0555 832.328 48.4042 831.527 47.168C830.726 45.9307 829.074 45.5785 827.838 46.3802C825.3 48.0244 822.804 49.7952 820.422 51.6414C819.258 52.5433 819.045 54.2188 819.948 55.3835C820.403 55.9703 821.054 56.3153 821.737 56.3977C822.409 56.4789 823.112 56.3052 823.69 55.8576ZM843.015 44.0619C845.614 42.8494 848.298 41.7337 850.993 40.7458C852.376 40.2388 853.086 38.7059 852.579 37.3236C852.072 35.9403 850.54 35.2299 849.156 35.7369C846.321 36.7763 843.495 37.9513 840.76 39.2272C839.425 39.8501 838.847 41.4366 839.47 42.7719C839.874 43.6391 840.686 44.1862 841.571 44.2928C842.048 44.3504 842.547 44.2804 843.015 44.0619ZM941.967 48.4178C942.733 47.1594 942.334 45.5182 941.075 44.7527C938.496 43.1848 935.814 41.7081 933.104 40.3646C931.784 39.7104 930.183 40.2499 929.529 41.5701C928.875 42.889 929.415 44.4895 930.734 45.1437C933.308 46.4195 935.854 47.8219 938.303 49.3111C938.639 49.5154 939.001 49.6367 939.368 49.6809C940.374 49.8021 941.406 49.3409 941.967 48.4178ZM864.46 36.8475C867.263 36.2439 870.126 35.7545 872.971 35.3941C874.432 35.2081 875.467 33.8731 875.281 32.4119C875.096 30.9497 873.761 29.923 872.299 30.1016C869.304 30.4816 866.289 30.9966 863.337 31.6328C861.898 31.9432 860.981 33.3618 861.291 34.8021C861.537 35.9441 862.481 36.7568 863.58 36.8892C863.866 36.9238 864.162 36.9111 864.46 36.8475ZM921.129 38.1139C921.593 36.7163 920.836 35.2062 919.438 34.7418C916.574 33.7912 913.631 32.9517 910.692 32.245C909.26 31.894 907.82 32.7836 907.475 34.2153C907.131 35.6474 908.013 37.0874 909.446 37.4322C912.239 38.1035 915.036 38.9013 917.757 39.8051C917.931 39.8629 918.106 39.9007 918.281 39.9219C919.514 40.0703 920.723 39.3379 921.129 38.1139ZM886.976 34.607C889.842 34.6458 892.743 34.8086 895.601 35.0922C897.067 35.2384 898.373 34.1679 898.519 32.7015C898.662 31.2548 897.621 29.9633 896.184 29.7904C896.166 29.7883 896.147 29.7859 896.128 29.7846C893.12 29.4851 890.065 29.3133 887.049 29.2719C885.576 29.253 884.366 30.4304 884.346 31.9034C884.327 33.2791 885.354 34.426 886.69 34.5872C886.784 34.5988 886.88 34.605 886.976 34.607Z" fill="#F5995C"/>
<path d="M954.422 60.8223C953.9 60.7594 953.392 60.543 952.97 60.1667C951.943 59.2516 950.879 58.3437 949.81 57.4657C948.671 56.532 948.505 54.8508 949.439 53.7122C950.372 52.5728 952.055 52.4051 953.193 53.3419C954.318 54.2647 955.436 55.2201 956.517 56.1825C957.617 57.1619 957.715 58.8487 956.736 59.9479C956.132 60.6264 955.259 60.9232 954.422 60.8223Z" fill="#F5995C"/>
</g>
<g opacity="0.3">
<path d="M989.222 134.32C987.944 134.166 986.931 133.104 986.879 131.776C986.826 130.402 986.742 129.006 986.631 127.627C986.513 126.159 987.608 124.873 989.076 124.755C990.551 124.637 991.831 125.732 991.949 127.2C992.065 128.652 992.153 130.122 992.21 131.569C992.267 133.04 991.12 134.28 989.648 134.338C989.504 134.344 989.361 134.337 989.222 134.32Z" fill="#F5995C"/>
<path d="M878.327 242.097C879.797 242.201 881.073 241.095 881.177 239.625C881.281 238.155 880.175 236.883 878.705 236.776C875.908 236.577 873.075 236.256 870.254 235.819C868.806 235.59 867.435 236.592 867.21 238.048C866.985 239.504 867.982 240.866 869.438 241.092C870.66 241.281 871.881 241.45 873.099 241.596C874.838 241.806 876.597 241.975 878.327 242.097ZM858.574 236.104C858.994 234.692 858.19 233.207 856.778 232.787C854.068 231.98 851.362 231.051 848.736 230.023C847.368 229.482 845.817 230.162 845.28 231.534C844.743 232.905 845.42 234.452 846.791 234.989C849.556 236.072 852.404 237.051 855.257 237.899C855.405 237.943 855.554 237.974 855.702 237.992C856.968 238.144 858.197 237.368 858.574 236.104ZM892.862 242.132C895.823 241.935 898.816 241.61 901.759 241.163C903.215 240.941 904.216 239.581 903.995 238.124C903.774 236.668 902.414 235.669 900.957 235.888C898.163 236.313 895.321 236.622 892.509 236.808C891.04 236.906 889.927 238.176 890.024 239.646C890.11 240.947 891.115 241.967 892.363 242.118C892.526 242.137 892.693 242.142 892.862 242.132ZM837.278 227.749C837.998 226.464 837.54 224.838 836.255 224.118C833.791 222.738 831.357 221.236 829.021 219.654C827.8 218.827 826.143 219.147 825.317 220.368C824.491 221.587 824.81 223.245 826.03 224.071C828.491 225.737 831.054 227.319 833.648 228.772C833.961 228.947 834.295 229.054 834.631 229.094C835.672 229.22 836.734 228.72 837.278 227.749ZM915.934 237.999C918.778 237.157 921.625 236.181 924.398 235.098C925.77 234.563 926.448 233.016 925.912 231.644C925.377 230.271 923.83 229.594 922.458 230.129C919.824 231.157 917.12 232.085 914.419 232.884C913.007 233.303 912.201 234.787 912.619 236.199C912.931 237.252 913.835 237.967 914.859 238.091C915.209 238.133 915.575 238.106 915.934 237.999ZM937.541 228.907C940.138 227.46 942.704 225.886 945.168 224.23C946.391 223.408 946.716 221.751 945.894 220.528C945.071 219.304 943.414 218.979 942.193 219.803C939.851 221.376 937.413 222.872 934.945 224.247C933.658 224.964 933.196 226.589 933.913 227.876C934.346 228.651 935.107 229.127 935.926 229.225C936.466 229.29 937.03 229.191 937.541 228.907ZM956.654 215.321C958.875 213.342 961.038 211.247 963.081 209.095C964.095 208.026 964.051 206.338 962.983 205.324C961.913 204.308 960.226 204.354 959.212 205.422C957.271 207.467 955.216 209.457 953.105 211.338C952.005 212.318 951.908 214.004 952.888 215.104C953.338 215.609 953.937 215.902 954.559 215.978C955.293 216.066 956.059 215.851 956.654 215.321ZM972.348 197.89C974.082 195.474 975.734 192.954 977.256 190.403C978.011 189.138 977.597 187.5 976.332 186.746C975.069 185.992 973.43 186.405 972.675 187.67C971.23 190.093 969.662 192.484 968.014 194.78C967.155 195.977 967.428 197.643 968.625 198.502C969.003 198.773 969.428 198.931 969.859 198.983C970.793 199.095 971.759 198.709 972.348 197.89ZM983.833 177.426C984.99 174.693 986.045 171.874 986.969 169.047C987.427 167.647 986.663 166.14 985.262 165.683C983.866 165.227 982.356 165.989 981.898 167.389C981.021 170.075 980.018 172.752 978.92 175.348C978.346 176.704 978.981 178.27 980.337 178.843C980.573 178.943 980.816 179.007 981.058 179.036C982.209 179.175 983.359 178.546 983.833 177.426ZM990.538 154.963C990.932 152.811 991.264 150.621 991.525 148.454C991.62 147.669 991.705 146.886 991.782 146.103C991.926 144.638 990.876 143.305 989.389 143.188C987.923 143.043 986.618 144.114 986.473 145.581C986.4 146.325 986.319 147.07 986.229 147.816C985.981 149.877 985.666 151.958 985.291 154.003C985.026 155.452 985.986 156.841 987.435 157.106C987.489 157.116 987.544 157.125 987.598 157.131C988.987 157.298 990.284 156.357 990.538 154.963Z" fill="#F5995C"/>
<path d="M815.984 215.731C815.457 215.667 814.945 215.447 814.521 215.067C813.448 214.101 812.374 213.094 811.331 212.074C810.277 211.045 810.257 209.356 811.286 208.303C812.316 207.249 814.004 207.228 815.058 208.259C816.05 209.227 817.07 210.183 818.089 211.101C819.184 212.085 819.273 213.771 818.288 214.867C817.684 215.538 816.816 215.831 815.984 215.731Z" fill="#F5995C"/>
</g>
<path d="M813.516 170.07C813.232 169.621 813.264 169.041 813.596 168.625L823.068 156.772C820.742 150.079 819.467 142.967 819.399 135.675L806.495 127.712C806.043 127.433 805.818 126.897 805.934 126.378L809.921 108.621C810.038 108.102 810.471 107.713 810.999 107.655L826.069 105.972C829.247 99.4091 833.44 93.5247 838.404 88.4685L834.909 73.7041C834.786 73.1866 835.006 72.6481 835.455 72.3638L850.831 62.6267C851.28 62.3421 851.86 62.3738 852.276 62.7061L864.129 72.1781C870.822 69.8521 877.934 68.5765 885.226 68.5093L893.189 55.6059C893.469 55.1532 894.004 54.9274 894.523 55.0442L912.281 59.0313C912.8 59.148 913.188 59.5808 913.247 60.1095L914.929 75.1792C921.492 78.3572 927.377 82.5507 932.433 87.5149L947.197 84.0192C947.715 83.8966 948.253 84.1158 948.538 84.5654L958.275 99.9412C958.559 100.39 958.527 100.971 958.196 101.386L948.723 113.239C951.05 119.932 952.325 127.044 952.392 134.336L965.295 142.299C965.748 142.579 965.974 143.115 965.857 143.633L961.87 161.391C961.753 161.91 961.32 162.298 960.792 162.357L945.722 164.039C942.544 170.602 938.351 176.486 933.387 181.543L936.882 196.307C937.005 196.825 936.786 197.363 936.336 197.648L920.96 207.385C920.511 207.669 919.93 207.637 919.515 207.305L907.662 197.833C900.969 200.159 893.857 201.434 886.565 201.502L878.602 214.405C878.322 214.857 877.787 215.083 877.268 214.967L859.51 210.979C858.991 210.863 858.603 210.43 858.544 209.901L856.862 194.832C850.299 191.654 844.415 187.46 839.359 182.496L824.594 185.992C824.076 186.114 823.538 185.895 823.254 185.446L813.516 170.07Z" fill="#F5995C"/>
<path d="M886.376 153.292C896.459 153.025 904.446 144.605 904.18 134.521C904.051 129.636 902.028 125.093 898.482 121.731C894.938 118.368 890.295 116.587 885.409 116.717C875.326 116.984 867.339 125.403 867.605 135.488C867.847 144.662 874.838 152.1 883.692 153.166C884.57 153.272 885.466 153.315 886.376 153.292ZM895.545 124.827C898.264 127.406 899.815 130.888 899.914 134.634C900.118 142.365 893.994 148.822 886.263 149.026C878.529 149.233 872.075 143.106 871.871 135.374C871.667 127.644 877.791 121.187 885.522 120.983C886.223 120.964 886.917 120.998 887.6 121.08C890.57 121.437 893.336 122.732 895.545 124.827Z" fill="url(#paint2_linear_789_13475)"/>
<path d="M880.903 179.447C879.382 179.264 877.862 179.003 876.347 178.663C875.87 178.556 875.395 178.441 874.922 178.319C872.589 177.716 870.307 176.928 868.112 175.968C868.083 175.955 868.053 175.942 868.023 175.929C867.938 175.891 867.853 175.853 867.769 175.815C867.604 175.742 867.44 175.666 867.276 175.591C866.846 175.392 866.611 174.943 866.664 174.496C866.677 174.388 866.708 174.279 866.756 174.175C867.003 173.64 867.638 173.409 868.172 173.655C870.924 174.928 873.831 175.912 876.814 176.581C891.628 179.91 906.405 175.091 916.449 165.106C922.036 159.553 926.159 152.401 928.008 144.161C928.333 142.716 928.582 141.265 928.757 139.815C929.932 130.054 927.732 120.268 922.401 111.85C916.278 102.18 906.756 95.4743 895.589 92.9669C872.526 87.7907 849.57 102.335 844.394 125.387C844.075 126.808 843.829 128.24 843.656 129.677C842.907 135.904 843.529 142.225 845.499 148.184C845.549 148.339 845.563 148.496 845.545 148.647C845.497 149.044 845.226 149.398 844.82 149.532C844.26 149.715 843.657 149.415 843.472 148.853C841.404 142.596 840.751 135.959 841.538 129.423C841.719 127.915 841.977 126.411 842.312 124.919C847.746 100.717 871.863 85.4522 896.056 90.8841C907.779 93.5162 917.776 100.557 924.204 110.708C929.801 119.545 932.109 129.819 930.876 140.066C930.693 141.589 930.431 143.111 930.091 144.627C927.458 156.351 920.418 166.348 910.267 172.776C901.429 178.374 891.151 180.682 880.903 179.447Z" fill="url(#paint3_linear_789_13475)"/>
<g opacity="0.3">
<path d="M682.781 195.866C682.073 195.781 681.477 195.24 681.354 194.501C681.123 193.122 680.931 191.717 680.784 190.325C680.688 189.42 681.343 188.609 682.248 188.513C683.154 188.413 683.964 189.073 684.06 189.977C684.201 191.304 684.384 192.643 684.603 193.96C684.754 194.856 684.148 195.705 683.25 195.856C683.091 195.882 682.934 195.884 682.781 195.866Z" fill="#F5995C"/>
<path d="M682.017 183.241C682.927 183.257 683.678 182.534 683.694 181.624C683.737 179.328 683.897 177.007 684.172 174.728C684.23 174.247 684.294 173.766 684.362 173.283C684.489 172.383 683.863 171.549 682.962 171.421C682.106 171.334 681.228 171.92 681.099 172.822C681.028 173.327 680.961 173.831 680.901 174.334C680.613 176.723 680.444 179.156 680.401 181.564C680.385 182.416 681.02 183.13 681.849 183.229C681.904 183.236 681.96 183.239 682.017 183.241ZM686.039 165.086C686.762 162.398 687.658 159.73 688.703 157.158C689.045 156.314 688.64 155.355 687.797 155.012C686.958 154.672 685.993 155.075 685.65 155.918C684.555 158.614 683.615 161.411 682.857 164.23C682.621 165.109 683.142 166.012 684.021 166.25C684.097 166.27 684.176 166.284 684.253 166.294C685.054 166.39 685.823 165.887 686.039 165.086ZM692.33 149.617C693.687 147.191 695.212 144.826 696.862 142.584C697.4 141.852 697.244 140.82 696.511 140.282C695.776 139.741 694.747 139.897 694.208 140.631C692.477 142.981 690.879 145.464 689.454 148.007C689.01 148.801 689.293 149.805 690.087 150.249C690.281 150.357 690.486 150.422 690.694 150.448C691.337 150.525 691.993 150.217 692.33 149.617ZM702.228 136.166C704.143 134.144 706.2 132.222 708.342 130.458C709.045 129.878 709.145 128.841 708.566 128.139C707.988 127.439 706.95 127.336 706.247 127.914C704 129.766 701.844 131.78 699.835 133.901C699.21 134.561 699.239 135.605 699.899 136.23C700.166 136.481 700.494 136.628 700.833 136.668C701.334 136.729 701.855 136.56 702.228 136.166ZM715.111 125.539C717.459 124.045 719.92 122.682 722.428 121.487C723.249 121.096 723.597 120.113 723.206 119.291C722.815 118.469 721.832 118.119 721.01 118.513C718.382 119.765 715.802 121.194 713.341 122.759C712.574 123.249 712.347 124.267 712.836 125.033C713.112 125.467 713.557 125.728 714.03 125.785C714.395 125.829 714.777 125.752 715.111 125.539ZM730.183 118.362C732.821 117.484 735.538 116.763 738.26 116.219C739.151 116.041 739.731 115.173 739.552 114.281C739.374 113.39 738.509 112.812 737.614 112.988C734.76 113.558 731.909 114.315 729.142 115.236C728.279 115.524 727.812 116.456 728.099 117.319C728.308 117.943 728.854 118.361 729.466 118.434C729.7 118.463 729.944 118.442 730.183 118.362ZM746.546 115.09C749.31 114.886 752.123 114.854 754.909 114.996C755.818 115.04 756.591 114.341 756.637 113.433C756.683 112.524 755.984 111.764 755.074 111.703C752.154 111.557 749.204 111.591 746.305 111.804C745.397 111.871 744.716 112.66 744.782 113.568C744.841 114.366 745.46 114.99 746.227 115.082C746.331 115.095 746.437 115.098 746.546 115.09ZM773.416 116.779C773.682 115.908 773.191 114.989 772.321 114.723C769.911 113.989 767.42 113.374 764.924 112.897C764.545 112.822 764.167 112.754 763.787 112.687C762.9 112.506 762.037 113.131 761.883 114.029C761.727 114.926 762.328 115.778 763.224 115.934C763.58 115.995 763.936 116.061 764.298 116.132C766.687 116.588 769.063 117.174 771.361 117.874C771.455 117.903 771.551 117.923 771.645 117.934C772.424 118.028 773.18 117.554 773.416 116.779Z" fill="#F5995C"/>
</g>
<g opacity="0.3">
<path d="M744.022 253.535C746.877 253.841 749.775 253.975 752.637 253.936C753.546 253.922 754.273 253.175 754.261 252.265C754.248 251.355 753.494 250.636 752.59 250.641C749.861 250.68 747.097 250.551 744.373 250.259C743.469 250.161 742.656 250.816 742.56 251.721C742.464 252.618 743.107 253.425 744 253.532C744.007 253.533 744.015 253.534 744.022 253.535ZM737.489 250.865C737.693 249.979 737.14 249.094 736.254 248.889C733.587 248.273 730.931 247.49 728.359 246.559C727.508 246.254 726.559 246.693 726.25 247.55C725.94 248.405 726.383 249.348 727.239 249.659C729.934 250.633 732.718 251.455 735.513 252.099C735.572 252.113 735.629 252.123 735.689 252.13C736.513 252.23 737.297 251.694 737.489 250.865ZM761.242 253.286C764.088 252.893 766.934 252.324 769.701 251.593C770.581 251.36 771.106 250.458 770.873 249.579C770.641 248.698 769.742 248.177 768.86 248.406C766.22 249.104 763.506 249.647 760.791 250.023C759.89 250.148 759.261 250.98 759.385 251.879C759.49 252.638 760.094 253.203 760.819 253.29C760.956 253.307 761.098 253.306 761.242 253.286ZM721.531 245.507C721.943 244.696 721.619 243.704 720.808 243.292C718.368 242.053 715.98 240.652 713.711 239.126C712.956 238.62 711.932 238.821 711.425 239.573C710.917 240.329 711.117 241.353 711.873 241.86C714.252 243.461 716.757 244.931 719.317 246.23C719.494 246.319 719.679 246.374 719.865 246.396C720.533 246.477 721.209 246.14 721.531 245.507ZM777.886 248.884C780.548 247.821 783.172 246.584 785.688 245.206C786.486 244.769 786.778 243.768 786.341 242.969C785.904 242.171 784.903 241.877 784.104 242.316C781.706 243.631 779.203 244.81 776.663 245.823C775.819 246.161 775.407 247.119 775.745 247.965C775.976 248.544 776.5 248.92 777.079 248.99C777.344 249.022 777.621 248.99 777.886 248.884ZM792.991 240.617C795.325 238.944 797.578 237.114 799.688 235.179C800.358 234.565 800.403 233.523 799.788 232.853C799.174 232.183 798.132 232.137 797.46 232.752C795.448 234.597 793.298 236.343 791.071 237.939C790.331 238.469 790.162 239.499 790.692 240.238C790.972 240.629 791.391 240.861 791.835 240.914C792.229 240.961 792.642 240.867 792.991 240.617ZM805.682 228.971C807.55 226.786 809.299 224.468 810.881 222.082C811.384 221.322 811.176 220.301 810.418 219.798C809.66 219.295 808.638 219.504 808.135 220.26C806.627 222.536 804.959 224.747 803.177 226.828C802.586 227.52 802.667 228.56 803.359 229.151C803.616 229.371 803.92 229.497 804.231 229.535C804.76 229.598 805.31 229.406 805.682 228.971Z" fill="#F5995C"/>
<path d="M705.838 236.959C705.522 236.921 705.215 236.792 704.956 236.568C703.891 235.644 702.849 234.684 701.857 233.715C701.207 233.079 701.195 232.036 701.83 231.385C702.467 230.738 703.509 230.724 704.161 231.358C705.106 232.282 706.101 233.198 707.116 234.08C707.804 234.676 707.877 235.717 707.28 236.404C706.908 236.832 706.362 237.023 705.838 236.959Z" fill="#F5995C"/>
</g>
<path d="M703.232 205.707C703.041 205.406 703.063 205.018 703.285 204.74L709.623 196.808C708.067 192.33 707.213 187.571 707.169 182.691L698.534 177.362C698.231 177.176 698.08 176.817 698.158 176.47L700.826 164.587C700.904 164.24 701.194 163.98 701.548 163.941L711.632 162.815C713.758 158.423 716.564 154.486 719.886 151.103L717.547 141.223C717.465 140.876 717.612 140.516 717.913 140.326L728.201 133.81C728.502 133.62 728.891 133.641 729.169 133.863L737.1 140.201C741.579 138.645 746.338 137.791 751.217 137.747L756.546 129.112C756.733 128.809 757.091 128.658 757.438 128.736L769.321 131.404C769.668 131.482 769.928 131.772 769.967 132.126L771.093 142.21C775.485 144.336 779.422 147.142 782.805 150.464L792.685 148.125C793.032 148.043 793.392 148.19 793.582 148.49L800.098 158.779C800.288 159.08 800.267 159.468 800.045 159.746L793.706 167.678C795.263 172.156 796.116 176.915 796.161 181.795L804.796 187.124C805.099 187.31 805.25 187.669 805.171 188.016L802.504 199.899C802.425 200.246 802.136 200.506 801.782 200.545L791.698 201.671C789.572 206.063 786.766 210 783.444 213.384L785.783 223.263C785.865 223.61 785.718 223.97 785.418 224.16L775.129 230.676C774.828 230.867 774.44 230.845 774.162 230.623L766.23 224.285C761.751 225.841 756.992 226.694 752.113 226.74L746.785 235.374C746.597 235.677 746.239 235.828 745.892 235.75L734.009 233.082C733.662 233.004 733.402 232.714 733.363 232.36L732.237 222.277C727.846 220.15 723.908 217.344 720.525 214.022L710.645 216.362C710.299 216.444 709.939 216.297 709.748 215.996L703.232 205.707Z" fill="#F5995C"/>
<path d="M751.994 194.701C755.322 194.614 758.417 193.236 760.707 190.82C762.998 188.406 764.211 185.243 764.123 181.916C763.942 175.047 758.215 169.618 751.337 169.787C744.467 169.97 739.028 175.706 739.21 182.572C739.297 185.9 740.675 188.994 743.09 191.285C745.053 193.147 747.511 194.297 750.149 194.615C750.755 194.688 751.372 194.717 751.994 194.701ZM760.829 182.002C760.894 184.45 760.002 186.776 758.316 188.553C756.632 190.329 754.355 191.343 751.908 191.408C749.46 191.469 747.134 190.58 745.357 188.894C743.581 187.211 742.568 184.933 742.503 182.486C742.369 177.434 746.371 173.215 751.423 173.08C751.879 173.069 752.328 173.091 752.768 173.144C757.204 173.678 760.708 177.406 760.829 182.002Z" fill="url(#paint4_linear_789_13475)"/>
<path d="M748.18 212.901C747.145 212.777 746.108 212.598 745.069 212.366C743.008 211.904 740.991 211.231 739.071 210.365C738.985 210.325 738.899 210.286 738.813 210.246C738.148 209.939 737.786 209.246 737.868 208.555C737.888 208.388 737.935 208.22 738.01 208.059C738.391 207.233 739.37 206.878 740.196 207.256C741.981 208.082 743.863 208.719 745.79 209.15L745.791 209.15C745.896 209.174 746.003 209.197 746.108 209.219C750.677 210.199 755.317 210.003 759.683 208.715C762.053 208.015 764.343 206.991 766.496 205.655C766.514 205.644 766.531 205.633 766.549 205.622C766.603 205.588 766.656 205.555 766.709 205.521C772.968 201.557 777.31 195.392 778.933 188.163C779.144 187.228 779.304 186.289 779.417 185.35C780.178 179.031 778.754 172.695 775.303 167.245C771.338 160.985 765.174 156.645 757.945 155.022C750.72 153.403 743.287 154.689 737.027 158.652C730.768 162.616 726.426 168.78 724.803 176.01C724.596 176.929 724.437 177.857 724.325 178.786C723.84 182.818 724.243 186.909 725.518 190.767C725.597 191.005 725.618 191.247 725.589 191.481C725.515 192.094 725.097 192.642 724.471 192.848C723.607 193.131 722.676 192.666 722.389 191.8C720.963 187.483 720.512 182.904 721.054 178.395C721.179 177.354 721.357 176.317 721.588 175.288C723.404 167.199 728.261 160.303 735.265 155.868C742.268 151.434 750.576 149.985 758.667 151.807C766.755 153.623 773.651 158.479 778.086 165.483C781.948 171.58 783.541 178.668 782.689 185.738C782.563 186.787 782.383 187.838 782.148 188.884C778.632 204.544 763.783 214.781 748.18 212.901Z" fill="url(#paint5_linear_789_13475)"/>
<path d="M373.875 185.561L905.615 176.576C927.023 176.214 944.206 194.575 942.934 216.454L924.631 531.206C923.629 548.432 909.774 561.926 892.916 562.093L381.786 567.148C369.162 567.272 358.731 557.093 358.25 544.178L346.021 215.676C345.416 199.419 357.985 185.83 373.875 185.561Z" fill="url(#paint6_linear_789_13475)"/>
<path d="M382.027 193.58L899.888 185.03C920.737 184.686 937.472 202.155 936.233 222.971L918.408 522.427C917.432 538.816 903.938 551.654 887.521 551.812L389.731 556.622C377.436 556.741 367.277 547.056 366.809 534.769L354.899 222.23C354.31 206.763 366.551 193.835 382.027 193.58Z" fill="url(#paint7_linear_789_13475)"/>
<path d="M548.525 466.852H517.328V537.77H548.525V466.852Z" fill="#EC6000"/>
<path d="M600.653 436.197H569.457V537.769H600.653V436.197Z" fill="#EC6000"/>
<path d="M652.778 403.072H621.582V537.77H652.778V403.072Z" fill="#EC6000"/>
<path d="M704.903 380.595H673.707V537.769H704.903V380.595Z" fill="#EC6000"/>
<path d="M757.032 343.425H725.836V537.769H757.032V343.425Z" fill="#EC6000"/>
<path d="M809.157 299.6H777.961V537.77H809.157V299.6Z" fill="#EC6000"/>
<path d="M799.898 258.596C797.429 258.584 795.376 256.436 795.25 253.651L794.205 230.602L774.121 245.055C771.886 246.66 768.893 245.978 767.437 243.521C765.98 241.06 766.621 237.761 768.865 236.157L802.82 211.894L804.676 253.039C804.807 255.928 802.809 258.412 800.209 258.587C800.105 258.594 800.001 258.597 799.898 258.596Z" fill="#C34F00"/>
<path d="M507.562 436.146C506.156 436.146 504.859 435.226 504.444 433.808C503.94 432.085 504.928 430.28 506.651 429.776C566.466 412.275 627.779 383.211 679.294 347.938C734.503 310.135 773.214 269.098 791.243 229.262C791.983 227.627 793.91 226.902 795.544 227.641C797.179 228.381 797.905 230.307 797.165 231.942C778.646 272.862 739.157 314.827 682.967 353.302C630.901 388.952 568.932 418.327 508.477 436.015C508.172 436.104 507.864 436.146 507.562 436.146Z" fill="#C34F00"/>
<g opacity="0.58">
<path d="M616.774 261.675H424.171C422.657 261.675 421.418 260.436 421.418 258.922V245.478C421.418 243.963 422.657 242.725 424.171 242.725H616.774C618.288 242.725 619.527 243.963 619.527 245.478V258.922C619.527 260.436 618.288 261.675 616.774 261.675Z" fill="#F6E8DE"/>
<path d="M407.354 253.988C408.37 247.725 404.117 241.823 397.854 240.807C391.59 239.79 385.689 244.044 384.673 250.307C383.656 256.57 387.909 262.471 394.173 263.488C400.436 264.504 406.337 260.251 407.354 253.988Z" fill="#F6E8DE"/>
<path d="M610.179 297.236H430.766C425.625 297.236 421.418 293.029 421.418 287.888V287.633C421.418 282.492 425.625 278.285 430.766 278.285H610.179C615.32 278.285 619.527 282.492 619.527 287.633V287.888C619.527 293.029 615.32 297.236 610.179 297.236Z" fill="#F6E8DE"/>
<path d="M407.354 289.549C408.37 283.286 404.117 277.385 397.854 276.368C391.59 275.352 385.689 279.605 384.673 285.868C383.656 292.132 387.909 298.033 394.173 299.049C400.436 300.066 406.337 295.813 407.354 289.549Z" fill="#F6E8DE"/>
<path d="M610.179 332.796H430.766C425.625 332.796 421.418 328.59 421.418 323.448V323.194C421.418 318.052 425.625 313.846 430.766 313.846H610.179C615.32 313.846 619.527 318.052 619.527 323.194V323.448C619.527 328.59 615.32 332.796 610.179 332.796Z" fill="#F6E8DE"/>
<path d="M407.354 325.11C408.37 318.847 404.117 312.945 397.854 311.929C391.59 310.912 385.689 315.166 384.673 321.429C383.656 327.692 387.909 333.594 394.173 334.61C400.436 335.627 406.337 331.373 407.354 325.11Z" fill="#F6E8DE"/>
<path d="M616.778 368.359H424.175C422.661 368.359 421.422 367.12 421.422 365.606V352.161C421.422 350.647 422.661 349.408 424.175 349.408H616.778C618.292 349.408 619.53 350.647 619.53 352.161V365.606C619.531 367.12 618.292 368.359 616.778 368.359Z" fill="#F6E8DE"/>
<path d="M396.008 370.315C402.353 370.315 407.497 365.171 407.497 358.826C407.497 352.481 402.353 347.337 396.008 347.337C389.663 347.337 384.52 352.481 384.52 358.826C384.52 365.171 389.663 370.315 396.008 370.315Z" fill="#F6E8DE"/>
</g>
<path d="M596.691 121.541C549.029 121.541 510.391 150.994 510.391 187.325C510.391 197.4 513.364 206.944 518.675 215.479C521.301 219.698 522.183 224.825 520.963 229.643C518.585 239.03 519.833 251.158 530.54 265.553C532.574 268.287 536.889 267.261 537.513 263.911C538.295 259.712 539.642 254.511 541.949 249.49C544.101 244.808 549.581 242.605 554.314 244.642C566.831 250.032 581.289 253.109 596.691 253.109C644.354 253.109 682.992 223.657 682.992 187.325C682.992 150.994 644.354 121.541 596.691 121.541Z" fill="url(#paint8_linear_789_13475)"/>
<g opacity="0.68">
<path d="M575.056 193.989C576.544 189.746 574.311 185.1 570.068 183.612C565.825 182.123 561.179 184.356 559.691 188.599C558.203 192.842 560.436 197.488 564.679 198.976C568.922 200.465 573.568 198.232 575.056 193.989Z" fill="white"/>
<path d="M601.695 197.707C605.239 194.94 605.869 189.823 603.102 186.279C600.335 182.735 595.219 182.105 591.675 184.873C588.131 187.64 587.501 192.756 590.268 196.3C593.035 199.844 598.151 200.474 601.695 197.707Z" fill="white"/>
<path d="M631.755 197.045C634.934 193.865 634.934 188.711 631.755 185.531C628.575 182.352 623.421 182.352 620.241 185.531C617.062 188.711 617.062 193.865 620.241 197.045C623.421 200.224 628.575 200.224 631.755 197.045Z" fill="white"/>
</g>
<defs>
<linearGradient id="paint0_linear_789_13475" x1="1279.13" y1="1231.5" x2="504.51" y2="198.425" gradientUnits="userSpaceOnUse">
<stop stop-color="#FB944E"/>
<stop offset="1" stop-color="#FDF2E9"/>
</linearGradient>
<linearGradient id="paint1_linear_789_13475" x1="95" y1="264.006" x2="445.821" y2="497.791" gradientUnits="userSpaceOnUse">
<stop stop-color="#FDBF95"/>
<stop offset="1" stop-color="#F3AC7C" stop-opacity="0"/>
</linearGradient>
<linearGradient id="paint2_linear_789_13475" x1="904.158" y1="136.037" x2="867.627" y2="133.97" gradientUnits="userSpaceOnUse">
<stop stop-color="#FEE5DA"/>
<stop offset="1" stop-color="#FDF1E9"/>
</linearGradient>
<linearGradient id="paint3_linear_789_13475" x1="931.122" y1="137.319" x2="841.289" y2="132.235" gradientUnits="userSpaceOnUse">
<stop stop-color="#FEE8DA"/>
<stop offset="1" stop-color="#FDF2E9"/>
</linearGradient>
<linearGradient id="paint4_linear_789_13475" x1="764.108" y1="182.949" x2="739.224" y2="181.541" gradientUnits="userSpaceOnUse">
<stop stop-color="#FEEDDA"/>
<stop offset="1" stop-color="#FDF4E9"/>
</linearGradient>
<linearGradient id="paint5_linear_789_13475" x1="782.86" y1="183.837" x2="720.883" y2="180.33" gradientUnits="userSpaceOnUse">
<stop stop-color="#FEEADA"/>
<stop offset="1" stop-color="#FDF1E9"/>
</linearGradient>
<linearGradient id="paint6_linear_789_13475" x1="785.768" y1="106.835" x2="554.638" y2="514.924" gradientUnits="userSpaceOnUse">
<stop stop-color="#2C2C2C"/>
<stop offset="1" stop-color="#494949"/>
</linearGradient>
<linearGradient id="paint7_linear_789_13475" x1="267.528" y1="605.073" x2="936.497" y2="198.52" gradientUnits="userSpaceOnUse">
<stop stop-color="#FD9345"/>
<stop offset="1" stop-color="#FD7627"/>
</linearGradient>
<linearGradient id="paint8_linear_789_13475" x1="657.309" y1="128.642" x2="504.969" y2="276.12" gradientUnits="userSpaceOnUse">
<stop stop-color="#636363"/>
<stop offset="1" stop-color="#313131"/>
</linearGradient>
</defs>
</svg>
