<svg width="96" height="96" viewBox="0 0 96 96" fill="none" xmlns="http://www.w3.org/2000/svg">
<path d="M20 60H40M20 48H40M20 36H40M52 48L60 56L76 40M13.6 16H82.4C84.9461 16 87.3879 17.0114 89.1882 18.8118C90.9886 20.6121 92 23.0539 92 25.6V70.4C92 72.9461 90.9886 75.3879 89.1882 77.1882C87.3879 78.9886 84.9461 80 82.4 80H13.6C11.0539 80 8.61212 78.9886 6.81177 77.1882C5.01143 75.3879 4 72.9461 4 70.4V25.6C4 23.0539 5.01143 20.6121 6.81177 18.8118C8.61212 17.0114 11.0539 16 13.6 16Z" stroke="#4C4C4C" stroke-width="4" stroke-linecap="round" stroke-linejoin="round"/>
</svg>
