<svg width="96" height="96" viewBox="0 0 96 96" fill="none" xmlns="http://www.w3.org/2000/svg">
<path d="M16.5 81.7888H79.5C87.8965 81.7888 92.1171 77.6522 92.1171 69.3757V26.666C92.1171 18.3894 87.8965 14.21 79.5 14.21H16.5C8.10338 14.21 3.88281 18.3894 3.88281 26.666V69.3757C3.88281 77.6522 8.10167 81.7888 16.5 81.7888ZM10.3525 27.0294C10.3525 22.85 12.6034 20.6814 16.62 20.6814H79.4194C83.3965 20.6814 85.6474 22.85 85.6474 27.0294V30.4031H10.3525V27.0294ZM16.62 75.3242C12.6017 75.3242 10.3525 73.1934 10.3525 69.0157V39.5231H85.6474V69.014C85.6474 73.1917 83.3965 75.3225 79.4194 75.3225L16.62 75.3242ZM21.24 63.4288H31.0851C33.456 63.4288 35.0228 61.862 35.0228 59.5717V52.1385C35.0228 49.8894 33.456 48.2814 31.0851 48.2814H21.24C18.8691 48.2814 17.3022 49.8894 17.3022 52.1385V59.5717C17.3022 61.862 18.8691 63.4288 21.24 63.4288Z" fill="#4C4C4C"/>
</svg>
