<svg width="23" height="22" viewBox="0 0 23 22" fill="none" xmlns="http://www.w3.org/2000/svg">
<g opacity="0.65">
<path fill-rule="evenodd" clip-rule="evenodd" d="M11.5 18.5625C15.6766 18.5625 19.0625 15.1766 19.0625 11C19.0625 6.82334 15.6766 3.4375 11.5 3.4375C7.32334 3.4375 3.9375 6.82334 3.9375 11C3.9375 15.1766 7.32334 18.5625 11.5 18.5625ZM11.5 20.625C16.8157 20.625 21.125 16.3157 21.125 11C21.125 5.68426 16.8157 1.375 11.5 1.375C6.18426 1.375 1.875 5.68426 1.875 11C1.875 16.3157 6.18426 20.625 11.5 20.625ZM9.35528 6.24171C9.94645 5.75611 10.7222 5.46546 11.5 5.46546C13.1736 5.46546 14.7167 6.59336 14.7167 8.409C14.7167 8.92624 14.6095 9.43266 14.3078 9.92185C14.0213 10.3865 13.6023 10.7646 13.1048 11.1132C12.8057 11.3227 12.6569 11.4663 12.5839 11.5642C12.5312 11.6348 12.5312 11.661 12.5313 11.686V11.6872C12.5313 12.2567 12.0695 12.7185 11.5 12.7185C10.9305 12.7185 10.4688 12.2567 10.4688 11.6872C10.4688 10.5945 11.2163 9.9179 11.9214 9.42397C12.306 9.15451 12.4732 8.9675 12.5523 8.83924C12.6163 8.73548 12.6542 8.62111 12.6542 8.409C12.6542 7.9976 12.3192 7.52796 11.5 7.52796C11.218 7.52796 10.901 7.6411 10.6644 7.83546C10.4342 8.02457 10.3458 8.22978 10.3458 8.409C10.3458 8.97854 9.88408 9.44025 9.31454 9.44025C8.74499 9.44025 8.28329 8.97854 8.28329 8.409C8.28329 7.48351 8.75771 6.73257 9.35528 6.24171ZM11.5 16.5C12.2594 16.5 12.875 15.8844 12.875 15.125C12.875 14.3656 12.2594 13.75 11.5 13.75C10.7406 13.75 10.125 14.3656 10.125 15.125C10.125 15.8844 10.7406 16.5 11.5 16.5Z" fill="black"/>
</g>
</svg>
