<svg width="832" height="981" viewBox="0 0 832 981" fill="none" xmlns="http://www.w3.org/2000/svg">
<g opacity="0.3">
<path d="M195.28 233.113C198.362 236.848 203.887 237.375 207.619 234.293C214.872 228.307 222.491 222.544 230.268 217.17C234.202 214.451 235.221 209.087 232.589 205.119C232.558 205.072 232.527 205.025 232.495 204.976C229.742 200.995 224.284 199.998 220.301 202.751C212.116 208.409 204.093 214.473 196.459 220.777C192.967 223.657 192.281 228.679 194.73 232.371C194.899 232.625 195.08 232.875 195.28 233.113ZM269.916 193.604C278.348 189.341 287.043 185.399 295.767 181.884C300.253 180.076 302.429 174.971 300.621 170.48C298.79 165.98 293.704 163.818 289.215 165.628C280.037 169.325 270.884 173.475 262.01 177.958C257.69 180.141 255.959 185.415 258.143 189.735C258.302 190.049 258.477 190.349 258.667 190.635C261.086 194.285 265.91 195.629 269.916 193.604ZM339.62 167.672C348.765 165.399 358.119 163.497 367.43 162.018C372.209 161.259 375.47 156.766 374.711 151.986C373.947 147.212 369.461 143.949 364.679 144.706C354.875 146.263 345.022 148.267 335.393 150.66C330.695 151.827 327.835 156.583 328.999 161.28C329.248 162.281 329.66 163.2 330.2 164.013C332.191 167.015 335.924 168.592 339.62 167.672ZM413.373 157.98C422.806 157.809 432.356 158.047 441.759 158.682C446.588 159.007 450.769 155.357 451.095 150.529C451.416 145.7 447.767 141.524 442.942 141.193C433.041 140.524 422.987 140.276 413.06 140.453C408.221 140.54 404.368 144.534 404.456 149.374C404.487 151.105 405.017 152.711 405.909 154.055C407.508 156.466 410.266 158.035 413.373 157.98ZM487.447 164.961C496.66 166.885 505.923 169.23 514.974 171.936C519.614 173.319 524.495 170.683 525.881 166.046C527.268 161.405 524.629 156.523 519.99 155.14C510.469 152.295 500.722 149.827 491.028 147.804C486.291 146.813 481.648 149.853 480.659 154.593C480.16 156.98 480.684 159.343 481.934 161.228C483.164 163.082 485.096 164.47 487.447 164.961ZM558.129 188.158C566.702 192.077 575.211 196.412 583.424 201.046C587.639 203.425 592.987 201.934 595.363 197.721C597.743 193.505 596.256 188.16 592.039 185.779C583.397 180.903 574.437 176.34 565.416 172.215C561.013 170.204 555.815 172.141 553.802 176.544C552.495 179.403 552.856 182.598 554.475 185.04C555.348 186.356 556.585 187.454 558.129 188.158ZM758.099 444.933C762.877 444.166 766.131 439.67 765.363 434.89C763.79 425.1 761.768 415.244 759.352 405.602C758.176 400.907 753.416 398.054 748.72 399.231C744.027 400.405 741.174 405.166 742.35 409.861C744.644 419.016 746.563 428.373 748.055 437.671C748.26 438.946 748.729 440.112 749.4 441.123C751.242 443.898 754.594 445.497 758.099 444.933ZM621.873 226.423C629.355 232.147 636.68 238.265 643.643 244.611C647.223 247.871 652.766 247.613 656.026 244.036C659.288 240.456 659.011 234.929 655.45 231.653C648.116 224.972 640.403 218.528 632.523 212.502C628.678 209.562 623.178 210.294 620.236 214.139C617.904 217.187 617.882 221.279 619.892 224.309C620.415 225.098 621.079 225.813 621.873 226.423ZM739.464 370.856C743.949 369.039 746.112 363.927 744.295 359.441C740.57 350.253 736.399 341.104 731.902 332.246C729.729 327.916 724.435 326.211 720.12 328.399C715.805 330.591 714.083 335.865 716.273 340.183C720.547 348.601 724.511 357.295 728.049 366.027C728.275 366.584 728.554 367.104 728.873 367.586C731.129 370.986 735.537 372.449 739.464 370.856ZM675.457 277.963C681.466 285.213 687.242 292.816 692.622 300.568C695.381 304.547 700.841 305.532 704.82 302.772C708.744 300.048 709.755 294.692 707.126 290.73C707.092 290.679 707.057 290.626 707.021 290.577C701.359 282.414 695.279 274.408 688.956 266.777C685.864 263.052 680.34 262.534 676.614 265.623C673.133 268.507 672.453 273.52 674.898 277.206C675.068 277.466 675.257 277.718 675.457 277.963Z" fill="#F5995C"/>
<path d="M753.621 502.523C752.667 501.085 752.125 499.352 752.166 497.494C752.267 492.976 752.271 488.382 752.188 483.836C752.097 478.997 755.947 474.999 760.785 474.909C765.625 474.816 769.629 478.666 769.711 483.509C769.802 488.29 769.794 493.122 769.691 497.877C769.585 502.715 765.575 506.554 760.738 506.447C757.754 506.382 755.154 504.833 753.621 502.523Z" fill="#F5995C"/>
</g>
<g opacity="0.3">
<path d="M643.916 746.158C641.577 742.634 642.075 737.835 645.285 734.876C648.607 731.815 651.922 728.632 655.134 725.416C658.556 721.992 664.106 721.989 667.529 725.41C670.966 728.846 670.955 734.383 667.534 737.805C664.151 741.19 660.661 744.542 657.163 747.767C653.604 751.046 648.06 750.82 644.779 747.261C644.457 746.913 644.17 746.542 643.916 746.158Z" fill="#F5995C"/>
<path d="M138.033 698.457C140.903 702.354 146.39 703.188 150.29 700.315C154.186 697.444 155.013 691.967 152.147 688.062C146.683 680.642 141.451 672.873 136.53 664.886C134.017 660.776 128.591 659.483 124.47 662.022C120.349 664.561 119.067 669.96 121.604 674.082C123.735 677.542 125.916 680.954 128.146 684.314C131.326 689.108 134.651 693.867 138.033 698.457ZM110.93 636.28C115.354 634.323 117.356 629.147 115.398 624.721C111.641 616.222 108.2 607.474 105.176 598.716C103.612 594.141 98.607 591.712 94.0306 593.292C89.4579 594.871 87.0297 599.861 88.6092 604.435C91.7929 613.656 95.4136 622.866 99.3698 631.809C99.5755 632.273 99.8155 632.711 100.086 633.119C102.404 636.612 106.965 638.032 110.93 636.28ZM168.92 734.883C175.72 741.871 182.913 748.664 190.302 755.07C193.959 758.241 199.494 757.847 202.667 754.19C205.838 750.533 205.439 745.004 201.787 741.826C194.769 735.743 187.939 729.294 181.483 722.657C178.106 719.19 172.558 719.113 169.088 722.49C166.019 725.476 165.608 730.163 167.892 733.606C168.189 734.055 168.531 734.483 168.92 734.883ZM86.4456 565.212C91.1927 564.275 94.2849 559.664 93.3449 554.916C91.547 545.814 90.1178 536.526 89.0951 527.311C88.5629 522.496 84.2319 519.033 79.4179 519.567C74.6079 520.1 71.1412 524.432 71.6745 529.242C72.7514 538.947 74.257 548.728 76.1497 558.313C76.3798 559.47 76.8242 560.531 77.439 561.459C79.3438 564.33 82.8567 565.921 86.4456 565.212ZM228.422 783.784C236.588 789.101 245.097 794.143 253.712 798.769C257.976 801.06 263.287 799.461 265.578 795.199C267.871 790.933 266.269 785.62 262.006 783.33C253.823 778.933 245.74 774.145 237.987 769.095C233.93 766.454 228.499 767.601 225.859 771.658C223.891 774.68 224.027 778.465 225.901 781.288C226.542 782.256 227.388 783.111 228.422 783.784ZM297.206 818.449C306.359 821.861 315.763 824.926 325.156 827.56C329.818 828.865 334.654 826.148 335.962 821.487C337.269 816.819 334.55 811.984 329.888 810.683C320.964 808.18 312.027 805.268 303.328 802.026C298.792 800.335 293.745 802.642 292.053 807.178C291.037 809.912 291.47 812.83 292.967 815.088C293.955 816.578 295.405 817.779 297.206 818.449ZM371.913 837.302C381.597 838.64 391.446 839.584 401.182 840.109C406.017 840.369 410.144 836.662 410.405 831.829C410.666 826.989 406.957 822.866 402.126 822.606C392.873 822.109 383.518 821.21 374.313 819.938C369.519 819.276 365.094 822.626 364.433 827.419C364.128 829.622 364.669 831.744 365.808 833.462C367.15 835.485 369.321 836.943 371.913 837.302ZM448.953 839.409C458.694 838.598 468.514 837.36 478.139 835.731C482.911 834.923 486.126 830.399 485.318 825.626C484.51 820.862 479.984 817.642 475.212 818.45C466.074 819.997 456.751 821.172 447.496 821.942C442.673 822.344 439.089 826.579 439.491 831.402C439.619 832.926 440.127 834.324 440.917 835.514C442.627 838.09 445.651 839.683 448.953 839.409ZM524.612 824.528C533.913 821.597 543.21 818.229 552.25 814.517C556.728 812.677 558.869 807.556 557.028 803.078C555.194 798.615 550.071 796.462 545.593 798.3C537.005 801.828 528.174 805.026 519.34 807.812C514.725 809.266 512.162 814.189 513.617 818.804C513.871 819.608 514.228 820.35 514.672 821.019C516.777 824.192 520.799 825.729 524.612 824.528ZM595.084 793.429C601.303 789.83 607.488 785.993 613.465 782.029C615.63 780.593 617.771 779.137 619.893 777.661C623.866 774.899 624.96 769.434 622.084 765.464C619.323 761.489 613.862 760.507 609.886 763.27C607.87 764.671 605.832 766.058 603.775 767.423C598.092 771.193 592.216 774.839 586.303 778.261C582.114 780.685 580.685 786.047 583.11 790.236C583.201 790.392 583.295 790.548 583.395 790.697C585.936 794.527 591.054 795.764 595.084 793.429Z" fill="#F5995C"/>
<path d="M71.1477 486.356C70.1846 484.904 69.6433 483.154 69.6921 481.283C69.8193 476.54 70.0504 471.709 70.3771 466.927C70.706 462.097 74.8882 458.448 79.7161 458.779C84.5456 459.11 88.1943 463.286 87.8637 468.119C87.5537 472.663 87.3362 477.251 87.2135 481.754C87.0858 486.591 83.0584 490.408 78.2184 490.279C75.2526 490.197 72.6711 488.652 71.1477 486.356Z" fill="#F5995C"/>
</g>
</svg>
