<svg width="84" height="66" viewBox="0 0 84 66" fill="none" xmlns="http://www.w3.org/2000/svg">
<mask id="mask0_782_11232" style="mask-type:luminance" maskUnits="userSpaceOnUse" x="0" y="0" width="84" height="66">
<path d="M83.5929 0.515625H0.474609V65.3885H83.5929V0.515625Z" fill="white"/>
</mask>
<g mask="url(#mask0_782_11232)">
<path d="M28.9195 8.98589C31.2442 8.98589 33.2354 8.12993 34.8842 6.49009C36.5331 4.84124 37.38 2.85901 37.38 0.525391H8.98917C6.65555 0.525391 4.61926 1.31828 2.97041 2.96713C1.32156 4.60697 0.474609 6.66128 0.474609 8.98589H28.9195Z" fill="#FF6700"/>
<path d="M55.1382 8.98589C52.8046 8.98589 50.8224 8.12993 49.1735 6.49009C47.5247 4.84124 46.6777 2.85901 46.6777 0.525391H75.0686C77.4022 0.525391 79.4385 1.31828 81.0874 2.96713C82.7362 4.61598 83.5832 6.66128 83.5832 8.98589H55.1382Z" fill="#FF6700"/>
<path d="M37.38 49.7303V30.8722C37.38 27.6916 36.2448 24.9615 33.9742 22.691C31.7577 20.4204 29.0367 19.2852 25.802 19.2852H11.6652C9.33155 19.2852 7.29527 20.1411 5.64642 21.781C3.99756 23.4298 3.20467 25.4751 3.20467 27.7997H25.0632C26.1444 27.7997 27.0545 28.1962 27.7843 28.935C28.5231 29.6738 28.9195 30.5838 28.9195 31.6651V41.2068H8.98917C6.65555 41.2068 4.61926 42.0627 2.97041 43.7026C1.32156 45.3514 0.474609 47.3967 0.474609 49.7213L37.38 49.7303Z" fill="#FF6700"/>
<path d="M46.6777 49.7303V30.8722C46.6777 27.6916 47.813 24.9615 50.0836 22.691C52.3 20.4204 55.0211 19.2852 58.2557 19.2852H72.3926C74.7262 19.2852 76.7625 20.1411 78.4114 21.781C80.0602 23.4298 80.8531 25.4751 80.8531 27.7997H59.0036C57.9224 27.7997 57.0123 28.1962 56.2825 28.935C55.5437 29.6738 55.1472 30.5838 55.1472 31.6651V41.2068H75.0776C77.4112 41.2068 79.4475 42.0627 81.0964 43.7026C82.7452 45.3514 83.5922 47.3967 83.5922 49.7213L46.6777 49.7303Z" fill="#FF6700"/>
<path d="M15.8172 54.8477H68.2381C70.5897 54.8477 72.4909 56.7578 72.4909 59.1004H11.5645C11.5645 56.7578 13.4746 54.8477 15.8172 54.8477Z" fill="white"/>
<path d="M4.72738 61.127H79.3311C81.6828 61.127 83.5839 63.0371 83.5839 65.3797H0.474609C0.474609 63.0371 2.38475 61.127 4.72738 61.127Z" fill="white"/>
</g>
</svg>
