<svg width="622" height="710" viewBox="0 0 622 710" fill="none" xmlns="http://www.w3.org/2000/svg">
<path d="M473.8 474.399C473.8 474.399 437.069 377.094 376.719 366.05C316.37 355.006 215.049 366.982 155.06 229.413C119.94 148.874 103.244 114.059 95.4361 99.0345C92.3907 93.1738 96.4176 86.5174 103.546 85.6582C153.968 79.5795 320.572 66.7151 390.731 150.548C473.905 249.933 473.8 474.399 473.8 474.399Z" fill="#FDE6D8"/>
<path opacity="0.25" d="M156.25 113.626C224.594 139.437 313.88 194.534 375.29 257.919C384.251 268.71 406.569 290.689 430.184 334.508C450.187 370.963 464.123 411.625 469.255 439.759C469.579 441.538 468.221 443.173 466.22 443.412C462.781 443.823 461.952 440.602 462.02 440.691C450.07 393.57 424.546 338.087 389.216 291.683C345.104 234.92 278.652 186.93 214.49 148.546L207.98 144.824C158.748 116.261 151.564 118.078 153.611 114.458C154.094 113.603 155.253 113.252 156.25 113.626Z" fill="white"/>
<path d="M615.944 585.354C625.185 586.329 504.615 520.369 417.699 384.787C376.742 320.897 340.339 236.193 283.174 217.019C235.597 201.062 120.598 256.421 83.3574 275.442C78.704 277.818 79.4303 283.98 84.5717 285.682C109.918 294.069 165.489 315.169 190.809 346.015C224.183 386.672 284.465 400.337 330.776 394.67C377.087 389.002 404.223 389.062 451.399 443.856C498.575 498.65 589.687 582.586 615.944 585.354Z" fill="url(#paint0_linear_782_11403)"/>
<path opacity="0.25" d="M148.424 277.663C200.415 263.604 264.251 267.272 308.833 297.609L313.058 300.513C322.873 307.351 383.884 358.693 425.039 404.193C425.551 404.761 425.458 405.575 424.829 406.012C423.761 406.754 422.636 405.746 422.798 405.816C397.028 380.898 362.111 350.007 335.069 327.197C305.847 302.217 285.688 285.416 240.049 277.538C189.552 269.475 148.976 279.685 149.104 279.67C148.475 279.804 147.829 279.459 147.66 278.9C147.497 278.363 147.838 277.822 148.424 277.663Z" fill="white"/>
<defs>
<linearGradient id="paint0_linear_782_11403" x1="95" y1="264" x2="445.821" y2="497.785" gradientUnits="userSpaceOnUse">
<stop stop-color="#FDBF95"/>
<stop offset="1" stop-color="#F3AC7C" stop-opacity="0"/>
</linearGradient>
</defs>
</svg>
