<svg width="768" height="736" viewBox="0 0 768 736" fill="none" xmlns="http://www.w3.org/2000/svg">
<path d="M713.318 144.536C710.652 139.951 707.878 135.456 704.997 131.05C666.446 72.4848 602.193 32.3909 539.899 14.2377C512.72 6.39604 484.733 1.93472 456.531 0.949758C272.848 -5.85892 205.381 150.731 146.204 191.091C87.0284 231.45 -3.79449 300.427 7.69144 445.292C16.3332 555.444 76.9406 660.763 187.599 708.68C200.1 714.105 212.93 718.682 226.008 722.382C252.494 729.813 279.705 734.142 307.126 735.287C390.8 739.139 458.749 718.28 525.202 665.762C540.654 653.553 556.026 639.785 576.074 638.274C590.643 637.176 604.458 642.591 589.23 657.157C571.32 674.266 591.977 707.932 637.42 684.546C713.318 645.482 744.545 561.207 759.259 475.521C777.251 370.335 768.495 239.606 713.318 144.536Z" fill="url(#paint0_linear_789_12136)"/>
<path d="M14.8777 114.958C15.1256 115.841 15.394 116.714 15.6828 117.575C19.5628 129.038 28.2293 138.379 37.424 143.92C41.4386 146.324 45.7108 148.186 50.15 149.466C79.0486 157.873 95.7475 133.957 106.685 129.443C117.623 124.928 134.679 116.806 138.396 91.7636C141.237 72.7258 135.643 52.4571 119.909 39.9556C118.132 38.5413 116.271 37.258 114.336 36.1137C110.416 33.8069 106.262 31.998 101.953 30.7211C88.8171 26.7642 77.2328 27.6226 64.675 33.9134C61.7551 35.3757 58.7882 37.1058 55.548 36.5709C53.1932 36.1821 51.2072 34.7176 54.1816 32.8464C57.6791 30.6495 55.6876 24.1198 47.5792 26.2953C34.0367 29.9298 25.8563 43.0015 20.2435 56.9645C13.3645 74.1081 9.75457 96.643 14.8777 114.958Z" fill="#FF6700"/>
<path d="M14.8777 114.958C15.1256 115.841 15.394 116.714 15.6828 117.575C19.5628 129.038 28.2293 138.379 37.424 143.92C41.4386 146.324 45.7108 148.186 50.15 149.466C79.0486 157.873 95.7475 133.957 106.685 129.443C117.623 124.928 134.679 116.806 138.396 91.7636C141.237 72.7258 135.643 52.4571 119.909 39.9556C118.132 38.5413 116.271 37.258 114.336 36.1137C110.416 33.8069 106.262 31.998 101.953 30.7211C88.8171 26.7642 77.2328 27.6226 64.675 33.9134C61.7551 35.3757 58.7882 37.1058 55.548 36.5709C53.1932 36.1821 51.2072 34.7176 54.1816 32.8464C57.6791 30.6495 55.6876 24.1198 47.5792 26.2953C34.0367 29.9298 25.8563 43.0015 20.2435 56.9645C13.3645 74.1081 9.75457 96.643 14.8777 114.958Z" fill="white" fill-opacity="0.7"/>
<defs>
<linearGradient id="paint0_linear_789_12136" x1="792.148" y1="783.092" x2="231.062" y2="150.216" gradientUnits="userSpaceOnUse">
<stop stop-color="#FB944E"/>
<stop offset="1" stop-color="#FDF2E9"/>
</linearGradient>
</defs>
</svg>
