<svg width="383" height="663" viewBox="0 0 383 663" fill="none" xmlns="http://www.w3.org/2000/svg">
<path d="M289.867 448.746C289.867 448.746 277.918 352.687 230.1 333.66C182.281 314.633 96.2189 311.149 72.661 174.177C58.8688 93.987 51.6544 59.1039 48.0427 43.9633C46.634 38.0571 51.2251 32.432 57.2828 32.6613C100.135 34.2844 240.355 46.381 282.501 134.71C332.465 239.424 289.867 448.746 289.867 448.746Z" fill="#FFA275"/>
<path opacity="0.5" d="M95.1899 66.0706C147.024 100.096 210.687 164.518 249.64 232.64C255.032 244.021 269.389 267.791 280.682 312.153C290.372 349.111 294.23 389.119 293.155 416.147C293.087 417.855 291.649 419.186 289.943 419.119C287.01 419.004 286.933 415.875 286.973 415.968C285.989 370.214 275.323 314.679 254.797 266.203C228.946 206.777 182.888 152.305 136.91 107.141L132.212 102.719C96.7629 68.8943 90.4559 69.5502 92.8415 66.4651C93.4053 65.736 94.4332 65.5764 95.1899 66.0706Z" fill="white"/>
<path d="M381.665 509.89C388.332 510.988 304.523 452.771 249.369 338.23C223.379 284.256 201.947 213.267 161.488 195.64C127.816 180.969 40.8101 222.944 12.57 237.438C9.04116 239.249 9.20152 244.352 12.8416 245.919C30.7876 253.64 69.9716 272.805 86.5558 299.04C108.415 333.62 151.472 346.806 185.516 343.609C219.56 340.412 239.306 341.326 270.366 388C301.425 434.674 362.72 506.772 381.665 509.89Z" fill="#FBD6C0"/>
<path opacity="0.5" d="M59.3687 240.664C97.968 230.745 144.112 235.795 174.679 262.186L177.575 264.711C184.295 270.652 225.541 314.857 252.714 353.621C253.052 354.104 252.936 354.772 252.453 355.112C251.633 355.689 250.875 354.823 250.989 354.886C233.76 333.554 210.245 307.014 191.967 287.377C172.236 265.885 158.598 251.412 125.921 243.477C89.7277 235.233 59.6487 242.347 59.7427 242.339C59.2782 242.429 58.8286 242.125 58.7394 241.659C58.6536 241.211 58.934 240.777 59.3687 240.664Z" fill="white"/>
<path d="M367.809 603.273C372.776 604.788 332.992 558.948 322.013 513.929C311.035 468.91 285.977 393.29 237.975 354.408C189.972 315.526 146.303 319.54 100.356 372.129C62.0667 415.953 37.3826 439.102 21.5491 445.569C17.6285 447.17 16.4282 452.181 19.1111 455.458C33.3909 472.904 71.7899 511.9 121.316 499.103C184.489 482.778 254.028 426.229 284.28 456.416C314.531 486.603 315.21 506.621 319.079 522.941C322.948 539.262 334.936 593.25 367.809 603.273Z" fill="#FF9964"/>
<path opacity="0.5" d="M129.122 424.366C145.116 401.789 173.485 377.167 202.021 375.248C239.411 374.119 268.207 393.731 288.285 427.31C296.366 441.653 300.049 449.431 306.685 467.642C307.215 469.096 305.09 469.97 304.442 468.575C300.539 460.173 296.578 451.35 291.468 442.421C260.568 384.413 218.17 383.958 216.341 383.001C213.314 383.9 191.93 373.475 152.116 405.938C144.692 412.051 137.609 418.762 131.121 425.908L131.086 425.948C130.616 426.465 129.818 426.504 129.302 426.033C128.824 425.599 128.757 424.88 129.122 424.366Z" fill="white"/>
</svg>
