<svg width="497" height="445" viewBox="0 0 497 445" fill="none" xmlns="http://www.w3.org/2000/svg">
<path d="M77.8362 195.755C98.5994 191.284 169.418 178.162 243.573 188.805C268.409 192.369 290.394 206.832 303.798 228.09C327.95 266.395 362.112 334.678 354.888 405.894L316.982 415.289C316.982 415.289 290.785 330.795 261.3 296.407C261.3 296.407 226.381 376.19 228.146 420.003C228.196 421.241 228.275 422.451 228.385 423.629C232.393 466.493 60.7633 431.628 60.7633 431.628L71.4541 203.31C71.6264 199.63 74.2424 196.529 77.8362 195.755Z" fill="url(#paint0_linear_789_12344)"/>
<path d="M136.887 115.574L131.897 174.891C131.432 180.41 134.271 185.571 138.999 187.781C149.891 192.87 170.805 200.172 193.17 194.813C197.263 193.832 199.93 189.546 199.255 185.171L184.75 91.1504L136.887 115.574Z" fill="url(#paint1_linear_789_12344)"/>
<path d="M203.483 43.6836C203.483 43.6836 214.749 87.5128 212.516 109.213C210.283 130.913 212.682 145.61 187.181 145.968C161.68 146.326 142.753 130.59 134.845 107.351C134.845 107.351 122.366 71.4966 128.5 58.6138C134.635 45.7309 203.483 43.6836 203.483 43.6836Z" fill="url(#paint2_linear_789_12344)"/>
<path d="M145.777 93.304L148.913 93.8063C148.913 93.8063 140.224 65.166 152.324 62.3163C164.423 59.4667 210.869 57.4753 223.123 43.0314C234.937 29.1069 229.769 7.84863 218.174 0.274432C217.44 -0.204844 216.45 0.0185354 215.923 0.720206L214.577 2.51587C213.655 3.74555 211.708 3.22504 211.519 1.69851C211.34 0.250436 209.527 -0.350047 208.572 0.751686C204.839 5.06016 195.555 11.5514 173.344 12.0879C141.828 12.8485 119.611 22.0267 115.733 43.1541C115.487 44.4924 113.937 45.0037 112.903 44.1208C110.863 42.3782 107.35 41.1512 101.867 44.4512C92.3323 50.19 92.8424 69.1191 108.86 87.1879C109.621 88.0465 109.396 89.4158 108.349 89.8829C104.661 91.5279 98.8553 95.9173 110.657 104.897C122.729 114.084 130.663 114.563 133.732 114.279C134.558 114.203 135.206 113.564 135.286 112.736L137.123 93.7571C137.218 92.7755 138.119 92.0776 139.091 92.233L145.777 93.304Z" fill="url(#paint3_linear_789_12344)"/>
<path d="M145.922 97.3595C145.922 97.3595 143.305 70.0952 130.426 75.5599C117.548 81.0244 131.827 105.863 141.084 108.35L145.922 97.3595Z" fill="url(#paint4_linear_789_12344)"/>
<path d="M72.2606 363.503C68.5596 337.306 95.6239 298.798 106.819 284.186C110.021 280.006 111.811 274.896 111.857 269.626C112.185 232.525 99.653 213.144 74.7525 197.145C74.7525 197.145 -18.634 298.24 4.37807 379.419C6.86101 388.18 10.7091 395.707 15.5882 402.174C19.2146 371.587 54.4856 364.914 72.2606 363.503Z" fill="url(#paint5_linear_789_12344)"/>
<path d="M73.9437 353.367L70.5003 352.973C73.419 327.283 95.9088 295.568 105.442 283.125L108.191 285.241C98.8343 297.455 76.766 328.542 73.9437 353.367Z" fill="url(#paint6_linear_789_12344)"/>
<path d="M72.9687 367.13C72.6529 365.953 72.4338 364.736 72.2595 363.502C54.4845 364.913 19.2136 371.586 15.5871 402.174C55.9187 455.642 167.086 436.352 167.086 436.352V415.546C167.086 415.546 81.7089 399.647 72.9687 367.13Z" fill="url(#paint7_linear_789_12344)"/>
<path d="M156.399 430.605C156.399 430.605 172.813 391.782 201.735 405.553C230.657 419.324 228.384 428.335 228.384 428.335L156.399 430.605Z" fill="url(#paint8_linear_789_12344)"/>
<path d="M152.713 438.662C152.943 441.6 155.44 443.835 158.377 443.732L308.25 438.491C310.58 438.41 312.604 436.863 313.299 434.633L317.649 420.68C318.718 417.252 316.278 413.733 312.7 413.543L258.047 410.633C257.551 410.606 257.053 410.647 256.568 410.755L156.999 432.859C154.327 433.453 152.499 435.928 152.713 438.662Z" fill="url(#paint9_linear_789_12344)"/>
<path d="M253.174 433.18L257.298 413.918L313.438 416.603L309.744 432.585L253.174 433.18Z" fill="url(#paint10_linear_789_12344)"/>
<path d="M224.395 225.382C221.218 251.405 206.925 357.137 202.834 387.346C202.258 391.595 205.625 395.331 209.9 395.209L452.368 388.254C455.541 388.163 458.246 385.923 458.934 382.817L496.652 212.552C497.649 208.05 494.075 203.842 489.482 204.112L230.867 219.295C227.524 219.491 224.802 222.049 224.395 225.382Z" fill="url(#paint11_linear_789_12344)"/>
<path d="M321.857 332.628L286.022 434.581L369.348 436.351L376.286 333.24C376.611 328.402 372.608 324.384 367.781 324.706L328.867 327.296C325.677 327.508 322.919 329.605 321.857 332.628Z" fill="url(#paint12_linear_789_12344)"/>
<path d="M252.243 436.031C251.325 438.836 253.41 441.722 256.355 441.722H386.848C389.238 441.722 391.176 439.78 391.176 437.384V431.774C391.176 429.305 389.123 427.334 386.663 427.44L256.17 433.05C254.369 433.127 252.805 434.315 252.243 436.031Z" fill="url(#paint13_linear_789_12344)"/>
<path d="M187.145 124.459C157.928 132.135 135.103 104.586 134.876 104.306L136.661 102.848C136.879 103.115 158.789 129.523 186.561 122.226L187.145 124.459Z" fill="url(#paint14_linear_789_12344)"/>
<path d="M194.525 120.545C195.137 122.22 194.278 124.075 192.607 124.689L187.009 126.743C185.337 127.356 183.487 126.495 182.875 124.82L182.532 123.879C181.92 122.204 182.779 120.349 184.45 119.736L190.048 117.682C191.719 117.069 193.57 117.93 194.182 119.605L194.525 120.545Z" fill="url(#paint15_linear_789_12344)"/>
<path d="M130.328 70.2375C130.328 70.2375 132.375 20.8382 160.98 10.5553C160.98 10.5553 152.019 8.3163 144.057 14.244C136.094 20.1717 118.043 47.5909 123.183 72.8588C129.474 73.6711 130.328 70.2375 130.328 70.2375Z" fill="url(#paint16_linear_789_12344)"/>
<path d="M124.786 68.2914C109.104 74.591 114.874 94.869 114.874 94.869C116.435 110.066 122.152 116.693 128.388 119.207C132.649 120.924 137.497 120.267 141.157 117.488C144.817 114.709 146.756 110.21 146.265 105.633C145.821 101.501 145.458 97.5617 145.509 96.1299C145.632 92.6608 140.467 61.9916 124.786 68.2914Z" fill="url(#paint17_linear_789_12344)"/>
<path d="M127.237 73.2249C123.749 73.2557 120.743 75.6683 119.96 79.0757C114.351 103.463 128.985 115.974 134.909 115.205C141.151 114.394 135.583 84.5966 132.875 77.1923C131.74 74.0895 129.48 73.2052 127.237 73.2249Z" fill="url(#paint18_linear_789_12344)"/>
<path d="M220.839 333.429L218.909 333.185L230.82 239.011C231.567 233.117 236.4 228.583 242.312 228.225L465.796 214.695L465.914 216.642L242.43 230.171C237.449 230.472 233.379 234.292 232.75 239.255L220.839 333.429Z" fill="#C8C8C8"/>
<path d="M215.484 360.032L217.414 360.275L214.851 380.666L212.921 380.422L215.484 360.032Z" fill="#A8A8A8"/>
<defs>
<linearGradient id="paint0_linear_789_12344" x1="4767.23" y1="5071.43" x2="4556.89" y2="4854.88" gradientUnits="userSpaceOnUse">
<stop stop-color="#393939"/>
<stop offset="1" stop-color="#282828"/>
</linearGradient>
<linearGradient id="paint1_linear_789_12344" x1="139.84" y1="271.793" x2="174.999" y2="123.052" gradientUnits="userSpaceOnUse">
<stop stop-color="#FEBBBA"/>
<stop offset="1" stop-color="#FF928E"/>
</linearGradient>
<linearGradient id="paint2_linear_789_12344" x1="145.076" y1="104.352" x2="208.719" y2="87.7304" gradientUnits="userSpaceOnUse">
<stop stop-color="#FEBBBA"/>
<stop offset="1" stop-color="#FF928E"/>
</linearGradient>
<linearGradient id="paint3_linear_789_12344" x1="85.2625" y1="134.507" x2="205.469" y2="-6.80931" gradientUnits="userSpaceOnUse">
<stop stop-color="#262626"/>
<stop offset="1" stop-color="#525252"/>
</linearGradient>
<linearGradient id="paint4_linear_789_12344" x1="141.434" y1="90.409" x2="205.079" y2="73.7867" gradientUnits="userSpaceOnUse">
<stop stop-color="#FEBBBA"/>
<stop offset="1" stop-color="#FF928E"/>
</linearGradient>
<linearGradient id="paint5_linear_789_12344" x1="4538.14" y1="4945.37" x2="4335.68" y2="4736.92" gradientUnits="userSpaceOnUse">
<stop stop-color="#434343"/>
<stop offset="1" stop-color="#232323"/>
</linearGradient>
<linearGradient id="paint6_linear_789_12344" x1="-223.464" y1="-5.83021" x2="382.462" y2="620.613" gradientUnits="userSpaceOnUse">
<stop stop-color="#4E4E4E"/>
<stop offset="1" stop-color="#7A7A7A"/>
</linearGradient>
<linearGradient id="paint7_linear_789_12344" x1="62.7561" y1="333.47" x2="128.908" y2="507.141" gradientUnits="userSpaceOnUse">
<stop stop-color="#FEBBBA"/>
<stop offset="1" stop-color="#FF928E"/>
</linearGradient>
<linearGradient id="paint8_linear_789_12344" x1="144.493" y1="302.333" x2="210.644" y2="476.004" gradientUnits="userSpaceOnUse">
<stop stop-color="#FEBBBA"/>
<stop offset="1" stop-color="#FF928E"/>
</linearGradient>
<linearGradient id="paint9_linear_789_12344" x1="287.471" y1="365.438" x2="253.276" y2="409.382" gradientUnits="userSpaceOnUse">
<stop stop-color="#656565"/>
<stop offset="1" stop-color="#393939"/>
</linearGradient>
<linearGradient id="paint10_linear_789_12344" x1="312.944" y1="385.26" x2="278.749" y2="429.204" gradientUnits="userSpaceOnUse">
<stop stop-color="#444444"/>
<stop offset="1" stop-color="#292929"/>
</linearGradient>
<linearGradient id="paint11_linear_789_12344" x1="342.933" y1="303.029" x2="620.183" y2="134.374" gradientUnits="userSpaceOnUse">
<stop stop-color="#484848"/>
<stop offset="1" stop-color="#0E0E0E"/>
</linearGradient>
<linearGradient id="paint12_linear_789_12344" x1="350.705" y1="425.2" x2="299.855" y2="315.285" gradientUnits="userSpaceOnUse">
<stop stop-color="#3B3B3B"/>
<stop offset="1" stop-color="#5B5B5B"/>
</linearGradient>
<linearGradient id="paint13_linear_789_12344" x1="318.014" y1="413.299" x2="275.61" y2="162.859" gradientUnits="userSpaceOnUse">
<stop stop-color="#363636"/>
<stop offset="1" stop-color="#505050"/>
</linearGradient>
<linearGradient id="paint14_linear_789_12344" x1="140.706" y1="142.642" x2="172.784" y2="98.2074" gradientUnits="userSpaceOnUse">
<stop stop-color="#464646"/>
<stop offset="1" stop-color="#2A2A2A"/>
</linearGradient>
<linearGradient id="paint15_linear_789_12344" x1="194.723" y1="122.212" x2="182.334" y2="122.212" gradientUnits="userSpaceOnUse">
<stop stop-color="#424242"/>
<stop offset="1" stop-color="#232323"/>
</linearGradient>
<linearGradient id="paint16_linear_789_12344" x1="237.235" y1="-14.062" x2="-45.8661" y2="145.623" gradientUnits="userSpaceOnUse">
<stop stop-color="#484848"/>
<stop offset="1"/>
</linearGradient>
<linearGradient id="paint17_linear_789_12344" x1="81.9044" y1="9.35" x2="104.779" y2="49.4978" gradientUnits="userSpaceOnUse">
<stop stop-color="#292929"/>
<stop offset="1" stop-color="#292929"/>
</linearGradient>
<linearGradient id="paint18_linear_789_12344" x1="130.565" y1="94.2913" x2="57.3961" y2="31.8442" gradientUnits="userSpaceOnUse">
<stop stop-color="#515151"/>
<stop offset="1" stop-color="#494949"/>
</linearGradient>
</defs>
</svg>
