<svg width="121" height="24" viewBox="0 0 121 24" fill="none" xmlns="http://www.w3.org/2000/svg">
<path d="M1.00164 0.398438H10.5794V2.26353H3.101V7.55247C3.38932 7.49841 3.74072 7.45336 4.15518 7.3993C4.57866 7.34524 4.9751 7.32722 5.36254 7.32722C6.2185 7.32722 7.02941 7.40831 7.80428 7.57049C8.57915 7.73268 9.25491 8.00298 9.84056 8.39041C10.4262 8.77785 10.8947 9.30043 11.2371 9.96718C11.5795 10.6339 11.7507 11.4629 11.7507 12.472C11.7507 13.4811 11.5705 14.3461 11.2191 15.0759C10.8677 15.8057 10.3992 16.4004 9.80452 16.8689C9.21887 17.3284 8.5341 17.6708 7.75022 17.9051C6.96634 18.1303 6.14642 18.2475 5.29045 18.2475C5.00213 18.2475 4.67777 18.2475 4.31736 18.2385C3.95696 18.2295 3.57853 18.2114 3.18209 18.1754C2.78564 18.1394 2.39821 18.1033 2.01978 18.0583C1.64136 18.0132 1.28996 17.9501 0.974609 17.8691V0.398438H1.00164ZM5.56076 16.4184C6.10137 16.4184 6.60593 16.3463 7.10149 16.1932C7.58804 16.04 8.01151 15.8238 8.37192 15.5264C8.73232 15.2291 9.02064 14.8597 9.22788 14.4092C9.43511 13.9587 9.54323 13.4271 9.54323 12.8234C9.54323 12.0485 9.41709 11.4268 9.17382 10.9493C8.93054 10.4718 8.60618 10.0933 8.20072 9.83203C7.79527 9.56173 7.33575 9.38153 6.80416 9.29142C6.27256 9.20132 5.72294 9.15627 5.1553 9.15627C5.00213 9.15627 4.83094 9.16528 4.62371 9.1833C4.42548 9.20132 4.21825 9.21935 4.02003 9.23737C3.82181 9.25539 3.63259 9.2734 3.4614 9.30043C3.29021 9.32746 3.16407 9.34548 3.08298 9.3635V16.2923C3.20011 16.3283 3.35328 16.3554 3.5515 16.3644C3.74072 16.3824 3.95696 16.4004 4.18221 16.4184C4.40746 16.4364 4.64173 16.4455 4.87599 16.4455C5.11926 16.4184 5.34452 16.4184 5.56076 16.4184Z" fill="white"/>
<path d="M21.7897 10.5784L21.8617 9.01962H21.7897L20.7535 10.6324L15.0861 18.0387H13.9238V5.43359H15.9421V13.1192L15.87 14.6059H15.9691L16.9512 13.0471L22.6186 5.4426H23.7989V18.0297H21.7807L21.7897 10.5784Z" fill="white"/>
<path d="M38.0901 21.2283H36.7296L36.3512 18.0297H26.8815L26.5031 21.2283H25.1426V16.2638H26.6292C26.7644 16.0836 26.9356 15.7502 27.1608 15.2726C27.3771 14.7951 27.5933 14.1193 27.8006 13.2544C28.0078 12.3894 28.197 11.3172 28.3592 10.0288C28.5214 8.74031 28.6115 7.20859 28.6475 5.43359H36.2521V16.2638H38.0901V21.2283ZM34.2338 16.2728V7.19957H30.4585C30.4225 7.90236 30.3684 8.67724 30.2783 9.50617C30.1973 10.3351 30.0801 11.173 29.936 12.002C29.7918 12.8309 29.6116 13.6148 29.3954 14.3536C29.1791 15.0924 28.9268 15.7322 28.6385 16.2728H34.2338Z" fill="white"/>
<path d="M41.1848 7.70472H47.9604C47.9064 7.02896 47.7712 6.41627 47.546 5.84863C47.3207 5.29001 47.0144 4.80346 46.6269 4.39801C46.2395 3.99255 45.762 3.6772 45.1943 3.45195C44.6267 3.22669 43.978 3.10956 43.2572 3.10956C42.3471 3.10956 41.5633 3.20867 40.8875 3.39788C40.2117 3.58709 39.6711 3.80334 39.2477 4.0376L38.5178 1.11832C39.1035 0.811979 39.8423 0.559696 40.7343 0.352463C41.6263 0.145231 42.5093 0.0371094 43.3833 0.0371094C44.5456 0.0371094 45.6088 0.19929 46.5999 0.514644C47.582 0.829999 48.429 1.3616 49.1408 2.09141C49.8526 2.82123 50.4112 3.7673 50.8166 4.93862C51.2221 6.10993 51.4203 7.53353 51.4203 9.20941C51.4203 10.9574 51.1861 12.417 50.7175 13.5973C50.249 14.7777 49.6183 15.7147 48.8254 16.4175C48.0325 17.1203 47.1315 17.6249 46.1044 17.9312C45.0772 18.2375 44.014 18.3817 42.9058 18.3817C41.9507 18.3817 41.0767 18.3006 40.3018 18.1294C39.518 17.9582 38.8963 17.769 38.4277 17.5528L39.3378 14.5524C39.7252 14.7416 40.2478 14.9128 40.8965 15.066C41.5542 15.2282 42.3111 15.3093 43.1671 15.3093C43.8248 15.3093 44.4285 15.2192 44.9781 15.0299C45.5367 14.8497 46.0233 14.5524 46.4557 14.165C46.8882 13.7685 47.2306 13.273 47.5009 12.6693C47.7712 12.0656 47.9334 11.3358 48.0055 10.4798H41.1848V7.70472Z" fill="white"/>
<path d="M57.2337 12.8219H56.3507V18.0387H53.0801V5.43359H56.3598V10.8036L57.1436 10.4522L60.0899 5.4426H63.5949L60.5495 10.227L59.261 11.182L60.6756 12.1642L64.0724 18.0387H60.3152L57.2337 12.8219Z" fill="white"/>
<path d="M73.2534 17.2547C72.7488 17.6241 72.1362 17.9034 71.4244 18.1017C70.7126 18.2909 69.9737 18.39 69.2169 18.39C68.2077 18.39 67.3608 18.2278 66.658 17.9124C65.9642 17.5971 65.3966 17.1466 64.9551 16.5609C64.5226 15.9843 64.2073 15.2815 64.009 14.4616C63.8198 13.6416 63.7207 12.7316 63.7207 11.7405C63.7207 9.60511 64.1982 7.96527 65.1533 6.81197C66.1084 5.65868 67.505 5.08203 69.334 5.08203C70.253 5.08203 71.0009 5.15411 71.5595 5.30728C72.1181 5.46046 72.6317 5.64967 73.0822 5.88393L72.2983 8.55093C71.9109 8.37072 71.5325 8.22656 71.154 8.11844C70.7756 8.01933 70.3431 7.96527 69.8566 7.96527C68.9466 7.96527 68.2618 8.2626 67.7933 8.85727C67.3248 9.45194 67.0905 10.407 67.0905 11.7135C67.0905 12.2541 67.1536 12.7496 67.2707 13.2001C67.3878 13.6507 67.568 14.0471 67.8023 14.3805C68.0366 14.7138 68.3429 14.9842 68.7213 15.1734C69.0997 15.3626 69.5412 15.4617 70.0458 15.4617C70.6044 15.4617 71.073 15.3896 71.4604 15.2454C71.8478 15.1013 72.1902 14.9301 72.4966 14.7319L73.2534 17.2547Z" fill="white"/>
<path d="M81.7797 8.33485H77.7973V18.0297H74.5176V5.43359H85.0504V18.0297H81.7707V8.33485H81.7797Z" fill="white"/>
<path d="M97.2661 16.9496C96.7615 17.355 96.0767 17.6884 95.2118 17.9677C94.3468 18.247 93.4278 18.3822 92.4547 18.3822C90.4184 18.3822 88.9317 17.7875 87.9947 16.6072C87.0576 15.4268 86.5801 13.796 86.5801 11.7327C86.5801 9.5162 87.1117 7.84933 88.1659 6.74109C89.22 5.63285 90.7067 5.07422 92.6259 5.07422C93.2656 5.07422 93.8873 5.15531 94.491 5.3265C95.0946 5.49769 95.6352 5.768 96.1038 6.15543C96.5723 6.54287 96.9507 7.06545 97.239 7.71418C97.5274 8.37192 97.6715 9.18283 97.6715 10.1559C97.6715 10.5073 97.6535 10.8857 97.6085 11.2912C97.5634 11.6967 97.5003 12.1111 97.4192 12.5526H89.8868C89.9409 13.6068 90.2112 14.4087 90.7067 14.9493C91.2023 15.4899 92.0042 15.7512 93.1034 15.7512C93.7882 15.7512 94.4009 15.6431 94.9505 15.4358C95.4911 15.2286 95.9055 15.0124 96.1939 14.7961L97.2661 16.9496ZM92.5898 7.70517C91.7339 7.70517 91.1032 7.95746 90.6977 8.47103C90.2922 8.98461 90.04 9.66938 89.9589 10.5253H94.6171C94.6802 9.61532 94.545 8.92154 94.2026 8.43499C93.8693 7.94844 93.3287 7.70517 92.5898 7.70517Z" fill="white"/>
<path d="M99.2571 5.43343H101.654L102.032 6.94713H102.131C102.564 6.30741 103.086 5.83888 103.681 5.53254C104.276 5.22619 105.006 5.08203 105.861 5.08203C107.438 5.08203 108.628 5.57759 109.411 6.57771C110.204 7.57784 110.592 9.18164 110.592 11.3981C110.592 12.4703 110.466 13.4434 110.213 14.3084C109.961 15.1734 109.592 15.9122 109.096 16.5159C108.601 17.1195 107.997 17.5791 107.285 17.9034C106.573 18.2188 105.753 18.381 104.825 18.381C104.303 18.381 103.879 18.3449 103.537 18.2638C103.203 18.1917 102.861 18.0656 102.528 17.8944V23.0572H99.248V5.43343H99.2571ZM104.879 7.85715C104.24 7.85715 103.744 8.01933 103.384 8.33469C103.023 8.65004 102.744 9.13658 102.537 9.76729V15.0112C102.771 15.2004 103.032 15.3446 103.303 15.4527C103.582 15.5608 103.942 15.6149 104.402 15.6149C105.339 15.6149 106.051 15.2815 106.519 14.6237C106.988 13.957 107.222 12.8668 107.222 11.3351C107.222 10.2268 107.033 9.37085 106.663 8.76717C106.294 8.15448 105.699 7.85715 104.879 7.85715Z" fill="white"/>
<path d="M120.996 8.33485H117.446V18.0297H114.068V8.33485H110.518V5.43359H120.996V8.33485Z" fill="white"/>
</svg>
