<svg width="22" viewBox="0 0 22 0" fill="none" xmlns="http://www.w3.org/2000/svg">
<path d="M0.5 -0.5C0.223858 -0.5 -2.41411e-08 -0.276142 0 4.37114e-08C2.41411e-08 0.276142 0.223858 0.5 0.5 0.5L0.5 -0.5ZM21.8536 0.353552C22.0488 0.158289 22.0488 -0.158293 21.8536 -0.353555L18.6716 -3.53554C18.4763 -3.7308 18.1597 -3.7308 17.9645 -3.53554C17.7692 -3.34027 17.7692 -3.02369 17.9645 -2.82843L20.7929 -1.77406e-06L17.9645 2.82843C17.7692 3.02369 17.7692 3.34027 17.9645 3.53553C18.1597 3.73079 18.4763 3.73079 18.6716 3.53553L21.8536 0.353552ZM0.5 0L0.5 0.5L21.5 0.499998L21.5 -1.83588e-06L21.5 -0.500002L0.5 -0.5L0.5 0Z" fill="white"/>
</svg>
