<svg width="21" viewBox="0 0 21 0" fill="none" xmlns="http://www.w3.org/2000/svg">
<path d="M-4.37114e-08 -0.5C-0.276142 -0.5 -0.5 -0.276142 -0.5 4.37114e-08C-0.5 0.276142 -0.276142 0.5 4.37114e-08 0.5L-4.37114e-08 -0.5ZM21.3536 0.353552C21.5488 0.158289 21.5488 -0.158293 21.3536 -0.353555L18.1716 -3.53554C17.9763 -3.7308 17.6597 -3.7308 17.4645 -3.53554C17.2692 -3.34027 17.2692 -3.02369 17.4645 -2.82843L20.2929 -1.77406e-06L17.4645 2.82843C17.2692 3.02369 17.2692 3.34027 17.4645 3.53553C17.6597 3.73079 17.9763 3.73079 18.1716 3.53553L21.3536 0.353552ZM0 0L4.37114e-08 0.5L21 0.499998L21 -1.83588e-06L21 -0.500002L-4.37114e-08 -0.5L0 0Z" fill="white"/>
</svg>
