<svg width="23" height="23" viewBox="0 0 23 23" fill="none" xmlns="http://www.w3.org/2000/svg">
<g opacity="0.65">
<path fill-rule="evenodd" clip-rule="evenodd" d="M11.5 19.2754C15.6766 19.2754 19.0625 15.8895 19.0625 11.7129C19.0625 7.53623 15.6766 4.15039 11.5 4.15039C7.32334 4.15039 3.9375 7.53623 3.9375 11.7129C3.9375 15.8895 7.32334 19.2754 11.5 19.2754ZM11.5 21.3379C16.8157 21.3379 21.125 17.0286 21.125 11.7129C21.125 6.39715 16.8157 2.08789 11.5 2.08789C6.18426 2.08789 1.875 6.39715 1.875 11.7129C1.875 17.0286 6.18426 21.3379 11.5 21.3379ZM9.35528 6.9546C9.94645 6.469 10.7222 6.17835 11.5 6.17835C13.1736 6.17835 14.7167 7.30625 14.7167 9.12189C14.7167 9.63913 14.6095 10.1456 14.3078 10.6347C14.0213 11.0994 13.6023 11.4775 13.1048 11.8261C12.8057 12.0356 12.6569 12.1792 12.5839 12.2771C12.5312 12.3477 12.5312 12.3739 12.5313 12.3989V12.4001C12.5313 12.9696 12.0695 13.4314 11.5 13.4314C10.9305 13.4314 10.4688 12.9696 10.4688 12.4001C10.4688 11.3074 11.2163 10.6308 11.9214 10.1369C12.306 9.8674 12.4732 9.68039 12.5523 9.55213C12.6163 9.44837 12.6542 9.334 12.6542 9.12189C12.6542 8.71049 12.3192 8.24085 11.5 8.24085C11.218 8.24085 10.901 8.35399 10.6644 8.54835C10.4342 8.73746 10.3458 8.94267 10.3458 9.12189C10.3458 9.69143 9.88408 10.1531 9.31454 10.1531C8.74499 10.1531 8.28329 9.69143 8.28329 9.12189C8.28329 8.1964 8.75771 7.44546 9.35528 6.9546ZM11.5 17.2129C12.2594 17.2129 12.875 16.5973 12.875 15.8379C12.875 15.0785 12.2594 14.4629 11.5 14.4629C10.7406 14.4629 10.125 15.0785 10.125 15.8379C10.125 16.5973 10.7406 17.2129 11.5 17.2129Z" fill="#333333"/>
</g>
</svg>
