<svg width="72" height="25" viewBox="0 0 72 25" fill="none" xmlns="http://www.w3.org/2000/svg">
<mask id="mask0_732_5751" style="mask-type:luminance" maskUnits="userSpaceOnUse" x="0" y="0" width="72" height="25">
<path d="M72 0.712891H0V24.7129H72V0.712891Z" fill="white"/>
</mask>
<g mask="url(#mask0_732_5751)">
<path fill-rule="evenodd" clip-rule="evenodd" d="M0 0.712891H4.107C4.242 7.13089 7.27 9.84989 9.669 10.4109V0.712891H13.537V6.24889C15.905 6.00989 18.394 3.48789 19.233 0.712891H23.101C22.784 2.15189 22.154 3.51489 21.248 4.71489C20.343 5.91589 19.182 6.92989 17.839 7.69189C19.339 8.38789 20.664 9.37389 21.726 10.5839C22.788 11.7949 23.563 13.2019 24 14.7129H19.743C19.35 13.3999 18.552 12.2249 17.448 11.3349C16.344 10.4449 14.983 9.87989 13.537 9.70989V14.7129H13.072C4.872 14.7129 0.195 9.45789 0 0.712891Z" fill="white"/>
<path fill-rule="evenodd" clip-rule="evenodd" d="M47.9908 2.44903C47.6578 5.96303 46.2188 14.489 45.4868 18.425C45.1768 20.09 44.5668 20.649 43.9758 20.703C42.6928 20.822 41.7178 19.85 40.4748 19.031C38.5298 17.749 37.4308 16.951 35.5428 15.7C33.3608 14.254 34.7758 13.46 36.0188 12.161C36.3448 11.821 41.9988 6.64902 42.1088 6.18003C42.1218 6.12103 42.1348 5.90202 42.0058 5.78702C41.8758 5.67203 41.6858 5.71102 41.5478 5.74202C41.3528 5.78702 38.2458 7.85203 32.2258 11.938C31.3438 12.547 30.5448 12.843 29.8298 12.828C29.0398 12.811 27.5228 12.379 26.3938 12.01C25.0098 11.558 23.9098 11.319 24.0058 10.551C24.0558 10.15 24.6038 9.74102 25.6498 9.32302C32.0928 6.50102 36.3888 4.64003 38.5378 3.74103C44.6758 1.17403 45.9508 0.728025 46.7828 0.713025C46.9648 0.710025 47.3738 0.756025 47.6388 0.972025C47.8148 1.12503 47.9268 1.34003 47.9528 1.57303C47.9978 1.86303 48.0108 2.15603 47.9908 2.44903Z" fill="white"/>
<path fill-rule="evenodd" clip-rule="evenodd" d="M58.661 6.04289C58.661 8.98689 56.276 11.3749 53.331 11.3749C50.387 11.3749 48 8.98689 48 6.04289C48 3.09989 50.387 0.712891 53.331 0.712891C56.276 0.712891 58.661 3.09989 58.661 6.04289ZM72 18.2279C72 21.8099 69.096 24.7129 65.514 24.7129C61.934 24.7129 59.032 21.8099 59.032 18.2279C59.032 14.6459 61.934 11.7419 65.514 11.7419C69.096 11.7419 72 14.6459 72 18.2279ZM69.689 6.04289C69.689 8.34889 67.82 10.2189 65.514 10.2189C63.211 10.2189 61.341 8.34889 61.341 6.04289C61.341 3.73789 63.211 1.86989 65.514 1.86989C67.82 1.86989 69.689 3.73789 69.689 6.04289ZM56.351 18.2279C56.351 19.8959 54.999 21.2459 53.331 21.2459C51.664 21.2459 50.311 19.8959 50.311 18.2279C50.311 16.5599 51.664 15.2109 53.331 15.2109C54.999 15.2109 56.351 16.5599 56.351 18.2279Z" fill="white"/>
</g>
</svg>
