<svg width="84" height="66" viewBox="0 0 84 66" fill="none" xmlns="http://www.w3.org/2000/svg">
<mask id="mask0_732_5649" style="mask-type:luminance" maskUnits="userSpaceOnUse" x="0" y="0" width="84" height="66">
<path d="M83.591 0.228516H0.472656V65.1014H83.591V0.228516Z" fill="white"/>
</mask>
<g mask="url(#mask0_732_5649)">
<path d="M28.9176 8.69878C31.2422 8.69878 33.2334 7.84282 34.8823 6.20298C36.5311 4.55413 37.3781 2.5719 37.3781 0.238281H8.98722C6.6536 0.238281 4.61731 1.03117 2.96846 2.68002C1.31961 4.31986 0.472656 6.37417 0.472656 8.69878H28.9176Z" fill="#FF6700"/>
<path d="M55.1373 8.69878C52.8036 8.69878 50.8214 7.84282 49.1726 6.20298C47.5237 4.55413 46.6768 2.5719 46.6768 0.238281H75.0676C77.4013 0.238281 79.4375 1.03117 81.0864 2.68002C82.7352 4.32887 83.5822 6.37417 83.5822 8.69878H55.1373Z" fill="#FF6700"/>
<path d="M37.3781 49.4432V30.5851C37.3781 27.4045 36.2428 24.6744 33.9723 22.4039C31.7558 20.1333 29.0347 18.998 25.8001 18.998H11.6632C9.3296 18.998 7.29331 19.854 5.64446 21.4939C3.99561 23.1427 3.20272 25.188 3.20272 27.5126H25.0613C26.1425 27.5126 27.0525 27.9091 27.7823 28.6479C28.5211 29.3867 28.9176 30.2967 28.9176 31.3779V40.9197H8.98722C6.6536 40.9197 4.61731 41.7756 2.96846 43.4155C1.31961 45.0643 0.472656 47.1096 0.472656 49.4342L37.3781 49.4432Z" fill="#FF6700"/>
<path d="M46.6768 49.4432V30.5851C46.6768 27.4045 47.812 24.6744 50.0826 22.4039C52.2991 20.1333 55.0201 18.998 58.2548 18.998H72.3916C74.7253 18.998 76.7615 19.854 78.4104 21.4939C80.0592 23.1427 80.8521 25.188 80.8521 27.5126H59.0026C57.9214 27.5126 57.0114 27.9091 56.2815 28.6479C55.5427 29.3867 55.1463 30.2967 55.1463 31.3779V40.9197H75.0766C77.4103 40.9197 79.4466 41.7756 81.0954 43.4155C82.7443 45.0643 83.5912 47.1096 83.5912 49.4342L46.6768 49.4432Z" fill="#FF6700"/>
<path d="M15.8172 54.5605H68.2381C70.5897 54.5605 72.4909 56.4707 72.4909 58.8133H11.5645C11.5645 56.4707 13.4746 54.5605 15.8172 54.5605Z" fill="white"/>
<path d="M4.72543 60.8398H79.3292C81.6808 60.8398 83.582 62.75 83.582 65.0926H0.472656C0.472656 62.75 2.3828 60.8398 4.72543 60.8398Z" fill="white"/>
</g>
</svg>
