<svg width="383" height="663" viewBox="0 0 383 663" fill="none" xmlns="http://www.w3.org/2000/svg">
<path d="M289.874 448.459C289.874 448.459 277.925 352.4 230.106 333.373C182.288 314.346 96.2257 310.862 72.6678 173.89C58.8757 93.6999 51.6612 58.8168 48.0496 43.6762C46.6409 37.77 51.2319 32.1449 57.2896 32.3742C100.141 33.9973 240.362 46.0939 282.507 134.423C332.471 239.137 289.874 448.459 289.874 448.459Z" fill="#FFA275"/>
<path opacity="0.5" d="M95.1978 65.7834C147.032 99.8089 210.695 164.231 249.648 232.353C255.04 243.734 269.397 267.504 280.69 311.866C290.38 348.823 294.238 388.832 293.163 415.86C293.095 417.568 291.657 418.899 289.951 418.832C287.018 418.717 286.941 415.588 286.981 415.681C285.997 369.927 275.331 314.391 254.805 265.915C228.954 206.49 182.896 152.018 136.918 106.854L132.219 102.432C96.7707 68.6072 90.4637 69.2631 92.8493 66.178C93.4132 65.4489 94.441 65.2893 95.1978 65.7834Z" fill="white"/>
<path d="M381.672 509.603C388.339 510.701 304.531 452.484 249.377 337.943C223.387 283.969 201.955 212.98 161.496 195.353C127.823 180.682 40.8179 222.657 12.5778 237.151C9.04897 238.962 9.20933 244.065 12.8494 245.632C30.7954 253.353 69.9794 272.518 86.5636 298.753C108.423 333.333 151.479 346.519 185.524 343.322C219.568 340.125 239.314 341.038 270.374 387.713C301.433 434.387 362.728 506.484 381.672 509.603Z" fill="#FBD6C0"/>
<path opacity="0.5" d="M59.3755 240.377C97.9748 230.458 144.119 235.508 174.686 261.899L177.582 264.424C184.301 270.365 225.547 314.57 252.721 353.334C253.059 353.817 252.942 354.485 252.46 354.825C251.64 355.402 250.882 354.536 250.996 354.598C233.767 333.267 210.252 306.727 191.974 287.09C172.242 265.598 158.605 251.125 125.928 243.19C89.7345 234.946 59.6555 242.06 59.7496 242.052C59.2851 242.142 58.8355 241.838 58.7462 241.372C58.6605 240.924 58.9408 240.49 59.3755 240.377Z" fill="white"/>
<path d="M367.816 602.986C372.784 604.501 333 558.661 322.021 513.642C311.042 468.623 285.985 393.003 237.983 354.121C189.98 315.239 146.311 319.253 100.364 371.842C62.0745 415.666 37.3904 438.815 21.5569 445.282C17.6363 446.883 16.4361 451.893 19.119 455.171C33.3987 472.617 71.7977 511.613 121.323 498.816C184.497 482.491 254.036 425.942 284.287 456.129C314.539 486.316 315.218 506.334 319.087 522.654C322.956 538.975 334.943 592.963 367.816 602.986Z" fill="#FF9964"/>
<path opacity="0.5" d="M129.13 424.08C145.124 401.502 173.493 376.881 202.029 374.962C239.419 373.833 268.215 393.445 288.292 427.023C296.374 441.367 300.056 449.145 306.693 467.356C307.222 468.809 305.098 469.684 304.45 468.289C300.547 459.887 296.586 451.064 291.476 442.135C260.576 384.127 218.177 383.672 216.349 382.715C213.322 383.614 191.938 373.188 152.124 405.652C144.699 411.765 137.617 418.476 131.129 425.622L131.093 425.662C130.624 426.179 129.825 426.217 129.309 425.747C128.832 425.313 128.764 424.594 129.13 424.08Z" fill="white"/>
</svg>
