<svg width="497" height="446" viewBox="0 0 497 446" fill="none" xmlns="http://www.w3.org/2000/svg">
<path d="M77.8362 196.468C98.5994 191.997 169.418 178.875 243.573 189.518C268.409 193.082 290.394 207.545 303.798 228.803C327.95 267.108 362.112 335.391 354.888 406.607L316.982 416.002C316.982 416.002 290.785 331.508 261.3 297.12C261.3 297.12 226.381 376.903 228.146 420.715C228.196 421.954 228.275 423.163 228.385 424.342C232.393 467.206 60.7633 432.34 60.7633 432.34L71.4541 204.023C71.6264 200.342 74.2424 197.242 77.8362 196.468Z" fill="url(#paint0_linear_732_7033)"/>
<path d="M136.886 116.288L131.896 175.605C131.431 181.123 134.27 186.285 138.998 188.494C149.89 193.584 170.804 200.886 193.169 195.527C197.262 194.546 199.929 190.26 199.254 185.885L184.749 91.8643L136.886 116.288Z" fill="url(#paint1_linear_732_7033)"/>
<path d="M203.482 44.3965C203.482 44.3965 214.748 88.2257 212.515 109.926C210.282 131.626 212.681 146.323 187.18 146.681C161.679 147.039 142.752 131.303 134.844 108.064C134.844 108.064 122.365 72.2094 128.499 59.3267C134.634 46.4438 203.482 44.3965 203.482 44.3965Z" fill="url(#paint2_linear_732_7033)"/>
<path d="M145.778 94.0179L148.914 94.5202C148.914 94.5202 140.225 65.8798 152.325 63.0302C164.424 60.1805 210.87 58.1892 223.124 43.7452C234.938 29.8208 229.77 8.5625 218.175 0.988299C217.441 0.509024 216.451 0.732403 215.924 1.43407L214.578 3.22974C213.656 4.45941 211.709 3.93891 211.52 2.41237C211.341 0.964304 209.528 0.36382 208.573 1.46555C204.84 5.77403 195.556 12.2653 173.345 12.8018C141.829 13.5624 119.612 22.7406 115.734 43.8679C115.488 45.2063 113.938 45.7175 112.904 44.8347C110.864 43.092 107.351 41.8651 101.868 45.1651C92.3333 50.9039 92.8434 69.833 108.861 87.9018C109.622 88.7604 109.397 90.1297 108.35 90.5967C104.661 92.2417 98.8562 96.6312 110.658 105.611C122.73 114.798 130.664 115.277 133.733 114.993C134.559 114.917 135.207 114.278 135.287 113.45L137.124 94.4709C137.219 93.4894 138.12 92.7915 139.092 92.9469L145.778 94.0179Z" fill="url(#paint3_linear_732_7033)"/>
<path d="M145.922 98.0743C145.922 98.0743 143.305 70.8101 130.426 76.2748C117.548 81.7392 131.827 106.578 141.084 109.065L145.922 98.0743Z" fill="url(#paint4_linear_732_7033)"/>
<path d="M72.2606 364.216C68.5596 338.019 95.6239 299.511 106.819 284.899C110.021 280.719 111.811 275.609 111.857 270.339C112.185 233.238 99.653 213.857 74.7525 197.857C74.7525 197.857 -18.634 298.953 4.37807 380.132C6.86101 388.893 10.7091 396.42 15.5882 402.887C19.2146 372.3 54.4856 365.627 72.2606 364.216Z" fill="url(#paint5_linear_732_7033)"/>
<path d="M73.9457 354.081L70.5022 353.687C73.4209 327.997 95.9108 296.282 105.444 283.839L108.193 285.955C98.8362 298.169 76.7679 329.256 73.9457 354.081Z" fill="url(#paint6_linear_732_7033)"/>
<path d="M72.9697 367.842C72.6539 366.666 72.4347 365.449 72.2605 364.215C54.4855 365.626 19.2146 372.299 15.5881 402.887C55.9197 456.355 167.087 437.064 167.087 437.064V416.259C167.087 416.259 81.7099 400.36 72.9697 367.842Z" fill="url(#paint7_linear_732_7033)"/>
<path d="M156.401 431.32C156.401 431.32 172.815 392.497 201.737 406.268C230.659 420.039 228.386 429.05 228.386 429.05L156.401 431.32Z" fill="url(#paint8_linear_732_7033)"/>
<path d="M152.714 439.375C152.944 442.313 155.441 444.548 158.378 444.445L308.251 439.204C310.581 439.123 312.605 437.576 313.3 435.346L317.65 421.392C318.719 417.965 316.279 414.446 312.701 414.256L258.048 411.346C257.552 411.319 257.054 411.36 256.569 411.468L157 433.572C154.328 434.165 152.5 436.641 152.714 439.375Z" fill="url(#paint9_linear_732_7033)"/>
<path d="M253.176 433.893L257.3 414.631L313.439 417.316L309.746 433.298L253.176 433.893Z" fill="url(#paint10_linear_732_7033)"/>
<path d="M224.395 226.096C221.218 252.119 206.925 357.85 202.834 388.06C202.258 392.309 205.625 396.045 209.9 395.923L452.368 388.968C455.541 388.877 458.246 386.637 458.934 383.531L496.652 213.266C497.649 208.764 494.075 204.556 489.482 204.826L230.867 220.009C227.524 220.205 224.802 222.763 224.395 226.096Z" fill="url(#paint11_linear_732_7033)"/>
<path d="M321.858 333.343L286.023 435.296L369.349 437.066L376.287 333.955C376.612 329.116 372.609 325.099 367.782 325.42L328.868 328.01C325.678 328.223 322.92 330.32 321.858 333.343Z" fill="url(#paint12_linear_732_7033)"/>
<path d="M252.242 436.746C251.324 439.551 253.409 442.437 256.354 442.437H386.847C389.237 442.437 391.175 440.495 391.175 438.099V432.488C391.175 430.02 389.122 428.049 386.662 428.154L256.169 433.765C254.368 433.842 252.804 435.03 252.242 436.746Z" fill="url(#paint13_linear_732_7033)"/>
<path d="M187.146 125.174C157.929 132.85 135.104 105.301 134.877 105.021L136.662 103.562C136.88 103.83 158.79 130.237 186.562 122.941L187.146 125.174Z" fill="url(#paint14_linear_732_7033)"/>
<path d="M194.526 121.26C195.138 122.935 194.279 124.79 192.608 125.403L187.01 127.457C185.338 128.071 183.488 127.21 182.876 125.535L182.533 124.594C181.921 122.919 182.78 121.064 184.451 120.451L190.049 118.397C191.72 117.784 193.571 118.645 194.183 120.32L194.526 121.26Z" fill="url(#paint15_linear_732_7033)"/>
<path d="M130.331 70.9514C130.331 70.9514 132.378 21.5521 160.983 11.2691C160.983 11.2691 152.022 9.03016 144.059 14.9579C136.097 20.8856 118.046 48.3047 123.186 73.5726C129.477 74.385 130.331 70.9514 130.331 70.9514Z" fill="url(#paint16_linear_732_7033)"/>
<path d="M124.788 69.0043C109.106 75.3039 114.876 95.5819 114.876 95.5819C116.437 110.779 122.154 117.406 128.39 119.92C132.651 121.637 137.499 120.98 141.159 118.201C144.819 115.422 146.758 110.922 146.267 106.346C145.823 102.214 145.46 98.2746 145.511 96.8428C145.634 93.3737 140.469 62.7045 124.788 69.0043Z" fill="url(#paint17_linear_732_7033)"/>
<path d="M127.236 73.9388C123.748 73.9695 120.742 76.3821 119.959 79.7895C114.35 104.177 128.984 116.688 134.908 115.919C141.15 115.108 135.582 85.3105 132.874 77.9062C131.739 74.8034 129.479 73.9191 127.236 73.9388Z" fill="url(#paint18_linear_732_7033)"/>
<path d="M220.838 334.142L218.908 333.899L230.819 239.725C231.566 233.831 236.399 229.297 242.311 228.939L465.795 215.409L465.913 217.356L242.429 230.885C237.448 231.186 233.378 235.006 232.749 239.969L220.838 334.142Z" fill="#C8C8C8"/>
<path d="M215.483 360.745L217.413 360.989L214.85 381.38L212.92 381.136L215.483 360.745Z" fill="#A8A8A8"/>
<defs>
<linearGradient id="paint0_linear_732_7033" x1="4767.23" y1="5072.14" x2="4556.89" y2="4855.59" gradientUnits="userSpaceOnUse">
<stop stop-color="#393939"/>
<stop offset="1" stop-color="#282828"/>
</linearGradient>
<linearGradient id="paint1_linear_732_7033" x1="139.839" y1="272.507" x2="174.998" y2="123.766" gradientUnits="userSpaceOnUse">
<stop stop-color="#FEBBBA"/>
<stop offset="1" stop-color="#FF928E"/>
</linearGradient>
<linearGradient id="paint2_linear_732_7033" x1="145.075" y1="105.065" x2="208.718" y2="88.4433" gradientUnits="userSpaceOnUse">
<stop stop-color="#FEBBBA"/>
<stop offset="1" stop-color="#FF928E"/>
</linearGradient>
<linearGradient id="paint3_linear_732_7033" x1="85.2635" y1="135.221" x2="205.47" y2="-6.09544" gradientUnits="userSpaceOnUse">
<stop stop-color="#262626"/>
<stop offset="1" stop-color="#525252"/>
</linearGradient>
<linearGradient id="paint4_linear_732_7033" x1="141.434" y1="91.1239" x2="205.079" y2="74.5015" gradientUnits="userSpaceOnUse">
<stop stop-color="#FEBBBA"/>
<stop offset="1" stop-color="#FF928E"/>
</linearGradient>
<linearGradient id="paint5_linear_732_7033" x1="4538.14" y1="4946.08" x2="4335.68" y2="4737.63" gradientUnits="userSpaceOnUse">
<stop stop-color="#434343"/>
<stop offset="1" stop-color="#232323"/>
</linearGradient>
<linearGradient id="paint6_linear_732_7033" x1="-223.462" y1="-5.11634" x2="382.464" y2="621.326" gradientUnits="userSpaceOnUse">
<stop stop-color="#4E4E4E"/>
<stop offset="1" stop-color="#7A7A7A"/>
</linearGradient>
<linearGradient id="paint7_linear_732_7033" x1="62.7571" y1="334.183" x2="128.909" y2="507.853" gradientUnits="userSpaceOnUse">
<stop stop-color="#FEBBBA"/>
<stop offset="1" stop-color="#FF928E"/>
</linearGradient>
<linearGradient id="paint8_linear_732_7033" x1="144.495" y1="303.048" x2="210.646" y2="476.719" gradientUnits="userSpaceOnUse">
<stop stop-color="#FEBBBA"/>
<stop offset="1" stop-color="#FF928E"/>
</linearGradient>
<linearGradient id="paint9_linear_732_7033" x1="287.472" y1="366.15" x2="253.277" y2="410.095" gradientUnits="userSpaceOnUse">
<stop stop-color="#656565"/>
<stop offset="1" stop-color="#393939"/>
</linearGradient>
<linearGradient id="paint10_linear_732_7033" x1="312.946" y1="385.973" x2="278.751" y2="429.917" gradientUnits="userSpaceOnUse">
<stop stop-color="#444444"/>
<stop offset="1" stop-color="#292929"/>
</linearGradient>
<linearGradient id="paint11_linear_732_7033" x1="342.933" y1="303.743" x2="620.183" y2="135.088" gradientUnits="userSpaceOnUse">
<stop stop-color="#484848"/>
<stop offset="1" stop-color="#0E0E0E"/>
</linearGradient>
<linearGradient id="paint12_linear_732_7033" x1="350.706" y1="425.914" x2="299.856" y2="316" gradientUnits="userSpaceOnUse">
<stop stop-color="#3B3B3B"/>
<stop offset="1" stop-color="#5B5B5B"/>
</linearGradient>
<linearGradient id="paint13_linear_732_7033" x1="318.013" y1="414.014" x2="275.609" y2="163.574" gradientUnits="userSpaceOnUse">
<stop stop-color="#363636"/>
<stop offset="1" stop-color="#505050"/>
</linearGradient>
<linearGradient id="paint14_linear_732_7033" x1="140.707" y1="143.357" x2="172.785" y2="98.9222" gradientUnits="userSpaceOnUse">
<stop stop-color="#464646"/>
<stop offset="1" stop-color="#2A2A2A"/>
</linearGradient>
<linearGradient id="paint15_linear_732_7033" x1="194.724" y1="122.927" x2="182.335" y2="122.927" gradientUnits="userSpaceOnUse">
<stop stop-color="#424242"/>
<stop offset="1" stop-color="#232323"/>
</linearGradient>
<linearGradient id="paint16_linear_732_7033" x1="237.238" y1="-13.3481" x2="-45.8632" y2="146.337" gradientUnits="userSpaceOnUse">
<stop stop-color="#484848"/>
<stop offset="1"/>
</linearGradient>
<linearGradient id="paint17_linear_732_7033" x1="81.9063" y1="10.0629" x2="104.781" y2="50.2107" gradientUnits="userSpaceOnUse">
<stop stop-color="#292929"/>
<stop offset="1" stop-color="#292929"/>
</linearGradient>
<linearGradient id="paint18_linear_732_7033" x1="130.564" y1="95.0052" x2="57.3952" y2="32.5581" gradientUnits="userSpaceOnUse">
<stop stop-color="#515151"/>
<stop offset="1" stop-color="#494949"/>
</linearGradient>
</defs>
</svg>
