<svg width="40" height="32" viewBox="0 0 40 32" fill="none" xmlns="http://www.w3.org/2000/svg">
<mask id="mask0_732_5822" style="mask-type:luminance" maskUnits="userSpaceOnUse" x="0" y="0" width="40" height="32">
<path d="M39.9911 0.0664062H0.00878906V31.2699H39.9911V0.0664062Z" fill="white"/>
</mask>
<g mask="url(#mask0_732_5822)">
<path d="M13.6943 4.13758C14.8149 4.13758 15.7697 3.72648 16.562 2.93413C17.3544 2.14178 17.7655 1.18697 17.7655 0.0664062H4.10648C2.98592 0.0664062 2.00128 0.45098 1.21224 1.24333C0.419885 2.03237 0.00878906 3.01701 0.00878906 4.13758H13.6943Z" fill="#FF6700"/>
<path d="M26.3052 4.13758C25.1846 4.13758 24.2298 3.72648 23.4374 2.93413C22.6451 2.14509 22.2373 1.18697 22.2373 0.0664062H35.893C37.0135 0.0664062 37.9949 0.447664 38.7872 1.24002C39.5796 2.03237 39.9907 3.01701 39.9907 4.13758H26.3052Z" fill="#FF6700"/>
<path d="M17.7621 23.7411V14.6671C17.7621 13.1355 17.2151 11.8259 16.1244 10.7319C15.0602 9.63784 13.7473 9.09082 12.1925 9.09082H5.3895C4.26893 9.09082 3.28761 9.50192 2.49525 10.2943C1.7029 11.0866 1.32164 12.0713 1.32164 13.1918H11.8377C12.3582 13.1918 12.7925 13.3841 13.1473 13.7389C13.502 14.0936 13.6943 14.5312 13.6943 15.0517V19.6434H4.10648C2.98592 19.6434 2.00459 20.0545 1.21224 20.8468C0.419885 21.6325 0.00878906 22.6172 0.00878906 23.7378L17.7621 23.7411Z" fill="#FF6700"/>
<path d="M22.2344 23.7411V14.6671C22.2344 13.1355 22.7814 11.8259 23.8721 10.7319C24.9363 9.63784 26.2492 9.09082 27.8041 9.09082H34.607C35.7276 9.09082 36.7089 9.50192 37.5013 10.2943C38.2936 11.0866 38.6749 12.0713 38.6749 13.1918H28.1621C27.6416 13.1918 27.2073 13.3841 26.8526 13.7389C26.4978 14.0936 26.3055 14.5312 26.3055 15.0517V19.6434H35.8934C37.0139 19.6434 37.9952 20.0545 38.7876 20.8468C39.58 21.6392 39.991 22.6238 39.991 23.7444L22.2344 23.7411Z" fill="#FF6700"/>
<path d="M7.39162 26.2012H32.6077C33.7382 26.2012 34.6565 27.1195 34.6565 28.2467H5.34277C5.34277 27.1195 6.26111 26.2012 7.39162 26.2012Z" fill="#333333"/>
<path d="M2.05432 29.2246H37.9423C39.0728 29.2246 39.9911 30.1429 39.9911 31.2735H0.00878906C0.00878906 30.1429 0.927123 29.2246 2.05432 29.2246Z" fill="#333333"/>
</g>
</svg>
