<svg width="768" height="736" viewBox="0 0 768 736" fill="none" xmlns="http://www.w3.org/2000/svg">
<path d="M713.319 144.25C710.653 139.665 707.879 135.17 704.998 130.764C666.447 72.1986 602.194 32.1047 539.9 13.9516C512.721 6.1099 484.734 1.64859 456.532 0.663625C272.849 -6.14505 205.382 150.445 146.205 190.805C87.0294 231.164 -3.79351 300.141 7.69242 445.006C16.3341 555.158 76.9415 660.476 187.6 708.394C200.101 713.819 212.931 718.396 226.009 722.096C252.495 729.527 279.706 733.856 307.127 735.001C390.801 738.853 458.75 717.993 525.203 665.476C540.655 653.267 556.027 639.499 576.075 637.988C590.644 636.89 604.459 642.305 589.231 656.871C571.321 673.98 591.978 707.646 637.421 684.26C713.319 645.195 744.546 560.92 759.26 475.235C777.252 370.049 768.496 239.32 713.319 144.25Z" fill="url(#paint0_linear_732_6825)"/>
<path d="M14.8748 114.672C15.1226 115.555 15.3911 116.428 15.6799 117.289C19.5599 128.752 28.2264 138.093 37.421 143.634C41.4357 146.037 45.7079 147.9 50.1471 149.18C79.0457 157.587 95.7446 133.671 106.682 129.156C117.62 124.642 134.676 116.519 138.393 91.4775C141.234 72.4397 135.641 52.171 119.907 39.6695C118.13 38.2552 116.268 36.9719 114.333 35.8276C110.413 33.5208 106.259 31.7118 101.95 30.4349C88.8142 26.4781 77.2298 27.3364 64.6721 33.6273C61.7522 35.0895 58.7853 36.8196 55.5451 36.2848C53.1903 35.896 51.2042 34.4315 54.1787 32.5603C57.6762 30.3634 55.6846 23.8337 47.5762 26.0092C34.0337 29.6437 25.8534 42.7154 20.2406 56.6784C13.3615 73.8219 9.75164 96.3568 14.8748 114.672Z" fill="#FF6700"/>
<path d="M14.8748 114.672C15.1226 115.555 15.3911 116.428 15.6799 117.289C19.5599 128.752 28.2264 138.093 37.421 143.634C41.4357 146.037 45.7079 147.9 50.1471 149.18C79.0457 157.587 95.7446 133.671 106.682 129.156C117.62 124.642 134.676 116.519 138.393 91.4775C141.234 72.4397 135.641 52.171 119.907 39.6695C118.13 38.2552 116.268 36.9719 114.333 35.8276C110.413 33.5208 106.259 31.7118 101.95 30.4349C88.8142 26.4781 77.2298 27.3364 64.6721 33.6273C61.7522 35.0895 58.7853 36.8196 55.5451 36.2848C53.1903 35.896 51.2042 34.4315 54.1787 32.5603C57.6762 30.3634 55.6846 23.8337 47.5762 26.0092C34.0337 29.6437 25.8534 42.7154 20.2406 56.6784C13.3615 73.8219 9.75164 96.3568 14.8748 114.672Z" fill="white" fill-opacity="0.7"/>
<defs>
<linearGradient id="paint0_linear_732_6825" x1="792.149" y1="782.806" x2="231.063" y2="149.929" gradientUnits="userSpaceOnUse">
<stop stop-color="#FB944E"/>
<stop offset="1" stop-color="#FDF2E9"/>
</linearGradient>
</defs>
</svg>
