<svg width="874" height="653" viewBox="0 0 874 653" fill="none" xmlns="http://www.w3.org/2000/svg">
<path d="M846.314 431.917C780.93 582.181 608.337 646.723 473.108 635.718C436.185 632.714 361.894 626.668 303.888 572.733C192.491 469.156 209.647 252.65 316.286 125.183C330.019 108.768 425.076 -1.21134 573.205 0.260736C681.657 1.33853 757.778 61.5739 767.034 69.078C778.727 78.5578 804.517 101.085 827.76 136.822C882.372 220.793 887.173 338.017 846.314 431.917Z" fill="url(#paint0_linear_732_6671)"/>
<path d="M407.523 441.885C407.523 441.885 369.291 365.962 320.416 363.662C271.542 361.361 192.346 382.604 131.905 276.171C96.5202 213.861 80.0236 187.096 72.4271 175.613C69.464 171.134 72.0326 165.205 77.6025 163.697C117.004 153.027 247.867 123.713 311.335 184.794C386.578 257.206 407.523 441.885 407.523 441.885Z" fill="#FDE6D8"/>
<path opacity="0.25" d="M121.595 180.62C178.384 194.181 254.579 229.515 309.378 274.825C317.519 282.707 337.335 298.303 360.233 331.752C379.565 359.539 394.468 391.478 401.19 414.085C401.615 415.514 400.688 417.016 399.119 417.438C396.421 418.165 395.46 415.604 395.523 415.669C381.594 378.183 356.083 335.337 323.624 301.079C283.207 259.276 225.842 227.223 171.201 202.829L165.673 200.495C123.829 182.51 118.285 184.818 119.574 181.604C119.878 180.844 120.766 180.425 121.595 180.62Z" fill="white"/>
<path d="M531.735 517.082C539.132 516.845 437.655 476.213 356.288 374.625C317.946 326.754 281.262 261.277 234.278 251.949C195.175 244.186 109.424 302.561 81.757 322.362C78.2998 324.836 79.4491 329.815 83.6726 330.635C104.494 334.678 150.397 345.767 173.293 368.256C203.472 397.898 252.406 402.353 288.49 392.5C324.574 382.646 346.033 379.648 388.443 419.351C430.853 459.054 510.718 517.757 531.735 517.082Z" fill="#FDBF95"/>
<path opacity="0.25" d="M132.859 316.292C172.574 298.937 223.287 294.792 261.292 314.674L264.896 316.582C273.278 321.089 326.204 356.356 362.918 389.056C363.375 389.464 363.378 390.142 362.922 390.571C362.148 391.299 361.167 390.599 361.301 390.638C338.645 373.092 308.214 351.672 284.751 335.998C259.365 318.788 241.893 307.268 205.146 305.923C164.549 304.969 133.483 317.888 133.583 317.861C133.099 318.042 132.557 317.832 132.371 317.392C132.193 316.97 132.412 316.488 132.859 316.292Z" fill="white"/>
<path d="M735.147 333.838C740.182 219.265 644.009 121.98 520.339 116.545C396.669 111.111 292.334 199.585 287.299 314.157C282.264 428.73 378.437 526.015 502.107 531.449C625.777 536.884 730.112 448.41 735.147 333.838Z" fill="#8E8E8E"/>
<path opacity="0.28" d="M499.092 475.14C596.232 475.14 674.979 400.749 674.979 308.983C674.979 217.217 596.232 142.826 499.092 142.826C401.952 142.826 323.205 217.217 323.205 308.983C323.205 400.749 401.952 475.14 499.092 475.14Z" fill="white"/>
<g opacity="0.68">
<path d="M568.486 324.968C568.432 361.593 565.92 398.293 559.466 434.4C557.832 443.419 555.937 452.395 553.68 461.286C551.416 470.173 548.802 478.984 545.602 487.598C542.375 496.189 538.63 504.657 533.551 512.396C530.991 516.237 528.088 519.918 524.506 522.946C522.715 524.45 520.748 525.784 518.585 526.762C516.426 527.733 514.067 528.347 511.672 528.39C509.281 528.46 506.886 527.992 504.685 527.105C502.475 526.227 500.46 524.953 498.626 523.499C494.958 520.565 491.991 516.925 489.386 513.114C484.217 505.43 480.42 496.979 477.16 488.401C473.919 479.802 471.279 470.999 468.996 462.117C466.716 453.232 464.803 444.26 463.155 435.244C459.867 417.207 457.625 398.997 456.111 380.737C454.609 362.474 453.856 344.153 453.763 325.828C453.718 316.667 453.968 307.508 454.294 298.354C454.637 289.201 455.141 280.053 455.815 270.918C457.17 252.65 459.194 234.422 462.202 216.344C463.712 207.307 465.472 198.309 467.589 189.39C469.712 180.474 472.179 171.628 475.239 162.975C476.777 158.652 478.458 154.376 480.376 150.2C482.291 146.025 484.433 141.941 486.952 138.08C489.476 134.235 492.377 130.566 495.991 127.629C497.797 126.173 499.787 124.906 501.967 124.048C504.139 123.179 506.495 122.739 508.839 122.828C511.184 122.895 513.496 123.479 515.629 124.419C517.765 125.363 519.728 126.646 521.53 128.102C525.135 131.031 528.118 134.612 530.764 138.372C536.026 145.945 539.992 154.297 543.428 162.795C546.839 171.317 549.655 180.059 552.108 188.891C554.552 197.727 556.622 206.662 558.413 215.65C565.501 251.631 568.38 288.336 568.486 324.968ZM565.775 324.968C565.808 306.718 565.115 288.464 563.598 270.278C562.103 252.092 559.838 233.959 556.463 216.027C554.778 207.062 552.815 198.148 550.48 189.332C548.137 180.521 545.431 171.8 542.138 163.304C538.821 154.833 534.974 146.51 529.87 138.991C527.304 135.257 524.41 131.712 520.937 128.827C519.201 127.393 517.316 126.134 515.277 125.206C513.239 124.289 511.045 123.688 508.813 123.63C506.583 123.559 504.356 124.008 502.293 124.857C500.222 125.697 498.322 126.934 496.589 128.362C493.122 131.242 490.314 134.865 487.872 138.675C485.436 142.501 483.361 146.56 481.511 150.713C479.658 154.868 478.037 159.128 476.557 163.435C473.614 172.058 471.256 180.88 469.242 189.773C467.232 198.67 465.577 207.647 464.173 216.662C461.373 234.697 459.555 252.879 458.405 271.095C457.242 289.314 456.841 307.573 456.873 325.825C456.825 344.074 457.435 362.327 458.791 380.527C460.158 398.723 462.252 416.873 465.386 434.845C466.956 443.83 468.791 452.768 470.988 461.614C473.19 470.457 475.744 479.217 478.888 487.757C482.049 496.275 485.745 504.654 490.74 512.202C493.254 515.944 496.115 519.493 499.582 522.307C501.314 523.704 503.199 524.912 505.238 525.739C507.27 526.568 509.45 527.029 511.634 526.955C513.818 526.899 515.969 526.322 517.967 525.406C519.967 524.483 521.812 523.214 523.507 521.768C526.899 518.857 529.698 515.263 532.168 511.488C537.076 503.881 540.719 495.483 543.844 486.951C546.946 478.395 549.472 469.628 551.651 460.779C553.824 451.927 555.636 442.985 557.191 433.998C560.303 416.023 562.371 397.87 563.746 379.674C565.139 361.476 565.782 343.221 565.775 324.968Z" fill="white"/>
<path d="M660.88 324.969C660.753 348.555 657.722 372.151 651.408 394.896C644.984 417.588 635.3 439.419 622.152 459.019C615.578 468.808 608.13 478.023 599.807 486.383C591.488 494.741 582.288 502.241 572.301 508.527C562.305 514.788 551.508 519.8 540.207 523.201C528.912 526.61 517.12 528.388 505.318 528.4C493.516 528.399 481.722 526.631 470.421 523.232C459.113 519.84 448.308 514.836 438.301 508.581C428.304 502.302 419.09 494.808 410.758 486.454C402.421 478.098 394.958 468.885 388.369 459.096C375.195 439.493 365.491 417.653 359.037 394.949C355.86 383.576 353.499 371.979 351.935 360.278C350.379 348.576 349.597 336.774 349.544 324.969C349.605 313.163 350.394 301.363 351.957 289.662C353.528 277.964 355.898 266.37 359.083 255.001C365.553 232.307 375.272 210.481 388.455 190.899C395.047 181.119 402.511 171.916 410.846 163.571C419.179 155.23 428.386 147.743 438.382 141.484C448.385 135.245 459.188 130.278 470.476 126.887C481.757 123.483 493.532 121.708 505.319 121.696C517.105 121.718 528.878 123.503 540.153 126.916C551.435 130.315 562.229 135.292 572.222 141.538C582.206 147.804 591.401 155.297 599.719 163.642C608.041 171.991 615.49 181.195 622.068 190.975C635.223 210.555 644.923 232.371 651.363 255.055C657.69 277.791 660.737 301.383 660.88 324.969ZM657.772 324.969C657.738 301.651 654.833 278.308 648.681 255.799C642.494 233.324 633.179 211.627 620.355 192.115C613.946 182.368 606.667 173.182 598.515 164.831C590.359 156.494 581.351 148.95 571.499 142.681C561.635 136.446 550.983 131.428 539.814 128.034C528.65 124.637 516.995 122.851 505.318 122.812C493.641 122.861 481.989 124.657 470.831 128.062C459.667 131.465 449.025 136.493 439.171 142.735C429.33 149.011 420.335 156.561 412.193 164.902C404.054 173.256 396.79 182.445 390.396 192.191C377.599 211.701 368.303 233.388 362.147 255.852C359.08 267.096 356.86 278.562 355.355 290.113C353.847 301.665 353.103 313.315 353.077 324.969C353.11 336.622 353.862 348.271 355.377 359.822C356.889 371.371 359.119 382.833 362.193 394.073C368.365 416.527 377.676 438.2 390.482 457.689C396.878 467.427 404.143 476.605 412.281 484.948C420.423 493.277 429.411 500.819 439.251 507.076C449.102 513.301 459.742 518.292 470.885 521.694C482.023 525.104 493.657 526.908 505.318 526.967C516.979 526.919 528.616 525.126 539.76 521.725C550.909 518.332 561.558 513.349 571.419 507.131C581.269 500.88 590.271 493.344 598.426 485.019C606.578 476.68 613.858 467.503 620.269 457.766C633.102 438.274 642.432 416.592 648.634 394.126C654.802 371.626 657.722 348.287 657.772 324.969Z" fill="white"/>
<path d="M323.791 244.471L370.508 244.093L417.225 243.88L510.659 243.707L604.094 243.897L650.811 244.131L697.528 244.538C697.604 244.539 697.664 244.601 697.664 244.676C697.663 244.751 697.603 244.812 697.528 244.812L650.811 245.22L604.094 245.453L510.659 245.643L417.225 245.471L370.508 245.257L323.791 244.879C323.678 244.878 323.587 244.786 323.588 244.673C323.589 244.562 323.679 244.472 323.791 244.471Z" fill="white"/>
<path d="M377.987 166.223C389.043 166.048 400.099 165.972 411.155 165.845L444.323 165.632C455.379 165.54 466.435 165.55 477.491 165.522L510.659 165.459L576.994 165.649L610.162 165.883C621.218 166.021 632.274 166.102 643.33 166.29C643.406 166.291 643.466 166.354 643.464 166.43C643.463 166.504 643.403 166.563 643.33 166.564C632.274 166.752 621.218 166.833 610.162 166.972L576.994 167.206L510.659 167.396L477.491 167.333C466.435 167.304 455.379 167.314 444.323 167.223L411.155 167.009C400.099 166.882 389.043 166.807 377.987 166.632C377.874 166.63 377.784 166.537 377.786 166.424C377.788 166.313 377.877 166.225 377.987 166.223Z" fill="white"/>
<path d="M307.555 322.718L358.331 322.342L409.107 322.127L510.659 321.954L612.21 322.144L662.986 322.378L713.762 322.785C713.838 322.786 713.899 322.848 713.898 322.923C713.898 322.998 713.837 323.059 713.762 323.06L662.986 323.467L612.21 323.7L510.659 323.89L409.107 323.718L358.331 323.503L307.555 323.127C307.443 323.126 307.352 323.034 307.353 322.921C307.354 322.809 307.444 322.719 307.555 322.718Z" fill="white"/>
<path d="M323.791 400.965L370.508 400.588L417.225 400.374L510.659 400.201L604.094 400.391L650.811 400.625L697.528 401.032C697.604 401.033 697.664 401.095 697.664 401.17C697.663 401.245 697.603 401.306 697.528 401.306L650.811 401.714L604.094 401.948L510.659 402.138L417.225 401.965L370.508 401.751L323.791 401.374C323.678 401.373 323.587 401.281 323.588 401.168C323.589 401.056 323.679 400.966 323.791 400.965Z" fill="white"/>
<path d="M650.015 480.133H384.672C384.276 480.133 383.956 479.812 383.956 479.417C383.956 479.021 384.276 478.7 384.672 478.7H650.015C650.41 478.7 650.731 479.021 650.731 479.417C650.731 479.812 650.41 480.133 650.015 480.133Z" fill="white"/>
</g>
<path d="M326.11 178.076L307.701 194.865C306.27 196.17 305.572 198.097 305.836 200.017L309.231 224.7C309.895 229.534 304.729 233.031 300.488 230.618L278.832 218.299C277.147 217.341 275.1 217.273 273.356 218.117L250.93 228.973C246.539 231.099 241.615 227.266 242.599 222.487L247.624 198.084C248.014 196.186 247.446 194.218 246.104 192.82L228.85 174.846C225.471 171.327 227.595 165.46 232.444 164.919L257.205 162.156C259.131 161.941 260.827 160.793 261.742 159.085L273.504 137.121C275.808 132.819 282.043 133.026 284.056 137.471L294.335 160.167C295.135 161.932 296.752 163.19 298.659 163.532L323.182 167.932C327.985 168.793 329.715 174.787 326.11 178.076Z" fill="url(#paint1_linear_732_6671)"/>
<path opacity="0.77" d="M274.594 211.913C273.299 212.062 272.048 212.426 270.876 212.994L256.23 220.083C254.691 220.828 252.897 220.638 251.546 219.587C250.197 218.537 249.574 216.844 249.918 215.17L253.2 199.232C253.968 195.499 252.851 191.628 250.212 188.877L238.942 177.139C237.758 175.906 237.385 174.141 237.966 172.533C238.55 170.925 239.967 169.808 241.666 169.618L249.928 168.696L250.069 169.953L241.806 170.875C240.569 171.013 239.582 171.801 239.156 172.963C238.733 174.133 238.994 175.366 239.855 176.263L251.124 188.001C254.053 191.053 255.292 195.346 254.439 199.488L251.159 215.425C250.908 216.643 251.344 217.825 252.325 218.59C253.305 219.353 254.559 219.486 255.679 218.944L270.324 211.855C271.625 211.226 273.013 210.822 274.448 210.656L274.594 211.913Z" fill="white"/>
<path opacity="0.77" d="M302.065 219.355C301.733 220.092 301.198 220.737 300.495 221.213C299.079 222.172 297.277 222.241 295.79 221.396L284.969 215.241L285.596 214.141L296.416 220.296C297.496 220.911 298.756 220.862 299.786 220.165C300.816 219.468 301.33 218.316 301.159 217.084L298.943 200.966C298.372 196.827 299.921 192.541 303.012 189.724L315.035 178.759C315.953 177.92 316.294 176.706 315.952 175.513C315.607 174.318 314.67 173.473 313.446 173.254L297.429 170.38C293.266 169.633 289.741 166.888 287.998 163.037L281.283 148.215C280.769 147.081 279.722 146.38 278.479 146.339C277.235 146.298 276.144 146.928 275.557 148.024L267.875 162.37C267.081 163.853 266.02 165.148 264.72 166.218L263.916 165.242C265.087 164.277 266.044 163.11 266.76 161.772L274.441 147.427C275.248 145.92 276.811 145.018 278.52 145.075C280.229 145.132 281.73 146.135 282.434 147.692L289.149 162.515C290.721 165.987 293.9 168.462 297.651 169.135L313.669 172.009C315.351 172.31 316.692 173.518 317.167 175.161C317.64 176.805 317.149 178.541 315.887 179.694L303.865 190.658C301.077 193.199 299.681 197.061 300.197 200.793L302.413 216.912C302.53 217.765 302.402 218.607 302.065 219.355Z" fill="white"/>
<path opacity="0.77" d="M254.829 168.133L249.934 168.679L250.074 169.936L254.97 169.39L254.829 168.133Z" fill="white"/>
<path d="M401.398 99.9181L382.552 116.214C381.086 117.482 380.338 119.389 380.551 121.315L383.292 146.079C383.829 150.929 378.571 154.288 374.396 151.764L353.073 138.877C351.414 137.874 349.369 137.752 347.604 138.55L324.898 148.809C320.452 150.818 315.632 146.856 316.742 142.105L322.41 117.843C322.851 115.957 322.335 113.974 321.031 112.541L304.258 94.1173C300.973 90.5093 303.251 84.701 308.113 84.2885L332.939 82.1817C334.87 82.0181 336.596 80.9147 337.556 79.2313L349.894 57.5861C352.311 53.347 358.539 53.7191 360.434 58.2156L370.109 81.1752C370.861 82.9607 372.444 84.2617 374.342 84.6539L398.74 89.7004C403.518 90.688 405.089 96.7262 401.398 99.9181Z" fill="url(#paint2_linear_732_6671)"/>
<path opacity="0.77" d="M349.005 132.38C347.706 132.495 346.447 132.826 345.259 133.363L330.431 140.062C328.873 140.766 327.085 140.529 325.763 139.442C324.442 138.357 323.864 136.648 324.252 134.983L327.954 119.138C328.821 115.426 327.807 111.527 325.24 108.708L314.286 96.6755C313.135 95.4116 312.808 93.6372 313.432 92.0449C314.058 90.453 315.504 89.3746 317.207 89.2294L325.491 88.5264L325.598 89.7865L317.314 90.4897C316.074 90.5946 315.067 91.3564 314.609 92.5072C314.156 93.6648 314.384 94.9043 315.221 95.8241L326.176 107.856C329.023 110.984 330.148 115.309 329.186 119.427L325.485 135.272C325.202 136.482 325.606 137.676 326.567 138.466C327.527 139.256 328.776 139.421 329.91 138.909L344.738 132.21C346.055 131.615 347.453 131.248 348.893 131.12L349.005 132.38Z" fill="white"/>
<path opacity="0.77" d="M376.271 140.548C375.92 141.276 375.368 141.907 374.653 142.364C373.211 143.285 371.408 143.307 369.944 142.423L359.29 135.984L359.945 134.9L370.599 141.339C371.663 141.983 372.923 141.967 373.971 141.297C375.02 140.628 375.564 139.49 375.425 138.254L373.636 122.083C373.176 117.93 374.837 113.687 378.002 110.952L390.31 100.31C391.249 99.4954 391.623 98.2908 391.312 97.0886C390.999 95.885 390.085 95.016 388.867 94.7647L372.931 91.4681C368.79 90.6111 365.338 87.7736 363.698 83.878L357.377 68.883C356.894 67.7363 355.865 67.0079 354.624 66.9339C353.382 66.86 352.274 67.4609 351.659 68.5409L343.6 82.679C342.767 84.1406 341.672 85.4069 340.344 86.4423L339.566 85.4451C340.762 84.5115 341.75 83.3697 342.501 82.0519L350.559 67.9148C351.406 66.4292 352.992 65.5693 354.699 65.6712C356.406 65.7732 357.879 66.8155 358.542 68.3914L364.863 83.3866C366.342 86.899 369.455 89.4573 373.187 90.2292L389.123 93.5254C390.797 93.8713 392.105 95.1143 392.536 96.7697C392.966 98.4249 392.429 100.148 391.137 101.267L378.829 111.909C375.975 114.375 374.477 118.199 374.895 121.943L376.683 138.115C376.778 138.971 376.628 139.81 376.271 140.548Z" fill="white"/>
<path opacity="0.77" d="M330.388 88.1125L325.479 88.5283L325.586 89.7888L330.495 89.373L330.388 88.1125Z" fill="white"/>
<path d="M500.182 57.3305L481.769 74.1145C480.337 75.4201 479.639 77.3463 479.903 79.266L483.291 103.95C483.954 108.784 478.787 112.28 474.547 109.866L452.894 97.5413C451.209 96.5828 449.162 96.514 447.418 97.358L424.989 108.208C420.597 110.333 415.675 106.499 416.66 101.72L421.691 77.3182C422.082 75.4207 421.514 73.452 420.172 72.0536L402.923 54.0757C399.545 50.5549 401.67 44.6889 406.519 44.1492L431.281 41.3928C433.207 41.1786 434.904 40.0304 435.819 38.3225L447.587 16.3615C449.892 12.0606 456.127 12.2694 458.139 16.7147L468.412 39.413C469.211 41.1782 470.827 42.4372 472.735 42.7797L497.257 47.1853C502.059 48.048 503.788 54.0429 500.182 57.3305Z" fill="url(#paint3_linear_732_6671)"/>
<path opacity="0.77" d="M448.658 91.1539C447.363 91.3029 446.112 91.6666 444.939 92.2344L430.292 99.3193C428.752 100.064 426.958 99.874 425.608 98.8219C424.26 97.7716 423.637 96.0785 423.981 94.4043L427.266 78.4677C428.036 74.7346 426.92 70.8632 424.281 68.1119L413.015 56.3705C411.831 55.1373 411.458 53.3721 412.04 51.764C412.624 50.1562 414.041 49.0403 415.74 48.8505L424.003 47.9307L424.143 49.1876L415.88 50.1076C414.643 50.245 413.656 51.0328 413.229 52.1951C412.806 53.3642 413.067 54.5971 413.928 55.4947L425.194 67.236C428.122 70.2881 429.36 74.5823 428.506 78.7233L425.221 94.6598C424.97 95.8775 425.405 97.0602 426.386 97.8245C427.367 98.5889 428.62 98.7215 429.74 98.1799L444.387 91.095C445.688 90.4658 447.076 90.0624 448.512 89.8966L448.658 91.1539Z" fill="white"/>
<path opacity="0.77" d="M476.127 98.6028C475.795 99.3392 475.26 99.9847 474.557 100.46C473.14 101.419 471.338 101.488 469.851 100.642L459.032 94.4848L459.659 93.3849L470.478 99.5425C471.558 100.158 472.817 100.109 473.848 99.4124C474.878 98.7153 475.392 97.564 475.221 96.3315L473.01 80.213C472.44 76.0741 473.99 71.789 477.082 68.9723L489.107 58.0109C490.025 57.1722 490.367 55.9581 490.025 54.7644C489.68 53.5696 488.744 52.7247 487.52 52.5054L471.503 49.6274C467.341 48.8791 463.816 46.133 462.075 42.2819L455.363 27.4576C454.85 26.324 453.803 25.6228 452.56 25.5813C451.316 25.5399 450.224 26.1695 449.638 27.2654L441.952 41.6098C441.157 43.0926 440.096 44.3872 438.795 45.457L437.992 44.4806C439.163 43.516 440.121 42.3487 440.837 41.0116L448.522 26.6683C449.33 25.1611 450.892 24.2597 452.601 24.317C454.311 24.3741 455.811 25.3776 456.515 26.9356L463.226 41.7601C464.797 45.2325 467.976 47.7085 471.727 48.3821L487.743 51.2597C489.426 51.5618 490.766 52.7701 491.24 54.4136C491.713 56.0569 491.222 57.7933 489.96 58.9456L477.934 69.9066C475.147 72.4469 473.749 76.3081 474.264 80.0407L476.476 96.1598C476.592 97.0131 476.464 97.855 476.127 98.6028Z" fill="white"/>
<path opacity="0.77" d="M428.904 47.3922L424.008 47.9365L424.148 49.1939L429.044 48.6495L428.904 47.3922Z" fill="white"/>
<path d="M609.541 49.3256L591.128 66.1096C589.696 67.4152 588.998 69.3414 589.262 71.2612L592.65 95.9448C593.314 100.779 588.146 104.275 583.906 101.861L562.253 89.5364C560.569 88.5779 558.521 88.5091 556.777 89.3531L534.349 100.203C529.957 102.328 525.034 98.494 526.019 93.7151L531.05 69.3133C531.441 67.4158 530.874 65.4471 529.532 64.0487L512.282 46.0708C508.904 42.55 511.03 36.684 515.879 36.1444L540.641 33.3879C542.566 33.1738 544.263 32.0255 545.179 30.3176L556.946 8.35662C559.251 4.05569 565.487 4.26452 567.498 8.70982L577.772 31.4081C578.571 33.1734 580.187 34.4323 582.094 34.7748L606.617 39.1804C611.418 40.0431 613.147 46.0381 609.541 49.3256Z" fill="url(#paint4_linear_732_6671)"/>
<path opacity="0.77" d="M558.017 83.149C556.722 83.298 555.471 83.6617 554.299 84.2295L539.651 91.3144C538.111 92.0593 536.318 91.8691 534.968 90.817C533.619 89.7667 532.996 88.0737 533.341 86.3995L536.626 70.4628C537.395 66.7297 536.279 62.8583 533.64 60.107L522.374 48.3656C521.191 47.1325 520.817 45.3672 521.399 43.7591C521.984 42.1513 523.401 41.0354 525.099 40.8456L533.362 39.9258L533.502 41.1827L525.239 42.1027C524.002 42.2402 523.016 43.0279 522.588 44.1902C522.165 45.3593 522.426 46.5922 523.287 47.4898L534.553 59.2311C537.481 62.2832 538.719 66.5774 537.865 70.7185L534.581 86.6549C534.329 87.8726 534.765 89.0553 535.746 89.8197C536.726 90.584 537.98 90.7166 539.099 90.175L553.747 83.0901C555.048 82.4609 556.436 82.0575 557.871 81.8917L558.017 83.149Z" fill="white"/>
<path opacity="0.77" d="M585.486 90.598C585.154 91.3343 584.619 91.9798 583.916 92.4552C582.499 93.4137 580.697 93.4831 579.211 92.6375L568.392 86.4799L569.018 85.38L579.837 91.5376C580.917 92.1532 582.177 92.1046 583.207 91.4075C584.237 90.7104 584.751 89.5592 584.581 88.3266L582.369 72.2081C581.8 68.0692 583.35 63.7842 586.441 60.9674L598.466 50.006C599.385 49.1673 599.726 47.9532 599.384 46.7595C599.04 45.5647 598.103 44.7198 596.879 44.5005L580.863 41.6225C576.7 40.8742 573.175 38.1281 571.434 34.277L564.722 19.4527C564.209 18.3191 563.162 17.6179 561.919 17.5764C560.676 17.535 559.584 18.1646 558.997 19.2605L551.312 33.6049C550.517 35.0877 549.455 36.3823 548.155 37.4521L547.352 36.4757C548.523 35.5111 549.481 34.3438 550.196 33.0068L557.881 18.6634C558.689 17.1562 560.252 16.2548 561.961 16.3121C563.67 16.3693 565.17 17.3728 565.874 18.9307L572.586 33.7552C574.157 37.2276 577.335 39.7036 581.086 40.3773L597.103 43.2549C598.786 43.5569 600.126 44.7652 600.6 46.4087C601.073 48.052 600.582 49.7885 599.319 50.9407L587.294 61.9017C584.506 64.442 583.108 68.3032 583.624 72.0358L585.835 88.1549C585.952 89.0082 585.824 89.8501 585.486 90.598Z" fill="white"/>
<path opacity="0.77" d="M538.264 39.3873L533.367 39.9316L533.507 41.189L538.403 40.6446L538.264 39.3873Z" fill="white"/>
<path d="M712.108 89.351L693.696 106.135C692.264 107.441 691.566 109.367 691.829 111.287L695.218 135.97C695.881 140.804 690.714 144.301 686.473 141.887L664.821 129.562C663.136 128.603 661.089 128.534 659.345 129.379L636.916 140.229C632.524 142.353 627.602 138.519 628.587 133.741L633.618 109.339C634.009 107.441 633.441 105.472 632.099 104.074L614.85 86.0962C611.472 82.5754 613.597 76.7094 618.446 76.1698L643.208 73.4133C645.134 73.1991 646.831 72.0509 647.746 70.343L659.514 48.382C661.818 44.0811 668.054 44.2899 670.066 48.7352L680.339 71.4335C681.138 73.1987 682.754 74.4577 684.661 74.8002L709.184 79.2058C713.986 80.0685 715.715 86.0635 712.108 89.351Z" fill="url(#paint5_linear_732_6671)"/>
<path opacity="0.77" d="M660.585 123.174C659.289 123.323 658.039 123.687 656.866 124.255L642.219 131.34C640.679 132.085 638.885 131.894 637.535 130.842C636.186 129.792 635.564 128.099 635.908 126.425L639.193 110.488C639.963 106.755 638.847 102.884 636.208 100.132L624.941 88.391C623.758 87.1579 623.384 85.3926 623.966 83.7845C624.551 82.1767 625.968 81.0608 627.667 80.871L635.929 79.9512L636.07 81.2081L627.807 82.1281C626.57 82.2655 625.583 83.0533 625.156 84.2156C624.733 85.3847 624.994 86.6176 625.855 87.5152L637.121 99.2565C640.049 102.309 641.286 106.603 640.433 110.744L637.148 126.68C636.897 127.898 637.332 129.081 638.313 129.845C639.294 130.609 640.547 130.742 641.667 130.2L656.314 123.116C657.615 122.486 659.003 122.083 660.438 121.917L660.585 123.174Z" fill="white"/>
<path opacity="0.77" d="M688.054 130.624C687.721 131.361 687.186 132.006 686.484 132.482C685.067 133.44 683.264 133.509 681.778 132.664L670.959 126.506L671.585 125.406L682.404 131.564C683.485 132.18 684.744 132.131 685.774 131.434C686.805 130.737 687.319 129.586 687.148 128.353L684.937 112.234C684.367 108.096 685.917 103.811 689.009 100.994L701.034 90.0324C701.952 89.1937 702.294 87.9796 701.951 86.7859C701.607 85.591 700.67 84.7462 699.447 84.5269L683.43 81.6489C679.268 80.9006 675.743 78.1545 674.002 74.3034L667.29 59.4791C666.777 58.3455 665.729 57.6442 664.487 57.6028C663.243 57.5613 662.151 58.191 661.564 59.2869L653.879 73.6313C653.084 75.1141 652.023 76.4087 650.722 77.4784L649.919 76.5021C651.09 75.5375 652.048 74.3702 652.763 73.0331L660.449 58.6898C661.256 57.1826 662.819 56.2812 664.528 56.3385C666.237 56.3956 667.738 57.3991 668.442 58.9571L675.153 73.7816C676.724 77.2539 679.902 79.7299 683.654 80.4036L699.67 83.2812C701.353 83.5833 702.693 84.7916 703.167 86.4351C703.64 88.0783 703.149 89.8148 701.886 90.967L689.861 101.928C687.073 104.468 685.676 108.33 686.191 112.062L688.403 128.181C688.519 129.035 688.391 129.876 688.054 130.624Z" fill="white"/>
<path opacity="0.77" d="M640.831 79.4127L635.935 79.957L636.074 81.2144L640.971 80.67L640.831 79.4127Z" fill="white"/>
<path d="M571.729 497.847L676.3 297.511H654.875C650.924 297.511 648.752 292.918 651.257 289.864L762.709 154.026C767.54 148.139 777.082 151.873 776.633 159.475L768.799 292.307C768.35 299.911 761.607 305.579 754.04 304.713L739.102 303.003L635.346 527.701C632.646 533.55 626.79 537.296 620.347 537.296H584.387L571.729 497.847Z" fill="url(#paint6_linear_732_6671)"/>
<path d="M485.27 357.343L559.094 521.336C563.467 531.049 573.13 537.296 583.782 537.296H621.84C626.89 537.296 631.542 534.556 633.992 530.141L635.345 527.701C631.256 527.701 627.512 525.408 625.653 521.766L527.29 329.038L485.27 357.343Z" fill="url(#paint7_linear_732_6671)"/>
<path d="M537.226 348.503C529.823 342.658 519.007 344.376 513.78 352.229L405.237 515.307C396.543 528.368 381.893 536.216 366.203 536.216H350.93L338.5 500.409C338.5 500.409 439.408 345.685 465.416 322.28C465.416 322.28 491.317 298.936 516.855 316.586C523.602 321.249 528.724 327.904 531.853 335.485L537.226 348.503Z" fill="url(#paint8_linear_732_6671)"/>
<path d="M220.443 404.109C220.443 404.109 238.613 381.398 273.821 377.865C273.821 377.865 290.544 383.563 323.859 443.258C357.173 502.954 379.287 530.177 405.236 515.308L403.088 518.875C396.008 530.631 383.288 537.819 369.565 537.819H355.213C339.412 537.819 325.69 513.48 316.463 500.653C290.534 464.609 236.371 409.705 220.443 404.109Z" fill="url(#paint9_linear_732_6671)"/>
<path opacity="0.79" d="M764.056 201.446C764.018 201.446 763.98 201.444 763.942 201.44C763.39 201.378 762.993 200.88 763.056 200.328L763.791 193.842C763.854 193.291 764.351 192.893 764.903 192.957C765.454 193.019 765.851 193.517 765.788 194.069L765.053 200.554C764.995 201.067 764.561 201.446 764.056 201.446Z" fill="white"/>
<path opacity="0.79" d="M671.02 283.319C670.806 283.319 670.59 283.251 670.408 283.11C669.968 282.772 669.886 282.141 670.224 281.701L762.256 162.119C763.334 160.719 765.09 160.24 766.726 160.905C768.365 161.567 769.294 163.13 769.095 164.885L767.471 179.219C767.408 179.771 766.914 180.165 766.36 180.105C765.808 180.043 765.411 179.545 765.474 178.993L767.098 164.659C767.213 163.647 766.592 163.018 765.973 162.768C765.352 162.517 764.471 162.537 763.848 163.345L671.817 282.927C671.62 283.184 671.321 283.319 671.02 283.319Z" fill="white"/>
<path opacity="0.79" d="M462.236 408.68C462.042 408.68 461.847 408.625 461.674 408.508C461.215 408.198 461.093 407.573 461.404 407.113L509 336.561C510.701 334.039 513.515 332.669 516.562 332.902C519.595 333.132 522.184 334.91 523.485 337.661C523.722 338.163 523.508 338.761 523.007 338.999C522.506 339.237 521.905 339.022 521.668 338.52C520.68 336.432 518.714 335.08 516.409 334.906C514.106 334.738 511.959 335.771 510.666 337.685L463.07 408.237C462.876 408.525 462.558 408.68 462.236 408.68Z" fill="white"/>
<path opacity="0.79" d="M449.868 427.016C449.674 427.016 449.478 426.96 449.306 426.844C448.846 426.533 448.725 425.909 449.035 425.449L452.087 420.924C452.397 420.464 453.024 420.343 453.482 420.654C453.942 420.964 454.064 421.589 453.753 422.049L450.701 426.573C450.508 426.861 450.19 427.016 449.868 427.016Z" fill="white"/>
<defs>
<linearGradient id="paint0_linear_732_6671" x1="780.285" y1="545.285" x2="298.67" y2="32.8317" gradientUnits="userSpaceOnUse">
<stop stop-color="#FFD3B1"/>
<stop offset="1" stop-color="white"/>
</linearGradient>
<linearGradient id="paint1_linear_732_6671" x1="289.072" y1="94.0129" x2="264.95" y2="258.845" gradientUnits="userSpaceOnUse">
<stop stop-color="#FFBB8E"/>
<stop offset="1" stop-color="#FF6D0C"/>
</linearGradient>
<linearGradient id="paint2_linear_732_6671" x1="383.261" y1="5.15833" x2="326.977" y2="168.649" gradientUnits="userSpaceOnUse">
<stop stop-color="#FFBB8E"/>
<stop offset="1" stop-color="#FF6D0C"/>
</linearGradient>
<linearGradient id="paint3_linear_732_6671" x1="478.464" y1="-30.1398" x2="424.86" y2="133.351" gradientUnits="userSpaceOnUse">
<stop stop-color="#FFBB8E"/>
<stop offset="1" stop-color="#FF6D0C"/>
</linearGradient>
<linearGradient id="paint4_linear_732_6671" x1="587.823" y1="-38.1447" x2="534.22" y2="125.346" gradientUnits="userSpaceOnUse">
<stop stop-color="#FFBB8E"/>
<stop offset="1" stop-color="#FF6D0C"/>
</linearGradient>
<linearGradient id="paint5_linear_732_6671" x1="690.391" y1="1.88071" x2="636.787" y2="165.372" gradientUnits="userSpaceOnUse">
<stop stop-color="#FFBB8E"/>
<stop offset="1" stop-color="#FF6D0C"/>
</linearGradient>
<linearGradient id="paint6_linear_732_6671" x1="790.862" y1="127.521" x2="605.929" y2="504.087" gradientUnits="userSpaceOnUse">
<stop stop-color="#FFBB8E"/>
<stop offset="1" stop-color="#FF6D0C"/>
</linearGradient>
<linearGradient id="paint7_linear_732_6671" x1="668.421" y1="599.19" x2="519.676" y2="393.071" gradientUnits="userSpaceOnUse">
<stop stop-color="#FFB78E"/>
<stop offset="1" stop-color="#FF6D0C"/>
</linearGradient>
<linearGradient id="paint8_linear_732_6671" x1="524.712" y1="289.199" x2="361.221" y2="543.817" gradientUnits="userSpaceOnUse">
<stop stop-color="#FFBF8E"/>
<stop offset="1" stop-color="#FF6D0C"/>
</linearGradient>
<linearGradient id="paint9_linear_732_6671" x1="393.527" y1="542.564" x2="205.417" y2="348.435" gradientUnits="userSpaceOnUse">
<stop stop-color="#FFB78E"/>
<stop offset="1" stop-color="#FF6D0C"/>
</linearGradient>
</defs>
</svg>
