<svg width="121" height="24" viewBox="0 0 121 24" fill="none" xmlns="http://www.w3.org/2000/svg">
<path d="M1.00164 1.11133H10.5794V2.97642H3.101V8.26536C3.38932 8.2113 3.74072 8.16625 4.15518 8.11219C4.57866 8.05813 4.9751 8.04011 5.36254 8.04011C6.2185 8.04011 7.02941 8.1212 7.80428 8.28338C8.57915 8.44557 9.25491 8.71587 9.84056 9.1033C10.4262 9.49074 10.8947 10.0133 11.2371 10.6801C11.5795 11.3468 11.7507 12.1758 11.7507 13.1849C11.7507 14.194 11.5705 15.059 11.2191 15.7888C10.8677 16.5186 10.3992 17.1133 9.80452 17.5818C9.21887 18.0413 8.5341 18.3837 7.75022 18.618C6.96634 18.8432 6.14642 18.9604 5.29045 18.9604C5.00213 18.9604 4.67777 18.9604 4.31736 18.9514C3.95696 18.9424 3.57853 18.9243 3.18209 18.8883C2.78564 18.8522 2.39821 18.8162 2.01978 18.7712C1.64136 18.7261 1.28996 18.663 0.974609 18.5819V1.11133H1.00164ZM5.56076 17.1313C6.10137 17.1313 6.60593 17.0592 7.10149 16.9061C7.58804 16.7529 8.01151 16.5366 8.37192 16.2393C8.73232 15.942 9.02064 15.5726 9.22788 15.1221C9.43511 14.6716 9.54323 14.14 9.54323 13.5363C9.54323 12.7614 9.41709 12.1397 9.17382 11.6622C8.93054 11.1846 8.60618 10.8062 8.20072 10.5449C7.79527 10.2746 7.33575 10.0944 6.80416 10.0043C6.27256 9.91421 5.72294 9.86916 5.1553 9.86916C5.00213 9.86916 4.83094 9.87817 4.62371 9.89619C4.42548 9.91421 4.21825 9.93224 4.02003 9.95026C3.82181 9.96828 3.63259 9.98629 3.4614 10.0133C3.29021 10.0404 3.16407 10.0584 3.08298 10.0764V17.0052C3.20011 17.0412 3.35328 17.0682 3.5515 17.0773C3.74072 17.0953 3.95696 17.1133 4.18221 17.1313C4.40746 17.1493 4.64173 17.1583 4.87599 17.1583C5.11926 17.1313 5.34452 17.1313 5.56076 17.1313Z" fill="white"/>
<path d="M21.7877 11.2913L21.8598 9.73251H21.7877L20.7515 11.3453L15.0842 18.7516H13.9219V6.14648H15.9401V13.8321L15.8681 15.3188H15.9672L16.9493 13.76L22.6166 6.15549H23.797V18.7426H21.7787L21.7877 11.2913Z" fill="white"/>
<path d="M38.0872 21.9412H36.7267L36.3482 18.7426H26.8786L26.5002 21.9412H25.1396V16.9766H26.6263C26.7615 16.7964 26.9327 16.4631 27.1579 15.9855C27.3742 15.508 27.5904 14.8322 27.7976 13.9673C28.0049 13.1023 28.1941 12.0301 28.3563 10.7416C28.5184 9.4532 28.6085 7.92148 28.6446 6.14648H36.2491V16.9766H38.0872V21.9412ZM34.2309 16.9857V7.91247H30.4556C30.4196 8.61525 30.3655 9.39013 30.2754 10.2191C30.1943 11.048 30.0772 11.8859 29.933 12.7149C29.7889 13.5438 29.6087 14.3277 29.3924 15.0665C29.1762 15.8053 28.9239 16.445 28.6356 16.9857H34.2309Z" fill="white"/>
<path d="M41.1868 8.41761H47.9624C47.9083 7.74185 47.7732 7.12916 47.5479 6.56153C47.3227 6.0029 47.0163 5.51635 46.6289 5.1109C46.2415 4.70544 45.7639 4.39009 45.1963 4.16484C44.6286 3.93958 43.9799 3.82245 43.2591 3.82245C42.3491 3.82245 41.5652 3.92156 40.8895 4.11077C40.2137 4.29998 39.6731 4.51623 39.2496 4.75049L38.5198 1.83121C39.1054 1.52487 39.8443 1.27259 40.7363 1.06535C41.6283 0.858121 42.5113 0.75 43.3853 0.75C44.5476 0.75 45.6108 0.912181 46.6019 1.22754C47.584 1.54289 48.4309 2.07449 49.1427 2.80431C49.8545 3.53413 50.4131 4.48019 50.8186 5.65151C51.2241 6.82282 51.4223 8.24642 51.4223 9.9223C51.4223 11.6703 51.188 13.1299 50.7195 14.3102C50.251 15.4906 49.6203 16.4276 48.8274 17.1304C48.0345 17.8332 47.1335 18.3378 46.1063 18.6441C45.0792 18.9504 44.016 19.0946 42.9077 19.0946C41.9526 19.0946 41.0787 19.0135 40.3038 18.8423C39.5199 18.6711 38.8982 18.4819 38.4297 18.2657L39.3397 15.2653C39.7271 15.4545 40.2497 15.6257 40.8985 15.7789C41.5562 15.9411 42.313 16.0222 43.169 16.0222C43.8267 16.0222 44.4304 15.932 44.98 15.7428C45.5387 15.5626 46.0252 15.2653 46.4577 14.8779C46.8902 14.4814 47.2326 13.9859 47.5029 13.3822C47.7732 12.7785 47.9354 12.0487 48.0074 11.1927H41.1868V8.41761Z" fill="white"/>
<path d="M57.2337 13.5348H56.3507V18.7516H53.0801V6.14648H56.3598V11.5165L57.1436 11.1651L60.0899 6.15549H63.5949L60.5495 10.9399L59.261 11.8949L60.6756 12.877L64.0724 18.7516H60.3152L57.2337 13.5348Z" fill="white"/>
<path d="M73.2534 17.9676C72.7488 18.337 72.1362 18.6163 71.4244 18.8145C70.7126 19.0038 69.9737 19.1029 69.2169 19.1029C68.2077 19.1029 67.3608 18.9407 66.658 18.6253C65.9642 18.31 65.3966 17.8595 64.9551 17.2738C64.5226 16.6972 64.2073 15.9944 64.009 15.1745C63.8198 14.3545 63.7207 13.4445 63.7207 12.4534C63.7207 10.318 64.1982 8.67816 65.1533 7.52487C66.1084 6.37157 67.505 5.79492 69.334 5.79492C70.253 5.79492 71.0009 5.867 71.5595 6.02017C72.1181 6.17335 72.6317 6.36256 73.0822 6.59682L72.2983 9.26382C71.9109 9.08361 71.5325 8.93945 71.154 8.83133C70.7756 8.73222 70.3431 8.67816 69.8566 8.67816C68.9466 8.67816 68.2618 8.9755 67.7933 9.57016C67.3248 10.1648 67.0905 11.1199 67.0905 12.4264C67.0905 12.967 67.1536 13.4625 67.2707 13.913C67.3878 14.3635 67.568 14.76 67.8023 15.0934C68.0366 15.4267 68.3429 15.697 68.7213 15.8863C69.0997 16.0755 69.5412 16.1746 70.0458 16.1746C70.6044 16.1746 71.073 16.1025 71.4604 15.9583C71.8478 15.8142 72.1902 15.643 72.4966 15.4448L73.2534 17.9676Z" fill="white"/>
<path d="M81.7778 9.04774H77.7953V18.7426H74.5156V6.14648H85.0484V18.7426H81.7688V9.04774H81.7778Z" fill="white"/>
<path d="M97.2661 17.6624C96.7615 18.0679 96.0767 18.4013 95.2118 18.6806C94.3468 18.9599 93.4278 19.0951 92.4547 19.0951C90.4184 19.0951 88.9317 18.5004 87.9947 17.3201C87.0576 16.1397 86.5801 14.5089 86.5801 12.4456C86.5801 10.2291 87.1117 8.56223 88.1659 7.45398C89.22 6.34574 90.7067 5.78711 92.6259 5.78711C93.2656 5.78711 93.8873 5.8682 94.491 6.03939C95.0946 6.21058 95.6352 6.48089 96.1038 6.86832C96.5723 7.25576 96.9507 7.77834 97.239 8.42707C97.5274 9.08481 97.6715 9.89572 97.6715 10.8688C97.6715 11.2202 97.6535 11.5986 97.6085 12.0041C97.5634 12.4095 97.5003 12.824 97.4192 13.2655H89.8868C89.9409 14.3197 90.2112 15.1216 90.7067 15.6622C91.2023 16.2028 92.0042 16.4641 93.1034 16.4641C93.7882 16.4641 94.4009 16.356 94.9505 16.1487C95.4911 15.9415 95.9055 15.7253 96.1939 15.509L97.2661 17.6624ZM92.5898 8.41806C91.7339 8.41806 91.1032 8.67035 90.6977 9.18392C90.2922 9.6975 90.04 10.3823 89.9589 11.2382H94.6171C94.6802 10.3282 94.545 9.63443 94.2026 9.14788C93.8693 8.66134 93.3287 8.41806 92.5898 8.41806Z" fill="white"/>
<path d="M99.2571 6.14632H101.654L102.032 7.66002H102.131C102.564 7.0203 103.086 6.55177 103.681 6.24543C104.276 5.93908 105.006 5.79492 105.861 5.79492C107.438 5.79492 108.628 6.29048 109.411 7.2906C110.204 8.29073 110.592 9.89453 110.592 12.111C110.592 13.1832 110.466 14.1563 110.213 15.0213C109.961 15.8862 109.592 16.6251 109.096 17.2288C108.601 17.8324 107.997 18.292 107.285 18.6163C106.573 18.9317 105.753 19.0939 104.825 19.0939C104.303 19.0939 103.879 19.0578 103.537 18.9767C103.203 18.9046 102.861 18.7785 102.528 18.6073V23.7701H99.248V6.14632H99.2571ZM104.879 8.57004C104.24 8.57004 103.744 8.73222 103.384 9.04758C103.023 9.36293 102.744 9.84947 102.537 10.4802V15.7241C102.771 15.9133 103.032 16.0574 103.303 16.1656C103.582 16.2737 103.942 16.3277 104.402 16.3277C105.339 16.3277 106.051 15.9944 106.519 15.3366C106.988 14.6699 107.222 13.5797 107.222 12.0479C107.222 10.9397 107.033 10.0837 106.663 9.48006C106.294 8.86737 105.699 8.57004 104.879 8.57004Z" fill="white"/>
<path d="M120.998 9.04774H117.448V18.7426H114.07V9.04774H110.52V6.14648H120.998V9.04774Z" fill="white"/>
</svg>
