<svg width="16" height="17" viewBox="0 0 16 17" fill="none" xmlns="http://www.w3.org/2000/svg">
<path d="M0 8.18C0 4.55968 0 2.74944 1.12464 1.62464C2.24944 0.5 4.05968 0.5 7.68 0.5H8.32C11.9403 0.5 13.7506 0.5 14.8754 1.62464C16 2.74944 16 4.55968 16 8.18V8.82C16 12.4403 16 14.2506 14.8754 15.3754C13.7506 16.5 11.9403 16.5 8.32 16.5H7.68C4.05968 16.5 2.24944 16.5 1.12464 15.3754C0 14.2506 0 12.4403 0 8.82V8.18Z" fill="#4C4C4C"/>
<path d="M8.51364 12.0272C4.86692 12.0272 2.78692 9.52719 2.7002 5.36719H4.52692C4.58692 8.42047 5.93348 9.71391 7.0002 9.98047V5.36719H8.7202V8.00047C9.77364 7.88719 10.88 6.68719 11.2535 5.36719H12.9735C12.6869 6.99391 11.4869 8.19391 10.6335 8.68719C11.4869 9.08719 12.8536 10.1339 13.3736 12.0272H11.4802C11.0735 10.7605 10.0602 9.78047 8.7202 9.64719V12.0272H8.51364Z" fill="white"/>
</svg>
