<svg width="38" height="38" viewBox="0 0 38 38" fill="none" xmlns="http://www.w3.org/2000/svg">
<path fill-rule="evenodd" clip-rule="evenodd" d="M28.8326 8.88928C26.222 6.27869 22.7533 4.83789 19.0587 4.83789C11.4437 4.83789 5.24243 11.0347 5.24243 18.6497C5.23791 21.0841 5.87476 23.4598 7.08521 25.5555L5.125 32.7144L12.4509 30.7903C14.4653 31.8923 16.7417 32.4705 19.0542 32.475H19.0587C26.6737 32.475 32.8705 26.2782 32.875 18.6587C32.875 14.9686 31.4387 11.4999 28.8326 8.88928ZM19.0587 30.1399H19.0542C16.9946 30.1399 14.9712 29.5844 13.2097 28.541L12.7897 28.2926L8.44019 29.4308L9.60095 25.1942L9.32996 24.7606C8.17822 22.9314 7.573 20.8176 7.573 18.6497C7.573 12.3219 12.7264 7.17297 19.0632 7.17297C22.13 7.17297 25.0116 8.36987 27.1796 10.5378C29.3475 12.7103 30.5399 15.5919 30.5399 18.6587C30.5399 24.991 25.3865 30.1399 19.0587 30.1399ZM25.3549 21.5403C25.0116 21.3687 23.3134 20.5331 22.9972 20.4202C22.681 20.3027 22.4507 20.2485 22.2203 20.5918C21.99 20.9396 21.3306 21.7164 21.1273 21.9468C20.9286 22.1726 20.7253 22.2042 20.3821 22.0326C20.0343 21.861 18.9232 21.4951 17.6044 20.3163C16.5791 19.4039 15.8835 18.2703 15.6848 17.927C15.4816 17.5792 15.6622 17.394 15.8339 17.2224C15.9919 17.0688 16.1816 16.8204 16.3533 16.6172C16.5249 16.4185 16.5836 16.2739 16.701 16.0436C16.814 15.8132 16.7552 15.61 16.6694 15.4384C16.5836 15.2667 15.8926 13.564 15.6035 12.8729C15.3235 12.2 15.0389 12.2948 14.8267 12.2812C14.6279 12.2722 14.3976 12.2722 14.1672 12.2722C13.9369 12.2722 13.562 12.358 13.2459 12.7058C12.9297 13.0491 12.0399 13.8846 12.0399 15.5829C12.0399 17.2811 13.2775 18.9252 13.4491 19.1555C13.6207 19.3813 15.8835 22.8682 19.3478 24.3632C20.1698 24.72 20.8112 24.9323 21.3125 25.0903C22.139 25.3523 22.8933 25.3162 23.4895 25.2303C24.1534 25.131 25.531 24.3948 25.8201 23.5863C26.1046 22.7823 26.1046 22.0913 26.0188 21.9468C25.933 21.8022 25.7026 21.7164 25.3549 21.5403Z" fill="white"/>
</svg>
