<svg width="32" height="32" viewBox="0 0 32 32" fill="none" xmlns="http://www.w3.org/2000/svg">
<path d="M24 2.14383C26.4132 3.5372 28.4207 5.53667 29.8237 7.94431C31.2267 10.3519 31.9766 13.0843 31.9991 15.8708C32.0216 18.6573 31.316 21.4014 29.952 23.8313C28.5881 26.2613 26.6132 28.293 24.2228 29.7251C21.8324 31.1573 19.1094 31.9403 16.3234 31.9967C13.5373 32.0531 10.7849 31.3809 8.33849 30.0466C5.8921 28.7123 3.83659 26.7623 2.37547 24.3895C0.91434 22.0166 0.0982549 19.3034 0.00800018 16.5182L0 15.9998L0.00800018 15.4814C0.0976051 12.7182 0.901676 10.0254 2.34182 7.66542C3.78197 5.30547 5.80905 3.35895 8.22543 2.01564C10.6418 0.672329 13.365 -0.0219373 16.1296 0.000528393C18.8942 0.022994 21.6058 0.761424 24 2.14383ZM21.9312 11.6686C21.6557 11.3931 21.2891 11.2277 20.9003 11.2032C20.5114 11.1788 20.127 11.297 19.8192 11.5358L19.6688 11.6686L14.4 16.9358L12.3312 14.8686L12.1808 14.7358C11.8729 14.4972 11.4886 14.3791 11.0998 14.4036C10.7111 14.4281 10.3447 14.5936 10.0692 14.869C9.79379 15.1445 9.62829 15.5109 9.60377 15.8997C9.57924 16.2884 9.69737 16.6728 9.936 16.9806L10.0688 17.131L13.2688 20.331L13.4192 20.4638C13.6998 20.6815 14.0449 20.7997 14.4 20.7997C14.7551 20.7997 15.1002 20.6815 15.3808 20.4638L15.5312 20.331L21.9312 13.931L22.064 13.7806C22.3028 13.4728 22.4211 13.0884 22.3966 12.6995C22.3722 12.3107 22.2067 11.9441 21.9312 11.6686Z" fill="url(#paint0_linear_732_6316)"/>
<defs>
<linearGradient id="paint0_linear_732_6316" x1="15.9998" y1="0" x2="15.9998" y2="32" gradientUnits="userSpaceOnUse">
<stop stop-color="#FB944E"/>
<stop offset="1" stop-color="#FF6700"/>
</linearGradient>
</defs>
</svg>
