<svg width="1034" height="731" viewBox="0 0 1034 731" fill="none" xmlns="http://www.w3.org/2000/svg">
<path d="M1001.26 495.147C925.49 659.676 723.647 751.846 548.608 726.983C520.125 722.938 442.04 710.886 372.906 654.033C239.819 544.584 211.358 327.863 318.715 175.133C396.852 63.9736 536.921 0.960875 670.014 4.11286C698.682 4.79178 808.551 8.97618 905.106 82.3963C919.288 93.1802 950.569 118.806 978.759 159.46C1044.96 254.922 1050.65 387.921 1001.26 495.147Z" fill="url(#paint0_linear_732_6183)"/>
<path d="M128.767 115.715C127.692 113.529 130.094 111.257 132.235 112.419C153.976 124.217 208.759 162.257 220.824 250.707C235.961 361.682 268.666 395.037 302.834 411.649C302.834 411.649 261.586 410.45 227.039 376.961C142.216 294.739 147.877 154.582 128.767 115.715Z" fill="#FDE6D8"/>
<path d="M150.858 145.816C156.184 157.214 161.282 168.711 165.952 180.379C170.682 192.019 175.058 203.798 179.061 215.696C183.017 227.609 186.749 239.593 189.967 251.719C193.239 263.83 195.987 276.067 198.703 288.363C201.486 300.637 204.22 313.018 208.23 325.156C212.22 337.273 217.721 349.108 225.221 359.587C227.094 362.198 229.022 364.785 231.082 367.232C233.098 369.719 235.225 372.117 237.394 374.476C241.756 379.173 246.438 383.589 251.426 387.638C261.424 395.711 272.643 402.255 284.407 407.197C285.646 407.718 287.071 407.135 287.591 405.897C288.102 404.681 287.55 403.285 286.358 402.742L286.349 402.738C283.522 401.455 280.712 400.141 277.971 398.707C276.589 398.011 275.241 397.256 273.879 396.526C272.546 395.746 271.182 395.017 269.875 394.196C264.592 391.002 259.539 387.442 254.775 383.525C245.219 375.747 236.776 366.501 229.593 356.502C226.057 351.461 222.899 346.168 220.159 340.651C217.422 335.13 215.106 329.391 213.116 323.516C209.132 311.758 206.324 299.526 203.453 287.273C200.565 275.021 197.579 262.728 194.092 250.578C192.365 244.499 190.528 238.451 188.585 232.44C187.631 229.429 186.618 226.437 185.611 223.443C184.576 220.459 183.524 217.481 182.447 214.513C178.121 202.646 173.434 190.917 168.384 179.353C163.278 167.812 157.868 156.411 152.027 145.238C151.86 144.919 151.466 144.795 151.147 144.962C150.837 145.124 150.712 145.502 150.858 145.816Z" fill="white"/>
<path d="M241.509 460.858C241.371 465.344 236.696 468.232 232.598 466.4C209.989 456.293 148.649 421.937 126.502 339.361C107.799 269.63 91.0311 233.596 82.2856 217.766C80.4364 214.418 83.9354 210.655 87.4113 212.25C125.76 229.847 246.503 298.298 241.509 460.858Z" fill="#FDBF95"/>
<path d="M235.746 462.785C235.677 462.873 235.599 462.954 235.512 463.029C234.778 463.66 233.671 463.576 233.041 462.842C232.326 462.01 161.201 378.527 130.817 282.745C130.525 281.823 131.035 280.839 131.957 280.545C132.88 280.252 133.865 280.763 134.158 281.686C164.321 376.77 234.989 459.732 235.699 460.558C236.254 461.205 236.256 462.14 235.746 462.785Z" fill="#FECFAF"/>
<g opacity="0.3">
<path d="M729.784 141.926C730.683 143.015 732.295 143.169 733.383 142.27C735.499 140.524 737.721 138.843 739.989 137.276C741.137 136.483 741.434 134.918 740.666 133.761C740.657 133.747 740.648 133.733 740.639 133.719C739.836 132.558 738.244 132.267 737.082 133.07C734.695 134.72 732.355 136.489 730.128 138.328C729.109 139.168 728.909 140.633 729.624 141.709C729.673 141.784 729.726 141.856 729.784 141.926ZM751.554 130.402C754.013 129.159 756.55 128.009 759.094 126.984C760.403 126.456 761.037 124.967 760.51 123.657C759.976 122.345 758.492 121.714 757.183 122.242C754.506 123.32 751.836 124.531 749.248 125.839C747.988 126.475 747.483 128.014 748.12 129.273C748.166 129.365 748.217 129.453 748.273 129.536C748.978 130.601 750.385 130.993 751.554 130.402ZM771.885 122.838C774.552 122.175 777.281 121.62 779.997 121.189C781.391 120.968 782.342 119.657 782.12 118.263C781.897 116.87 780.589 115.919 779.194 116.139C776.335 116.594 773.461 117.178 770.652 117.876C769.282 118.217 768.448 119.604 768.787 120.974C768.86 121.266 768.98 121.534 769.138 121.771C769.718 122.647 770.807 123.106 771.885 122.838ZM793.397 120.011C796.149 119.961 798.934 120.031 801.677 120.216C803.085 120.311 804.305 119.246 804.4 117.838C804.494 116.43 803.429 115.211 802.022 115.115C799.134 114.92 796.201 114.847 793.306 114.899C791.895 114.925 790.77 116.09 790.796 117.501C790.805 118.006 790.96 118.474 791.22 118.866C791.687 119.57 792.491 120.027 793.397 120.011ZM815.003 122.048C817.69 122.609 820.392 123.293 823.032 124.082C824.385 124.485 825.809 123.716 826.213 122.364C826.618 121.01 825.848 119.586 824.495 119.183C821.718 118.353 818.875 117.633 816.048 117.043C814.666 116.754 813.312 117.641 813.023 119.023C812.877 119.72 813.03 120.409 813.395 120.959C813.754 121.499 814.317 121.904 815.003 122.048ZM835.619 128.814C838.12 129.957 840.602 131.221 842.997 132.573C844.227 133.267 845.787 132.832 846.48 131.603C847.174 130.373 846.74 128.814 845.51 128.12C842.989 126.697 840.376 125.366 837.745 124.163C836.461 123.577 834.944 124.142 834.357 125.426C833.976 126.26 834.081 127.192 834.554 127.904C834.808 128.288 835.169 128.608 835.619 128.814ZM893.946 203.709C895.34 203.486 896.289 202.174 896.065 200.78C895.606 197.924 895.016 195.05 894.312 192.237C893.969 190.868 892.58 190.036 891.211 190.379C889.842 190.722 889.01 192.11 889.353 193.479C890.022 196.15 890.581 198.879 891.017 201.591C891.076 201.963 891.213 202.303 891.409 202.598C891.946 203.408 892.924 203.874 893.946 203.709ZM854.212 139.975C856.395 141.644 858.531 143.429 860.562 145.28C861.606 146.23 863.223 146.155 864.174 145.112C865.125 144.068 865.045 142.456 864.006 141.5C861.867 139.551 859.617 137.672 857.318 135.914C856.197 135.057 854.593 135.27 853.735 136.392C853.054 137.281 853.048 138.474 853.634 139.358C853.787 139.588 853.981 139.797 854.212 139.975ZM888.511 182.103C889.819 181.573 890.45 180.082 889.92 178.773C888.833 176.093 887.617 173.425 886.305 170.841C885.671 169.578 884.127 169.081 882.869 169.719C881.61 170.358 881.108 171.897 881.747 173.156C882.993 175.611 884.149 178.147 885.181 180.694C885.247 180.857 885.329 181.008 885.422 181.149C886.08 182.141 887.366 182.567 888.511 182.103ZM869.841 155.008C871.594 157.122 873.279 159.34 874.848 161.601C875.653 162.762 877.245 163.049 878.406 162.244C879.55 161.449 879.846 159.887 879.079 158.732C879.069 158.717 879.058 158.701 879.048 158.687C877.396 156.306 875.623 153.971 873.779 151.745C872.877 150.658 871.266 150.507 870.179 151.408C869.163 152.25 868.965 153.712 869.678 154.787C869.728 154.863 869.783 154.936 869.841 155.008Z" fill="#F5995C"/>
<path d="M892.64 220.507C892.362 220.088 892.204 219.582 892.216 219.04C892.245 217.722 892.246 216.382 892.222 215.056C892.195 213.645 893.318 212.479 894.73 212.452C896.141 212.425 897.309 213.548 897.333 214.961C897.359 216.356 897.357 217.765 897.327 219.152C897.296 220.563 896.127 221.683 894.716 221.651C893.846 221.633 893.087 221.181 892.64 220.507Z" fill="#F5995C"/>
</g>
<g opacity="0.3">
<path d="M860.643 291.57C859.96 290.542 860.106 289.142 861.042 288.279C862.011 287.387 862.978 286.458 863.915 285.52C864.913 284.521 866.532 284.52 867.53 285.518C868.533 286.521 868.529 288.135 867.532 289.134C866.545 290.121 865.527 291.099 864.507 292.039C863.468 292.996 861.851 292.93 860.894 291.892C860.8 291.79 860.717 291.682 860.643 291.57Z" fill="#F5995C"/>
<path d="M713.089 277.656C713.926 278.793 715.526 279.036 716.664 278.199C717.8 277.361 718.041 275.764 717.206 274.625C715.612 272.46 714.085 270.194 712.65 267.865C711.917 266.666 710.335 266.289 709.133 267.029C707.931 267.77 707.557 269.345 708.297 270.547C708.918 271.556 709.554 272.551 710.205 273.531C711.132 274.93 712.102 276.318 713.089 277.656ZM705.183 259.521C706.474 258.95 707.058 257.44 706.487 256.149C705.391 253.67 704.387 251.119 703.505 248.564C703.049 247.23 701.589 246.521 700.254 246.982C698.92 247.443 698.212 248.898 698.673 250.233C699.601 252.922 700.657 255.608 701.811 258.217C701.871 258.352 701.941 258.48 702.02 258.599C702.696 259.618 704.027 260.032 705.183 259.521ZM722.098 288.281C724.081 290.319 726.179 292.301 728.334 294.169C729.401 295.094 731.016 294.979 731.941 293.913C732.866 292.846 732.75 291.233 731.684 290.306C729.637 288.532 727.645 286.651 725.762 284.715C724.777 283.704 723.159 283.681 722.147 284.666C721.252 285.537 721.132 286.905 721.798 287.909C721.885 288.04 721.984 288.165 722.098 288.281ZM698.042 238.792C699.426 238.519 700.328 237.174 700.054 235.789C699.53 233.134 699.113 230.425 698.815 227.737C698.659 226.333 697.396 225.322 695.992 225.478C694.589 225.634 693.578 226.897 693.733 228.3C694.047 231.131 694.487 233.984 695.039 236.78C695.106 237.117 695.235 237.427 695.415 237.697C695.97 238.535 696.995 238.999 698.042 238.792ZM739.453 302.545C741.835 304.095 744.317 305.566 746.83 306.916C748.073 307.584 749.623 307.117 750.291 305.874C750.96 304.63 750.492 303.08 749.249 302.412C746.862 301.13 744.505 299.733 742.243 298.26C741.06 297.49 739.476 297.825 738.706 299.008C738.132 299.889 738.171 300.993 738.718 301.817C738.905 302.099 739.152 302.348 739.453 302.545ZM759.516 312.656C762.186 313.651 764.929 314.545 767.668 315.313C769.028 315.694 770.439 314.901 770.82 313.542C771.202 312.18 770.409 310.77 769.049 310.391C766.446 309.66 763.839 308.811 761.302 307.866C759.979 307.372 758.506 308.045 758.013 309.368C757.716 310.166 757.843 311.017 758.28 311.675C758.568 312.11 758.991 312.46 759.516 312.656ZM781.306 318.155C784.131 318.545 787.004 318.82 789.844 318.973C791.254 319.049 792.458 317.968 792.534 316.558C792.61 315.147 791.528 313.944 790.119 313.868C787.42 313.723 784.691 313.461 782.007 313.09C780.608 312.897 779.317 313.874 779.125 315.272C779.036 315.915 779.194 316.534 779.526 317.035C779.917 317.625 780.55 318.05 781.306 318.155ZM803.777 318.769C806.619 318.533 809.483 318.172 812.29 317.696C813.682 317.461 814.62 316.141 814.384 314.749C814.149 313.359 812.828 312.42 811.436 312.656C808.771 313.107 806.052 313.45 803.352 313.674C801.946 313.792 800.9 315.027 801.018 316.434C801.055 316.878 801.203 317.286 801.433 317.633C801.932 318.385 802.814 318.849 803.777 318.769ZM825.846 314.429C828.558 313.574 831.27 312.592 833.907 311.509C835.213 310.972 835.837 309.478 835.301 308.172C834.766 306.871 833.271 306.242 831.965 306.779C829.46 307.808 826.884 308.74 824.308 309.553C822.962 309.977 822.214 311.413 822.639 312.759C822.712 312.994 822.817 313.21 822.946 313.405C823.56 314.331 824.733 314.779 825.846 314.429ZM846.401 305.358C848.214 304.308 850.019 303.189 851.762 302.033C852.393 301.614 853.018 301.189 853.637 300.759C854.796 299.953 855.115 298.359 854.276 297.201C853.471 296.042 851.878 295.755 850.718 296.561C850.13 296.97 849.536 297.374 848.936 297.772C847.278 298.872 845.564 299.936 843.839 300.934C842.617 301.641 842.201 303.205 842.908 304.426C842.935 304.472 842.962 304.517 842.991 304.561C843.732 305.678 845.225 306.039 846.401 305.358Z" fill="#F5995C"/>
<path d="M693.578 215.791C693.297 215.368 693.139 214.857 693.153 214.312C693.19 212.928 693.258 211.519 693.353 210.124C693.449 208.716 694.669 207.651 696.077 207.748C697.486 207.844 698.55 209.062 698.454 210.472C698.363 211.797 698.3 213.136 698.264 214.449C698.227 215.86 697.052 216.974 695.64 216.936C694.775 216.912 694.022 216.461 693.578 215.791Z" fill="#F5995C"/>
</g>
<path d="M725.358 185.616C725.509 185.129 725.952 184.791 726.462 184.775L740.996 184.318C744.433 178.461 748.829 173.11 754.106 168.529L751.895 154.166C751.818 153.662 752.069 153.165 752.52 152.927L767.952 144.799C768.403 144.561 768.956 144.636 769.327 144.984L779.921 154.932C786.684 153.171 793.583 152.573 800.357 153.052L808.956 141.325C809.257 140.914 809.786 140.739 810.273 140.89L826.933 146.055C827.42 146.206 827.758 146.649 827.774 147.159L828.231 161.693C834.088 165.13 839.439 169.526 844.02 174.804L858.383 172.593C858.887 172.515 859.385 172.766 859.622 173.217L867.751 188.65C867.988 189.101 867.914 189.653 867.565 190.024L857.617 200.618C859.378 207.382 859.976 214.281 859.497 221.055L871.224 229.653C871.635 229.955 871.81 230.484 871.659 230.971L866.494 247.631C866.343 248.118 865.9 248.455 865.391 248.471L850.856 248.929C847.419 254.786 843.023 260.136 837.746 264.718L839.956 279.081C840.034 279.584 839.783 280.082 839.333 280.32L823.9 288.448C823.449 288.686 822.897 288.611 822.525 288.262L811.931 278.314C805.168 280.075 798.269 280.673 791.495 280.194L782.896 291.921C782.595 292.333 782.066 292.507 781.579 292.356L764.918 287.191C764.432 287.04 764.094 286.597 764.078 286.088L763.621 271.553C757.764 268.116 752.413 263.721 747.832 258.443L733.469 260.653C732.965 260.731 732.467 260.48 732.23 260.029L724.102 244.597C723.864 244.146 723.939 243.593 724.288 243.222L734.235 232.628C732.475 225.865 731.877 218.966 732.355 212.192L720.628 203.593C720.217 203.292 720.043 202.763 720.194 202.276L725.358 185.616Z" fill="#F5995C"/>
<path d="M782.886 228.341C789.349 235.532 800.455 236.125 807.647 229.663C811.13 226.533 813.186 222.233 813.435 217.557C813.685 212.881 812.1 208.386 808.968 204.903C802.506 197.713 791.399 197.119 784.208 203.582C777.666 209.461 776.585 219.184 781.31 226.306C781.778 227.012 782.304 227.693 782.886 228.341ZM809.351 217.339C809.16 220.925 807.583 224.221 804.912 226.621C799.399 231.575 790.883 231.121 785.928 225.608C780.971 220.094 781.429 211.578 786.942 206.624C792.455 201.67 800.972 202.124 805.926 207.637C806.375 208.137 806.782 208.664 807.147 209.214C808.732 211.602 809.506 214.425 809.351 217.339Z" fill="url(#paint1_linear_732_6183)"/>
<path d="M760.404 240.604C759.593 239.381 758.838 238.11 758.145 236.793C757.926 236.379 757.715 235.961 757.51 235.54C756.5 233.463 755.656 231.309 754.993 229.111C754.984 229.081 754.975 229.051 754.965 229.021C754.94 228.936 754.915 228.851 754.89 228.765C754.842 228.599 754.795 228.433 754.748 228.267C754.625 227.829 754.807 227.379 755.166 227.14C755.253 227.082 755.352 227.037 755.458 227.007C756.002 226.855 756.564 227.174 756.717 227.717C757.499 230.516 758.588 233.248 759.954 235.84C766.733 248.716 779.433 256.502 792.96 257.623C800.484 258.247 808.264 256.809 815.425 253.037C816.681 252.375 817.894 251.656 819.061 250.881C826.912 245.672 832.684 237.984 835.512 228.863C838.76 218.386 837.733 207.271 832.622 197.566C822.063 177.524 797.184 169.817 777.15 180.369C775.915 181.02 774.717 181.731 773.562 182.498C768.554 185.821 764.329 190.203 761.206 195.345C761.125 195.478 761.019 195.585 760.897 195.666C760.578 195.878 760.15 195.9 759.801 195.688C759.319 195.393 759.163 194.766 759.458 194.282C762.738 188.885 767.173 184.283 772.431 180.794C773.643 179.989 774.901 179.243 776.197 178.559C797.231 167.481 823.357 175.586 834.432 196.612C839.798 206.801 840.875 218.469 837.465 229.468C834.497 239.044 828.437 247.114 820.195 252.583C818.97 253.396 817.697 254.152 816.379 254.846C806.19 260.212 794.521 261.29 783.523 257.88C773.945 254.912 765.874 248.849 760.404 240.604Z" fill="url(#paint2_linear_732_6183)"/>
<g opacity="0.3">
<path d="M625.262 106.253C624.885 105.684 624.908 104.914 625.371 104.364C626.234 103.339 627.139 102.325 628.063 101.352C628.663 100.72 629.662 100.694 630.295 101.295C630.931 101.893 630.953 102.894 630.353 103.527C629.473 104.454 628.609 105.42 627.786 106.398C627.225 107.065 626.229 107.15 625.561 106.59C625.443 106.49 625.344 106.376 625.262 106.253Z" fill="#F5995C"/>
<path d="M633.999 97.8487C634.553 98.522 635.547 98.6202 636.221 98.0665C637.923 96.6706 639.715 95.3453 641.549 94.1289C641.935 93.8724 642.326 93.6196 642.721 93.3696C643.457 92.9027 643.676 91.9276 643.21 91.1909C642.741 90.512 641.768 90.2363 641.03 90.7025C640.617 90.9646 640.208 91.2291 639.803 91.4977C637.881 92.7729 636.001 94.1622 634.218 95.6269C633.586 96.1448 633.461 97.0516 633.903 97.7184C633.932 97.7625 633.965 97.8058 633.999 97.8487ZM649.743 89.4983C652.154 88.3549 654.657 87.3502 657.183 86.5139C658.011 86.2392 658.459 85.3473 658.185 84.5187C657.911 83.6956 657.018 83.2417 656.19 83.5162C653.543 84.3927 650.918 85.4456 648.39 86.645C647.602 87.0188 647.267 87.9602 647.64 88.7489C647.673 88.8177 647.711 88.8839 647.752 88.9462C648.18 89.5902 649.025 89.8386 649.743 89.4983ZM664.938 84.4724C667.552 83.9551 670.225 83.5973 672.886 83.4075C673.755 83.3453 674.41 82.5896 674.348 81.7205C674.285 80.8481 673.532 80.195 672.661 80.2574C669.871 80.4558 667.066 80.8325 664.326 81.3739C663.471 81.5433 662.913 82.3738 663.083 83.2292C663.125 83.4376 663.205 83.6283 663.316 83.7954C663.659 84.3127 664.291 84.5996 664.938 84.4724ZM680.904 83.3332C683.568 83.4732 686.249 83.7797 688.868 84.2455C689.727 84.3977 690.547 83.8256 690.699 82.967C690.85 82.1106 690.28 81.2893 689.421 81.1361C686.673 80.6478 683.864 80.3264 681.069 80.1795C680.198 80.1336 679.455 80.8035 679.409 81.674C679.392 82.0248 679.489 82.3552 679.67 82.6277C679.937 83.0306 680.384 83.3058 680.904 83.3332ZM696.663 86.1264C699.213 86.9099 701.737 87.8582 704.168 88.9451C704.963 89.3012 705.897 88.9442 706.253 88.1481C706.61 87.352 706.254 86.4175 705.456 86.0623C702.909 84.9229 700.263 83.929 697.591 83.107C696.757 82.8516 695.874 83.3193 695.618 84.152C695.473 84.6229 695.56 85.1097 695.812 85.4901C696.007 85.7836 696.301 86.0144 696.663 86.1264ZM711.268 92.6605C713.548 94.0392 715.762 95.5729 717.851 97.221C718.535 97.7609 719.528 97.6439 720.068 96.9594C720.607 96.2748 720.491 95.2851 719.806 94.7413C717.617 93.0135 715.293 91.4041 712.901 89.958C712.155 89.5077 711.184 89.7463 710.733 90.4919C710.407 91.0321 710.442 91.6902 710.769 92.1827C710.894 92.371 711.061 92.5358 711.268 92.6605ZM723.825 102.564C725.691 104.454 727.464 106.486 729.092 108.606C729.624 109.297 730.615 109.427 731.306 108.895C731.997 108.364 732.117 107.382 731.596 106.68C729.888 104.459 728.03 102.328 726.073 100.346C725.459 99.7252 724.46 99.7187 723.839 100.331C723.293 100.87 723.223 101.709 723.632 102.326C723.688 102.41 723.752 102.489 723.825 102.564ZM739.295 123.216C740.095 122.869 740.461 121.939 740.113 121.139C739.151 118.925 738.051 116.726 736.848 114.608C736.667 114.285 736.482 113.967 736.295 113.648C735.875 112.888 734.883 112.647 734.131 113.093C733.381 113.537 733.132 114.505 733.575 115.256C733.752 115.553 733.926 115.854 734.098 116.162C735.251 118.189 736.3 120.286 737.218 122.397C737.255 122.485 737.3 122.566 737.351 122.642C737.766 123.269 738.582 123.526 739.295 123.216Z" fill="#F5995C"/>
</g>
<g opacity="0.3">
<path d="M621.256 186.776C622.807 189.049 624.511 191.247 626.318 193.31C626.893 193.965 627.891 194.032 628.547 193.456C629.203 192.881 629.258 191.885 628.693 191.228C626.969 189.262 625.344 187.165 623.865 184.996C623.374 184.275 622.391 184.09 621.671 184.582C620.957 185.07 620.768 186.04 621.245 186.759C621.248 186.764 621.253 186.77 621.256 186.776ZM619.144 180.35C619.917 179.949 620.219 178.996 619.817 178.222C618.609 175.894 617.53 173.469 616.61 171.014C616.303 170.204 615.394 169.784 614.577 170.091C613.76 170.397 613.347 171.306 613.652 172.123C614.617 174.695 615.748 177.237 617.015 179.676C617.041 179.728 617.07 179.776 617.101 179.824C617.541 180.487 618.42 180.726 619.144 180.35ZM632.141 199.184C634.197 201.016 636.381 202.738 638.634 204.303C639.351 204.8 640.335 204.622 640.832 203.906C641.33 203.19 641.152 202.21 640.436 201.708C638.286 200.217 636.203 198.574 634.241 196.827C633.59 196.247 632.592 196.305 632.013 196.955C631.525 197.503 631.488 198.295 631.875 198.878C631.948 198.988 632.037 199.091 632.141 199.184ZM613.134 165.379C613.982 165.175 614.504 164.322 614.3 163.474C613.687 160.924 613.225 158.312 612.928 155.708C612.828 154.843 612.045 154.22 611.181 154.318C610.314 154.417 609.691 155.2 609.791 156.066C610.102 158.797 610.586 161.538 611.23 164.213C611.275 164.397 611.35 164.567 611.449 164.716C611.806 165.253 612.472 165.538 613.134 165.379ZM645.698 208.591C648.128 209.871 650.662 211.017 653.23 211.996C654.045 212.306 654.957 211.897 655.268 211.082C655.579 210.267 655.171 209.354 654.355 209.044C651.904 208.112 649.488 207.019 647.171 205.796C646.4 205.39 645.445 205.685 645.037 206.457C644.759 206.985 644.81 207.601 645.119 208.067C645.26 208.28 645.455 208.463 645.698 208.591ZM661.117 214.471C663.788 215.134 666.524 215.64 669.247 215.977C670.112 216.084 670.899 215.47 671.006 214.604C671.114 213.74 670.499 212.95 669.633 212.843C667.037 212.522 664.427 212.039 661.877 211.406C661.031 211.196 660.174 211.712 659.964 212.558C659.854 213.005 659.945 213.455 660.182 213.812C660.392 214.129 660.718 214.372 661.117 214.471ZM677.502 216.491C680.256 216.495 683.035 216.33 685.759 216.001C686.625 215.896 687.242 215.11 687.137 214.244C687.033 213.379 686.245 212.763 685.381 212.866C682.783 213.181 680.134 213.338 677.508 213.332C676.636 213.33 675.927 214.036 675.926 214.908C675.925 215.232 676.022 215.532 676.189 215.783C676.47 216.208 676.953 216.489 677.502 216.491Z" fill="#F5995C"/>
<path d="M609.615 148.618C609.447 148.364 609.35 148.059 609.353 147.731C609.365 146.38 609.418 145.023 609.508 143.698C609.567 142.828 610.321 142.17 611.191 142.229C612.059 142.291 612.716 143.043 612.659 143.913C612.572 145.176 612.523 146.471 612.51 147.761C612.502 148.633 611.788 149.333 610.917 149.325C610.373 149.319 609.895 149.04 609.615 148.618Z" fill="#F5995C"/>
</g>
<path d="M630.794 127.286C630.895 126.961 631.192 126.735 631.533 126.724L641.259 126.418C643.559 122.499 646.5 118.918 650.032 115.853L648.553 106.242C648.501 105.904 648.668 105.572 648.97 105.413L659.297 99.9734C659.599 99.814 659.968 99.8645 660.217 100.098L667.306 106.754C671.832 105.576 676.448 105.176 680.981 105.496L686.735 97.6491C686.937 97.374 687.291 97.2575 687.617 97.3583L698.765 100.814C699.091 100.915 699.317 101.212 699.327 101.553L699.633 111.279C703.553 113.579 707.133 116.52 710.199 120.052L719.81 118.572C720.147 118.52 720.48 118.688 720.639 118.99L726.078 129.317C726.237 129.618 726.187 129.988 725.954 130.236L719.297 137.325C720.475 141.851 720.875 146.468 720.555 151L728.402 156.754C728.677 156.956 728.794 157.31 728.693 157.636L725.237 168.784C725.136 169.11 724.84 169.335 724.499 169.346L714.773 169.652C712.473 173.571 709.531 177.152 706 180.218L707.479 189.829C707.531 190.166 707.363 190.499 707.061 190.658L696.734 196.097C696.433 196.256 696.063 196.206 695.815 195.973L688.726 189.316C684.2 190.494 679.584 190.895 675.051 190.574L669.297 198.422C669.095 198.697 668.741 198.813 668.415 198.712L657.267 195.256C656.941 195.155 656.715 194.859 656.704 194.518L656.399 184.792C652.479 182.492 648.899 179.551 645.833 176.019L636.222 177.499C635.885 177.55 635.552 177.383 635.393 177.081L629.954 166.754C629.795 166.452 629.845 166.083 630.079 165.834L636.735 158.746C635.557 154.22 635.157 149.603 635.477 145.071L627.63 139.317C627.354 139.115 627.238 138.761 627.339 138.435L630.794 127.286Z" fill="#F5995C"/>
<path d="M669.132 156.019C671.264 158.393 674.193 159.794 677.379 159.963C680.564 160.134 683.625 159.053 685.998 156.92C690.896 152.519 691.298 144.966 686.899 140.054C682.495 135.157 674.93 134.753 670.034 139.154C667.661 141.286 666.26 144.215 666.09 147.4C665.952 149.989 666.641 152.497 668.048 154.619C668.372 155.107 668.734 155.575 669.132 156.019ZM683.888 154.571C682.142 156.14 679.891 156.935 677.547 156.81C675.204 156.685 673.05 155.654 671.481 153.909C669.915 152.162 669.118 149.912 669.243 147.568C669.367 145.225 670.399 143.071 672.144 141.503C675.746 138.265 681.311 138.562 684.55 142.164C684.842 142.49 685.105 142.83 685.34 143.184C687.707 146.753 687.165 151.626 683.888 154.571Z" fill="url(#paint3_linear_732_6183)"/>
<path d="M653.484 164.549C652.931 163.716 652.417 162.849 651.941 161.947C650.997 160.156 650.234 158.267 649.673 156.328C649.648 156.24 649.624 156.153 649.599 156.065C649.41 155.39 649.69 154.694 650.245 154.325C650.38 154.236 650.531 154.166 650.695 154.12C651.535 153.885 652.403 154.379 652.64 155.216C653.147 157.031 653.852 158.8 654.735 160.474L654.735 160.475C654.783 160.567 654.833 160.658 654.882 160.749C657.007 164.691 660.034 167.955 663.688 170.339C665.672 171.633 667.842 172.667 670.155 173.407C670.174 173.413 670.193 173.419 670.212 173.425C670.27 173.443 670.327 173.462 670.384 173.479C677.167 175.581 684.363 174.917 690.646 171.608C691.459 171.18 692.244 170.714 692.999 170.213C698.081 166.84 701.818 161.863 703.65 155.958C705.752 149.175 705.087 141.98 701.778 135.698C698.468 129.421 692.91 124.798 686.128 122.694C679.346 120.592 672.15 121.256 665.867 124.565C665.068 124.986 664.292 125.446 663.545 125.942C660.302 128.094 657.567 130.931 655.546 134.259C655.421 134.464 655.258 134.631 655.07 134.755C654.576 135.082 653.917 135.117 653.377 134.789C652.633 134.334 652.394 133.366 652.848 132.619C655.11 128.895 658.17 125.72 661.797 123.313C662.634 122.757 663.501 122.242 664.395 121.771C671.425 118.068 679.475 117.325 687.064 119.678C694.652 122.031 700.872 127.191 704.572 134.226C708.274 141.255 709.018 149.304 706.665 156.893C704.617 163.5 700.436 169.068 694.75 172.841C693.906 173.401 693.027 173.923 692.118 174.402C678.508 181.57 661.81 177.101 653.484 164.549Z" fill="url(#paint4_linear_732_6183)"/>
<path d="M0.000854492 504.51L688.004 498.847V515.603C688.004 520.151 685.004 524.017 680.94 524.706L486.393 557.701C484.085 558.092 481.743 558.197 479.412 558.011L7.47809 520.393C3.26514 520.058 0.000854492 516.178 0.000854492 511.505V504.512V504.51Z" fill="url(#paint5_linear_732_6183)"/>
<path d="M249.676 477.349L680.892 508.001C688.609 508.549 694.883 502.722 694.883 494.981V184.907C694.883 177.168 688.609 170.894 680.892 170.894H249.676C243.319 170.894 238.179 176.566 238.179 183.562V463.864C238.179 470.86 243.319 476.897 249.676 477.349Z" fill="url(#paint6_linear_732_6183)"/>
<path d="M242.8 477.349L674.016 508.001C681.733 508.549 688.007 502.722 688.007 494.981V184.907C688.007 177.168 681.733 170.894 674.016 170.894H242.8C236.443 170.894 231.303 176.566 231.303 183.562V463.864C231.303 470.86 236.443 476.897 242.8 477.349Z" fill="url(#paint7_linear_732_6183)"/>
<path d="M246.747 199.275V446.536C246.747 452.289 250.987 457.233 256.236 457.588L336.583 462.911L627.361 482.191L657.868 484.215C664.143 484.626 669.248 479.841 669.248 473.525V202.052C669.248 195.737 664.143 190.59 657.868 190.565L505.664 189.934L454.069 189.717L412.972 189.548L376.83 189.396L256.234 188.893C250.987 188.876 246.744 193.519 246.744 199.272L246.747 199.275Z" fill="url(#paint8_linear_732_6183)"/>
<path d="M443.179 179.376C443.179 182.256 445.399 184.599 448.14 184.609C450.884 184.616 453.111 182.283 453.111 179.396C453.111 176.508 450.884 174.166 448.14 174.163C445.399 174.163 443.179 176.496 443.179 179.376Z" fill="white"/>
<g style="mix-blend-mode:soft-light" opacity="0.48">
<path d="M346.694 392.305C379.938 374.314 406.076 397.11 431.3 374.617C446.594 360.981 439.085 350.812 457.903 330.434C478.745 307.863 492.316 315.45 513.263 295.136C539.749 269.45 526.501 249.468 549.317 231.027C576.993 208.654 606.841 229.362 633.187 207.906C644.55 198.651 650.785 185.198 654.042 170.892H679.821C684.337 170.892 688.007 174.574 688.007 179.117V500.537C688.007 505.08 684.339 508.5 679.821 508.178L240.343 476.799C238.186 476.645 236.274 475.379 235.047 473.542C267.217 472.364 286.981 461.515 299.615 450.301C324.331 428.364 320.044 406.729 346.696 392.305H346.694Z" fill="white"/>
</g>
<path d="M225.613 475.958L688.004 508.221L486.393 541.371C484.085 541.762 481.743 541.867 479.412 541.682L0.000854492 504.51L218.256 476.178C220.696 475.86 223.158 475.787 225.611 475.958H225.613Z" fill="url(#paint9_linear_732_6183)"/>
<path style="mix-blend-mode:multiply" opacity="0.3" d="M620.534 509.033L235.58 481.772L116.439 497.113L498.08 526.257L620.534 509.033Z" fill="url(#paint10_linear_732_6183)"/>
<path d="M473.094 108.248L259.312 99.9592C252.286 99.9161 246.667 105.785 247.015 112.802L261.332 394.512C261.551 399.027 265.276 402.576 269.797 402.576L491.516 416.535C496.055 416.535 499.796 412.972 500.016 408.438L512.831 152.146L473.094 108.248Z" fill="white"/>
<path d="M483.148 150.845C476.184 150.6 470.831 144.598 471.38 137.652L473.671 108.648L514.038 151.968L483.148 150.845Z" fill="#FDD9C0"/>
<path d="M295.44 155.917C325.067 156.748 438.804 159.821 467.525 160.596C471.147 160.694 474.027 163.019 473.887 165.728C473.755 168.307 470.921 170.284 467.472 170.203L295.466 166.15C292.153 166.072 289.388 164.115 289.089 161.637L289.013 161.009C288.671 158.175 291.651 155.81 295.44 155.917Z" fill="url(#paint11_linear_732_6183)"/>
<path d="M292.034 185.948C292.504 186.605 293.401 187.032 294.382 187.066L412.421 191.208C413.904 191.26 415.135 190.415 415.192 189.306L415.491 183.487C415.55 182.331 414.314 181.34 412.768 181.304L297.952 178.622C292.838 178.502 289.585 182.529 292.034 185.948Z" fill="url(#paint12_linear_732_6183)"/>
<path d="M292.536 208.545C322.164 209.377 435.901 212.45 464.621 213.225C468.244 213.323 471.123 215.648 470.984 218.357C470.852 220.936 468.017 222.913 464.569 222.831L292.563 218.779C289.249 218.701 286.485 216.744 286.186 214.265L286.11 213.638C285.767 210.804 288.748 208.439 292.536 208.545Z" fill="url(#paint13_linear_732_6183)"/>
<path d="M289.131 238.578C289.601 239.235 290.498 239.662 291.48 239.696L409.519 243.838C411.002 243.89 412.232 243.045 412.289 241.936L412.588 236.117C412.648 234.961 411.412 233.97 409.866 233.934L295.05 231.252C289.936 231.132 286.683 235.159 289.131 238.578Z" fill="url(#paint14_linear_732_6183)"/>
<path d="M303.278 334.303C304.286 321.437 308.648 308.822 315.498 297.758C318.939 292.232 322.985 287.056 327.618 282.442C328.806 281.32 329.965 280.164 331.182 279.071C332.434 278.017 333.656 276.926 334.937 275.906C336.247 274.923 337.542 273.917 338.888 272.982L340.942 271.628L341.969 270.952L342.483 270.614C342.669 270.498 342.92 270.349 343.142 270.23C346.751 268.238 351.93 268.146 355.428 271.66C356.28 272.504 356.873 273.519 357.315 274.515C357.515 275.016 357.711 275.523 357.828 276.018C357.979 276.521 358.059 277.006 358.144 277.495C358.452 279.443 358.364 281.254 358.183 283.004C358.091 283.878 357.948 284.735 357.796 285.571L357.326 287.931C357.026 289.506 356.674 291.071 356.33 292.637C355.638 295.77 354.855 298.88 354.032 301.98C350.683 314.363 346.249 326.452 340.765 338.044L338.665 342.37C337.93 343.795 337.213 345.228 336.463 346.645L335.325 348.762L334.756 349.821L334.129 350.926C333.262 352.396 332.293 353.823 331.165 355.181C330.032 356.533 328.75 357.833 327.153 358.926C325.57 360.006 323.574 360.883 321.36 360.991C320.811 361.047 320.263 360.989 319.716 360.93C319.161 360.901 318.653 360.721 318.126 360.597C317.079 360.314 316.088 359.807 315.217 359.191C313.461 357.946 312.201 356.224 311.42 354.367C310.666 352.534 310.336 350.619 310.322 348.759C310.3 346.899 310.579 345.127 310.961 343.456C311.351 341.78 311.835 340.212 312.37 338.677L313.157 336.361L314.045 334.083C316.424 328.012 319.573 322.268 323.252 316.912C326.917 311.54 331.246 306.642 336.011 302.236L336.901 301.407L337.829 300.619L339.688 299.047C340.321 298.54 340.971 298.053 341.612 297.556C342.257 297.064 342.887 296.553 343.562 296.101C344.892 295.172 346.207 294.224 347.596 293.384L348.624 292.734L349.138 292.41C349.23 292.354 349.296 292.307 349.408 292.243L349.747 292.054C350.662 291.573 351.663 291.251 352.696 291.142C354.753 290.899 356.976 291.512 358.576 292.972C359.4 293.698 360.061 294.74 360.361 295.811C360.678 296.887 360.667 297.921 360.574 298.852C360.475 299.788 360.275 300.644 360.062 301.451L359.417 303.758L358.134 308.329C356.436 314.426 354.67 320.506 352.94 326.595L352.936 326.609L350.263 326.131C350.462 324.082 351.013 322.013 352.144 320.154C352.72 319.233 353.423 318.378 354.307 317.668C355.191 316.944 356.217 316.439 357.299 316.119C358.386 315.814 359.547 315.704 360.711 315.897C361.29 315.991 361.869 316.153 362.415 316.41C362.693 316.526 362.951 316.685 363.211 316.839L363.75 317.178C365.059 317.914 366.691 318.052 368.033 317.461C368.372 317.326 368.683 317.132 368.978 316.918C369.118 316.801 369.269 316.697 369.394 316.561L369.597 316.363L369.841 316.104L371.788 314.026L375.684 309.871L379.579 305.716L381.527 303.639C382.005 303.135 382.691 302.692 383.455 302.539C384.218 302.376 385.01 302.485 385.684 302.791C386.36 303.097 386.945 303.597 387.343 304.25C387.743 304.901 387.917 305.719 387.826 306.467C387.816 306.66 387.774 306.837 387.725 307.012C387.68 307.179 387.618 307.396 387.586 307.476L387.352 308.131L386.911 309.451C386.338 311.216 385.855 313.01 385.451 314.821C385.051 316.633 384.733 318.463 384.504 320.305C384.479 320.531 384.444 320.774 384.426 320.987L384.409 321.55C384.385 321.739 384.419 321.921 384.445 322.102C384.48 322.282 384.464 322.474 384.532 322.644C384.687 323.36 385.068 324.001 385.536 324.561C386.003 325.131 386.652 325.547 387.333 325.836C387.67 326.002 388.039 326.064 388.398 326.158C388.766 326.189 389.133 326.246 389.499 326.2C390.224 326.142 390.948 325.954 391.565 325.54L391.806 325.405L392.022 325.225L392.462 324.866L393.469 323.881C396.148 321.249 398.712 318.5 401.145 315.638C406.003 309.908 410.352 303.747 414.116 297.247L415.496 294.791L416.162 293.55L416.495 292.93L416.578 292.775C416.583 292.757 416.575 292.767 416.575 292.767C416.59 292.76 416.568 292.78 416.576 292.795C416.572 292.9 416.618 292.921 416.606 292.911C416.606 292.911 416.626 292.925 416.669 292.92C416.71 292.911 416.765 292.901 416.765 292.893C416.765 292.893 416.767 292.892 416.759 292.892L416.64 293.014L416.4 293.257C416.238 293.418 416.082 293.584 415.927 293.751C415.612 294.08 415.312 294.423 415.011 294.766C413.821 296.147 412.739 297.625 411.785 299.181C411.308 299.96 410.861 300.757 410.445 301.57C410.24 301.978 410.038 302.387 409.849 302.803L409.569 303.428L409.431 303.741L409.341 304.022C408.8 305.493 408.791 307.116 409.463 308.511C410.119 309.896 411.316 311.075 412.772 311.602C413.482 311.918 414.258 311.982 415.017 312.003C415.775 311.93 416.543 311.809 417.248 311.447L417.784 311.202L418.387 310.851C418.788 310.614 419.195 310.389 419.589 310.14C420.387 309.659 421.172 309.159 421.951 308.647C428.169 304.541 433.738 299.452 438.368 293.621L438.371 293.618C438.838 293.029 439.695 292.93 440.285 293.398C440.874 293.866 440.972 294.723 440.504 295.312C435.69 301.375 429.908 306.657 423.453 310.92C422.645 311.451 421.829 311.971 421.001 312.471C420.592 312.728 420.169 312.963 419.752 313.209L419.124 313.574L418.37 313.93C417.372 314.426 416.236 314.642 415.11 314.726C413.981 314.719 412.83 314.588 411.789 314.143C409.668 313.355 407.952 311.692 406.99 309.653C406.002 307.611 406.008 305.137 406.788 303.071L406.924 302.677L407.072 302.338L407.374 301.664C407.579 301.215 407.796 300.773 408.018 300.333C408.466 299.456 408.949 298.596 409.463 297.756C410.493 296.075 411.662 294.48 412.949 292.985C413.275 292.614 413.601 292.243 413.941 291.886C414.109 291.705 414.278 291.526 414.453 291.351L414.713 291.088L414.843 290.956C414.927 290.88 415.02 290.801 415.111 290.728C415.487 290.44 415.995 290.217 416.515 290.2C417.032 290.173 417.526 290.304 417.942 290.536C418.761 290.982 419.375 291.94 419.293 293.002C419.267 293.248 419.22 293.512 419.129 293.722C419.087 293.829 419.035 293.948 418.992 294.039L418.907 294.198L418.566 294.832L417.885 296.1L416.475 298.61C412.628 305.253 408.185 311.548 403.221 317.402C400.736 320.326 398.116 323.136 395.378 325.825L394.35 326.832L393.691 327.379L393.355 327.647L392.98 327.869C392.006 328.502 390.836 328.835 389.682 328.918C389.098 328.979 388.521 328.911 387.945 328.844C387.383 328.717 386.814 328.596 386.289 328.353C385.232 327.907 384.244 327.253 383.491 326.361C382.74 325.481 382.142 324.431 381.885 323.284C381.79 323.006 381.788 322.711 381.74 322.425C381.701 322.136 381.661 321.847 381.685 321.561L381.717 320.7L381.801 319.969C382.04 318.042 382.373 316.127 382.792 314.232C383.214 312.338 383.72 310.461 384.318 308.615L384.78 307.234L385.024 306.548C385.079 306.407 385.067 306.391 385.087 306.33C385.106 306.277 385.124 306.224 385.117 306.178C385.14 305.985 385.107 305.825 385.013 305.662C384.917 305.502 384.749 305.356 384.561 305.273C384.156 305.114 383.858 305.171 383.514 305.502L381.567 307.58L377.671 311.735L373.776 315.89L371.828 317.967L371.585 318.227L371.279 318.528C371.077 318.737 370.843 318.913 370.616 319.096C370.146 319.441 369.641 319.747 369.1 319.968C366.94 320.909 364.402 320.678 362.41 319.55L361.742 319.133C361.592 319.049 361.449 318.953 361.286 318.889C360.974 318.739 360.629 318.644 360.273 318.586C359.56 318.465 358.788 318.532 358.049 318.738C356.551 319.16 355.322 320.179 354.465 321.582C353.613 322.975 353.139 324.663 352.976 326.384L350.303 325.906L350.306 325.892C351.838 319.75 353.334 313.599 354.898 307.466L356.061 302.863L356.634 300.581C356.807 299.855 356.942 299.16 356.991 298.519C357.039 297.881 357.007 297.299 356.853 296.858C356.702 296.412 356.475 296.074 356.108 295.759C355.339 295.096 354.235 294.803 353.159 294.962C352.62 295.031 352.092 295.222 351.616 295.489L351.439 295.594L351.209 295.745L350.728 296.067L349.766 296.711C348.466 297.543 347.238 298.481 345.996 299.396C345.366 299.841 344.78 300.345 344.179 300.828C343.583 301.317 342.977 301.794 342.389 302.292L340.662 303.832L339.798 304.6L338.965 305.402C334.508 309.658 330.474 314.371 327.086 319.515C323.684 324.644 320.795 330.119 318.648 335.874L317.846 338.032L317.141 340.222C316.656 341.682 316.233 343.151 315.93 344.563C315.304 347.39 315.283 350.103 316.244 352.313C316.705 353.36 317.421 354.262 318.269 354.833C318.694 355.119 319.135 355.344 319.623 355.452C320.115 355.578 320.592 355.654 321.075 355.605C322.032 355.551 323.06 355.151 324.078 354.447C325.093 353.746 326.062 352.775 326.947 351.696C327.833 350.612 328.642 349.408 329.371 348.146L329.907 347.182L330.453 346.146L331.545 344.073C332.265 342.687 332.952 341.283 333.656 339.89L335.668 335.659C340.891 324.31 345.19 312.536 348.419 300.471C349.211 297.451 349.966 294.421 350.631 291.371C350.962 289.846 351.3 288.322 351.588 286.788L352.038 284.491C352.168 283.77 352.283 283.065 352.354 282.364C352.498 280.974 352.539 279.59 352.338 278.409C352.141 277.223 351.756 276.271 351.208 275.738C350.955 275.435 350.607 275.247 350.219 275.045C349.782 274.886 349.34 274.718 348.852 274.698C347.893 274.612 346.832 274.838 345.885 275.346C345.758 275.413 345.667 275.465 345.517 275.557L345.038 275.869L344.08 276.492L342.161 277.737C340.899 278.593 339.701 279.541 338.455 280.423C337.242 281.349 336.083 282.347 334.891 283.304C333.735 284.302 332.631 285.363 331.495 286.388C327.096 290.642 323.112 295.353 319.688 300.462C312.811 310.66 308.078 322.357 305.982 334.636C305.857 335.378 305.153 335.879 304.41 335.753C303.711 335.636 303.227 334.996 303.278 334.303Z" fill="url(#paint15_linear_732_6183)"/>
<path d="M445.016 292.887C444.562 292.887 444.119 292.661 443.86 292.248C443.461 291.611 443.654 290.77 444.291 290.371L457.9 281.846C458.537 281.446 459.378 281.639 459.777 282.277C460.177 282.915 459.983 283.755 459.346 284.155L445.738 292.679C445.513 292.82 445.263 292.887 445.016 292.887Z" fill="url(#paint16_linear_732_6183)"/>
<path d="M572.129 530.627C571.934 530.616 571.738 530.624 571.545 530.651L539.314 535.116L599.599 540.43C603.205 540.82 605.856 540.501 608.501 540.124C611.441 539.705 631.602 535.559 631.602 535.559C635.126 535.018 635.065 534.319 632.366 534.084L572.129 530.627Z" fill="url(#paint17_linear_732_6183)"/>
<path d="M631.602 535.559C631.602 535.559 611.441 539.705 608.501 540.124L608.554 551.633C611.493 551.214 631.654 547.068 631.654 547.068L631.602 535.559Z" fill="#E15B00"/>
<path d="M634.323 534.687C634.009 534.916 633.029 535.34 631.602 535.559L631.654 547.068C633.494 546.785 634.357 546.46 634.377 546.18L634.369 546.12L634.323 534.687Z" fill="#F16304"/>
<path d="M608.501 540.124C605.856 540.501 603.205 540.82 599.599 540.43L599.652 551.939C603.257 552.329 605.908 552.01 608.554 551.633L608.501 540.124Z" fill="url(#paint18_linear_732_6183)"/>
<path d="M599.599 540.43L539.314 535.116L539.362 545.713C539.365 546.23 539.76 546.659 540.275 546.705L599.652 551.939L599.599 540.43Z" fill="url(#paint19_linear_732_6183)"/>
<defs>
<linearGradient id="paint0_linear_732_6183" x1="1135.55" y1="945.572" x2="500.848" y2="94.8032" gradientUnits="userSpaceOnUse">
<stop stop-color="#FB944E"/>
<stop offset="1" stop-color="#FDF2E9"/>
</linearGradient>
<linearGradient id="paint1_linear_732_6183" x1="806.527" y1="230.589" x2="785.329" y2="202.655" gradientUnits="userSpaceOnUse">
<stop stop-color="#DAE3FE"/>
<stop offset="1" stop-color="#E9EFFD"/>
</linearGradient>
<linearGradient id="paint2_linear_732_6183" x1="822.352" y1="251.056" x2="770.224" y2="182.36" gradientUnits="userSpaceOnUse">
<stop stop-color="#DAE3FE"/>
<stop offset="1" stop-color="#E9EFFD"/>
</linearGradient>
<linearGradient id="paint3_linear_732_6183" x1="685.235" y1="157.552" x2="670.796" y2="138.524" gradientUnits="userSpaceOnUse">
<stop stop-color="#DAE3FE"/>
<stop offset="1" stop-color="#E9EFFD"/>
</linearGradient>
<linearGradient id="paint4_linear_732_6183" x1="696.243" y1="171.784" x2="660.279" y2="124.39" gradientUnits="userSpaceOnUse">
<stop stop-color="#DAE3FE"/>
<stop offset="1" stop-color="#E9EFFD"/>
</linearGradient>
<linearGradient id="paint5_linear_732_6183" x1="397.31" y1="530.641" x2="445.616" y2="550.928" gradientUnits="userSpaceOnUse">
<stop stop-color="#403E3E"/>
<stop offset="1" stop-color="#242424"/>
</linearGradient>
<linearGradient id="paint6_linear_732_6183" x1="475.631" y1="328.186" x2="524.978" y2="348.914" gradientUnits="userSpaceOnUse">
<stop stop-color="#2D2D2D"/>
<stop offset="1" stop-color="#303030"/>
</linearGradient>
<linearGradient id="paint7_linear_732_6183" x1="688.004" y1="339.466" x2="231.303" y2="339.466" gradientUnits="userSpaceOnUse">
<stop stop-color="#363636"/>
<stop offset="1" stop-color="#3E3E3E"/>
</linearGradient>
<linearGradient id="paint8_linear_732_6183" x1="399.325" y1="228.406" x2="750.441" y2="802.405" gradientUnits="userSpaceOnUse">
<stop stop-color="#FF7823"/>
<stop offset="1" stop-color="#F36F56"/>
</linearGradient>
<linearGradient id="paint9_linear_732_6183" x1="688.004" y1="509.341" x2="0.000854492" y2="509.341" gradientUnits="userSpaceOnUse">
<stop stop-color="#313131"/>
<stop offset="1" stop-color="#5E5E5E"/>
</linearGradient>
<linearGradient id="paint10_linear_732_6183" x1="620.534" y1="504.013" x2="116.439" y2="504.013" gradientUnits="userSpaceOnUse">
<stop stop-color="#40447E"/>
<stop offset="1" stop-color="#3C3B6B"/>
</linearGradient>
<linearGradient id="paint11_linear_732_6183" x1="288.986" y1="163.059" x2="473.892" y2="163.059" gradientUnits="userSpaceOnUse">
<stop stop-color="#FCDDC7"/>
<stop offset="1" stop-color="#FDF2E9"/>
</linearGradient>
<linearGradient id="paint12_linear_732_6183" x1="291.202" y1="184.915" x2="415.493" y2="184.915" gradientUnits="userSpaceOnUse">
<stop stop-color="#FCD9BF"/>
<stop offset="1" stop-color="#FDF3E9"/>
</linearGradient>
<linearGradient id="paint13_linear_732_6183" x1="286.083" y1="215.688" x2="470.989" y2="215.688" gradientUnits="userSpaceOnUse">
<stop stop-color="#FCD9BF"/>
<stop offset="1" stop-color="#FDF2E9"/>
</linearGradient>
<linearGradient id="paint14_linear_732_6183" x1="288.3" y1="237.545" x2="412.59" y2="237.545" gradientUnits="userSpaceOnUse">
<stop stop-color="#FDE1CD"/>
<stop offset="1" stop-color="#FDF2E9"/>
</linearGradient>
<linearGradient id="paint15_linear_732_6183" x1="408.316" y1="238.425" x2="344.11" y2="361.045" gradientUnits="userSpaceOnUse">
<stop stop-color="#E25B00"/>
<stop offset="1" stop-color="#F87A25"/>
</linearGradient>
<linearGradient id="paint16_linear_732_6183" x1="443.652" y1="287.263" x2="459.985" y2="287.263" gradientUnits="userSpaceOnUse">
<stop stop-color="#E25B00"/>
<stop offset="1" stop-color="#FA8C41"/>
</linearGradient>
<linearGradient id="paint17_linear_732_6183" x1="573.251" y1="525.156" x2="588.19" y2="563.6" gradientUnits="userSpaceOnUse">
<stop stop-color="#F8AA75"/>
<stop offset="1" stop-color="#FC7A22"/>
</linearGradient>
<linearGradient id="paint18_linear_732_6183" x1="588.938" y1="547.465" x2="611.835" y2="554.722" gradientUnits="userSpaceOnUse">
<stop stop-color="#F0731F"/>
<stop offset="1" stop-color="#EA6205"/>
</linearGradient>
<linearGradient id="paint19_linear_732_6183" x1="510.936" y1="528.096" x2="547.119" y2="582.823" gradientUnits="userSpaceOnUse">
<stop stop-color="#FB944E"/>
<stop offset="1" stop-color="#E25B00"/>
</linearGradient>
</defs>
</svg>
