<svg width="333" viewBox="0 0 333 0" fill="none" xmlns="http://www.w3.org/2000/svg">
<path d="M333.707 0.707136C334.098 0.316612 334.098 -0.316553 333.707 -0.707078L327.343 -7.07104C326.953 -7.46156 326.319 -7.46156 325.929 -7.07104C325.538 -6.68051 325.538 -6.04735 325.929 -5.65683L331.586 2.89881e-05L325.929 5.65688C325.538 6.04741 325.538 6.68057 325.929 7.0711C326.319 7.46162 326.953 7.46162 327.343 7.0711L333.707 0.707136ZM0 0L-8.74228e-08 1L1.00301 1L1.00301 8.76861e-08L1.00301 -1L8.74228e-08 -1L0 0ZM3.00904 2.63058e-07L3.00904 1L5.01506 1L5.01506 4.38431e-07L5.01506 -1L3.00904 -1L3.00904 2.63058e-07ZM7.02108 6.13803e-07L7.02108 1L9.02711 1L9.02711 7.89175e-07L9.02711 -0.999999L7.02108 -0.999999L7.02108 6.13803e-07ZM11.0331 9.64547e-07L11.0331 1L13.0392 1L13.0392 1.13992e-06L13.0392 -0.999999L11.0331 -0.999999L11.0331 9.64547e-07ZM15.0452 1.31529e-06L15.0452 1L17.0512 1L17.0512 1.49066e-06L17.0512 -0.999999L15.0452 -0.999999L15.0452 1.31529e-06ZM19.0572 1.66604e-06L19.0572 1L21.0633 1L21.0633 1.84141e-06L21.0633 -0.999998L19.0572 -0.999998L19.0572 1.66604e-06ZM23.0693 2.01678e-06L23.0693 1L25.0753 1L25.0753 2.19215e-06L25.0753 -0.999998L23.0693 -0.999998L23.0693 2.01678e-06ZM27.0813 2.36752e-06L27.0813 1L29.0873 1L29.0873 2.5429e-06L29.0873 -0.999997L27.0813 -0.999998L27.0813 2.36752e-06ZM31.0934 2.71827e-06L31.0934 1L33.0994 1L33.0994 2.89364e-06L33.0994 -0.999997L31.0934 -0.999997L31.0934 2.71827e-06ZM35.1054 3.06901e-06L35.1054 1L37.1114 1L37.1114 3.24439e-06L37.1114 -0.999997L35.1054 -0.999997L35.1054 3.06901e-06ZM39.1175 3.41976e-06L39.1175 1L41.1235 1L41.1235 3.59513e-06L41.1235 -0.999996L39.1175 -0.999997L39.1175 3.41976e-06ZM43.1295 3.7705e-06L43.1295 1L45.1355 1L45.1355 3.94587e-06L45.1355 -0.999996L43.1295 -0.999996L43.1295 3.7705e-06ZM47.1416 4.12125e-06L47.1416 1L49.1476 1L49.1476 4.29662e-06L49.1476 -0.999996L47.1416 -0.999996L47.1416 4.12125e-06ZM51.1536 4.47199e-06L51.1536 1L53.1596 1L53.1596 4.64736e-06L53.1596 -0.999995L51.1536 -0.999996L51.1536 4.47199e-06ZM55.1656 4.82273e-06L55.1656 1L57.1717 1L57.1717 4.99811e-06L57.1717 -0.999995L55.1656 -0.999995L55.1656 4.82273e-06ZM59.1777 5.17348e-06L59.1777 1.00001L61.1837 1.00001L61.1837 5.34885e-06L61.1837 -0.999995L59.1777 -0.999995L59.1777 5.17348e-06ZM63.1897 5.52422e-06L63.1897 1.00001L65.1958 1.00001L65.1958 5.6996e-06L65.1958 -0.999994L63.1897 -0.999994L63.1897 5.52422e-06ZM67.2018 5.87497e-06L67.2018 1.00001L69.2078 1.00001L69.2078 6.05034e-06L69.2078 -0.999994L67.2018 -0.999994L67.2018 5.87497e-06ZM71.2139 6.22571e-06L71.2139 1.00001L73.2199 1.00001L73.2199 6.40109e-06L73.2199 -0.999994L71.2139 -0.999994L71.2139 6.22571e-06ZM75.2259 6.57646e-06L75.2259 1.00001L77.2319 1.00001L77.2319 6.75183e-06L77.2319 -0.999993L75.2259 -0.999993L75.2259 6.57646e-06ZM79.238 6.9272e-06L79.238 1.00001L81.244 1.00001L81.244 7.10258e-06L81.244 -0.999993L79.238 -0.999993L79.238 6.9272e-06ZM83.25 7.27795e-06L83.25 1.00001L85.256 1.00001L85.256 7.45332e-06L85.256 -0.999993L83.25 -0.999993L83.25 7.27795e-06ZM87.2621 7.62869e-06L87.2621 1.00001L89.2681 1.00001L89.2681 7.80406e-06L89.2681 -0.999992L87.2621 -0.999992L87.2621 7.62869e-06ZM91.2741 7.97944e-06L91.2741 1.00001L93.2802 1.00001L93.2802 8.15481e-06L93.2802 -0.999992L91.2741 -0.999992L91.2741 7.97944e-06ZM95.2862 8.33018e-06L95.2862 1.00001L97.2922 1.00001L97.2922 8.50555e-06L97.2922 -0.999991L95.2862 -0.999992L95.2862 8.33018e-06ZM99.2982 8.68093e-06L99.2982 1.00001L101.304 1.00001L101.304 8.8563e-06L101.304 -0.999991L99.2982 -0.999991L99.2982 8.68093e-06ZM103.31 9.03167e-06L103.31 1.00001L105.316 1.00001L105.316 9.20704e-06L105.316 -0.999991L103.31 -0.999991L103.31 9.03167e-06ZM107.322 9.38242e-06L107.322 1.00001L109.328 1.00001L109.328 9.55779e-06L109.328 -0.99999L107.322 -0.999991L107.322 9.38242e-06ZM111.334 9.73316e-06L111.334 1.00001L113.34 1.00001L113.34 9.90853e-06L113.34 -0.99999L111.334 -0.99999L111.334 9.73316e-06ZM115.346 1.00839e-05L115.346 1.00001L117.352 1.00001L117.352 1.02593e-05L117.352 -0.99999L115.346 -0.99999L115.346 1.00839e-05ZM119.359 1.04347e-05L119.359 1.00001L121.365 1.00001L121.365 1.061e-05L121.365 -0.999989L119.359 -0.99999L119.359 1.04347e-05ZM123.371 1.07854e-05L123.371 1.00001L125.377 1.00001L125.377 1.09608e-05L125.377 -0.999989L123.371 -0.999989L123.371 1.07854e-05ZM127.383 1.11361e-05L127.383 1.00001L129.389 1.00001L129.389 1.13115e-05L129.389 -0.999989L127.383 -0.999989L127.383 1.11361e-05ZM131.395 1.14869e-05L131.395 1.00001L133.401 1.00001L133.401 1.16623e-05L133.401 -0.999988L131.395 -0.999989L131.395 1.14869e-05ZM135.407 1.18376e-05L135.407 1.00001L137.413 1.00001L137.413 1.2013e-05L137.413 -0.999988L135.407 -0.999988L135.407 1.18376e-05ZM139.419 1.21884e-05L139.419 1.00001L141.425 1.00001L141.425 1.23637e-05L141.425 -0.999988L139.419 -0.999988L139.419 1.21884e-05ZM143.431 1.25391e-05L143.431 1.00001L145.437 1.00001L145.437 1.27145e-05L145.437 -0.999987L143.431 -0.999987L143.431 1.25391e-05ZM147.443 1.28899e-05L147.443 1.00001L149.449 1.00001L149.449 1.30652e-05L149.449 -0.999987L147.443 -0.999987L147.443 1.28899e-05ZM151.455 1.32406e-05L151.455 1.00001L153.461 1.00001L153.461 1.3416e-05L153.461 -0.999987L151.455 -0.999987L151.455 1.32406e-05ZM155.467 1.35914e-05L155.467 1.00001L157.473 1.00001L157.473 1.37667e-05L157.473 -0.999986L155.467 -0.999986L155.467 1.35914e-05ZM159.479 1.39421e-05L159.479 1.00001L161.485 1.00001L161.485 1.41175e-05L161.485 -0.999986L159.479 -0.999986L159.479 1.39421e-05ZM163.491 1.42928e-05L163.491 1.00001L165.497 1.00001L165.497 1.44682e-05L165.497 -0.999986L163.491 -0.999986L163.491 1.42928e-05ZM167.503 1.46436e-05L167.503 1.00001L169.509 1.00001L169.509 1.4819e-05L169.509 -0.999985L167.503 -0.999985L167.503 1.46436e-05ZM171.515 1.49943e-05L171.515 1.00001L173.521 1.00002L173.521 1.51697e-05L173.521 -0.999985L171.515 -0.999985L171.515 1.49943e-05ZM175.527 1.53451e-05L175.527 1.00002L177.533 1.00002L177.533 1.55205e-05L177.533 -0.999984L175.527 -0.999985L175.527 1.53451e-05ZM179.539 1.56958e-05L179.539 1.00002L181.545 1.00002L181.545 1.58712e-05L181.545 -0.999984L179.539 -0.999984L179.539 1.56958e-05ZM183.551 1.60466e-05L183.551 1.00002L185.557 1.00002L185.557 1.62219e-05L185.557 -0.999984L183.551 -0.999984L183.551 1.60466e-05ZM187.563 1.63973e-05L187.563 1.00002L189.569 1.00002L189.569 1.65727e-05L189.569 -0.999983L187.563 -0.999984L187.563 1.63973e-05ZM191.575 1.67481e-05L191.575 1.00002L193.582 1.00002L193.582 1.69234e-05L193.582 -0.999983L191.575 -0.999983L191.575 1.67481e-05ZM195.588 1.70988e-05L195.588 1.00002L197.594 1.00002L197.594 1.72742e-05L197.594 -0.999983L195.588 -0.999983L195.588 1.70988e-05ZM199.6 1.74496e-05L199.6 1.00002L201.606 1.00002L201.606 1.76249e-05L201.606 -0.999982L199.6 -0.999983L199.6 1.74496e-05ZM203.612 1.78003e-05L203.612 1.00002L205.618 1.00002L205.618 1.79757e-05L205.618 -0.999982L203.612 -0.999982L203.612 1.78003e-05ZM207.624 1.8151e-05L207.624 1.00002L209.63 1.00002L209.63 1.83264e-05L209.63 -0.999982L207.624 -0.999982L207.624 1.8151e-05ZM211.636 1.85018e-05L211.636 1.00002L213.642 1.00002L213.642 1.86772e-05L213.642 -0.999981L211.636 -0.999981L211.636 1.85018e-05ZM215.648 1.88525e-05L215.648 1.00002L217.654 1.00002L217.654 1.90279e-05L217.654 -0.999981L215.648 -0.999981L215.648 1.88525e-05ZM219.66 1.92033e-05L219.66 1.00002L221.666 1.00002L221.666 1.93786e-05L221.666 -0.999981L219.66 -0.999981L219.66 1.92033e-05ZM223.672 1.9554e-05L223.672 1.00002L225.678 1.00002L225.678 1.97294e-05L225.678 -0.99998L223.672 -0.99998L223.672 1.9554e-05ZM227.684 1.99048e-05L227.684 1.00002L229.69 1.00002L229.69 2.00801e-05L229.69 -0.99998L227.684 -0.99998L227.684 1.99048e-05ZM231.696 2.02555e-05L231.696 1.00002L233.702 1.00002L233.702 2.04309e-05L233.702 -0.99998L231.696 -0.99998L231.696 2.02555e-05ZM235.708 2.06063e-05L235.708 1.00002L237.714 1.00002L237.714 2.07816e-05L237.714 -0.999979L235.708 -0.999979L235.708 2.06063e-05ZM239.72 2.0957e-05L239.72 1.00002L241.726 1.00002L241.726 2.11324e-05L241.726 -0.999979L239.72 -0.999979L239.72 2.0957e-05ZM243.732 2.13077e-05L243.732 1.00002L245.738 1.00002L245.738 2.14831e-05L245.738 -0.999979L243.732 -0.999979L243.732 2.13077e-05ZM247.744 2.16585e-05L247.744 1.00002L249.75 1.00002L249.75 2.18339e-05L249.75 -0.999978L247.744 -0.999978L247.744 2.16585e-05ZM251.756 2.20092e-05L251.756 1.00002L253.762 1.00002L253.762 2.21846e-05L253.762 -0.999978L251.756 -0.999978L251.756 2.20092e-05ZM255.768 2.236e-05L255.768 1.00002L257.774 1.00002L257.774 2.25354e-05L257.774 -0.999977L255.768 -0.999978L255.768 2.236e-05ZM259.78 2.27107e-05L259.78 1.00002L261.786 1.00002L261.786 2.28861e-05L261.786 -0.999977L259.78 -0.999977L259.78 2.27107e-05ZM263.792 2.30615e-05L263.792 1.00002L265.798 1.00002L265.798 2.32368e-05L265.798 -0.999977L263.792 -0.999977L263.792 2.30615e-05ZM267.804 2.34122e-05L267.804 1.00002L269.81 1.00002L269.81 2.35876e-05L269.81 -0.999976L267.804 -0.999977L267.804 2.34122e-05ZM271.816 2.3763e-05L271.816 1.00002L273.822 1.00002L273.822 2.39383e-05L273.822 -0.999976L271.816 -0.999976L271.816 2.3763e-05ZM275.828 2.41137e-05L275.828 1.00002L277.835 1.00002L277.835 2.42891e-05L277.835 -0.999976L275.828 -0.999976L275.828 2.41137e-05ZM279.841 2.44644e-05L279.841 1.00002L281.847 1.00002L281.847 2.46398e-05L281.847 -0.999975L279.841 -0.999976L279.841 2.44644e-05ZM283.853 2.48152e-05L283.853 1.00002L285.859 1.00002L285.859 2.49905e-05L285.859 -0.999975L283.853 -0.999975L283.853 2.48152e-05ZM287.865 2.51659e-05L287.865 1.00003L289.871 1.00003L289.871 2.53413e-05L289.871 -0.999975L287.865 -0.999975L287.865 2.51659e-05ZM291.877 2.55167e-05L291.877 1.00003L293.883 1.00003L293.883 2.5692e-05L293.883 -0.999974L291.877 -0.999974L291.877 2.55167e-05ZM295.889 2.58674e-05L295.889 1.00003L297.895 1.00003L297.895 2.60428e-05L297.895 -0.999974L295.889 -0.999974L295.889 2.58674e-05ZM299.901 2.62181e-05L299.901 1.00003L301.907 1.00003L301.907 2.63935e-05L301.907 -0.999974L299.901 -0.999974L299.901 2.62181e-05ZM303.913 2.65689e-05L303.913 1.00003L305.919 1.00003L305.919 2.67443e-05L305.919 -0.999973L303.913 -0.999973L303.913 2.65689e-05ZM307.925 2.69196e-05L307.925 1.00003L309.931 1.00003L309.931 2.7095e-05L309.931 -0.999973L307.925 -0.999973L307.925 2.69196e-05ZM311.937 2.72704e-05L311.937 1.00003L313.943 1.00003L313.943 2.74457e-05L313.943 -0.999973L311.937 -0.999973L311.937 2.72704e-05ZM315.949 2.76211e-05L315.949 1.00003L317.955 1.00003L317.955 2.77965e-05L317.955 -0.999972L315.949 -0.999972L315.949 2.76211e-05ZM319.961 2.79719e-05L319.961 1.00003L321.967 1.00003L321.967 2.81472e-05L321.967 -0.999972L319.961 -0.999972L319.961 2.79719e-05ZM323.973 2.83226e-05L323.973 1.00003L325.979 1.00003L325.979 2.8498e-05L325.979 -0.999972L323.973 -0.999972L323.973 2.83226e-05ZM327.985 2.86733e-05L327.985 1.00003L329.991 1.00003L329.991 2.88487e-05L329.991 -0.999971L327.985 -0.999971L327.985 2.86733e-05ZM331.997 2.90241e-05L331.997 1.00003L333 1.00003L333 2.91118e-05L333 -0.999971L331.997 -0.999971L331.997 2.90241e-05Z" fill="url(#paint0_linear_732_6623)"/>
<defs>
<linearGradient id="paint0_linear_732_6623" x1="-4.37114e-08" y1="0.5" x2="333" y2="0.500029" gradientUnits="userSpaceOnUse">
<stop stop-color="#FFECBD"/>
<stop offset="1" stop-color="#FF6700"/>
</linearGradient>
</defs>
</svg>
