<svg width="330" viewBox="0 0 330 0" fill="none" xmlns="http://www.w3.org/2000/svg">
<path d="M330.707 0.707078C331.098 0.316554 331.098 -0.316611 330.707 -0.707136L324.343 -7.0711C323.953 -7.46162 323.319 -7.46162 322.929 -7.0711C322.538 -6.68057 322.538 -6.04741 322.929 -5.65688L328.586 -2.87259e-05L322.929 5.65683C322.538 6.04735 322.538 6.68052 322.929 7.07104C323.319 7.46156 323.953 7.46156 324.343 7.07104L330.707 0.707078ZM0 0L8.74228e-08 1L0.993976 1L0.993976 -8.68961e-08L0.993976 -1L-8.74228e-08 -1L0 0ZM2.98193 -2.60688e-07L2.98193 1L4.96988 1L4.96988 -4.34481e-07L4.96988 -1L2.98193 -1L2.98193 -2.60688e-07ZM6.95783 -6.08273e-07L6.95783 0.999999L8.94578 0.999999L8.94578 -7.82065e-07L8.94578 -1L6.95783 -1L6.95783 -6.08273e-07ZM10.9337 -9.55858e-07L10.9337 0.999999L12.9217 0.999999L12.9217 -1.12965e-06L12.9217 -1L10.9337 -1L10.9337 -9.55858e-07ZM14.9096 -1.30344e-06L14.9096 0.999999L16.8976 0.999999L16.8976 -1.47723e-06L16.8976 -1L14.9096 -1L14.9096 -1.30344e-06ZM18.8855 -1.65103e-06L18.8855 0.999998L20.8735 0.999998L20.8735 -1.82482e-06L20.8735 -1L18.8855 -1L18.8855 -1.65103e-06ZM22.8614 -1.99861e-06L22.8614 0.999998L24.8494 0.999998L24.8494 -2.1724e-06L24.8494 -1L22.8614 -1L22.8614 -1.99861e-06ZM26.8373 -2.3462e-06L26.8373 0.999998L28.8253 0.999997L28.8253 -2.51999e-06L28.8253 -1L26.8373 -1L26.8373 -2.3462e-06ZM30.8132 -2.69378e-06L30.8132 0.999997L32.8012 0.999997L32.8012 -2.86757e-06L32.8012 -1L30.8132 -1L30.8132 -2.69378e-06ZM34.7892 -3.04136e-06L34.7892 0.999997L36.7771 0.999997L36.7771 -3.21516e-06L36.7771 -1L34.7892 -1L34.7892 -3.04136e-06ZM38.7651 -3.38895e-06L38.7651 0.999997L40.753 0.999996L40.753 -3.56274e-06L40.753 -1L38.7651 -1L38.7651 -3.38895e-06ZM42.741 -3.73653e-06L42.741 0.999996L44.7289 0.999996L44.7289 -3.91033e-06L44.7289 -1L42.741 -1L42.741 -3.73653e-06ZM46.7169 -4.08412e-06L46.7169 0.999996L48.7048 0.999996L48.7048 -4.25791e-06L48.7048 -1L46.7169 -1L46.7169 -4.08412e-06ZM50.6928 -4.4317e-06L50.6928 0.999996L52.6807 0.999995L52.6807 -4.6055e-06L52.6807 -1L50.6928 -1L50.6928 -4.4317e-06ZM54.6687 -4.77929e-06L54.6687 0.999995L56.6566 0.999995L56.6566 -4.95308e-06L56.6566 -1L54.6687 -1L54.6687 -4.77929e-06ZM58.6446 -5.12687e-06L58.6446 0.999995L60.6325 0.999995L60.6325 -5.30067e-06L60.6325 -1.00001L58.6446 -1.00001L58.6446 -5.12687e-06ZM62.6205 -5.47446e-06L62.6205 0.999995L64.6085 0.999994L64.6085 -5.64825e-06L64.6085 -1.00001L62.6205 -1.00001L62.6205 -5.47446e-06ZM66.5964 -5.82204e-06L66.5964 0.999994L68.5844 0.999994L68.5844 -5.99584e-06L68.5844 -1.00001L66.5964 -1.00001L66.5964 -5.82204e-06ZM70.5723 -6.16963e-06L70.5723 0.999994L72.5603 0.999994L72.5603 -6.34342e-06L72.5603 -1.00001L70.5723 -1.00001L70.5723 -6.16963e-06ZM74.5482 -6.51721e-06L74.5482 0.999993L76.5362 0.999993L76.5362 -6.69101e-06L76.5362 -1.00001L74.5482 -1.00001L74.5482 -6.51721e-06ZM78.5241 -6.8648e-06L78.5241 0.999993L80.5121 0.999993L80.5121 -7.03859e-06L80.5121 -1.00001L78.5241 -1.00001L78.5241 -6.8648e-06ZM82.5 -7.21238e-06L82.5 0.999993L84.488 0.999993L84.488 -7.38617e-06L84.488 -1.00001L82.5 -1.00001L82.5 -7.21238e-06ZM86.4759 -7.55997e-06L86.4759 0.999992L88.4639 0.999992L88.4639 -7.73376e-06L88.4639 -1.00001L86.4759 -1.00001L86.4759 -7.55997e-06ZM90.4518 -7.90755e-06L90.4518 0.999992L92.4398 0.999992L92.4398 -8.08134e-06L92.4398 -1.00001L90.4518 -1.00001L90.4518 -7.90755e-06ZM94.4278 -8.25514e-06L94.4278 0.999992L96.4157 0.999992L96.4157 -8.42893e-06L96.4157 -1.00001L94.4278 -1.00001L94.4278 -8.25514e-06ZM98.4037 -8.60272e-06L98.4037 0.999991L100.392 0.999991L100.392 -8.77651e-06L100.392 -1.00001L98.4037 -1.00001L98.4037 -8.60272e-06ZM102.38 -8.95031e-06L102.38 0.999991L104.368 0.999991L104.368 -9.1241e-06L104.368 -1.00001L102.38 -1.00001L102.38 -8.95031e-06ZM106.355 -9.29789e-06L106.355 0.999991L108.343 0.999991L108.343 -9.47168e-06L108.343 -1.00001L106.355 -1.00001L106.355 -9.29789e-06ZM110.331 -9.64548e-06L110.331 0.99999L112.319 0.99999L112.319 -9.81927e-06L112.319 -1.00001L110.331 -1.00001L110.331 -9.64548e-06ZM114.307 -9.99306e-06L114.307 0.99999L116.295 0.99999L116.295 -1.01669e-05L116.295 -1.00001L114.307 -1.00001L114.307 -9.99306e-06ZM118.283 -1.03406e-05L118.283 0.99999L120.271 0.999989L120.271 -1.05144e-05L120.271 -1.00001L118.283 -1.00001L118.283 -1.03406e-05ZM122.259 -1.06882e-05L122.259 0.999989L124.247 0.999989L124.247 -1.0862e-05L124.247 -1.00001L122.259 -1.00001L122.259 -1.06882e-05ZM126.235 -1.10358e-05L126.235 0.999989L128.223 0.999989L128.223 -1.12096e-05L128.223 -1.00001L126.235 -1.00001L126.235 -1.10358e-05ZM130.211 -1.13834e-05L130.211 0.999989L132.199 0.999988L132.199 -1.15572e-05L132.199 -1.00001L130.211 -1.00001L130.211 -1.13834e-05ZM134.187 -1.1731e-05L134.187 0.999988L136.175 0.999988L136.175 -1.19048e-05L136.175 -1.00001L134.187 -1.00001L134.187 -1.1731e-05ZM138.163 -1.20786e-05L138.163 0.999988L140.151 0.999988L140.151 -1.22524e-05L140.151 -1.00001L138.163 -1.00001L138.163 -1.20786e-05ZM142.139 -1.24261e-05L142.139 0.999988L144.127 0.999987L144.127 -1.25999e-05L144.127 -1.00001L142.139 -1.00001L142.139 -1.24261e-05ZM146.114 -1.27737e-05L146.114 0.999987L148.102 0.999987L148.102 -1.29475e-05L148.102 -1.00001L146.114 -1.00001L146.114 -1.27737e-05ZM150.09 -1.31213e-05L150.09 0.999987L152.078 0.999987L152.078 -1.32951e-05L152.078 -1.00001L150.09 -1.00001L150.09 -1.31213e-05ZM154.066 -1.34689e-05L154.066 0.999987L156.054 0.999986L156.054 -1.36427e-05L156.054 -1.00001L154.066 -1.00001L154.066 -1.34689e-05ZM158.042 -1.38165e-05L158.042 0.999986L160.03 0.999986L160.03 -1.39903e-05L160.03 -1.00001L158.042 -1.00001L158.042 -1.38165e-05ZM162.018 -1.41641e-05L162.018 0.999986L164.006 0.999986L164.006 -1.43379e-05L164.006 -1.00001L162.018 -1.00001L162.018 -1.41641e-05ZM165.994 -1.45117e-05L165.994 0.999985L167.982 0.999985L167.982 -1.46854e-05L167.982 -1.00001L165.994 -1.00001L165.994 -1.45117e-05ZM169.97 -1.48592e-05L169.97 0.999985L171.958 0.999985L171.958 -1.5033e-05L171.958 -1.00002L169.97 -1.00001L169.97 -1.48592e-05ZM173.946 -1.52068e-05L173.946 0.999985L175.934 0.999985L175.934 -1.53806e-05L175.934 -1.00002L173.946 -1.00002L173.946 -1.52068e-05ZM177.922 -1.55544e-05L177.922 0.999984L179.91 0.999984L179.91 -1.57282e-05L179.91 -1.00002L177.922 -1.00002L177.922 -1.55544e-05ZM181.897 -1.5902e-05L181.897 0.999984L183.885 0.999984L183.885 -1.60758e-05L183.885 -1.00002L181.897 -1.00002L181.897 -1.5902e-05ZM185.873 -1.62496e-05L185.873 0.999984L187.861 0.999984L187.861 -1.64234e-05L187.861 -1.00002L185.873 -1.00002L185.873 -1.62496e-05ZM189.849 -1.65972e-05L189.849 0.999983L191.837 0.999983L191.837 -1.67709e-05L191.837 -1.00002L189.849 -1.00002L189.849 -1.65972e-05ZM193.825 -1.69447e-05L193.825 0.999983L195.813 0.999983L195.813 -1.71185e-05L195.813 -1.00002L193.825 -1.00002L193.825 -1.69447e-05ZM197.801 -1.72923e-05L197.801 0.999983L199.789 0.999983L199.789 -1.74661e-05L199.789 -1.00002L197.801 -1.00002L197.801 -1.72923e-05ZM201.777 -1.76399e-05L201.777 0.999982L203.765 0.999982L203.765 -1.78137e-05L203.765 -1.00002L201.777 -1.00002L201.777 -1.76399e-05ZM205.753 -1.79875e-05L205.753 0.999982L207.741 0.999982L207.741 -1.81613e-05L207.741 -1.00002L205.753 -1.00002L205.753 -1.79875e-05ZM209.729 -1.83351e-05L209.729 0.999982L211.717 0.999981L211.717 -1.85089e-05L211.717 -1.00002L209.729 -1.00002L209.729 -1.83351e-05ZM213.705 -1.86827e-05L213.705 0.999981L215.693 0.999981L215.693 -1.88564e-05L215.693 -1.00002L213.705 -1.00002L213.705 -1.86827e-05ZM217.68 -1.90302e-05L217.68 0.999981L219.668 0.999981L219.668 -1.9204e-05L219.668 -1.00002L217.68 -1.00002L217.68 -1.90302e-05ZM221.656 -1.93778e-05L221.656 0.999981L223.644 0.99998L223.644 -1.95516e-05L223.644 -1.00002L221.656 -1.00002L221.656 -1.93778e-05ZM225.632 -1.97254e-05L225.632 0.99998L227.62 0.99998L227.62 -1.98992e-05L227.62 -1.00002L225.632 -1.00002L225.632 -1.97254e-05ZM229.608 -2.0073e-05L229.608 0.99998L231.596 0.99998L231.596 -2.02468e-05L231.596 -1.00002L229.608 -1.00002L229.608 -2.0073e-05ZM233.584 -2.04206e-05L233.584 0.99998L235.572 0.999979L235.572 -2.05944e-05L235.572 -1.00002L233.584 -1.00002L233.584 -2.04206e-05ZM237.56 -2.07682e-05L237.56 0.999979L239.548 0.999979L239.548 -2.09419e-05L239.548 -1.00002L237.56 -1.00002L237.56 -2.07682e-05ZM241.536 -2.11157e-05L241.536 0.999979L243.524 0.999979L243.524 -2.12895e-05L243.524 -1.00002L241.536 -1.00002L241.536 -2.11157e-05ZM245.512 -2.14633e-05L245.512 0.999979L247.5 0.999978L247.5 -2.16371e-05L247.5 -1.00002L245.512 -1.00002L245.512 -2.14633e-05ZM249.488 -2.18109e-05L249.488 0.999978L251.476 0.999978L251.476 -2.19847e-05L251.476 -1.00002L249.488 -1.00002L249.488 -2.18109e-05ZM253.464 -2.21585e-05L253.464 0.999978L255.451 0.999978L255.451 -2.23323e-05L255.451 -1.00002L253.464 -1.00002L253.464 -2.21585e-05ZM257.439 -2.25061e-05L257.439 0.999977L259.427 0.999977L259.427 -2.26799e-05L259.427 -1.00002L257.439 -1.00002L257.439 -2.25061e-05ZM261.415 -2.28537e-05L261.415 0.999977L263.403 0.999977L263.403 -2.30274e-05L263.403 -1.00002L261.415 -1.00002L261.415 -2.28537e-05ZM265.391 -2.32012e-05L265.391 0.999977L267.379 0.999977L267.379 -2.3375e-05L267.379 -1.00002L265.391 -1.00002L265.391 -2.32012e-05ZM269.367 -2.35488e-05L269.367 0.999976L271.355 0.999976L271.355 -2.37226e-05L271.355 -1.00002L269.367 -1.00002L269.367 -2.35488e-05ZM273.343 -2.38964e-05L273.343 0.999976L275.331 0.999976L275.331 -2.40702e-05L275.331 -1.00002L273.343 -1.00002L273.343 -2.38964e-05ZM277.319 -2.4244e-05L277.319 0.999976L279.307 0.999976L279.307 -2.44178e-05L279.307 -1.00002L277.319 -1.00002L277.319 -2.4244e-05ZM281.295 -2.45916e-05L281.295 0.999975L283.283 0.999975L283.283 -2.47654e-05L283.283 -1.00002L281.295 -1.00002L281.295 -2.45916e-05ZM285.271 -2.49392e-05L285.271 0.999975L287.259 0.999975L287.259 -2.51129e-05L287.259 -1.00003L285.271 -1.00002L285.271 -2.49392e-05ZM289.247 -2.52867e-05L289.247 0.999975L291.234 0.999975L291.234 -2.54605e-05L291.234 -1.00003L289.247 -1.00003L289.247 -2.52867e-05ZM293.222 -2.56343e-05L293.222 0.999974L295.21 0.999974L295.21 -2.58081e-05L295.21 -1.00003L293.222 -1.00003L293.222 -2.56343e-05ZM297.198 -2.59819e-05L297.198 0.999974L299.186 0.999974L299.186 -2.61557e-05L299.186 -1.00003L297.198 -1.00003L297.198 -2.59819e-05ZM301.174 -2.63295e-05L301.174 0.999974L303.162 0.999973L303.162 -2.65033e-05L303.162 -1.00003L301.174 -1.00003L301.174 -2.63295e-05ZM305.15 -2.66771e-05L305.15 0.999973L307.138 0.999973L307.138 -2.68509e-05L307.138 -1.00003L305.15 -1.00003L305.15 -2.66771e-05ZM309.126 -2.70247e-05L309.126 0.999973L311.114 0.999973L311.114 -2.71984e-05L311.114 -1.00003L309.126 -1.00003L309.126 -2.70247e-05ZM313.102 -2.73722e-05L313.102 0.999973L315.09 0.999972L315.09 -2.7546e-05L315.09 -1.00003L313.102 -1.00003L313.102 -2.73722e-05ZM317.078 -2.77198e-05L317.078 0.999972L319.066 0.999972L319.066 -2.78936e-05L319.066 -1.00003L317.078 -1.00003L317.078 -2.77198e-05ZM321.054 -2.80674e-05L321.054 0.999972L323.042 0.999972L323.042 -2.82412e-05L323.042 -1.00003L321.054 -1.00003L321.054 -2.80674e-05ZM325.03 -2.8415e-05L325.03 0.999972L327.018 0.999971L327.018 -2.85888e-05L327.018 -1.00003L325.03 -1.00003L325.03 -2.8415e-05ZM329.005 -2.87626e-05L329.005 0.999971L330 0.999971L330 -2.88495e-05L330 -1.00003L329.005 -1.00003L329.005 -2.87626e-05Z" fill="url(#paint0_linear_732_6622)"/>
<defs>
<linearGradient id="paint0_linear_732_6622" x1="4.37114e-08" y1="0.5" x2="330" y2="0.499971" gradientUnits="userSpaceOnUse">
<stop stop-color="#FFECBD"/>
<stop offset="1" stop-color="#FF6700"/>
</linearGradient>
</defs>
</svg>
