<svg width="816" height="736" viewBox="0 0 816 736" fill="none" xmlns="http://www.w3.org/2000/svg">
<path d="M761.295 144.537C758.629 139.952 755.855 135.457 752.974 131.051C714.423 72.4857 650.17 32.3918 587.876 14.2387C560.697 6.39701 532.71 1.9357 504.508 0.950735C320.825 -5.85794 253.359 150.732 194.181 191.092C135.006 231.451 44.1828 300.428 55.6687 445.293C64.3104 555.445 124.918 660.764 235.577 708.681C248.077 714.106 260.907 718.683 273.985 722.383C300.471 729.814 327.682 734.143 355.103 735.288C438.777 739.14 506.726 718.281 573.179 665.763C588.631 653.554 604.004 639.786 624.051 638.275C638.62 637.177 652.436 642.592 637.208 657.158C619.297 674.267 639.954 707.933 685.398 684.547C761.295 645.483 792.523 561.208 807.236 475.522C825.228 370.336 816.473 239.607 761.295 144.537Z" fill="url(#paint0_linear_725_3363)"/>
<path d="M62.8521 114.959C63.0999 115.842 63.3684 116.715 63.6572 117.576C67.5372 129.039 76.2037 138.38 85.3983 143.921C89.413 146.325 93.6852 148.187 98.1244 149.467C127.023 157.874 143.722 133.958 154.66 129.444C165.597 124.929 182.653 116.807 186.37 91.7646C189.211 72.7268 183.618 52.4581 167.884 39.9566C166.107 38.5423 164.245 37.259 162.311 36.1147C158.39 33.8079 154.236 31.9989 149.927 30.7221C136.792 26.7652 125.207 27.6235 112.649 33.9144C109.729 35.3766 106.763 37.1067 103.522 36.5719C101.168 36.1831 99.1815 34.7186 102.156 32.8474C105.654 30.6505 103.662 24.1208 95.5535 26.2963C82.011 29.9308 73.8307 43.0025 68.2179 56.9655C61.3388 74.109 57.7289 96.6439 62.8521 114.959Z" fill="#FF6700"/>
<path d="M62.8521 114.959C63.0999 115.842 63.3684 116.715 63.6572 117.576C67.5372 129.039 76.2037 138.38 85.3983 143.921C89.413 146.325 93.6852 148.187 98.1244 149.467C127.023 157.874 143.722 133.958 154.66 129.444C165.597 124.929 182.653 116.807 186.37 91.7646C189.211 72.7268 183.618 52.4581 167.884 39.9566C166.107 38.5423 164.245 37.259 162.311 36.1147C158.39 33.8079 154.236 31.9989 149.927 30.7221C136.792 26.7652 125.207 27.6235 112.649 33.9144C109.729 35.3766 106.763 37.1067 103.522 36.5719C101.168 36.1831 99.1815 34.7186 102.156 32.8474C105.654 30.6505 103.662 24.1208 95.5535 26.2963C82.011 29.9308 73.8307 43.0025 68.2179 56.9655C61.3388 74.109 57.7289 96.6439 62.8521 114.959Z" fill="white" fill-opacity="0.7"/>
<path d="M279.851 507.746C279.851 507.746 267.902 411.687 220.084 392.66C172.265 373.633 86.203 370.149 62.6451 233.177C48.853 152.987 41.6385 118.104 38.0268 102.963C36.6182 97.0571 41.2092 91.432 47.2669 91.6613C90.1187 93.2844 230.339 105.381 272.485 193.71C322.449 298.424 279.851 507.746 279.851 507.746Z" fill="#FFA275"/>
<path opacity="0.5" d="M85.1748 125.071C137.009 159.096 200.672 223.518 239.625 291.64C245.017 303.021 259.374 326.791 270.667 371.153C280.357 408.111 284.215 448.119 283.14 475.147C283.072 476.855 281.634 478.186 279.928 478.119C276.995 478.004 276.918 474.875 276.958 474.968C275.974 429.214 265.308 373.679 244.782 325.203C218.931 265.777 172.873 211.305 126.895 166.141L122.196 161.719C86.7477 127.894 80.4408 128.55 82.8263 125.465C83.3902 124.736 84.418 124.576 85.1748 125.071Z" fill="white"/>
<path d="M371.65 568.89C378.317 569.988 294.508 511.771 239.354 397.23C213.364 343.256 191.933 272.267 151.473 254.64C117.801 239.969 30.7952 281.944 2.55506 296.438C-0.973733 298.249 -0.813371 303.352 2.82667 304.919C20.7727 312.64 59.9567 331.805 76.5409 358.04C98.4004 392.62 141.457 405.806 175.501 402.609C209.545 399.412 229.291 400.326 260.351 447C291.411 493.674 352.705 565.772 371.65 568.89Z" fill="#FBD6C0"/>
<path opacity="0.5" d="M49.3526 299.664C87.9519 289.745 134.096 294.795 164.663 321.186L167.559 323.711C174.279 329.652 215.524 373.857 242.698 412.621C243.036 413.104 242.919 413.772 242.437 414.112C241.617 414.689 240.859 413.823 240.973 413.886C223.744 392.554 200.229 366.014 181.951 346.377C162.219 324.885 148.582 310.412 115.905 302.477C79.7116 294.233 49.6326 301.347 49.7266 301.339C49.2621 301.429 48.8125 301.125 48.7233 300.659C48.6375 300.211 48.9178 299.777 49.3526 299.664Z" fill="white"/>
<path d="M357.793 662.273C362.761 663.788 322.977 617.948 311.998 572.929C301.019 527.91 275.962 452.29 227.959 413.408C179.957 374.526 136.288 378.54 90.3407 431.129C52.0513 474.953 27.3672 498.102 11.5337 504.569C7.61311 506.17 6.41287 511.181 9.09576 514.458C23.3756 531.904 61.7745 570.9 111.3 558.103C174.473 541.778 244.013 485.229 274.264 515.416C304.516 545.603 305.195 565.621 309.064 581.941C312.932 598.262 324.92 652.25 357.793 662.273Z" fill="#FF9964"/>
<path opacity="0.5" d="M119.106 483.367C135.1 460.789 163.469 436.168 192.006 434.249C229.395 433.12 258.191 452.732 278.269 486.311C286.35 500.654 290.033 508.432 296.669 526.643C297.199 528.097 295.074 528.971 294.426 527.576C290.523 519.174 286.562 510.351 281.452 501.422C250.552 443.414 208.154 442.959 206.325 442.002C203.298 442.901 181.914 432.476 142.1 464.939C134.676 471.052 127.593 477.763 121.106 484.909L121.07 484.949C120.6 485.466 119.802 485.504 119.286 485.034C118.808 484.6 118.741 483.881 119.106 483.367Z" fill="white"/>
<path d="M220.814 418.755C241.578 414.284 312.396 401.162 386.551 411.805C411.387 415.369 433.372 429.832 446.777 451.09C470.929 489.395 505.09 557.678 497.866 628.894L459.96 638.289C459.96 638.289 433.763 553.795 404.278 519.407C404.278 519.407 369.359 599.19 371.124 643.003C371.175 644.241 371.254 645.451 371.364 646.629C375.371 689.493 203.742 654.628 203.742 654.628L214.432 426.31C214.605 422.63 217.221 419.529 220.814 418.755Z" fill="url(#paint1_linear_725_3363)"/>
<path d="M279.865 338.575L274.874 397.892C274.41 403.41 277.249 408.572 281.977 410.782C292.868 415.871 313.782 423.173 336.148 417.814C340.241 416.833 342.908 412.547 342.233 408.172L327.727 314.151L279.865 338.575Z" fill="url(#paint2_linear_725_3363)"/>
<path d="M346.461 266.684C346.461 266.684 357.727 310.513 355.494 332.213C353.261 353.913 355.66 368.61 330.159 368.968C304.658 369.326 285.731 353.59 277.823 330.351C277.823 330.351 265.344 294.497 271.478 281.614C277.613 268.731 346.461 266.684 346.461 266.684Z" fill="url(#paint3_linear_725_3363)"/>
<path d="M288.756 316.305L291.893 316.807C291.893 316.807 283.204 288.167 295.304 285.317C307.403 282.468 353.848 280.476 366.103 266.032C377.916 252.108 372.748 230.85 361.153 223.275C360.42 222.796 359.429 223.02 358.903 223.721L357.556 225.517C356.634 226.747 354.687 226.226 354.499 224.699C354.32 223.251 352.506 222.651 351.552 223.753C347.818 228.061 338.535 234.552 316.324 235.089C284.808 235.85 262.59 245.028 258.713 266.155C258.467 267.493 256.916 268.005 255.883 267.122C253.843 265.379 250.329 264.152 244.847 267.452C235.312 273.191 235.822 292.12 251.84 310.189C252.601 311.047 252.375 312.417 251.328 312.884C247.64 314.529 241.835 318.918 253.636 327.898C265.708 337.085 273.643 337.564 276.711 337.28C277.537 337.204 278.186 336.565 278.266 335.737L280.103 316.758C280.198 315.777 281.099 315.079 282.071 315.234L288.756 316.305Z" fill="url(#paint4_linear_725_3363)"/>
<path d="M288.9 320.361C288.9 320.361 286.283 293.097 273.404 298.562C260.526 304.026 274.806 328.865 284.063 331.352L288.9 320.361Z" fill="url(#paint5_linear_725_3363)"/>
<path d="M215.239 586.503C211.538 560.306 238.602 521.798 249.797 507.186C252.999 503.006 254.79 497.896 254.835 492.626C255.163 455.525 242.631 436.144 217.731 420.145C217.731 420.145 124.344 521.24 147.356 602.419C149.839 611.18 153.687 618.707 158.566 625.174C162.193 594.587 197.464 587.914 215.239 586.503Z" fill="url(#paint6_linear_725_3363)"/>
<path d="M216.924 576.368L213.481 575.974C216.399 550.284 238.889 518.569 248.422 506.126L251.172 508.242C241.814 520.456 219.746 551.543 216.924 576.368Z" fill="url(#paint7_linear_725_3363)"/>
<path d="M215.948 590.13C215.632 588.953 215.413 587.736 215.239 586.502C197.464 587.913 162.193 594.586 158.567 625.174C198.898 678.642 310.065 659.352 310.065 659.352V638.546C310.065 638.546 224.688 622.647 215.948 590.13Z" fill="url(#paint8_linear_725_3363)"/>
<path d="M299.379 653.607C299.379 653.607 315.793 614.784 344.715 628.555C373.637 642.326 371.364 651.337 371.364 651.337L299.379 653.607Z" fill="url(#paint9_linear_725_3363)"/>
<path d="M295.692 661.662C295.921 664.6 298.419 666.835 301.356 666.732L451.229 661.491C453.559 661.41 455.583 659.863 456.278 657.633L460.628 643.68C461.696 640.252 459.257 636.733 455.679 636.543L401.026 633.633C400.53 633.606 400.032 633.647 399.547 633.755L299.978 655.859C297.306 656.453 295.477 658.928 295.692 661.662Z" fill="url(#paint10_linear_725_3363)"/>
<path d="M396.154 656.18L400.278 636.918L456.417 639.603L452.724 655.585L396.154 656.18Z" fill="url(#paint11_linear_725_3363)"/>
<path d="M367.374 448.383C364.196 474.406 349.903 580.138 345.812 610.347C345.237 614.596 348.603 618.332 352.879 618.21L595.346 611.255C598.519 611.164 601.224 608.924 601.913 605.818L639.631 435.553C640.628 431.051 637.053 426.843 632.46 427.113L373.846 442.296C370.502 442.492 367.78 445.05 367.374 448.383Z" fill="url(#paint12_linear_725_3363)"/>
<path d="M464.837 555.63L429.002 657.583L512.328 659.353L519.266 556.242C519.591 551.403 515.588 547.386 510.76 547.707L471.847 550.297C468.656 550.51 465.899 552.607 464.837 555.63Z" fill="url(#paint13_linear_725_3363)"/>
<path d="M395.22 659.033C394.301 661.838 396.387 664.724 399.332 664.724H529.825C532.215 664.724 534.153 662.782 534.153 660.386V654.776C534.153 652.307 532.1 650.336 529.639 650.442L399.146 656.052C397.346 656.129 395.782 657.317 395.22 659.033Z" fill="url(#paint14_linear_725_3363)"/>
<path d="M330.123 347.461C300.906 355.137 278.082 327.588 277.855 327.308L279.639 325.85C279.857 326.117 301.767 352.525 329.539 345.228L330.123 347.461Z" fill="url(#paint15_linear_725_3363)"/>
<path d="M337.504 343.547C338.116 345.222 337.257 347.077 335.586 347.69L329.987 349.745C328.316 350.358 326.465 349.497 325.854 347.822L325.51 346.881C324.899 345.206 325.758 343.351 327.429 342.738L333.027 340.684C334.698 340.071 336.549 340.932 337.161 342.607L337.504 343.547Z" fill="url(#paint16_linear_725_3363)"/>
<path d="M273.308 293.238C273.308 293.238 275.356 243.839 303.961 233.556C303.961 233.556 295 231.317 287.037 237.245C279.075 243.173 261.024 270.592 266.164 295.86C272.455 296.672 273.308 293.238 273.308 293.238Z" fill="url(#paint17_linear_725_3363)"/>
<path d="M267.766 291.291C252.084 297.591 257.854 317.869 257.854 317.869C259.415 333.066 265.132 339.693 271.368 342.207C275.629 343.924 280.477 343.267 284.137 340.488C287.797 337.709 289.736 333.21 289.245 328.633C288.801 324.501 288.438 320.562 288.489 319.13C288.612 315.661 283.447 284.992 267.766 291.291Z" fill="url(#paint18_linear_725_3363)"/>
<path d="M270.214 296.226C266.726 296.257 263.72 298.669 262.937 302.077C257.328 326.464 271.962 338.975 277.886 338.206C284.128 337.395 278.56 307.598 275.852 300.193C274.717 297.09 272.457 296.206 270.214 296.226Z" fill="url(#paint19_linear_725_3363)"/>
<path d="M363.816 556.43L361.886 556.186L373.797 462.012C374.544 456.118 379.377 451.584 385.289 451.226L608.773 437.696L608.891 439.643L385.407 453.172C380.426 453.473 376.357 457.293 375.728 462.256L363.816 556.43Z" fill="#C8C8C8"/>
<path d="M358.461 583.033L360.391 583.276L357.828 603.667L355.898 603.423L358.461 583.033Z" fill="#A8A8A8"/>
<path d="M219.522 164V117.455H238.159C241.583 117.455 244.439 117.962 246.727 118.977C249.015 119.992 250.734 121.402 251.886 123.205C253.037 124.992 253.613 127.053 253.613 129.386C253.613 131.205 253.25 132.803 252.522 134.182C251.795 135.545 250.795 136.667 249.522 137.545C248.265 138.409 246.825 139.023 245.204 139.386V139.841C246.977 139.917 248.636 140.417 250.181 141.341C251.742 142.265 253.007 143.561 253.977 145.227C254.947 146.879 255.431 148.848 255.431 151.136C255.431 153.606 254.818 155.811 253.59 157.75C252.378 159.674 250.583 161.197 248.204 162.318C245.825 163.439 242.893 164 239.409 164H219.522ZM229.363 155.955H237.386C240.128 155.955 242.128 155.432 243.386 154.386C244.643 153.326 245.272 151.917 245.272 150.159C245.272 148.871 244.962 147.735 244.34 146.75C243.719 145.765 242.833 144.992 241.681 144.432C240.545 143.871 239.189 143.591 237.613 143.591H229.363V155.955ZM229.363 136.932H236.659C238.007 136.932 239.204 136.697 240.25 136.227C241.31 135.742 242.143 135.061 242.75 134.182C243.371 133.303 243.681 132.25 243.681 131.023C243.681 129.341 243.083 127.985 241.886 126.955C240.704 125.924 239.022 125.409 236.84 125.409H229.363V136.932ZM261.653 177.091V129.091H271.198V134.955H271.63C272.054 134.015 272.668 133.061 273.471 132.091C274.289 131.106 275.35 130.288 276.653 129.636C277.971 128.97 279.607 128.636 281.562 128.636C284.107 128.636 286.456 129.303 288.607 130.636C290.759 131.955 292.479 133.947 293.767 136.614C295.054 139.265 295.698 142.591 295.698 146.591C295.698 150.485 295.07 153.773 293.812 156.455C292.57 159.121 290.873 161.144 288.721 162.523C286.585 163.886 284.191 164.568 281.539 164.568C279.661 164.568 278.062 164.258 276.744 163.636C275.441 163.015 274.373 162.235 273.539 161.295C272.706 160.341 272.07 159.379 271.63 158.409H271.335V177.091H261.653ZM271.13 146.545C271.13 148.621 271.418 150.432 271.994 151.977C272.57 153.523 273.403 154.727 274.494 155.591C275.585 156.439 276.911 156.864 278.471 156.864C280.047 156.864 281.38 156.432 282.471 155.568C283.562 154.689 284.388 153.477 284.948 151.932C285.524 150.371 285.812 148.576 285.812 146.545C285.812 144.53 285.532 142.758 284.971 141.227C284.411 139.697 283.585 138.5 282.494 137.636C281.403 136.773 280.062 136.341 278.471 136.341C276.895 136.341 275.562 136.758 274.471 137.591C273.395 138.424 272.57 139.606 271.994 141.136C271.418 142.667 271.13 144.47 271.13 146.545ZM318.062 164.682C314.471 164.682 311.38 163.955 308.789 162.5C306.214 161.03 304.229 158.955 302.835 156.273C301.441 153.576 300.744 150.386 300.744 146.705C300.744 143.114 301.441 139.962 302.835 137.25C304.229 134.538 306.191 132.424 308.721 130.909C311.267 129.394 314.251 128.636 317.676 128.636C319.979 128.636 322.123 129.008 324.107 129.75C326.107 130.477 327.85 131.576 329.335 133.045C330.835 134.515 332.001 136.364 332.835 138.591C333.668 140.803 334.085 143.394 334.085 146.364V149.023H304.607V143.023H324.971C324.971 141.629 324.668 140.394 324.062 139.318C323.456 138.242 322.615 137.402 321.539 136.795C320.479 136.174 319.244 135.864 317.835 135.864C316.365 135.864 315.062 136.205 313.926 136.886C312.804 137.553 311.926 138.455 311.289 139.591C310.653 140.712 310.327 141.962 310.312 143.341V149.045C310.312 150.773 310.63 152.265 311.267 153.523C311.918 154.78 312.835 155.75 314.017 156.432C315.198 157.114 316.6 157.455 318.221 157.455C319.297 157.455 320.282 157.303 321.176 157C322.07 156.697 322.835 156.242 323.471 155.636C324.107 155.03 324.592 154.288 324.926 153.409L333.88 154C333.426 156.152 332.494 158.03 331.085 159.636C329.691 161.227 327.888 162.47 325.676 163.364C323.479 164.242 320.941 164.682 318.062 164.682ZM361.039 153.295L370.494 129.091H377.857L364.244 164H357.812L344.517 129.091H351.857L361.039 153.295ZM349.653 129.091V164H340.403V129.091H349.653ZM372.903 164V129.091H382.039V164H372.903ZM409.982 164V136.682H403.437C401.664 136.682 400.316 137.091 399.392 137.909C398.467 138.727 398.013 139.697 398.028 140.818C398.013 141.955 398.452 142.917 399.346 143.705C400.255 144.477 401.589 144.864 403.346 144.864H413.21V151.409H403.346C400.361 151.409 397.778 150.955 395.596 150.045C393.414 149.136 391.732 147.871 390.551 146.25C389.369 144.614 388.786 142.712 388.801 140.545C388.786 138.273 389.369 136.28 390.551 134.568C391.732 132.841 393.422 131.5 395.619 130.545C397.831 129.576 400.437 129.091 403.437 129.091H419.005V164H409.982ZM387.801 164L397.505 145.818H406.755L397.073 164H387.801ZM441.34 177.091V129.091H450.886V134.955H451.318C451.742 134.015 452.356 133.061 453.159 132.091C453.977 131.106 455.037 130.288 456.34 129.636C457.659 128.97 459.295 128.636 461.25 128.636C463.795 128.636 466.143 129.303 468.295 130.636C470.447 131.955 472.166 133.947 473.454 136.614C474.742 139.265 475.386 142.591 475.386 146.591C475.386 150.485 474.757 153.773 473.5 156.455C472.257 159.121 470.56 161.144 468.409 162.523C466.272 163.886 463.878 164.568 461.227 164.568C459.348 164.568 457.75 164.258 456.431 163.636C455.128 163.015 454.06 162.235 453.227 161.295C452.393 160.341 451.757 159.379 451.318 158.409H451.022V177.091H441.34ZM450.818 146.545C450.818 148.621 451.106 150.432 451.681 151.977C452.257 153.523 453.09 154.727 454.181 155.591C455.272 156.439 456.598 156.864 458.159 156.864C459.734 156.864 461.068 156.432 462.159 155.568C463.25 154.689 464.075 153.477 464.636 151.932C465.212 150.371 465.5 148.576 465.5 146.545C465.5 144.53 465.219 142.758 464.659 141.227C464.098 139.697 463.272 138.5 462.181 137.636C461.09 136.773 459.75 136.341 458.159 136.341C456.583 136.341 455.25 136.758 454.159 137.591C453.083 138.424 452.257 139.606 451.681 141.136C451.106 142.667 450.818 144.47 450.818 146.545ZM491.795 164.659C489.568 164.659 487.583 164.273 485.84 163.5C484.098 162.712 482.719 161.553 481.704 160.023C480.704 158.477 480.204 156.553 480.204 154.25C480.204 152.311 480.56 150.682 481.272 149.364C481.984 148.045 482.954 146.985 484.181 146.182C485.409 145.379 486.803 144.773 488.363 144.364C489.939 143.955 491.59 143.667 493.318 143.5C495.348 143.288 496.984 143.091 498.227 142.909C499.469 142.712 500.371 142.424 500.931 142.045C501.492 141.667 501.772 141.106 501.772 140.364V140.227C501.772 138.788 501.318 137.674 500.409 136.886C499.515 136.098 498.242 135.705 496.59 135.705C494.848 135.705 493.462 136.091 492.431 136.864C491.401 137.621 490.719 138.576 490.386 139.727L481.431 139C481.886 136.879 482.78 135.045 484.113 133.5C485.447 131.939 487.166 130.742 489.272 129.909C491.393 129.061 493.848 128.636 496.636 128.636C498.575 128.636 500.431 128.864 502.204 129.318C503.992 129.773 505.575 130.477 506.954 131.432C508.348 132.386 509.447 133.614 510.25 135.114C511.053 136.598 511.454 138.379 511.454 140.455V164H502.272V159.159H502C501.439 160.25 500.689 161.212 499.75 162.045C498.81 162.864 497.681 163.508 496.363 163.977C495.045 164.432 493.522 164.659 491.795 164.659ZM494.568 157.977C495.992 157.977 497.25 157.697 498.34 157.136C499.431 156.561 500.287 155.788 500.909 154.818C501.53 153.848 501.84 152.75 501.84 151.523V147.818C501.537 148.015 501.121 148.197 500.59 148.364C500.075 148.515 499.492 148.659 498.84 148.795C498.189 148.917 497.537 149.03 496.886 149.136C496.234 149.227 495.643 149.311 495.113 149.386C493.977 149.553 492.984 149.818 492.136 150.182C491.287 150.545 490.628 151.038 490.159 151.659C489.689 152.265 489.454 153.023 489.454 153.932C489.454 155.25 489.931 156.258 490.886 156.955C491.856 157.636 493.083 157.977 494.568 157.977ZM547.988 116.273L550.943 122.591C549.958 123.409 548.867 124.015 547.67 124.409C546.473 124.788 545.041 125.038 543.375 125.159C541.723 125.28 539.708 125.364 537.329 125.409C534.632 125.439 532.435 125.871 530.738 126.705C529.041 127.538 527.753 128.848 526.875 130.636C525.996 132.409 525.42 134.727 525.147 137.591H525.488C526.534 135.455 528.003 133.803 529.897 132.636C531.806 131.47 534.162 130.886 536.965 130.886C539.935 130.886 542.534 131.538 544.761 132.841C547.003 134.144 548.746 136.015 549.988 138.455C551.231 140.894 551.852 143.818 551.852 147.227C551.852 150.773 551.155 153.856 549.761 156.477C548.382 159.083 546.42 161.106 543.875 162.545C541.329 163.97 538.299 164.682 534.784 164.682C531.253 164.682 528.208 163.939 525.647 162.455C523.102 160.97 521.132 158.78 519.738 155.886C518.359 152.992 517.67 149.432 517.67 145.205V142.341C517.67 133.932 519.306 127.697 522.579 123.636C525.852 119.576 530.662 117.515 537.011 117.455C538.738 117.424 540.299 117.417 541.693 117.432C543.087 117.447 544.306 117.379 545.352 117.227C546.412 117.076 547.291 116.758 547.988 116.273ZM534.829 157.182C536.314 157.182 537.587 156.795 538.647 156.023C539.723 155.25 540.549 154.144 541.125 152.705C541.715 151.265 542.011 149.545 542.011 147.545C542.011 145.561 541.715 143.879 541.125 142.5C540.549 141.106 539.723 140.045 538.647 139.318C537.572 138.591 536.284 138.227 534.784 138.227C533.662 138.227 532.655 138.432 531.761 138.841C530.867 139.25 530.102 139.856 529.465 140.659C528.844 141.447 528.359 142.424 528.011 143.591C527.678 144.742 527.511 146.061 527.511 147.545C527.511 150.53 528.155 152.886 529.443 154.614C530.746 156.326 532.541 157.182 534.829 157.182ZM574.051 164.682C570.52 164.682 567.467 163.932 564.892 162.432C562.331 160.917 560.354 158.811 558.96 156.114C557.566 153.402 556.869 150.258 556.869 146.682C556.869 143.076 557.566 139.924 558.96 137.227C560.354 134.515 562.331 132.409 564.892 130.909C567.467 129.394 570.52 128.636 574.051 128.636C577.581 128.636 580.626 129.394 583.187 130.909C585.763 132.409 587.748 134.515 589.142 137.227C590.536 139.924 591.232 143.076 591.232 146.682C591.232 150.258 590.536 153.402 589.142 156.114C587.748 158.811 585.763 160.917 583.187 162.432C580.626 163.932 577.581 164.682 574.051 164.682ZM574.096 157.182C575.702 157.182 577.043 156.727 578.119 155.818C579.195 154.894 580.005 153.636 580.551 152.045C581.111 150.455 581.392 148.644 581.392 146.614C581.392 144.583 581.111 142.773 580.551 141.182C580.005 139.591 579.195 138.333 578.119 137.409C577.043 136.485 575.702 136.023 574.096 136.023C572.475 136.023 571.111 136.485 570.005 137.409C568.914 138.333 568.089 139.591 567.528 141.182C566.982 142.773 566.71 144.583 566.71 146.614C566.71 148.644 566.982 150.455 567.528 152.045C568.089 153.636 568.914 154.894 570.005 155.818C571.111 156.727 572.475 157.182 574.096 157.182ZM594.147 136.705V129.091H625.784V136.705H614.534V164H605.306V136.705H594.147ZM637.721 139.818H648.153C652.774 139.818 656.38 140.924 658.971 143.136C661.562 145.333 662.857 148.273 662.857 151.955C662.857 154.348 662.274 156.455 661.107 158.273C659.941 160.076 658.259 161.485 656.062 162.5C653.865 163.5 651.229 164 648.153 164H631.653V129.091H640.903V156.386H648.153C649.774 156.386 651.107 155.977 652.153 155.159C653.198 154.341 653.729 153.295 653.744 152.023C653.729 150.674 653.198 149.576 652.153 148.727C651.107 147.864 649.774 147.432 648.153 147.432H637.721V139.818ZM666.607 164V129.091H676.289V164H666.607ZM689.687 164.591C688.187 164.591 686.899 164.061 685.823 163C684.763 161.924 684.232 160.636 684.232 159.136C684.232 157.652 684.763 156.379 685.823 155.318C686.899 154.258 688.187 153.727 689.687 153.727C691.142 153.727 692.414 154.258 693.505 155.318C694.596 156.379 695.142 157.652 695.142 159.136C695.142 160.136 694.884 161.053 694.369 161.886C693.869 162.705 693.21 163.364 692.392 163.864C691.573 164.348 690.672 164.591 689.687 164.591ZM689.687 140.136C688.187 140.136 686.899 139.606 685.823 138.545C684.763 137.485 684.232 136.197 684.232 134.682C684.232 133.197 684.763 131.932 685.823 130.886C686.899 129.826 688.187 129.295 689.687 129.295C691.142 129.295 692.414 129.826 693.505 130.886C694.596 131.932 695.142 133.197 695.142 134.682C695.142 135.697 694.884 136.621 694.369 137.455C693.869 138.273 693.21 138.924 692.392 139.409C691.573 139.894 690.672 140.136 689.687 140.136Z" fill="url(#paint20_linear_725_3363)"/>
<path d="M485.925 252.008C482.349 252.008 479.274 251.25 476.698 249.735C474.137 248.205 472.168 246.084 470.789 243.372C469.425 240.66 468.743 237.538 468.743 234.008C468.743 230.432 469.433 227.296 470.812 224.599C472.205 221.887 474.183 219.773 476.743 218.258C479.304 216.728 482.349 215.963 485.88 215.963C488.925 215.963 491.592 216.516 493.88 217.622C496.168 218.728 497.978 220.281 499.312 222.281C500.645 224.281 501.38 226.629 501.516 229.326H492.38C492.122 227.584 491.44 226.182 490.334 225.122C489.243 224.046 487.812 223.508 486.039 223.508C484.539 223.508 483.228 223.917 482.107 224.735C481.001 225.538 480.137 226.713 479.516 228.258C478.895 229.803 478.584 231.675 478.584 233.872C478.584 236.099 478.887 237.993 479.493 239.553C480.115 241.114 480.986 242.303 482.107 243.122C483.228 243.94 484.539 244.349 486.039 244.349C487.145 244.349 488.137 244.122 489.016 243.667C489.91 243.213 490.645 242.553 491.221 241.69C491.812 240.811 492.198 239.758 492.38 238.531H501.516C501.365 241.197 500.637 243.546 499.334 245.576C498.046 247.591 496.266 249.167 493.993 250.303C491.721 251.44 489.031 252.008 485.925 252.008ZM542.687 204.781V251.326H532.846V214.122H532.573L521.914 220.803V212.076L533.437 204.781H542.687ZM571.999 252.349C568.09 252.334 564.726 251.372 561.908 249.463C559.105 247.553 556.946 244.788 555.431 241.167C553.931 237.546 553.188 233.19 553.204 228.099C553.204 223.023 553.954 218.697 555.454 215.122C556.969 211.546 559.128 208.826 561.931 206.963C564.749 205.084 568.105 204.144 571.999 204.144C575.893 204.144 579.241 205.084 582.045 206.963C584.863 208.841 587.029 211.569 588.545 215.144C590.06 218.705 590.81 223.023 590.795 228.099C590.795 233.205 590.037 237.569 588.522 241.19C587.022 244.811 584.87 247.576 582.067 249.485C579.264 251.394 575.908 252.349 571.999 252.349ZM571.999 244.19C574.666 244.19 576.795 242.849 578.385 240.167C579.976 237.485 580.764 233.463 580.749 228.099C580.749 224.569 580.385 221.629 579.658 219.281C578.946 216.932 577.931 215.167 576.613 213.985C575.31 212.803 573.772 212.213 571.999 212.213C569.348 212.213 567.226 213.538 565.635 216.19C564.045 218.841 563.241 222.811 563.226 228.099C563.226 231.675 563.582 234.66 564.295 237.053C565.022 239.432 566.045 241.22 567.363 242.417C568.681 243.599 570.226 244.19 571.999 244.19ZM603.562 245.917C602.062 245.917 600.774 245.387 599.698 244.326C598.637 243.266 598.107 241.978 598.107 240.463C598.107 238.978 598.637 237.705 599.698 236.644C600.774 235.584 602.062 235.053 603.562 235.053C605.016 235.053 606.289 235.584 607.38 236.644C608.471 237.705 609.016 238.978 609.016 240.463C609.016 241.463 608.759 242.379 608.243 243.213C607.743 244.031 607.084 244.69 606.266 245.19C605.448 245.675 604.546 245.917 603.562 245.917ZM603.562 223.076C602.062 223.076 600.774 222.546 599.698 221.485C598.637 220.425 598.107 219.137 598.107 217.622C598.107 216.137 598.637 214.872 599.698 213.826C600.774 212.766 602.062 212.235 603.562 212.235C605.016 212.235 606.289 212.766 607.38 213.826C608.471 214.872 609.016 216.137 609.016 217.622C609.016 218.637 608.759 219.561 608.243 220.394C607.743 221.213 607.084 221.864 606.266 222.349C605.448 222.834 604.546 223.076 603.562 223.076ZM635.124 252.349C631.215 252.334 627.851 251.372 625.033 249.463C622.23 247.553 620.071 244.788 618.556 241.167C617.056 237.546 616.313 233.19 616.329 228.099C616.329 223.023 617.079 218.697 618.579 215.122C620.094 211.546 622.253 208.826 625.056 206.963C627.874 205.084 631.23 204.144 635.124 204.144C639.018 204.144 642.366 205.084 645.17 206.963C647.988 208.841 650.154 211.569 651.67 215.144C653.185 218.705 653.935 223.023 653.92 228.099C653.92 233.205 653.162 237.569 651.647 241.19C650.147 244.811 647.995 247.576 645.192 249.485C642.389 251.394 639.033 252.349 635.124 252.349ZM635.124 244.19C637.791 244.19 639.92 242.849 641.51 240.167C643.101 237.485 643.889 233.463 643.874 228.099C643.874 224.569 643.51 221.629 642.783 219.281C642.071 216.932 641.056 215.167 639.738 213.985C638.435 212.803 636.897 212.213 635.124 212.213C632.473 212.213 630.351 213.538 628.76 216.19C627.17 218.841 626.366 222.811 626.351 228.099C626.351 231.675 626.707 234.66 627.42 237.053C628.147 239.432 629.17 241.22 630.488 242.417C631.806 243.599 633.351 244.19 635.124 244.19ZM679.187 252.349C675.277 252.334 671.914 251.372 669.096 249.463C666.293 247.553 664.134 244.788 662.618 241.167C661.118 237.546 660.376 233.19 660.391 228.099C660.391 223.023 661.141 218.697 662.641 215.122C664.156 211.546 666.315 208.826 669.118 206.963C671.937 205.084 675.293 204.144 679.187 204.144C683.08 204.144 686.429 205.084 689.232 206.963C692.05 208.841 694.217 211.569 695.732 215.144C697.247 218.705 697.997 223.023 697.982 228.099C697.982 233.205 697.224 237.569 695.709 241.19C694.209 244.811 692.058 247.576 689.255 249.485C686.452 251.394 683.096 252.349 679.187 252.349ZM679.187 244.19C681.853 244.19 683.982 242.849 685.573 240.167C687.164 237.485 687.952 233.463 687.937 228.099C687.937 224.569 687.573 221.629 686.846 219.281C686.134 216.932 685.118 215.167 683.8 213.985C682.497 212.803 680.959 212.213 679.187 212.213C676.535 212.213 674.414 213.538 672.823 216.19C671.232 218.841 670.429 222.811 670.414 228.099C670.414 231.675 670.77 234.66 671.482 237.053C672.209 239.432 673.232 241.22 674.55 242.417C675.868 243.599 677.414 244.19 679.187 244.19Z" fill="url(#paint21_linear_725_3363)"/>
<path d="M531.173 322.61V304.701H533.855C534.628 304.216 535.249 303.443 535.719 302.383C536.204 301.322 536.597 300.072 536.901 298.633C537.219 297.193 537.461 295.64 537.628 293.974C537.81 292.292 537.969 290.595 538.105 288.883L539.014 277.474H565.787V304.701H571.196V322.61H561.969V312.383H540.628V322.61H531.173ZM543.491 304.701H556.651V284.928H547.241L546.878 288.883C546.62 292.61 546.249 295.777 545.764 298.383C545.279 300.974 544.522 303.08 543.491 304.701ZM592.611 313.065C589.08 313.065 586.027 312.315 583.452 310.815C580.891 309.299 578.914 307.193 577.52 304.496C576.126 301.784 575.429 298.64 575.429 295.065C575.429 291.459 576.126 288.307 577.52 285.61C578.914 282.898 580.891 280.792 583.452 279.292C586.027 277.777 589.08 277.019 592.611 277.019C596.141 277.019 599.186 277.777 601.747 279.292C604.323 280.792 606.308 282.898 607.702 285.61C609.096 288.307 609.793 291.459 609.793 295.065C609.793 298.64 609.096 301.784 607.702 304.496C606.308 307.193 604.323 309.299 601.747 310.815C599.186 312.315 596.141 313.065 592.611 313.065ZM592.656 305.565C594.262 305.565 595.603 305.11 596.679 304.201C597.755 303.277 598.565 302.019 599.111 300.428C599.671 298.837 599.952 297.027 599.952 294.996C599.952 292.966 599.671 291.156 599.111 289.565C598.565 287.974 597.755 286.716 596.679 285.792C595.603 284.868 594.262 284.406 592.656 284.406C591.035 284.406 589.671 284.868 588.565 285.792C587.474 286.716 586.649 287.974 586.088 289.565C585.543 291.156 585.27 292.966 585.27 294.996C585.27 297.027 585.543 298.837 586.088 300.428C586.649 302.019 587.474 303.277 588.565 304.201C589.671 305.11 591.035 305.565 592.656 305.565ZM651.06 265.837V312.383H641.219V275.178H640.946L630.287 281.86V273.133L641.81 265.837H651.06ZM678.963 265.201C681.357 265.201 683.66 265.603 685.872 266.406C688.099 267.209 690.084 268.489 691.827 270.246C693.584 272.004 694.971 274.337 695.986 277.246C697.016 280.14 697.539 283.693 697.554 287.906C697.554 291.86 697.107 295.39 696.213 298.496C695.334 301.587 694.069 304.216 692.418 306.383C690.766 308.549 688.774 310.201 686.44 311.337C684.107 312.459 681.501 313.019 678.622 313.019C675.516 313.019 672.774 312.421 670.395 311.224C668.016 310.012 666.099 308.368 664.645 306.292C663.205 304.201 662.334 301.853 662.031 299.246H671.736C672.115 300.943 672.91 302.262 674.122 303.201C675.334 304.125 676.834 304.587 678.622 304.587C681.652 304.587 683.955 303.269 685.531 300.633C687.107 297.981 687.902 294.353 687.918 289.746H687.599C686.902 291.11 685.963 292.284 684.781 293.269C683.599 294.239 682.243 294.989 680.713 295.519C679.198 296.049 677.584 296.315 675.872 296.315C673.13 296.315 670.683 295.671 668.531 294.383C666.38 293.095 664.683 291.322 663.44 289.065C662.198 286.807 661.577 284.231 661.577 281.337C661.561 278.216 662.281 275.436 663.736 272.996C665.19 270.557 667.221 268.648 669.827 267.269C672.448 265.875 675.493 265.186 678.963 265.201ZM679.031 272.928C677.501 272.928 676.137 273.292 674.94 274.019C673.758 274.746 672.819 275.724 672.122 276.951C671.44 278.178 671.107 279.549 671.122 281.065C671.122 282.595 671.455 283.974 672.122 285.201C672.804 286.413 673.728 287.383 674.895 288.11C676.077 288.822 677.425 289.178 678.94 289.178C680.077 289.178 681.13 288.966 682.099 288.542C683.069 288.118 683.91 287.534 684.622 286.792C685.349 286.034 685.918 285.163 686.327 284.178C686.736 283.193 686.94 282.148 686.94 281.042C686.925 279.572 686.577 278.224 685.895 276.996C685.213 275.769 684.274 274.784 683.077 274.042C681.88 273.299 680.531 272.928 679.031 272.928ZM710.122 306.974C708.622 306.974 707.334 306.443 706.258 305.383C705.198 304.322 704.668 303.034 704.668 301.519C704.668 300.034 705.198 298.762 706.258 297.701C707.334 296.64 708.622 296.11 710.122 296.11C711.577 296.11 712.849 296.64 713.94 297.701C715.031 298.762 715.577 300.034 715.577 301.519C715.577 302.519 715.319 303.436 714.804 304.269C714.304 305.087 713.645 305.746 712.827 306.246C712.008 306.731 711.107 306.974 710.122 306.974ZM710.122 284.133C708.622 284.133 707.334 283.603 706.258 282.542C705.198 281.481 704.668 280.193 704.668 278.678C704.668 277.193 705.198 275.928 706.258 274.883C707.334 273.822 708.622 273.292 710.122 273.292C711.577 273.292 712.849 273.822 713.94 274.883C715.031 275.928 715.577 277.193 715.577 278.678C715.577 279.693 715.319 280.618 714.804 281.451C714.304 282.269 713.645 282.921 712.827 283.406C712.008 283.89 711.107 284.133 710.122 284.133ZM741.685 313.406C737.776 313.39 734.412 312.428 731.594 310.519C728.791 308.61 726.632 305.845 725.116 302.224C723.616 298.603 722.874 294.246 722.889 289.156C722.889 284.08 723.639 279.754 725.139 276.178C726.654 272.603 728.813 269.883 731.616 268.019C734.435 266.14 737.791 265.201 741.685 265.201C745.579 265.201 748.927 266.14 751.73 268.019C754.548 269.898 756.715 272.625 758.23 276.201C759.745 279.762 760.495 284.08 760.48 289.156C760.48 294.262 759.722 298.625 758.207 302.246C756.707 305.868 754.556 308.633 751.753 310.542C748.95 312.451 745.594 313.406 741.685 313.406ZM741.685 305.246C744.351 305.246 746.48 303.906 748.071 301.224C749.662 298.542 750.45 294.519 750.435 289.156C750.435 285.625 750.071 282.686 749.344 280.337C748.632 277.989 747.616 276.224 746.298 275.042C744.995 273.86 743.457 273.269 741.685 273.269C739.033 273.269 736.912 274.595 735.321 277.246C733.73 279.898 732.927 283.868 732.912 289.156C732.912 292.731 733.268 295.716 733.98 298.11C734.707 300.489 735.73 302.277 737.048 303.474C738.366 304.656 739.912 305.246 741.685 305.246ZM785.747 313.406C781.838 313.39 778.474 312.428 775.656 310.519C772.853 308.61 770.694 305.845 769.179 302.224C767.679 298.603 766.936 294.246 766.952 289.156C766.952 284.08 767.702 279.754 769.202 276.178C770.717 272.603 772.876 269.883 775.679 268.019C778.497 266.14 781.853 265.201 785.747 265.201C789.641 265.201 792.99 266.14 795.793 268.019C798.611 269.898 800.777 272.625 802.293 276.201C803.808 279.762 804.558 284.08 804.543 289.156C804.543 294.262 803.785 298.625 802.27 302.246C800.77 305.868 798.618 308.633 795.815 310.542C793.012 312.451 789.656 313.406 785.747 313.406ZM785.747 305.246C788.414 305.246 790.543 303.906 792.133 301.224C793.724 298.542 794.512 294.519 794.497 289.156C794.497 285.625 794.133 282.686 793.406 280.337C792.694 277.989 791.679 276.224 790.361 275.042C789.058 273.86 787.52 273.269 785.747 273.269C783.096 273.269 780.974 274.595 779.383 277.246C777.793 279.898 776.99 283.868 776.974 289.156C776.974 292.731 777.33 295.716 778.043 298.11C778.77 300.489 779.793 302.277 781.111 303.474C782.429 304.656 783.974 305.246 785.747 305.246Z" fill="url(#paint22_linear_725_3363)"/>
<defs>
<linearGradient id="paint0_linear_725_3363" x1="840.125" y1="783.093" x2="279.039" y2="150.217" gradientUnits="userSpaceOnUse">
<stop stop-color="#FB944E"/>
<stop offset="1" stop-color="#FDF2E9"/>
</linearGradient>
<linearGradient id="paint1_linear_725_3363" x1="4910.21" y1="5294.43" x2="4699.87" y2="5077.88" gradientUnits="userSpaceOnUse">
<stop stop-color="#393939"/>
<stop offset="1" stop-color="#282828"/>
</linearGradient>
<linearGradient id="paint2_linear_725_3363" x1="282.818" y1="494.794" x2="317.976" y2="346.053" gradientUnits="userSpaceOnUse">
<stop stop-color="#FEBBBA"/>
<stop offset="1" stop-color="#FF928E"/>
</linearGradient>
<linearGradient id="paint3_linear_725_3363" x1="288.054" y1="327.352" x2="351.697" y2="310.73" gradientUnits="userSpaceOnUse">
<stop stop-color="#FEBBBA"/>
<stop offset="1" stop-color="#FF928E"/>
</linearGradient>
<linearGradient id="paint4_linear_725_3363" x1="228.242" y1="357.508" x2="348.448" y2="216.192" gradientUnits="userSpaceOnUse">
<stop stop-color="#262626"/>
<stop offset="1" stop-color="#525252"/>
</linearGradient>
<linearGradient id="paint5_linear_725_3363" x1="284.413" y1="313.411" x2="348.057" y2="296.789" gradientUnits="userSpaceOnUse">
<stop stop-color="#FEBBBA"/>
<stop offset="1" stop-color="#FF928E"/>
</linearGradient>
<linearGradient id="paint6_linear_725_3363" x1="4681.12" y1="5168.37" x2="4478.66" y2="4959.92" gradientUnits="userSpaceOnUse">
<stop stop-color="#434343"/>
<stop offset="1" stop-color="#232323"/>
</linearGradient>
<linearGradient id="paint7_linear_725_3363" x1="-80.4839" y1="217.171" x2="525.442" y2="843.614" gradientUnits="userSpaceOnUse">
<stop stop-color="#4E4E4E"/>
<stop offset="1" stop-color="#7A7A7A"/>
</linearGradient>
<linearGradient id="paint8_linear_725_3363" x1="205.736" y1="556.47" x2="271.887" y2="730.141" gradientUnits="userSpaceOnUse">
<stop stop-color="#FEBBBA"/>
<stop offset="1" stop-color="#FF928E"/>
</linearGradient>
<linearGradient id="paint9_linear_725_3363" x1="287.473" y1="525.335" x2="353.624" y2="699.006" gradientUnits="userSpaceOnUse">
<stop stop-color="#FEBBBA"/>
<stop offset="1" stop-color="#FF928E"/>
</linearGradient>
<linearGradient id="paint10_linear_725_3363" x1="430.45" y1="588.438" x2="396.254" y2="632.382" gradientUnits="userSpaceOnUse">
<stop stop-color="#656565"/>
<stop offset="1" stop-color="#393939"/>
</linearGradient>
<linearGradient id="paint11_linear_725_3363" x1="455.924" y1="608.26" x2="421.729" y2="652.204" gradientUnits="userSpaceOnUse">
<stop stop-color="#444444"/>
<stop offset="1" stop-color="#292929"/>
</linearGradient>
<linearGradient id="paint12_linear_725_3363" x1="485.911" y1="526.03" x2="763.162" y2="357.375" gradientUnits="userSpaceOnUse">
<stop stop-color="#484848"/>
<stop offset="1" stop-color="#0E0E0E"/>
</linearGradient>
<linearGradient id="paint13_linear_725_3363" x1="493.685" y1="648.202" x2="442.835" y2="538.287" gradientUnits="userSpaceOnUse">
<stop stop-color="#3B3B3B"/>
<stop offset="1" stop-color="#5B5B5B"/>
</linearGradient>
<linearGradient id="paint14_linear_725_3363" x1="460.991" y1="636.301" x2="418.587" y2="385.861" gradientUnits="userSpaceOnUse">
<stop stop-color="#363636"/>
<stop offset="1" stop-color="#505050"/>
</linearGradient>
<linearGradient id="paint15_linear_725_3363" x1="283.685" y1="365.644" x2="315.763" y2="321.209" gradientUnits="userSpaceOnUse">
<stop stop-color="#464646"/>
<stop offset="1" stop-color="#2A2A2A"/>
</linearGradient>
<linearGradient id="paint16_linear_725_3363" x1="337.701" y1="345.214" x2="325.313" y2="345.214" gradientUnits="userSpaceOnUse">
<stop stop-color="#424242"/>
<stop offset="1" stop-color="#232323"/>
</linearGradient>
<linearGradient id="paint17_linear_725_3363" x1="380.216" y1="208.939" x2="97.1146" y2="368.624" gradientUnits="userSpaceOnUse">
<stop stop-color="#484848"/>
<stop offset="1"/>
</linearGradient>
<linearGradient id="paint18_linear_725_3363" x1="224.884" y1="232.35" x2="247.759" y2="272.498" gradientUnits="userSpaceOnUse">
<stop stop-color="#292929"/>
<stop offset="1" stop-color="#292929"/>
</linearGradient>
<linearGradient id="paint19_linear_725_3363" x1="273.542" y1="317.292" x2="200.373" y2="254.845" gradientUnits="userSpaceOnUse">
<stop stop-color="#515151"/>
<stop offset="1" stop-color="#494949"/>
</linearGradient>
<linearGradient id="paint20_linear_725_3363" x1="215.477" y1="113.229" x2="730.426" y2="328.421" gradientUnits="userSpaceOnUse">
<stop stop-color="#282828"/>
<stop offset="1" stop-color="#484848"/>
</linearGradient>
<linearGradient id="paint21_linear_725_3363" x1="466.289" y1="200.555" x2="748.366" y2="257.789" gradientUnits="userSpaceOnUse">
<stop stop-color="#E25B00"/>
<stop offset="1" stop-color="#FF6700"/>
</linearGradient>
<linearGradient id="paint22_linear_725_3363" x1="530.037" y1="261.612" x2="858.539" y2="340.462" gradientUnits="userSpaceOnUse">
<stop stop-color="#E25B00"/>
<stop offset="1" stop-color="#FF6700"/>
</linearGradient>
</defs>
</svg>
