<svg width="22" height="9" viewBox="0 0 22 9" fill="none" xmlns="http://www.w3.org/2000/svg">
<path d="M0.5 4C0.223858 4 -2.41411e-08 4.22386 0 4.5C2.41411e-08 4.77614 0.223858 5 0.5 5L0.5 4ZM21.8536 4.85355C22.0488 4.65829 22.0488 4.34171 21.8536 4.14644L18.6716 0.964465C18.4763 0.769202 18.1597 0.769202 17.9645 0.964465C17.7692 1.15973 17.7692 1.47631 17.9645 1.67157L20.7929 4.5L17.9645 7.32843C17.7692 7.52369 17.7692 7.84027 17.9645 8.03553C18.1597 8.23079 18.4763 8.23079 18.6716 8.03553L21.8536 4.85355ZM0.5 5L21.5 5L21.5 4L0.5 4L0.5 5Z" fill="#222222"/>
</svg>
