<svg width="114" height="338" viewBox="0 0 114 338" fill="none" xmlns="http://www.w3.org/2000/svg">
<path d="M-216.033 0.397365C-219.37 -0.0885241 -222.603 2.01528 -223.451 5.3547C-225.309 12.6574 -226.876 20.15 -228.11 27.6219C-228.711 31.2577 -226.251 34.6918 -222.617 35.2922C-222.573 35.2985 -222.531 35.3048 -222.488 35.311C-218.901 35.8336 -215.541 33.3894 -214.948 29.7973C-213.776 22.6978 -212.286 15.5809 -210.523 8.64387C-209.614 5.0742 -211.772 1.44197 -215.344 0.534106C-215.573 0.474856 -215.804 0.430949 -216.033 0.397365ZM-223.984 57.9653C-224.242 57.9279 -224.506 57.9052 -224.773 57.8974C-228.456 57.7982 -231.523 60.7035 -231.622 64.386C-231.825 71.9509 -231.706 79.5991 -231.269 87.1171C-231.055 90.7954 -227.915 93.5934 -224.222 93.3914C-220.544 93.1766 -217.737 90.0202 -217.95 86.3449C-218.365 79.1984 -218.478 71.9331 -218.283 64.7433C-218.192 61.3289 -220.685 58.446 -223.984 57.9653ZM-219.061 115.852C-219.796 115.745 -220.562 115.76 -221.332 115.914C-224.944 116.638 -227.287 120.152 -226.564 123.764C-225.083 131.169 -223.26 138.602 -221.146 145.856C-220.113 149.393 -216.41 151.421 -212.875 150.395C-209.339 149.364 -207.306 145.66 -208.337 142.124C-210.345 135.235 -212.075 128.179 -213.483 121.146C-214.051 118.304 -216.348 116.247 -219.061 115.852ZM-201.314 171.196C-202.529 171.019 -203.806 171.176 -205.008 171.717C-208.367 173.229 -209.864 177.179 -208.352 180.538C-205.248 187.428 -201.81 194.267 -198.132 200.865C-196.337 204.078 -192.276 205.233 -189.057 203.443C-185.84 201.649 -184.686 197.586 -186.479 194.367C-189.972 188.102 -193.239 181.607 -196.186 175.058C-197.159 172.902 -199.134 171.514 -201.314 171.196ZM-171.672 221.192C-173.375 220.944 -175.172 221.352 -176.654 222.471C-179.595 224.691 -180.177 228.875 -177.956 231.813C-173.413 237.828 -168.548 243.735 -163.495 249.363C-161.037 252.107 -156.819 252.337 -154.076 249.874C-151.334 247.414 -151.106 243.197 -153.566 240.453C-158.369 235.103 -162.993 229.49 -167.311 223.773C-168.413 222.315 -169.996 221.436 -171.672 221.192ZM-131.711 263.383C-133.917 263.061 -136.234 263.851 -137.777 265.68C-140.153 268.497 -139.796 272.704 -136.981 275.081C-131.211 279.95 -125.16 284.634 -118.995 288.997C-115.986 291.126 -111.824 290.413 -109.695 287.405C-107.567 284.4 -108.28 280.236 -111.286 278.107C-117.144 273.96 -122.894 269.512 -128.376 264.885C-129.363 264.051 -130.521 263.556 -131.711 263.383ZM107.887 314.332C106.973 314.199 106.019 314.254 105.074 314.527C98.1904 316.521 91.126 318.241 84.0791 319.638C80.4657 320.354 78.1167 323.864 78.8333 327.476C79.5482 331.09 83.0586 333.44 86.6732 332.724C94.0945 331.253 101.535 329.443 108.785 327.344C112.324 326.319 114.361 322.619 113.336 319.081C112.586 316.485 110.396 314.697 107.887 314.332ZM-83.425 295.647C-86.1634 295.248 -88.9727 296.593 -90.3134 299.189C-92.0043 302.464 -90.7206 306.487 -87.4478 308.178C-80.7389 311.643 -73.7969 314.858 -66.8155 317.734C-63.4036 319.121 -59.5093 317.516 -58.1058 314.108C-56.7027 310.702 -58.3269 306.802 -61.7338 305.398C-68.3643 302.668 -74.9556 299.615 -81.3264 296.324C-82.0034 295.976 -82.7121 295.751 -83.425 295.647ZM50.6034 324.099C50.1675 324.036 49.7194 324.012 49.2627 324.038C42.1026 324.441 34.83 324.538 27.6476 324.331C23.9643 324.227 20.8931 327.126 20.7871 330.808C20.6828 334.49 23.5769 337.579 27.2635 337.668C34.8206 337.884 42.4735 337.782 50.0079 337.36C53.6866 337.154 56.5023 334.004 56.2951 330.327C56.1158 327.106 53.6772 324.547 50.6034 324.099ZM-29.1423 316.317C-32.4735 315.832 -35.7035 317.929 -36.5575 321.262C-37.4724 324.832 -35.321 328.465 -31.7523 329.383C-24.4453 331.256 -16.9591 332.838 -9.50154 334.083C-9.45571 334.092 -9.40795 334.099 -9.36138 334.106C-5.77993 334.627 -2.42312 332.191 -1.82331 328.605C-1.21602 324.97 -3.6684 321.532 -7.30324 320.926C-14.3866 319.741 -21.4968 318.237 -28.4395 316.457C-28.6735 316.399 -28.9089 316.351 -29.1423 316.317Z" fill="url(#paint0_linear_688_6361)"/>
<defs>
<linearGradient id="paint0_linear_688_6361" x1="741.593" y1="-5890.32" x2="685.747" y2="-5466.35" gradientUnits="userSpaceOnUse">
<stop stop-color="#FFB68E"/>
<stop offset="1" stop-color="#FD7825"/>
</linearGradient>
</defs>
</svg>
