<svg width="301" height="318" viewBox="0 0 301 318" fill="none" xmlns="http://www.w3.org/2000/svg">
<path d="M73.3976 3.71344C70.3606 3.2709 67.3038 2.87857 64.2293 2.53589C60.5679 2.12897 57.2685 4.7659 56.8606 8.4274C56.4523 12.0887 59.1058 15.4034 62.7506 15.7974C69.8465 16.5887 76.8939 17.6652 83.7767 19.0155C87.3965 19.7189 90.8973 17.3696 91.6068 13.7546C92.3163 10.1373 89.9597 6.63121 86.3446 5.92309C82.0874 5.08724 77.7309 4.34475 73.3976 3.71344ZM29.0425 1.03681C28.6737 0.983053 28.2942 0.959482 27.9084 0.969313C20.468 1.15202 12.9522 1.65307 5.571 2.4583C1.90933 2.85722 -0.736274 6.14994 -0.337433 9.81064C0.062379 13.4736 3.36105 16.1292 7.01771 15.7193C14.0279 14.955 21.1676 14.481 28.2385 14.3048C31.9207 14.2147 34.8328 11.1549 34.7418 7.47372C34.6602 4.17489 32.1998 1.49669 29.0425 1.03681ZM120.241 15.0523C117.129 14.5988 114.036 16.4049 112.978 19.4872C111.781 22.9732 113.637 26.7668 117.121 27.964C123.787 30.2513 130.445 32.8563 136.912 35.7103C140.286 37.1916 144.222 35.6688 145.708 32.2988C147.195 28.9266 145.667 24.9885 142.296 23.5019C135.485 20.4979 128.472 17.7547 121.453 15.3443C121.052 15.2073 120.645 15.1115 120.241 15.0523ZM-27.6384 8.7356C-28.4765 8.6135 -29.3511 8.65222 -30.2227 8.87007C-37.4344 10.6817 -44.656 12.824 -51.6852 15.2365C-55.1695 16.4325 -57.0237 20.2256 -55.8277 23.7098C-54.6317 27.1964 -50.8402 29.0524 -47.353 27.8538C-40.6784 25.5636 -33.8215 23.5287 -26.972 21.8088C-23.3988 20.9128 -21.23 17.2865 -22.1279 13.7144C-22.8066 11.0141 -25.0433 9.11332 -27.6384 8.7356ZM171.909 39.4836C169.356 39.1118 166.707 40.248 165.267 42.5843C163.333 45.7205 164.307 49.8304 167.443 51.7649C173.439 55.4607 179.361 59.4679 185.046 63.6714C188.008 65.8621 192.186 65.238 194.376 62.2732C196.566 59.3111 195.94 55.1358 192.979 52.9456C186.994 48.519 180.759 44.3013 174.446 40.4086C173.647 39.916 172.783 39.6111 171.909 39.4836ZM216.966 74.6618C214.925 74.3645 212.775 75.0151 211.225 76.6035C208.653 79.241 208.705 83.4646 211.343 86.0369C216.4 90.9708 221.309 96.1756 225.932 101.505C228.342 104.291 232.554 104.591 235.342 102.175C238.125 99.7601 238.424 95.5482 236.01 92.7636C231.145 87.1547 225.98 81.6783 220.657 76.4872C219.61 75.4652 218.312 74.8578 216.966 74.6618ZM253.282 118.826C251.73 118.6 250.094 118.917 248.676 119.842C245.592 121.855 244.724 125.989 246.738 129.074C250.605 134.996 254.263 141.143 257.612 147.35C259.361 150.591 263.404 151.804 266.65 150.051C269.892 148.301 271.102 144.256 269.352 141.012C265.827 134.482 261.977 128.01 257.909 121.78C256.82 120.113 255.11 119.092 253.282 118.826ZM279.101 169.855C278.025 169.698 276.897 169.803 275.807 170.21C272.357 171.501 270.607 175.343 271.898 178.794C274.375 185.414 276.596 192.212 278.5 199.004C279.495 202.551 283.182 204.621 286.723 203.628C290.271 202.633 292.34 198.95 291.345 195.403C289.339 188.249 287 181.088 284.393 174.12C283.509 171.759 281.43 170.194 279.101 169.855ZM293.092 225.329C292.487 225.241 291.86 225.236 291.225 225.323C287.575 225.821 285.019 229.185 285.519 232.834C286.472 239.819 287.14 246.936 287.503 253.994C287.692 257.673 290.84 260.499 294.508 260.312C298.187 260.124 301.016 256.986 300.827 253.306C300.445 245.878 299.742 238.384 298.737 231.031C298.325 228.016 295.959 225.747 293.092 225.329ZM294.553 282.483C294.418 282.463 294.28 282.448 294.143 282.436C290.472 282.128 287.246 284.855 286.939 288.525C286.504 293.707 285.904 298.936 285.156 304.073C284.885 305.932 284.592 307.786 284.284 309.629C283.674 313.263 286.125 316.704 289.758 317.312C293.425 318.001 296.831 315.471 297.441 311.84C297.767 309.899 298.073 307.953 298.358 305.996C299.145 300.594 299.776 295.09 300.232 289.64C300.53 286.108 298.015 282.987 294.553 282.483Z" fill="url(#paint0_linear_688_6365)"/>
<defs>
<linearGradient id="paint0_linear_688_6365" x1="890.11" y1="-5674.76" x2="834.264" y2="-5250.78" gradientUnits="userSpaceOnUse">
<stop stop-color="#FFB68E"/>
<stop offset="1" stop-color="#F07532"/>
</linearGradient>
</defs>
</svg>
