<svg width="566" height="489" viewBox="0 0 566 489" fill="none" xmlns="http://www.w3.org/2000/svg">
<path d="M29.0097 277.063C27.2251 281.711 25.513 286.409 23.8731 291.153C21.922 296.802 24.9176 302.965 30.567 304.918C36.2159 306.871 42.4091 303.855 44.334 298.227C48.1194 287.279 52.3389 276.51 56.933 266.098C59.3385 260.62 56.87 254.241 51.402 251.828C45.9302 249.414 39.5399 251.892 37.1287 257.36C34.2861 263.8 31.5558 270.43 29.0097 277.063ZM8.93952 346.307C8.72281 346.871 8.55004 347.463 8.42785 348.078C6.06096 359.919 4.17096 371.992 2.81042 383.962C2.13463 389.9 6.40151 395.262 12.3376 395.938C18.2776 396.613 23.6581 392.34 24.3147 386.406C25.6076 375.038 27.406 363.57 29.6514 352.316C30.8233 346.456 27.0203 340.755 21.1616 339.584C15.9115 338.536 10.7945 341.474 8.93952 346.307ZM63.6776 206.973C61.8489 211.736 63.6034 217.276 68.1037 220.051C73.1938 223.189 79.8604 221.606 82.9991 216.519C88.9987 206.786 95.4982 197.178 102.324 187.961C105.873 183.151 104.868 176.378 100.065 172.823C95.258 169.266 88.4799 170.279 84.9237 175.083C77.7381 184.79 70.8929 194.91 64.5724 205.159C64.2123 205.745 63.9156 206.354 63.6776 206.973ZM0.890212 438.763C0.39781 440.045 0.146869 441.443 0.180485 442.901C0.473351 454.961 1.28587 467.155 2.59477 479.142C3.2439 485.083 8.58514 489.372 14.5265 488.723C20.4717 488.074 24.7625 482.736 24.1103 476.789C22.8684 465.408 22.0957 453.829 21.8188 442.375C21.6763 436.4 16.7113 431.673 10.7372 431.819C6.22115 431.929 2.41443 434.79 0.890212 438.763ZM120.789 133.92C119.289 137.828 120.142 142.426 123.325 145.54C127.598 149.72 134.451 149.645 138.632 145.372C146.622 137.202 155.078 129.26 163.76 121.763C168.285 117.857 168.788 111.023 164.878 106.497C160.971 101.975 154.14 101.474 149.616 105.38C140.474 113.271 131.573 121.633 123.159 130.235C122.094 131.324 121.303 132.583 120.789 133.92ZM192.549 75.1675C191.35 78.2913 191.612 81.9263 193.573 84.9471C196.829 89.9597 203.532 91.3846 208.545 88.1285C218.159 81.8857 228.149 75.9748 238.233 70.5599C243.504 67.7403 245.482 61.1816 242.653 55.9067C239.825 50.6398 233.265 48.6632 227.997 51.4885C217.383 57.1864 206.872 63.4064 196.756 69.9772C194.764 71.27 193.34 73.1075 192.549 75.1675ZM275.41 33.4566C274.499 35.8328 274.416 38.5356 275.375 41.1091C277.46 46.7097 283.693 49.5592 289.294 47.4727C300.047 43.4668 311.081 39.8707 322.1 36.7865C327.854 35.1752 331.217 29.2097 329.602 23.4458C327.989 17.6909 322.019 14.3316 316.261 15.9432C304.668 19.1911 293.05 22.9736 281.737 27.1882C278.71 28.3171 276.484 30.6584 275.41 33.4566ZM365.39 10.8112C364.758 12.457 364.521 14.2793 364.776 16.1501C365.587 22.0718 371.044 26.2127 376.966 25.4018C388.327 23.8448 399.88 22.7563 411.309 22.1667C417.278 21.858 421.87 16.7627 421.562 10.8032C421.255 4.83243 416.165 0.243163 410.196 0.55192C398.157 1.17241 385.988 2.31852 374.03 3.95755C369.976 4.51367 366.759 7.24514 365.39 10.8112ZM458.182 8.46999C457.826 9.39574 457.595 10.3865 457.506 11.4236C456.991 17.3775 461.403 22.623 467.356 23.1354C478.752 24.1202 490.255 25.603 501.553 27.5485C507.445 28.5622 513.041 24.5901 514.054 18.718C515.069 12.8276 511.114 7.22941 505.222 6.21515C493.329 4.16784 481.218 2.60537 469.221 1.57122C464.303 1.14758 459.867 4.08148 458.182 8.46999ZM549.159 26.5603C549.08 26.7676 549.007 26.9798 548.939 27.1933C547.141 32.8923 550.305 38.9721 556.004 40.7689C564.051 43.3066 572.112 46.1231 579.975 49.1408C582.821 50.2329 585.65 51.3577 588.456 52.5044C593.991 54.767 600.311 52.1158 602.57 46.5827C604.97 41.0255 602.183 34.7317 596.653 32.4697C593.698 31.261 590.727 30.0824 587.731 28.9322C579.463 25.7584 570.977 22.7954 562.515 20.1271C557.03 18.3958 551.193 21.2615 549.159 26.5603Z" fill="url(#paint0_linear_688_6373)"/>
<defs>
<linearGradient id="paint0_linear_688_6373" x1="-8666.61" y1="-3042.63" x2="-8015.53" y2="-2802.89" gradientUnits="userSpaceOnUse">
<stop stop-color="#FFB68E"/>
<stop offset="1" stop-color="#F07532"/>
</linearGradient>
</defs>
</svg>
