<svg width="791" height="878" viewBox="0 0 791 878" fill="none" xmlns="http://www.w3.org/2000/svg">
<g opacity="0.3">
<path d="M750.059 232.992C748.188 237.868 750.077 243.518 754.74 246.222C759.567 249.019 764.418 251.965 769.153 254.978C774.197 258.187 780.887 256.7 784.095 251.657C787.316 246.592 785.814 239.923 780.772 236.715C775.786 233.545 770.678 230.441 765.596 227.494C760.424 224.498 753.803 226.26 750.804 231.43C750.51 231.938 750.263 232.461 750.059 232.992Z" fill="url(#paint0_linear_726_4131)"/>
<path d="M145.01 446.063C143.226 450.711 141.513 455.409 139.874 460.153C137.923 465.802 140.918 471.965 146.567 473.918C152.216 475.871 158.41 472.855 160.334 467.227C164.12 456.279 168.339 445.51 172.934 435.098C175.339 429.62 172.871 423.241 167.402 420.828C161.931 418.414 155.54 420.892 153.129 426.36C150.287 432.8 147.556 439.43 145.01 446.063ZM124.94 515.307C124.723 515.871 124.551 516.463 124.428 517.078C122.061 528.919 120.171 540.992 118.811 552.962C118.135 558.9 122.402 564.262 128.338 564.938C134.278 565.613 139.659 561.34 140.315 555.406C141.608 544.038 143.407 532.57 145.652 521.316C146.824 515.456 143.021 509.755 137.162 508.584C131.912 507.536 126.795 510.474 124.94 515.307ZM179.678 375.973C177.849 380.736 179.604 386.276 184.104 389.051C189.194 392.189 195.861 390.606 199 385.519C204.999 375.786 211.499 366.178 218.324 356.961C221.873 352.151 220.868 345.378 216.065 341.823C211.259 338.266 204.48 339.279 200.924 344.083C193.739 353.79 186.893 363.91 180.573 374.159C180.213 374.745 179.916 375.354 179.678 375.973ZM116.891 607.763C116.398 609.045 116.147 610.443 116.181 611.901C116.474 623.961 117.286 636.155 118.595 648.142C119.244 654.083 124.586 658.372 130.527 657.723C136.472 657.074 140.763 651.736 140.111 645.789C138.869 634.408 138.096 622.829 137.819 611.375C137.677 605.4 132.712 600.673 126.738 600.819C122.222 600.929 118.415 603.79 116.891 607.763ZM236.789 302.92C235.29 306.828 236.142 311.426 239.326 314.54C243.599 318.72 250.451 318.645 254.633 314.372C262.622 306.202 271.078 298.26 279.76 290.763C284.285 286.857 284.789 280.023 280.878 275.497C276.972 270.975 270.14 270.474 265.617 274.38C256.475 282.271 247.574 290.633 239.159 299.235C238.094 300.324 237.303 301.583 236.789 302.92ZM308.55 244.168C307.351 247.291 307.613 250.926 309.573 253.947C312.829 258.96 319.533 260.385 324.545 257.128C334.159 250.886 344.149 244.975 354.234 239.56C359.504 236.74 361.483 230.182 358.653 224.907C355.825 219.64 349.266 217.663 343.997 220.488C333.384 226.186 322.872 232.406 312.756 238.977C310.765 240.27 309.34 242.108 308.55 244.168ZM391.411 202.457C390.499 204.833 390.417 207.536 391.376 210.109C393.46 215.71 399.693 218.559 405.295 216.473C416.047 212.467 427.081 208.871 438.101 205.787C443.854 204.175 447.218 198.21 445.603 192.446C443.99 186.691 438.02 183.332 432.262 184.943C420.668 188.191 409.05 191.974 397.738 196.188C394.71 197.317 392.485 199.658 391.411 202.457ZM481.391 179.811C480.759 181.457 480.521 183.279 480.777 185.15C481.588 191.072 487.044 195.213 492.966 194.402C504.327 192.845 515.881 191.756 527.31 191.167C533.279 190.858 537.87 185.763 537.563 179.803C537.255 173.832 532.165 169.243 526.196 169.552C514.157 170.172 501.989 171.319 490.03 172.958C485.977 173.514 482.759 176.245 481.391 179.811ZM574.182 177.47C573.827 178.396 573.596 179.386 573.506 180.424C572.992 186.377 577.404 191.623 583.356 192.135C594.752 193.12 606.255 194.603 617.554 196.549C623.445 197.562 629.041 193.59 630.054 187.718C631.07 181.828 627.114 176.229 621.223 175.215C609.33 173.168 597.219 171.605 585.221 170.571C580.303 170.148 575.867 173.081 574.182 177.47ZM665.16 195.56C665.08 195.768 665.008 195.98 664.94 196.193C663.141 201.892 666.305 207.972 672.005 209.769C680.051 212.307 688.113 215.123 695.976 218.141C698.821 219.233 701.65 220.358 704.457 221.504C709.991 223.767 716.312 221.116 718.571 215.583C720.971 210.025 718.183 203.732 712.653 201.47C709.698 200.261 706.728 199.082 703.732 197.932C695.463 194.758 686.978 191.795 678.515 189.127C673.03 187.396 667.193 190.261 665.16 195.56Z" fill="url(#paint1_linear_726_4131)"/>
<path d="M129.465 699.974C128.694 701.984 128.512 704.239 129.073 706.481C130.502 712.164 132.076 717.924 133.755 723.601C135.449 729.334 141.469 732.608 147.201 730.913C152.933 729.217 156.21 723.204 154.512 717.467C152.918 712.074 151.423 706.602 150.066 701.207C148.613 695.412 142.733 691.892 136.935 693.347C133.381 694.242 130.685 696.797 129.465 699.974Z" fill="url(#paint2_linear_726_4131)"/>
</g>
<defs>
<linearGradient id="paint0_linear_726_4131" x1="-8448.34" y1="-3152.06" x2="-7797.24" y2="-2912.31" gradientUnits="userSpaceOnUse">
<stop stop-color="#FFB28E"/>
<stop offset="1" stop-color="#E7510B"/>
</linearGradient>
<linearGradient id="paint1_linear_726_4131" x1="-8550.61" y1="-2873.63" x2="-7899.53" y2="-2633.89" gradientUnits="userSpaceOnUse">
<stop stop-color="#FFB68E"/>
<stop offset="1" stop-color="#F07532"/>
</linearGradient>
<linearGradient id="paint2_linear_726_4131" x1="-8675.76" y1="-2534.58" x2="-8024.66" y2="-2294.83" gradientUnits="userSpaceOnUse">
<stop stop-color="#FFB98E"/>
<stop offset="1" stop-color="#FE9E62"/>
</linearGradient>
</defs>
</svg>
