<svg width="781" height="445" viewBox="0 0 781 445" fill="none" xmlns="http://www.w3.org/2000/svg">
<g opacity="0.3">
<path d="M23.3174 38.9367C28.4193 37.8158 32.0973 33.13 31.7889 27.7484C31.4678 22.1784 31.2586 16.507 31.1691 10.8953C31.0724 4.91738 26.1495 0.150658 20.1737 0.246725C14.1723 0.344338 9.42985 5.26853 9.52595 11.2428C9.62285 17.151 9.84153 23.124 10.178 28.9891C10.5214 34.9563 15.6363 39.5157 21.6041 39.1744C22.1896 39.1408 22.7627 39.0586 23.3174 38.9367Z" fill="url(#paint0_linear_726_4271)"/>
<path d="M534.174 426.892C539.037 425.824 543.902 424.669 548.765 423.428C554.556 421.948 558.054 416.055 556.576 410.263C555.098 404.472 549.172 400.961 543.413 402.45C532.189 405.314 520.875 407.717 509.653 409.61C503.756 410.616 499.788 416.187 500.781 422.081C501.777 427.978 507.362 431.951 513.255 430.955C520.196 429.785 527.235 428.416 534.174 426.892ZM603.036 405.547C603.626 405.417 604.216 405.235 604.796 404.999C615.985 400.46 627.107 395.394 637.85 389.943C643.179 387.24 645.309 380.727 642.607 375.398C639.901 370.067 633.373 367.926 628.057 370.643C617.854 375.819 607.288 380.628 596.656 384.946C591.118 387.192 588.45 393.505 590.697 399.041C592.711 404.001 597.98 406.657 603.036 405.547ZM456.573 436.514C461.557 435.42 465.217 430.907 465.058 425.622C464.877 419.645 459.887 414.949 453.912 415.128C442.483 415.474 430.885 415.334 419.433 414.707C413.464 414.391 408.361 418.957 408.036 424.924C407.711 430.894 412.286 435.997 418.255 436.322C430.314 436.981 442.531 437.127 454.566 436.765C455.254 436.743 455.925 436.656 456.573 436.514ZM684.664 361.391C686.006 361.096 687.311 360.536 688.51 359.706C698.419 352.825 708.153 345.437 717.441 337.748C722.045 333.936 722.687 327.117 718.876 322.513C715.063 317.906 708.244 317.26 703.638 321.077C694.818 328.377 685.575 335.394 676.163 341.928C671.253 345.335 670.038 352.082 673.447 356.99C676.024 360.7 680.508 362.304 684.664 361.391ZM364.149 429.027C368.236 428.129 371.606 424.887 372.455 420.515C373.594 414.646 369.76 408.966 363.892 407.826C352.673 405.651 341.389 402.961 330.352 399.836C324.6 398.208 318.617 401.548 316.989 407.304C315.363 413.054 318.704 419.034 324.455 420.662C336.074 423.953 347.954 426.783 359.768 429.076C361.263 429.366 362.749 429.333 364.149 429.027ZM275.603 401.439C278.871 400.721 281.762 398.502 283.206 395.203C285.599 389.725 283.1 383.344 277.623 380.951C267.12 376.358 256.687 371.27 246.617 365.829C241.362 362.98 234.797 364.937 231.95 370.202C229.108 375.462 231.067 382.026 236.325 384.871C246.924 390.598 257.901 395.952 268.954 400.782C271.13 401.734 273.448 401.912 275.603 401.439ZM195.178 355.204C197.664 354.658 199.966 353.239 201.587 351.022C205.117 346.2 204.066 339.427 199.242 335.899C189.98 329.125 180.905 321.89 172.266 314.386C167.755 310.469 160.923 310.943 156.999 315.463C153.081 319.977 153.561 326.81 158.076 330.732C167.167 338.625 176.719 346.244 186.463 353.371C189.071 355.277 192.251 355.847 195.178 355.204ZM126.756 292.534C128.478 292.156 130.13 291.351 131.551 290.109C136.05 286.173 136.505 279.338 132.569 274.84C125.017 266.21 117.751 257.162 110.969 247.944C107.427 243.129 100.646 242.1 95.8388 245.636C91.0225 249.178 89.9915 255.954 93.5339 260.768C100.677 270.478 108.33 280.008 116.279 289.092C118.974 292.17 123.025 293.354 126.756 292.534ZM73.7396 216.343C74.7081 216.13 75.6626 215.778 76.5777 215.282C81.8324 212.436 83.7845 205.865 80.9365 200.613C75.488 190.556 70.3961 180.135 65.8032 169.63C63.4076 164.153 57.0117 161.666 51.5511 164.052C46.074 166.445 43.5763 172.829 45.9713 178.306C50.8064 189.363 56.1663 200.335 61.9046 210.922C64.2572 215.262 69.1481 217.351 73.7396 216.343ZM38.7815 130.424C38.9984 130.376 39.2155 130.32 39.4312 130.26C45.1794 128.625 48.5147 122.637 46.8788 116.89C44.5699 108.775 42.4856 100.494 40.6784 92.2677C40.0245 89.2908 39.4069 86.3098 38.8199 83.3352C37.6637 77.4691 31.972 73.6505 26.1087 74.8088C20.148 75.8631 16.4268 81.654 17.5809 87.5158C18.1979 90.6485 18.8484 93.7775 19.5366 96.9118C21.4365 105.562 23.6319 114.278 26.0608 122.813C27.6333 128.345 33.238 131.642 38.7815 130.424Z" fill="url(#paint1_linear_726_4271)"/>
<path d="M754.74 300.149C756.842 299.687 758.824 298.598 760.388 296.895C764.348 292.576 768.29 288.092 772.107 283.566C775.962 278.996 775.383 272.168 770.813 268.315C766.243 264.463 759.419 265.035 755.563 269.609C751.936 273.908 748.19 278.167 744.433 282.269C740.394 286.671 740.69 293.518 745.096 297.559C747.798 300.033 751.416 300.879 754.74 300.149Z" fill="url(#paint2_linear_726_4271)"/>
</g>
<defs>
<linearGradient id="paint0_linear_726_4271" x1="2258.57" y1="9582.14" x2="2100.46" y2="8906.56" gradientUnits="userSpaceOnUse">
<stop stop-color="#FFB28E"/>
<stop offset="1" stop-color="#E7510B"/>
</linearGradient>
<linearGradient id="paint1_linear_726_4271" x1="2547.32" y1="9514.33" x2="2389.22" y2="8838.76" gradientUnits="userSpaceOnUse">
<stop stop-color="#FFB68E"/>
<stop offset="1" stop-color="#F07532"/>
</linearGradient>
<linearGradient id="paint2_linear_726_4271" x1="2899.3" y1="9432.25" x2="2741.19" y2="8756.66" gradientUnits="userSpaceOnUse">
<stop stop-color="#FFB98E"/>
<stop offset="1" stop-color="#FE9E62"/>
</linearGradient>
</defs>
</svg>
