<svg width="772" height="690" viewBox="0 0 772 690" fill="none" xmlns="http://www.w3.org/2000/svg">
<g opacity="0.3">
<path d="M569.63 654.612C565.328 653.018 560.386 654.734 558.059 658.857C555.652 663.124 553.114 667.414 550.516 671.603C547.75 676.066 549.124 681.925 553.585 684.691C558.066 687.468 563.907 686.081 566.673 681.621C569.406 677.21 572.08 672.693 574.616 668.2C577.195 663.628 575.58 657.83 571.009 655.249C570.56 654.996 570.098 654.785 569.63 654.612Z" fill="url(#paint0_linear_726_4276)"/>
<path d="M376.357 125.433C372.257 123.913 368.114 122.457 363.931 121.065C358.95 119.41 353.568 122.103 351.911 127.084C350.253 132.065 352.965 137.473 357.927 139.106C367.58 142.319 377.08 145.915 386.27 149.843C391.105 151.9 396.682 149.667 398.746 144.841C400.81 140.011 398.569 134.424 393.742 132.362C388.058 129.932 382.208 127.601 376.357 125.433ZM315.343 108.512C314.846 108.328 314.324 108.182 313.783 108.081C303.361 106.123 292.738 104.586 282.213 103.513C276.992 102.98 272.326 106.782 271.793 112.002C271.261 117.225 275.068 121.906 280.285 122.423C290.281 123.442 300.372 124.905 310.277 126.762C315.435 127.732 320.403 124.334 321.371 119.177C322.239 114.556 319.606 110.092 315.343 108.512ZM438.262 155.164C434.06 153.607 429.213 155.204 426.822 159.184C424.118 163.687 425.576 169.525 430.075 172.229C438.684 177.399 447.187 183.009 455.351 188.91C459.611 191.977 465.549 191.026 468.622 186.771C471.696 182.514 470.739 176.572 466.483 173.498C457.886 167.286 448.928 161.378 439.864 155.932C439.345 155.622 438.808 155.367 438.262 155.164ZM234.068 102.384C232.937 101.965 231.706 101.759 230.427 101.803C219.839 102.183 209.138 103.021 198.625 104.292C193.414 104.923 189.702 109.657 190.333 114.868C190.963 120.083 195.694 123.796 200.91 123.163C210.892 121.957 221.053 121.16 231.109 120.8C236.355 120.614 240.456 116.206 240.267 110.961C240.124 106.996 237.572 103.683 234.068 102.384ZM502.997 204.575C499.55 203.298 495.521 204.094 492.818 206.921C489.191 210.716 489.327 216.733 493.121 220.361C500.378 227.295 507.438 234.64 514.11 242.188C517.586 246.122 523.593 246.495 527.528 243.015C531.46 239.538 531.83 233.534 528.354 229.601C521.331 221.652 513.897 213.921 506.257 206.619C505.29 205.695 504.176 205.013 502.997 204.575ZM555.323 266.996C552.567 265.975 549.378 266.242 546.745 267.995C542.376 270.905 541.193 276.806 544.104 281.175C549.684 289.555 554.976 298.267 559.834 307.068C562.364 311.668 568.144 313.339 572.747 310.801C577.344 308.263 579.013 302.483 576.478 297.885C571.366 288.622 565.797 279.454 559.924 270.638C558.768 268.902 557.14 267.67 555.323 266.996ZM592.796 339.339C590.7 338.563 588.326 338.518 586.076 339.386C581.178 341.274 578.739 346.777 580.629 351.674C584.256 361.076 587.526 370.73 590.347 380.376C591.821 385.412 597.094 388.305 602.139 386.828C607.177 385.353 610.066 380.076 608.592 375.036C605.622 364.887 602.182 354.723 598.365 344.831C597.343 342.185 595.264 340.254 592.796 339.339ZM613.599 418.128C612.147 417.589 610.544 417.4 608.904 417.643C603.712 418.415 600.131 423.25 600.903 428.442C602.386 438.403 603.46 448.538 604.094 458.569C604.426 463.808 608.947 467.788 614.178 467.457C619.418 467.126 623.396 462.61 623.064 457.371C622.397 446.805 621.267 436.13 619.706 425.645C619.176 422.091 616.744 419.293 613.599 418.128ZM616.599 499.592C615.783 499.29 614.91 499.097 613.999 499.029C608.765 498.637 604.203 502.565 603.814 507.798C603.065 517.816 601.88 527.933 600.286 537.875C599.456 543.059 603.001 547.933 608.168 548.763C613.351 549.594 618.227 546.064 619.058 540.88C620.735 530.414 621.984 519.763 622.77 509.216C623.092 504.893 620.47 501.027 616.599 499.592ZM601.639 579.671C601.456 579.604 601.269 579.542 601.08 579.485C596.057 577.963 590.75 580.804 589.23 585.827C587.084 592.919 584.692 600.027 582.122 606.963C581.192 609.473 580.233 611.969 579.255 614.446C577.324 619.329 579.717 624.852 584.599 626.78C589.503 628.831 595.002 626.319 596.932 621.44C597.964 618.832 598.968 616.212 599.948 613.569C602.651 606.275 605.167 598.793 607.424 591.334C608.889 586.5 606.312 581.403 601.639 579.671Z" fill="url(#paint1_linear_726_4276)"/>
<path d="M153.217 114.367C151.445 113.71 149.463 113.573 147.499 114.089C142.523 115.401 137.481 116.842 132.512 118.374C127.495 119.92 124.681 125.241 126.228 130.257C127.776 135.273 133.09 138.09 138.11 136.541C142.831 135.086 147.62 133.718 152.345 132.471C157.419 131.136 160.45 125.936 159.113 120.859C158.291 117.748 156.02 115.405 153.217 114.367Z" fill="url(#paint2_linear_726_4276)"/>
</g>
<defs>
<linearGradient id="paint0_linear_726_4276" x1="3448.72" y1="-7457.74" x2="3244.8" y2="-6883.52" gradientUnits="userSpaceOnUse">
<stop stop-color="#FFB28E"/>
<stop offset="1" stop-color="#E7510B"/>
</linearGradient>
<linearGradient id="paint1_linear_726_4276" x1="3203.17" y1="-7544.73" x2="2999.26" y2="-6970.51" gradientUnits="userSpaceOnUse">
<stop stop-color="#FFB68E"/>
<stop offset="1" stop-color="#F07532"/>
</linearGradient>
<linearGradient id="paint2_linear_726_4276" x1="2904.14" y1="-7651.18" x2="2700.23" y2="-7076.95" gradientUnits="userSpaceOnUse">
<stop stop-color="#FFB98E"/>
<stop offset="1" stop-color="#FE9E62"/>
</linearGradient>
</defs>
</svg>
