<?xml version="1.0" encoding="utf-8"?>
<!-- Generator: Adobe Illustrator 21.1.0, SVG Export Plug-In . SVG Version: 6.00 Build 0)  -->
<svg version="1.1" id="Слой_1" xmlns="http://www.w3.org/2000/svg" xmlns:xlink="http://www.w3.org/1999/xlink" x="0px" y="0px"
	 viewBox="0 0 1206 942" style="enable-background:new 0 0 1206 942;" xml:space="preserve">
<style type="text/css">
	.st0{clip-path:url(#SVGID_2_);}
	.st1{fill:#FF6700;}
	.st2{fill:#333333;}
</style>
<g>
	<defs>
		<rect id="SVGID_1_" y="2" width="1206" height="941.2"/>
	</defs>
	<clipPath id="SVGID_2_">
		<use xlink:href="#SVGID_1_"  style="overflow:visible;"/>
	</clipPath>
	<g class="st0">
		<path class="st1" d="M412.8,124.8c33.8,0,62.6-12.4,86.5-36.3c23.9-23.9,36.3-52.7,36.3-86.5h-412C89.8,2,60.1,13.6,36.3,37.5
			C12.4,61.3,0,91,0,124.8H412.8z"/>
		<path class="st1" d="M793.2,124.8c-33.8,0-62.6-12.4-86.5-36.3C682.8,64.7,670.5,35.8,670.5,2h411.9c33.8,0,63.4,11.5,87.3,35.4
			c23.9,23.9,36.3,53.6,36.3,87.4H793.2z"/>
		<path class="st1" d="M535.5,716.1V442.4c0-46.2-16.5-85.7-49.4-118.7c-32.1-33-71.7-49.5-118.6-49.5H162.3
			c-33.8,0-63.4,12.4-87.3,36.3c-23.9,23.9-35.4,53.6-35.4,87.4h317.2c15.7,0,28.8,5.8,39.5,16.5c10.7,10.7,16.5,23.9,16.5,39.6
			v138.5H123.6c-33.8,0-63.4,12.4-87.3,36.3C12.4,652.5,0,682.2,0,716L535.5,716.1L535.5,716.1z"/>
		<path class="st1" d="M670.4,716.1V442.4c0-46.2,16.5-85.7,49.4-118.7c32.1-33,71.7-49.5,118.6-49.5h205.2
			c33.8,0,63.4,12.4,87.3,36.3c23.9,23.9,35.4,53.6,35.4,87.4H849.2c-15.7,0-28.8,5.8-39.5,16.5c-10.7,10.7-16.5,23.9-16.5,39.6
			v138.5h289.2c33.8,0,63.4,12.4,87.3,36.3c23.9,23.9,36.3,53.6,36.3,87.4L670.4,716.1L670.4,716.1z"/>
		<path class="st2" d="M222.7,790.3h760.6c34.1,0,61.8,27.7,61.8,61.7H160.9C160.9,818,188.6,790.3,222.7,790.3L222.7,790.3z"/>
		<path class="st2" d="M61.7,881.5h1082.5c34.1,0,61.8,27.7,61.8,61.8H0C0,909.2,27.7,881.5,61.7,881.5z"/>
	</g>
</g>
</svg>
