<svg width="121" height="24" viewBox="0 0 121 24" fill="none" xmlns="http://www.w3.org/2000/svg">
<path d="M0.999687 0.398438H10.5774V2.26353H3.09904V7.55247C3.38737 7.49841 3.73876 7.45336 4.15323 7.3993C4.5767 7.34524 4.97315 7.32722 5.36058 7.32722C6.21654 7.32722 7.02745 7.40831 7.80233 7.57049C8.5772 7.73268 9.25295 8.00298 9.83861 8.39041C10.4243 8.77785 10.8928 9.30043 11.2352 9.96718C11.5776 10.6339 11.7488 11.4629 11.7488 12.472C11.7488 13.4811 11.5686 14.3461 11.2172 15.0759C10.8658 15.8057 10.3972 16.4004 9.80257 16.8689C9.21691 17.3284 8.53214 17.6708 7.74826 17.9051C6.96438 18.1303 6.14446 18.2475 5.2885 18.2475C5.00018 18.2475 4.67581 18.2475 4.31541 18.2385C3.955 18.2295 3.57658 18.2114 3.18013 18.1754C2.78369 18.1394 2.39625 18.1033 2.01783 18.0583C1.6394 18.0132 1.28801 17.9501 0.972656 17.8691V0.398438H0.999687ZM5.55881 16.4184C6.09941 16.4184 6.60398 16.3463 7.09954 16.1932C7.58608 16.04 8.00956 15.8238 8.36996 15.5264C8.73037 15.2291 9.01869 14.8597 9.22592 14.4092C9.43316 13.9587 9.54128 13.4271 9.54128 12.8234C9.54128 12.0485 9.41514 11.4268 9.17186 10.9493C8.92859 10.4718 8.60423 10.0933 8.19877 9.83203C7.79331 9.56173 7.3338 9.38153 6.8022 9.29142C6.27061 9.20132 5.72099 9.15627 5.15335 9.15627C5.00018 9.15627 4.82899 9.16528 4.62175 9.1833C4.42353 9.20132 4.2163 9.21935 4.01808 9.23737C3.81985 9.25539 3.63064 9.2734 3.45945 9.30043C3.28826 9.32746 3.16211 9.34548 3.08102 9.3635V16.2923C3.19816 16.3283 3.35133 16.3554 3.54955 16.3644C3.73876 16.3824 3.955 16.4004 4.18026 16.4184C4.40551 16.4364 4.63977 16.4455 4.87404 16.4455C5.11731 16.4184 5.34256 16.4184 5.55881 16.4184Z" fill="white"/>
<path d="M21.7877 10.5784L21.8598 9.01962H21.7877L20.7515 10.6324L15.0842 18.0387H13.9219V5.43359H15.9401V13.1192L15.8681 14.6059H15.9672L16.9493 13.0471L22.6166 5.4426H23.797V18.0297H21.7787L21.7877 10.5784Z" fill="white"/>
<path d="M38.0882 21.2283H36.7276L36.3492 18.0297H26.8796L26.5012 21.2283H25.1406V16.2638H26.6273C26.7624 16.0836 26.9336 15.7502 27.1589 15.2726C27.3751 14.7951 27.5914 14.1193 27.7986 13.2544C28.0058 12.3894 28.1951 11.3172 28.3572 10.0288C28.5194 8.74031 28.6095 7.20859 28.6456 5.43359H36.2501V16.2638H38.0882V21.2283ZM34.2318 16.2728V7.19957H30.4566C30.4206 7.90236 30.3665 8.67724 30.2764 9.50617C30.1953 10.3351 30.0782 11.173 29.934 12.002C29.7898 12.8309 29.6096 13.6148 29.3934 14.3536C29.1772 15.0924 28.9249 15.7322 28.6366 16.2728H34.2318Z" fill="white"/>
<path d="M41.1829 7.70472H47.9585C47.9044 7.02896 47.7693 6.41627 47.544 5.84863C47.3188 5.29001 47.0124 4.80346 46.625 4.39801C46.2376 3.99255 45.76 3.6772 45.1924 3.45195C44.6247 3.22669 43.976 3.10956 43.2552 3.10956C42.3452 3.10956 41.5613 3.20867 40.8855 3.39788C40.2098 3.58709 39.6692 3.80334 39.2457 4.0376L38.5159 1.11832C39.1015 0.811979 39.8404 0.559696 40.7324 0.352463C41.6244 0.145231 42.5074 0.0371094 43.3813 0.0371094C44.5437 0.0371094 45.6068 0.19929 46.598 0.514644C47.5801 0.829999 48.427 1.3616 49.1388 2.09141C49.8506 2.82123 50.4092 3.7673 50.8147 4.93862C51.2201 6.10993 51.4184 7.53353 51.4184 9.20941C51.4184 10.9574 51.1841 12.417 50.7156 13.5973C50.2471 14.7777 49.6163 15.7147 48.8235 16.4175C48.0306 17.1203 47.1296 17.6249 46.1024 17.9312C45.0752 18.2375 44.0121 18.3817 42.9038 18.3817C41.9487 18.3817 41.0748 18.3006 40.2999 18.1294C39.516 17.9582 38.8943 17.769 38.4258 17.5528L39.3358 14.5524C39.7232 14.7416 40.2458 14.9128 40.8946 15.066C41.5523 15.2282 42.3091 15.3093 43.1651 15.3093C43.8228 15.3093 44.4265 15.2192 44.9761 15.0299C45.5348 14.8497 46.0213 14.5524 46.4538 14.165C46.8863 13.7685 47.2287 13.273 47.499 12.6693C47.7693 12.0656 47.9315 11.3358 48.0035 10.4798H41.1829V7.70472Z" fill="white"/>
<path d="M57.2318 12.8219H56.3488V18.0387H53.0781V5.43359H56.3578V10.8036L57.1417 10.4522L60.088 5.4426H63.5929L60.5475 10.227L59.2591 11.182L60.6737 12.1642L64.0705 18.0387H60.3132L57.2318 12.8219Z" fill="white"/>
<path d="M73.2515 17.2547C72.7469 17.6241 72.1342 17.9034 71.4224 18.1017C70.7106 18.2909 69.9718 18.39 69.2149 18.39C68.2058 18.39 67.3588 18.2278 66.6561 17.9124C65.9623 17.5971 65.3946 17.1466 64.9531 16.5609C64.5207 15.9843 64.2053 15.2815 64.0071 14.4616C63.8179 13.6416 63.7188 12.7316 63.7188 11.7405C63.7188 9.60511 64.1963 7.96527 65.1514 6.81197C66.1064 5.65868 67.503 5.08203 69.3321 5.08203C70.2511 5.08203 70.9989 5.15411 71.5576 5.30728C72.1162 5.46046 72.6298 5.64967 73.0803 5.88393L72.2964 8.55093C71.9089 8.37072 71.5305 8.22656 71.1521 8.11844C70.7737 8.01933 70.3412 7.96527 69.8546 7.96527C68.9446 7.96527 68.2599 8.2626 67.7913 8.85727C67.3228 9.45194 67.0885 10.407 67.0885 11.7135C67.0885 12.2541 67.1516 12.7496 67.2687 13.2001C67.3859 13.6507 67.5661 14.0471 67.8003 14.3805C68.0346 14.7138 68.3409 14.9842 68.7194 15.1734C69.0978 15.3626 69.5393 15.4617 70.0439 15.4617C70.6025 15.4617 71.071 15.3896 71.4584 15.2454C71.8459 15.1013 72.1883 14.9301 72.4946 14.7319L73.2515 17.2547Z" fill="white"/>
<path d="M81.7778 8.33485H77.7953V18.0297H74.5156V5.43359H85.0484V18.0297H81.7688V8.33485H81.7778Z" fill="white"/>
<path d="M97.2641 16.9496C96.7596 17.355 96.0748 17.6884 95.2098 17.9677C94.3448 18.247 93.4258 18.3822 92.4527 18.3822C90.4164 18.3822 88.9298 17.7875 87.9927 16.6072C87.0557 15.4268 86.5781 13.796 86.5781 11.7327C86.5781 9.5162 87.1097 7.84933 88.1639 6.74109C89.2181 5.63285 90.7048 5.07422 92.6239 5.07422C93.2636 5.07422 93.8853 5.15531 94.489 5.3265C95.0927 5.49769 95.6333 5.768 96.1018 6.15543C96.5703 6.54287 96.9488 7.06545 97.2371 7.71418C97.5254 8.37192 97.6696 9.18283 97.6696 10.1559C97.6696 10.5073 97.6516 10.8857 97.6065 11.2912C97.5615 11.6967 97.4984 12.1111 97.4173 12.5526H89.8848C89.9389 13.6068 90.2092 14.4087 90.7048 14.9493C91.2003 15.4899 92.0022 15.7512 93.1015 15.7512C93.7862 15.7512 94.3989 15.6431 94.9485 15.4358C95.4891 15.2286 95.9036 15.0124 96.1919 14.7961L97.2641 16.9496ZM92.5879 7.70517C91.7319 7.70517 91.1012 7.95746 90.6957 8.47103C90.2903 8.98461 90.038 9.66938 89.9569 10.5253H94.6151C94.6782 9.61532 94.5431 8.92154 94.2007 8.43499C93.8673 7.94844 93.3267 7.70517 92.5879 7.70517Z" fill="white"/>
<path d="M99.2551 5.43343H101.652L102.03 6.94713H102.129C102.562 6.30741 103.084 5.83888 103.679 5.53254C104.274 5.22619 105.004 5.08203 105.86 5.08203C107.436 5.08203 108.626 5.57759 109.409 6.57771C110.202 7.57784 110.59 9.18164 110.59 11.3981C110.59 12.4703 110.464 13.4434 110.211 14.3084C109.959 15.1734 109.59 15.9122 109.094 16.5159C108.599 17.1195 107.995 17.5791 107.283 17.9034C106.571 18.2188 105.751 18.381 104.823 18.381C104.301 18.381 103.877 18.3449 103.535 18.2638C103.202 18.1917 102.859 18.0656 102.526 17.8944V23.0572H99.2461V5.43343H99.2551ZM104.877 7.85715C104.238 7.85715 103.742 8.01933 103.382 8.33469C103.021 8.65004 102.742 9.13658 102.535 9.76729V15.0112C102.769 15.2004 103.03 15.3446 103.301 15.4527C103.58 15.5608 103.94 15.6149 104.4 15.6149C105.337 15.6149 106.049 15.2815 106.517 14.6237C106.986 13.957 107.22 12.8668 107.22 11.3351C107.22 10.2268 107.031 9.37085 106.661 8.76717C106.292 8.15448 105.697 7.85715 104.877 7.85715Z" fill="white"/>
<path d="M120.994 8.33485H117.444V18.0297H114.066V8.33485H110.516V5.43359H120.994V8.33485Z" fill="white"/>
</svg>
