<svg width="24" height="24" viewBox="0 0 24 24" fill="none" xmlns="http://www.w3.org/2000/svg">
<path d="M11.2952 3.06628C11.587 2.12935 12.913 2.12935 13.2048 3.06628L14.6131 7.5891C14.7433 8.00707 15.1301 8.2918 15.5679 8.2918H20.2129C21.1713 8.2918 21.5807 9.50967 20.817 10.0887L16.9869 12.9924C16.6513 13.2468 16.5111 13.6844 16.6363 14.0866L18.0818 18.7288C18.371 19.6577 17.2981 20.4107 16.5229 19.823L12.8541 17.0416C12.4969 16.7708 12.0031 16.7708 11.6459 17.0416L7.97712 19.823C7.20188 20.4107 6.12897 19.6577 6.4182 18.7288L7.86371 14.0866C7.98894 13.6844 7.84873 13.2468 7.51306 12.9924L3.68299 10.0887C2.91927 9.50968 3.32874 8.2918 4.28713 8.2918H8.93211C9.36987 8.2918 9.75675 8.00706 9.8869 7.5891L11.2952 3.06628Z" stroke="#333333" stroke-width="1.5"/>
</svg>
