<svg width="35" height="34" viewBox="0 0 35 34" fill="none" xmlns="http://www.w3.org/2000/svg">
<path d="M24.3611 24.2955H11.1389V13.7768H24.3611M21.5278 7.08301V8.99551H13.9722V7.08301H12.0833V8.99551H11.1389C10.0906 8.99551 9.25 9.84657 9.25 10.908V24.2955C9.25 24.8027 9.44901 25.2892 9.80324 25.6478C10.1575 26.0065 10.6379 26.208 11.1389 26.208H24.3611C24.8621 26.208 25.3425 26.0065 25.6968 25.6478C26.051 25.2892 26.25 24.8027 26.25 24.2955V10.908C26.25 10.4008 26.051 9.91433 25.6968 9.55567C25.3425 9.197 24.8621 8.99551 24.3611 8.99551H23.4167V7.08301M22.4722 17.6018H17.75V22.383H22.4722V17.6018Z" fill="#999999"/>
</svg>
