<svg width="45" height="43" viewBox="0 0 45 43" fill="none" xmlns="http://www.w3.org/2000/svg">
<mask id="path-1-inside-1_1124_4012" fill="white">
<path d="M0.75 0H23.25C35.1241 0 44.75 9.62588 44.75 21.5V21.5C44.75 33.3741 35.1241 43 23.25 43H0.75V0Z"/>
</mask>
<path d="M0.75 0H23.25C35.1241 0 44.75 9.62588 44.75 21.5V21.5C44.75 33.3741 35.1241 43 23.25 43H0.75V0Z" fill="white"/>
<path d="M0.75 0V-1H-0.25V0H0.75ZM0.75 43H-0.25V44H0.75V43ZM0.75 0V1H23.25V0V-1H0.75V0ZM23.25 43V42H0.75V43V44H23.25V43ZM0.75 43H1.75V0H0.75H-0.25V43H0.75ZM44.75 21.5H43.75C43.75 32.8218 34.5718 42 23.25 42V43V44C35.6764 44 45.75 33.9264 45.75 21.5H44.75ZM23.25 0V1C34.5718 1 43.75 10.1782 43.75 21.5H44.75H45.75C45.75 9.07359 35.6764 -1 23.25 -1V0Z" fill="#CCCCCC" mask="url(#path-1-inside-1_1124_4012)"/>
<path d="M16.75 18.5L22.75 24.5L28.75 18.5" stroke="#4C4C4C" stroke-linecap="round"/>
</svg>
