<svg width="44" height="35" viewBox="0 0 44 35" fill="none" xmlns="http://www.w3.org/2000/svg">
<mask id="path-1-inside-1_1124_4999" fill="white">
<path d="M0 0H26.5C36.165 0 44 7.83502 44 17.5V17.5C44 27.165 36.165 35 26.5 35H0V0Z"/>
</mask>
<path d="M0 0H26.5C36.165 0 44 7.83502 44 17.5V17.5C44 27.165 36.165 35 26.5 35H0V0Z" fill="white"/>
<path d="M0 0V-1H-1V0H0ZM0 35H-1V36H0V35ZM0 0V1H26.5V0V-1H0V0ZM26.5 35V34H0V35V36H26.5V35ZM0 35H1V0H0H-1V35H0ZM44 17.5H43C43 26.6127 35.6127 34 26.5 34V35V36C36.7173 36 45 27.7173 45 17.5H44ZM26.5 0V1C35.6127 1 43 8.3873 43 17.5H44H45C45 7.28273 36.7173 -1 26.5 -1V0Z" fill="#CCCCCC" mask="url(#path-1-inside-1_1124_4999)"/>
<path d="M16 14.5L22 20.5L28 14.5" stroke="#4C4C4C" stroke-linecap="round"/>
</svg>
