<svg width="44" height="43" viewBox="0 0 44 43" fill="none" xmlns="http://www.w3.org/2000/svg">
<mask id="path-1-inside-1_1124_3050" fill="white">
<path d="M0 0H22.5C34.3741 0 44 9.62588 44 21.5V21.5C44 33.3741 34.3741 43 22.5 43H0V0Z"/>
</mask>
<path d="M0 0H22.5C34.3741 0 44 9.62588 44 21.5V21.5C44 33.3741 34.3741 43 22.5 43H0V0Z" fill="white"/>
<path d="M0 0V-1H-1V0H0ZM0 43H-1V44H0V43ZM0 0V1H22.5V0V-1H0V0ZM22.5 43V42H0V43V44H22.5V43ZM0 43H1V0H0H-1V43H0ZM44 21.5H43C43 32.8218 33.8218 42 22.5 42V43V44C34.9264 44 45 33.9264 45 21.5H44ZM22.5 0V1C33.8218 1 43 10.1782 43 21.5H44H45C45 9.07359 34.9264 -1 22.5 -1V0Z" fill="#CCCCCC" mask="url(#path-1-inside-1_1124_3050)"/>
<path d="M16 18.5L22 24.5L28 18.5" stroke="#4C4C4C" stroke-linecap="round"/>
</svg>
