<svg width="45" height="43" viewBox="0 0 45 43" fill="none" xmlns="http://www.w3.org/2000/svg">
<mask id="path-1-inside-1_1124_4880" fill="white">
<path d="M0.25 0H22.75C34.6241 0 44.25 9.62588 44.25 21.5V21.5C44.25 33.3741 34.6241 43 22.75 43H0.25V0Z"/>
</mask>
<path d="M0.25 0H22.75C34.6241 0 44.25 9.62588 44.25 21.5V21.5C44.25 33.3741 34.6241 43 22.75 43H0.25V0Z" fill="white"/>
<path d="M0.25 0V-1H-0.75V0H0.25ZM0.25 43H-0.75V44H0.25V43ZM0.25 0V1H22.75V0V-1H0.25V0ZM22.75 43V42H0.25V43V44H22.75V43ZM0.25 43H1.25V0H0.25H-0.75V43H0.25ZM44.25 21.5H43.25C43.25 32.8218 34.0718 42 22.75 42V43V44C35.1764 44 45.25 33.9264 45.25 21.5H44.25ZM22.75 0V1C34.0718 1 43.25 10.1782 43.25 21.5H44.25H45.25C45.25 9.07359 35.1764 -1 22.75 -1V0Z" fill="#CCCCCC" mask="url(#path-1-inside-1_1124_4880)"/>
<path d="M16.25 18.5L22.25 24.5L28.25 18.5" stroke="#4C4C4C" stroke-linecap="round"/>
</svg>
