<svg width="40" height="32" viewBox="0 0 40 32" fill="none" xmlns="http://www.w3.org/2000/svg">
<mask id="mask0_756_5793" style="mask-type:luminance" maskUnits="userSpaceOnUse" x="0" y="0" width="40" height="32">
<path d="M39.9921 0.451172H0.00976562V31.6547H39.9921V0.451172Z" fill="white"/>
</mask>
<g mask="url(#mask0_756_5793)">
<path d="M13.6953 4.52234C14.8158 4.52234 15.7706 4.11125 16.563 3.31889C17.3553 2.52654 17.7664 1.57174 17.7664 0.451172H4.10746C2.98689 0.451172 2.00225 0.835745 1.21321 1.6281C0.420861 2.41714 0.00976562 3.40178 0.00976562 4.52234H13.6953Z" fill="#FF6700"/>
<path d="M26.3061 4.52234C25.1856 4.52234 24.2308 4.11125 23.4384 3.31889C22.6461 2.52986 22.2383 1.57174 22.2383 0.451172H35.8939C37.0145 0.451172 37.9958 0.83243 38.7882 1.62478C39.5805 2.41714 39.9916 3.40178 39.9916 4.52234H26.3061Z" fill="#FF6700"/>
<path d="M17.7631 24.1258V15.0519C17.7631 13.5202 17.2161 12.2107 16.1254 11.1167C15.0612 10.0226 13.7483 9.47559 12.1934 9.47559H5.39048C4.26991 9.47559 3.28858 9.88668 2.49623 10.679C1.70388 11.4714 1.32262 12.456 1.32262 13.5766H11.8387C12.3592 13.5766 12.7935 13.7689 13.1482 14.1236C13.503 14.4784 13.6953 14.916 13.6953 15.4365V20.0281H4.10746C2.98689 20.0281 2.00557 20.4392 1.21321 21.2316C0.420861 22.0173 0.00976562 23.002 0.00976562 24.1225L17.7631 24.1258Z" fill="#FF6700"/>
<path d="M22.2363 24.1258V15.0519C22.2363 13.5202 22.7833 12.2107 23.8741 11.1167C24.9383 10.0226 26.2511 9.47559 27.806 9.47559H34.609C35.7295 9.47559 36.7109 9.88668 37.5032 10.679C38.2956 11.4714 38.6768 12.456 38.6768 13.5766H28.1641C27.6436 13.5766 27.2093 13.7689 26.8545 14.1236C26.4998 14.4784 26.3075 14.916 26.3075 15.4365V20.0281H35.8953C37.0159 20.0281 37.9972 20.4392 38.7896 21.2316C39.5819 22.0239 39.993 23.0086 39.993 24.1292L22.2363 24.1258Z" fill="#FF6700"/>
<path d="M7.3926 26.5859H32.6087C33.7392 26.5859 34.6575 27.5043 34.6575 28.6315H5.34375C5.34375 27.5043 6.26208 26.5859 7.3926 26.5859Z" fill="#333333"/>
<path d="M2.0553 29.6094H37.9433C39.0738 29.6094 39.9921 30.5277 39.9921 31.6582H0.00976562C0.00976562 30.5277 0.9281 29.6094 2.0553 29.6094Z" fill="#333333"/>
</g>
</svg>
