<svg width="84" height="66" viewBox="0 0 84 66" fill="none" xmlns="http://www.w3.org/2000/svg">
<mask id="mask0_743_4361" style="mask-type:luminance" maskUnits="userSpaceOnUse" x="0" y="0" width="84" height="66">
<path d="M83.591 0.515625H0.472656V65.3885H83.591V0.515625Z" fill="white"/>
</mask>
<g mask="url(#mask0_743_4361)">
<path d="M28.9176 8.98589C31.2422 8.98589 33.2334 8.12993 34.8823 6.49009C36.5311 4.84124 37.3781 2.85901 37.3781 0.525391H8.98722C6.6536 0.525391 4.61731 1.31828 2.96846 2.96713C1.31961 4.60697 0.472656 6.66128 0.472656 8.98589H28.9176Z" fill="#FF6700"/>
<path d="M55.1363 8.98589C52.8027 8.98589 50.8204 8.12993 49.1716 6.49009C47.5227 4.84124 46.6758 2.85901 46.6758 0.525391H75.0667C77.4003 0.525391 79.4366 1.31828 81.0854 2.96713C82.7343 4.61598 83.5812 6.66128 83.5812 8.98589H55.1363Z" fill="#FF6700"/>
<path d="M37.3781 49.7303V30.8722C37.3781 27.6916 36.2428 24.9615 33.9723 22.691C31.7558 20.4204 29.0347 19.2852 25.8001 19.2852H11.6632C9.3296 19.2852 7.29331 20.1411 5.64446 21.781C3.99561 23.4298 3.20272 25.4751 3.20272 27.7997H25.0613C26.1425 27.7997 27.0525 28.1962 27.7823 28.935C28.5211 29.6738 28.9176 30.5838 28.9176 31.6651V41.2068H8.98722C6.6536 41.2068 4.61731 42.0627 2.96846 43.7026C1.31961 45.3514 0.472656 47.3967 0.472656 49.7213L37.3781 49.7303Z" fill="#FF6700"/>
<path d="M46.6758 49.7303V30.8722C46.6758 27.6916 47.8111 24.9615 50.0816 22.691C52.2981 20.4204 55.0191 19.2852 58.2538 19.2852H72.3907C74.7243 19.2852 76.7606 20.1411 78.4094 21.781C80.0583 23.4298 80.8512 25.4751 80.8512 27.7997H59.0016C57.9204 27.7997 57.0104 28.1962 56.2806 28.935C55.5417 29.6738 55.1453 30.5838 55.1453 31.6651V41.2068H75.0757C77.4093 41.2068 79.4456 42.0627 81.0944 43.7026C82.7433 45.3514 83.5902 47.3967 83.5902 49.7213L46.6758 49.7303Z" fill="#FF6700"/>
<path d="M15.8172 54.8477H68.2381C70.5897 54.8477 72.4909 56.7578 72.4909 59.1004H11.5645C11.5645 56.7578 13.4746 54.8477 15.8172 54.8477Z" fill="white"/>
<path d="M4.72543 61.127H79.3292C81.6808 61.127 83.582 63.0371 83.582 65.3797H0.472656C0.472656 63.0371 2.3828 61.127 4.72543 61.127Z" fill="white"/>
</g>
</svg>
