<svg height="12" viewBox="0 0 0 12" fill="none" xmlns="http://www.w3.org/2000/svg">
<path d="M0.5 0C0.5 -0.276142 0.276142 -0.5 0 -0.5C-0.276142 -0.5 -0.5 -0.276142 -0.5 0L0.5 0ZM-0.353553 12.3536C-0.158291 12.5488 0.158291 12.5488 0.353553 12.3536L3.53553 9.17157C3.7308 8.97631 3.7308 8.65973 3.53553 8.46447C3.34027 8.2692 3.02369 8.2692 2.82843 8.46447L0 11.2929L-2.82843 8.46447C-3.02369 8.2692 -3.34027 8.2692 -3.53553 8.46447C-3.7308 8.65973 -3.7308 8.97631 -3.53553 9.17157L-0.353553 12.3536ZM0 0L-0.5 0L-0.5 12H0H0.5L0.5 0L0 0Z" fill="white"/>
</svg>
